<svg width="396" height="408" viewBox="0 0 396 408" fill="none" xmlns="http://www.w3.org/2000/svg">
<mask id="mask0_128_810" style="mask-type:alpha" maskUnits="userSpaceOnUse" x="0" y="0" width="396" height="408">
<rect x="0.5" y="0.5" width="395" height="407" rx="16.5" fill="#6A0F7B" stroke="white"/>
</mask>
<g mask="url(#mask0_128_810)">
<rect x="0.5" y="0.5" width="395" height="407" rx="16.5" fill="#6A0F7B" stroke="white"/>
<path d="M34.5932 64.432C32.3972 64.432 30.4172 64.288 28.5812 63.964C26.7452 63.64 25.1972 63.244 23.9732 62.74C22.7132 62.2 21.6332 61.588 20.6612 60.868C19.6892 60.112 18.9332 59.392 18.3932 58.636C17.8532 57.88 17.4212 57.088 17.0612 56.224C16.7012 55.36 16.4492 54.568 16.3412 53.884C16.2332 53.164 16.1972 52.48 16.1972 51.796V50.788C16.1972 49.708 16.3052 48.664 16.5212 47.692C16.7372 46.72 17.2412 45.64 17.9972 44.452C18.7892 43.264 19.7972 42.22 21.0572 41.356C22.3172 40.492 24.1172 39.772 26.4572 39.196C28.7612 38.584 31.4972 38.296 34.5932 38.296H36.1052C39.1652 38.296 41.8292 38.548 44.1692 39.052C46.4732 39.592 48.2732 40.204 49.5332 40.924C50.7932 41.68 51.8372 42.508 52.6292 43.48C53.4572 44.452 53.9612 45.316 54.2132 46.072C54.4292 46.828 54.5372 47.548 54.5372 48.232V48.628H45.3932C45.3212 48.34 45.2492 48.124 45.1412 47.908C45.0332 47.692 44.7452 47.332 44.2772 46.864C43.8092 46.396 43.2692 46 42.6212 45.676C41.9732 45.352 41.0012 45.064 39.7412 44.812C38.4452 44.56 37.0052 44.416 35.3492 44.416C33.3692 44.416 31.6772 44.596 30.3092 44.992C28.9052 45.352 27.8612 45.856 27.1412 46.504C26.4572 47.188 25.9532 47.872 25.6652 48.592C25.3412 49.312 25.1972 50.104 25.1972 50.968V51.364C25.1972 52.192 25.3772 52.984 25.7012 53.74C26.0252 54.496 26.5652 55.216 27.2852 55.936C28.0052 56.656 29.0492 57.232 30.4532 57.664C31.8572 58.096 33.5132 58.312 35.4212 58.312C41.0732 58.312 44.3852 56.836 45.3932 53.92C45.4292 53.884 45.4292 53.848 45.4292 53.812H54.5732V54.172C54.5732 54.928 54.4652 55.72 54.2132 56.512C53.9252 57.304 53.3852 58.168 52.5932 59.176C51.7652 60.148 50.7212 61.012 49.4252 61.768C48.1652 62.488 46.3652 63.136 44.0612 63.676C41.7572 64.18 39.0932 64.432 36.1052 64.432H34.5932ZM75.4515 38.764H105.908C108.248 38.764 110.336 38.944 112.208 39.232C114.08 39.52 115.664 39.916 116.96 40.384C118.22 40.852 119.336 41.464 120.272 42.148C121.244 42.868 122 43.552 122.504 44.236C123.044 44.956 123.476 45.712 123.836 46.54C124.16 47.368 124.376 48.124 124.484 48.772C124.556 49.42 124.592 50.104 124.592 50.824V51.832C124.592 52.516 124.556 53.2 124.484 53.848C124.376 54.496 124.16 55.252 123.836 56.116C123.476 56.944 123.044 57.736 122.54 58.42C122 59.14 121.28 59.86 120.308 60.544C119.336 61.264 118.22 61.876 116.96 62.38C115.7 62.848 114.116 63.244 112.244 63.568C110.336 63.856 108.248 64 105.908 64H75.4515C73.1115 64 71.0235 63.856 69.1155 63.568C67.2075 63.244 65.6235 62.848 64.3635 62.38C63.1035 61.876 61.9875 61.264 61.0155 60.544C60.0435 59.86 59.2875 59.14 58.7835 58.42C58.2435 57.736 57.8115 56.944 57.4875 56.116C57.1635 55.252 56.9475 54.496 56.8395 53.848C56.7675 53.2 56.7315 52.516 56.7315 51.832V50.824C56.7315 50.104 56.7675 49.42 56.8395 48.808C56.9475 48.16 57.1635 47.404 57.4875 46.576C57.8115 45.712 58.2435 44.956 58.7835 44.236C59.2875 43.552 60.0435 42.868 61.0155 42.148C61.9515 41.464 63.0675 40.852 64.3275 40.384C65.6235 39.916 67.2075 39.52 69.1155 39.232C71.0235 38.944 73.1115 38.764 75.4515 38.764ZM115.88 51.076C115.88 50.464 115.808 49.888 115.628 49.348C115.484 48.772 115.16 48.232 114.692 47.62C114.188 47.044 113.576 46.54 112.82 46.108C112.064 45.712 111.02 45.352 109.724 45.1C108.644 44.848 107.42 44.74 106.052 44.704C105.728 44.668 75.7755 44.668 75.5595 44.668C68.8275 44.812 65.4435 46.936 65.4435 51.076V51.472C65.4435 52.264 65.5875 52.984 65.8755 53.704C66.1635 54.388 66.6675 55.108 67.3875 55.792C68.1075 56.476 69.2235 57.052 70.7355 57.448C72.1035 57.844 73.7595 58.06 75.7035 58.096C75.8475 58.096 105.656 58.096 105.908 58.06C107.708 58.024 109.256 57.844 110.552 57.484C112.028 57.088 113.144 56.512 113.9 55.828C114.62 55.144 115.16 54.46 115.448 53.776C115.736 53.056 115.88 52.3 115.88 51.544V51.076ZM127.844 64.036V38.836H140.048L149.516 54.532L159.056 38.836H170.828V64.036H162.332V46.576L151.532 64.036H146.924L136.088 46.576V64.036H127.844ZM175.199 64.036V38.836H187.403L196.871 54.532L206.411 38.836H218.183V64.036H209.687V46.576L198.887 64.036H194.279L183.443 46.576V64.036H175.199ZM240.159 64.072H238.827C236.811 64.072 234.975 63.928 233.319 63.604C231.663 63.28 230.259 62.848 229.107 62.308C227.955 61.768 226.947 61.12 226.083 60.364C225.219 59.608 224.499 58.852 223.995 58.06C223.491 57.268 223.059 56.44 222.735 55.54C222.411 54.676 222.195 53.848 222.087 53.128C221.979 52.372 221.943 51.652 221.943 50.896V38.836H230.439V50.428C230.439 51.328 230.583 52.156 230.835 52.912C231.087 53.704 231.519 54.46 232.131 55.216C232.743 55.936 233.679 56.548 234.903 56.98C236.163 57.412 237.675 57.628 239.403 57.628C241.131 57.628 242.607 57.412 243.831 56.98C245.055 56.548 245.991 55.936 246.603 55.216C247.215 54.46 247.683 53.704 247.935 52.912C248.187 52.156 248.295 51.328 248.295 50.428V38.836H256.791V50.896C256.791 51.94 256.683 53.02 256.431 54.064C256.143 55.144 255.639 56.296 254.919 57.556C254.163 58.78 253.191 59.86 252.039 60.796C250.851 61.732 249.231 62.524 247.179 63.136C245.127 63.748 242.787 64.072 240.159 64.072ZM260.488 38.836H270.064L287.596 54.676V38.836H296.092V64.036H287.596L268.948 47.332V64.036H260.488V38.836ZM308.993 38.872V64H300.425V38.872H308.993ZM323.336 64.036V44.812H311.528V38.836H343.856V44.812H332.012V64.036H323.336ZM358.47 63.712V54.064L343.998 38.836H354.51L362.934 47.98L371.502 38.836H381.078L366.966 54.064V63.712H358.47Z" fill="white"/>
<path d="M27.6307 100V74.764H51.1747C54.8467 74.764 57.4387 75.268 58.9507 76.348C60.4987 77.428 61.2547 78.832 61.2547 80.524V80.992C61.2547 81.748 61.0747 82.468 60.7867 83.08C60.4627 83.692 60.0667 84.196 59.5267 84.556C59.0227 84.952 58.5547 85.24 58.1227 85.42C57.7267 85.636 57.2947 85.816 56.8627 85.924C57.4747 86.032 58.0507 86.248 58.6267 86.5C59.2027 86.752 59.8147 87.112 60.4987 87.544C61.1827 88.012 61.7587 88.66 62.1547 89.488C62.5867 90.28 62.8027 91.216 62.8027 92.26V92.728C62.8027 97.588 58.9867 100 51.3907 100H27.6307ZM36.2347 80.092V84.196H49.6987C51.7147 84.196 52.6867 83.512 52.6867 82.144V82.072C52.6867 80.74 51.7147 80.092 49.6987 80.092H36.2347ZM50.4547 89.56H36.2347V94.492H50.4547C51.7147 94.492 52.6147 94.24 53.1187 93.736C53.5867 93.268 53.8387 92.692 53.8387 92.008V91.9C53.8387 90.316 52.7227 89.56 50.4547 89.56ZM74.6948 91.108V100.036H66.1268V74.836H88.2668C96.2228 74.836 100.183 77.032 100.183 81.388V81.784C100.183 84.448 98.4908 86.284 95.0708 87.292C96.6188 87.688 97.8788 88.372 98.8508 89.344C99.8228 90.316 100.291 91.54 100.291 93.088V96.796C100.291 98.308 100.291 100.036 100.291 100.036H91.6508C91.6508 100.036 91.6508 99.172 91.6508 98.452V95.536C91.6508 93.952 91.2188 92.836 90.3548 92.152C89.4908 91.432 88.0148 91.108 85.9268 91.108H74.6948ZM74.6948 80.56V85.492H87.7268C88.9148 85.492 89.7788 85.276 90.3548 84.844C90.9308 84.376 91.2188 83.764 91.2188 83.044V83.008C91.2188 82.288 90.9308 81.676 90.3548 81.244C89.7788 80.776 88.9148 80.56 87.7268 80.56H74.6948ZM138.115 100L135.559 95.392H113.131L110.647 100H101.899L115.795 74.764H132.679L147.403 100H138.115ZM127.243 80.56H121.123L116.191 89.668H132.355L127.243 80.56ZM158.049 74.872V100H149.481V74.872H158.049ZM162.385 74.836H171.961L189.493 90.676V74.836H197.989V100.036H189.493L170.845 83.332V100.036H162.385V74.836ZM220.717 99.712H211.357L200.233 74.836H209.485L216.469 91.936L221.401 78.976H232.345L237.745 91.468L244.585 74.836H252.937L241.957 99.712H233.425L227.629 84.952H226.189L220.717 99.712ZM285.419 100L282.863 95.392H260.435L257.951 100H249.203L263.099 74.764H279.983L294.707 100H285.419ZM274.547 80.56H268.427L263.495 89.668H279.659L274.547 80.56ZM310.817 100.468C308.081 100.468 305.669 100.252 303.653 99.82C301.601 99.388 300.017 98.884 298.901 98.272C297.821 97.66 296.921 96.904 296.273 96.04C295.625 95.176 295.193 94.384 295.013 93.7C294.833 93.016 294.761 92.26 294.761 91.468V91.108H303.725C303.905 93.772 305.849 95.104 311.105 95.104H313.085C314.813 95.104 315.533 94.996 316.685 94.852C317.801 94.708 318.629 94.528 319.133 94.24C319.673 93.952 319.997 93.7 320.177 93.412C320.357 93.124 320.429 92.8 320.429 92.404C320.429 91.864 320.285 91.432 319.997 91.108C319.709 90.82 318.989 90.532 317.909 90.28C316.829 90.064 315.281 89.92 313.229 89.884L310.529 89.812L308.513 89.776C299.585 89.56 295.121 87.076 295.121 82.396V82.072C295.121 81.28 295.229 80.524 295.445 79.84C295.661 79.156 296.093 78.472 296.777 77.752C297.425 77.068 298.289 76.492 299.369 76.024C300.449 75.556 301.889 75.16 303.725 74.872C305.525 74.548 307.649 74.404 310.061 74.404H312.617C315.101 74.404 317.333 74.548 319.241 74.872C321.185 75.196 322.697 75.592 323.849 76.096C325.001 76.6 325.937 77.212 326.657 77.932C327.377 78.652 327.881 79.372 328.133 80.056C328.421 80.776 328.565 81.532 328.565 82.36V82.684H319.637C319.565 82.432 319.493 82.18 319.421 82C319.349 81.82 319.133 81.568 318.809 81.244C318.485 80.92 318.089 80.668 317.549 80.452C317.045 80.272 316.253 80.092 315.245 79.912C314.237 79.768 313.445 79.696 312.077 79.696H310.817C308.729 79.696 307.433 79.804 306.317 80.02C305.237 80.272 304.553 80.524 304.337 80.776C304.085 81.028 303.977 81.388 303.977 81.856C303.977 82.288 304.085 82.612 304.373 82.9C304.625 83.152 305.237 83.404 306.209 83.656C307.181 83.872 308.549 83.98 310.313 84.016L312.329 84.052L314.921 84.088C320.069 84.16 323.741 84.808 326.009 85.996C328.313 87.184 329.429 89.02 329.429 91.576V92.044C329.429 92.98 329.321 93.808 329.105 94.528C328.889 95.248 328.421 96.004 327.737 96.796C327.053 97.552 326.153 98.2 325.001 98.704C323.849 99.244 322.301 99.64 320.321 99.964C318.341 100.324 316.001 100.468 313.337 100.468H310.817ZM332.786 100V74.872H341.354V84.016H359.75V74.872H368.354V100H359.75V90.1H341.354V100H332.786Z" fill="#03E1FF"/>
<path d="M55.5123 155.9H59.9973L53.6493 172H47.9223L43.1843 159.879L38.4233 172H32.7193L26.3713 155.9H30.8333L35.5943 168.55L40.6313 155.9H45.7143L50.7743 168.573L55.5123 155.9ZM67.7118 169.033C70.4258 169.033 72.0818 168.527 73.0708 167.147H76.9808C76.0838 170.597 72.7258 172.23 67.7118 172.23C62.5598 172.23 58.5578 170.206 58.5578 165.238C58.5578 160.247 62.4448 158.223 67.9418 158.223C73.0938 158.223 77.2108 159.994 77.2108 166.158H62.5828C63.0198 168.32 65.0898 169.033 67.7118 169.033ZM67.9188 161.213C65.2278 161.213 63.3418 161.742 62.7208 163.651H73.0018C72.3348 161.742 70.4028 161.213 67.9188 161.213ZM100.164 158.223C104.534 158.223 108.237 160.063 108.237 165.238C108.237 170.413 104.534 172.23 100.164 172.23C97.2435 172.23 94.8975 171.448 93.4255 169.907V177.75H89.4695V158.453H93.4255V160.546C94.8975 159.028 97.2435 158.223 100.164 158.223ZM98.8535 168.941C102.372 168.941 104.304 167.906 104.304 165.238C104.304 162.547 102.372 161.512 98.8535 161.512C95.3345 161.512 93.4255 162.547 93.4255 165.238C93.4255 167.906 95.3345 168.941 98.8535 168.941ZM109.842 153.6H113.775V172H109.842V153.6ZM124.702 158.223C130.36 158.223 133.58 160.04 133.626 165.169V172H129.67V170.321C127.278 171.494 124.633 172.23 121.436 172.23C117.641 172.23 115.272 171.011 115.272 167.952C115.272 164.433 119.136 163.329 123.437 163.329C125.76 163.329 127.899 163.697 129.67 164.295C129.67 161.719 126.358 161.512 124.518 161.512C122.747 161.512 120.585 161.673 117.802 162.501L116.399 159.626C119.159 158.729 121.873 158.223 124.702 158.223ZM129.67 167.791V166.733C128.29 166.296 126.427 165.905 123.92 165.905C120.976 165.905 119.205 166.411 119.205 167.791C119.205 169.217 120.516 169.332 122.563 169.332C124.702 169.332 127.646 168.665 129.67 167.791ZM147.202 158.223C150.813 158.223 154.194 159.511 154.24 164.502L154.194 172H150.238V165.997C150.238 163.122 149.272 161.627 146.029 161.627C143.384 161.627 140.532 162.984 139.313 164.41V172H135.38V158.453H139.313V160.822C141.245 159.304 143.913 158.223 147.202 158.223ZM180.421 161.742H174.004V165.652C174.004 168.274 174.51 168.941 176.902 168.941C178.144 168.941 178.834 168.941 180.421 168.711V171.885C179.11 172.115 177.615 172.23 175.798 172.23C172.302 172.23 170.048 170.919 170.048 167.929V161.742H166.483V158.453H170.048V155.647L174.004 154.52V158.453H180.421V161.742ZM190.781 172.23C185.169 172.23 181.397 170.206 181.397 165.238C181.397 160.247 185.169 158.223 190.781 158.223C196.37 158.223 200.165 160.247 200.165 165.238C200.165 170.206 196.37 172.23 190.781 172.23ZM190.781 168.941C194.415 168.941 196.209 168.044 196.209 165.238C196.209 162.409 194.415 161.512 190.781 161.512C187.124 161.512 185.33 162.409 185.33 165.238C185.33 168.044 187.124 168.941 190.781 168.941ZM235.927 158.223C238.963 158.223 241.723 159.511 241.769 164.41L241.723 172H237.79V165.997C237.79 163.122 237.307 161.627 234.501 161.627C232.431 161.627 230.407 162.616 229.211 163.697C229.234 163.927 229.234 164.157 229.234 164.41L229.188 172H225.255V165.997C225.255 163.122 224.772 161.627 221.966 161.627C219.689 161.627 217.481 162.8 216.354 164.019V172H212.421V158.453H216.354V160.661C217.826 159.488 220.034 158.223 223.392 158.223C225.439 158.223 227.371 158.821 228.406 160.707C230.154 159.396 232.569 158.223 235.927 158.223ZM243.619 153.6H247.552V157.027H243.619V153.6ZM243.619 158.453H247.552V172H243.619V158.453ZM261.348 158.223C264.959 158.223 268.34 159.511 268.386 164.502L268.34 172H264.384V165.997C264.384 163.122 263.418 161.627 260.175 161.627C257.53 161.627 254.678 162.984 253.459 164.41V172H249.526V158.453H253.459V160.822C255.391 159.304 258.059 158.223 261.348 158.223ZM284.593 153.6H288.526V172H284.593V169.884C283.121 171.425 280.752 172.23 277.831 172.23C273.484 172.23 269.758 170.413 269.758 165.238C269.758 160.063 273.484 158.223 277.831 158.223C280.752 158.223 283.121 159.028 284.593 160.569V153.6ZM279.142 168.941C282.661 168.941 284.593 167.906 284.593 165.238C284.593 162.547 282.661 161.512 279.142 161.512C275.623 161.512 273.714 162.547 273.714 165.238C273.714 167.906 275.623 168.941 279.142 168.941ZM301.055 158.223C305.402 158.223 309.128 160.063 309.128 165.238C309.128 170.413 305.402 172.23 301.055 172.23C298.134 172.23 295.765 171.425 294.293 169.884V172H290.36V153.6H294.293V160.569C295.765 159.028 298.134 158.223 301.055 158.223ZM299.744 168.941C303.263 168.941 305.172 167.906 305.172 165.238C305.172 162.547 303.263 161.512 299.744 161.512C296.225 161.512 294.293 162.547 294.293 165.238C294.293 167.906 296.225 168.941 299.744 168.941ZM319.409 169.033C322.123 169.033 323.779 168.527 324.768 167.147H328.678C327.781 170.597 324.423 172.23 319.409 172.23C314.257 172.23 310.255 170.206 310.255 165.238C310.255 160.247 314.142 158.223 319.639 158.223C324.791 158.223 328.908 159.994 328.908 166.158H314.28C314.717 168.32 316.787 169.033 319.409 169.033ZM319.616 161.213C316.925 161.213 315.039 161.742 314.418 163.651H324.699C324.032 161.742 322.1 161.213 319.616 161.213ZM342.23 158.223C345.841 158.223 349.222 159.511 349.268 164.502L349.222 172H345.266V165.997C345.266 163.122 344.3 161.627 341.057 161.627C338.412 161.627 335.56 162.984 334.341 164.41V172H330.408V158.453H334.341V160.822C336.273 159.304 338.941 158.223 342.23 158.223ZM365.475 153.6H369.408V172H365.475V169.884C364.003 171.425 361.634 172.23 358.713 172.23C354.366 172.23 350.64 170.413 350.64 165.238C350.64 160.063 354.366 158.223 358.713 158.223C361.634 158.223 364.003 159.028 365.475 160.569V153.6ZM360.024 168.941C363.543 168.941 365.475 167.906 365.475 165.238C365.475 162.547 363.543 161.512 360.024 161.512C356.505 161.512 354.596 162.547 354.596 165.238C354.596 167.906 356.505 168.941 360.024 168.941ZM61.0634 197.033C63.7774 197.033 65.4334 196.527 66.4224 195.147H70.3324C69.4354 198.597 66.0774 200.23 61.0634 200.23C55.9114 200.23 51.9094 198.206 51.9094 193.238C51.9094 188.247 55.7964 186.223 61.2934 186.223C66.4454 186.223 70.5624 187.994 70.5624 194.158H55.9344C56.3714 196.32 58.4414 197.033 61.0634 197.033ZM61.2704 189.213C58.5794 189.213 56.6934 189.742 56.0724 191.651H66.3534C65.6864 189.742 63.7544 189.213 61.2704 189.213ZM84.6939 186.453H89.0639L82.1869 200H76.5749L69.7209 186.453H74.0909L79.4039 197.217L84.6939 186.453ZM97.5175 197.033C100.231 197.033 101.887 196.527 102.876 195.147H106.786C105.889 198.597 102.531 200.23 97.5175 200.23C92.3655 200.23 88.3635 198.206 88.3635 193.238C88.3635 188.247 92.2505 186.223 97.7475 186.223C102.899 186.223 107.016 187.994 107.016 194.158H92.3885C92.8255 196.32 94.8955 197.033 97.5175 197.033ZM97.7245 189.213C95.0335 189.213 93.1475 189.742 92.5265 191.651H102.807C102.14 189.742 100.208 189.213 97.7245 189.213ZM119.395 186.223C121.005 186.223 122.132 186.453 123.052 186.683V189.972C121.764 189.65 120.729 189.512 119.579 189.512C117.371 189.512 114.841 190.018 112.449 191.881V200H108.516V186.453H112.449V188.753C114.473 186.936 116.865 186.223 119.395 186.223ZM139.353 186.453H143.7L134.546 205.75H130.199L132.936 200H130.912L123.897 186.453H128.267L134.063 197.631L139.353 186.453ZM170.559 181.6H174.492V200H170.559V197.884C169.087 199.425 166.718 200.23 163.797 200.23C159.45 200.23 155.724 198.413 155.724 193.238C155.724 188.063 159.45 186.223 163.797 186.223C166.718 186.223 169.087 187.028 170.559 188.569V181.6ZM165.108 196.941C168.627 196.941 170.559 195.906 170.559 193.238C170.559 190.547 168.627 189.512 165.108 189.512C161.589 189.512 159.68 190.547 159.68 193.238C159.68 195.906 161.589 196.941 165.108 196.941ZM185.138 197.033C187.852 197.033 189.508 196.527 190.497 195.147H194.407C193.51 198.597 190.152 200.23 185.138 200.23C179.986 200.23 175.984 198.206 175.984 193.238C175.984 188.247 179.871 186.223 185.368 186.223C190.52 186.223 194.637 187.994 194.637 194.158H180.009C180.446 196.32 182.516 197.033 185.138 197.033ZM185.345 189.213C182.654 189.213 180.768 189.742 180.147 191.651H190.428C189.761 189.742 187.829 189.213 185.345 189.213ZM210.718 186.453H214.674V197.838C214.674 203.358 210.971 205.75 205.842 205.75C201.909 205.75 198.666 205.014 197.355 204.669V201.495C198.942 201.794 201.978 202.461 204.968 202.461C209.039 202.461 210.557 200.897 210.718 197.424C209.338 198.942 207.061 199.839 203.864 199.839C199.218 199.839 195.906 197.815 195.906 193.031C195.906 188.247 199.218 186.223 203.864 186.223C207.084 186.223 209.361 187.12 210.718 188.638V186.453ZM205.29 196.55C208.993 196.55 210.718 195.515 210.718 193.031C210.718 190.547 208.993 189.512 205.29 189.512C201.587 189.512 199.839 190.547 199.839 193.031C199.839 195.515 201.587 196.55 205.29 196.55ZM225.433 197.033C228.147 197.033 229.803 196.527 230.792 195.147H234.702C233.805 198.597 230.447 200.23 225.433 200.23C220.281 200.23 216.279 198.206 216.279 193.238C216.279 188.247 220.166 186.223 225.663 186.223C230.815 186.223 234.932 187.994 234.932 194.158H220.304C220.741 196.32 222.811 197.033 225.433 197.033ZM225.64 189.213C222.949 189.213 221.063 189.742 220.442 191.651H230.723C230.056 189.742 228.124 189.213 225.64 189.213ZM248.253 186.223C251.864 186.223 255.245 187.511 255.291 192.502L255.245 200H251.289V193.997C251.289 191.122 250.323 189.627 247.08 189.627C244.435 189.627 241.583 190.984 240.364 192.41V200H236.431V186.453H240.364V188.822C242.296 187.304 244.964 186.223 248.253 186.223ZM265.817 197.033C268.531 197.033 270.187 196.527 271.176 195.147H275.086C274.189 198.597 270.831 200.23 265.817 200.23C260.665 200.23 256.663 198.206 256.663 193.238C256.663 188.247 260.55 186.223 266.047 186.223C271.199 186.223 275.316 187.994 275.316 194.158H260.688C261.125 196.32 263.195 197.033 265.817 197.033ZM266.024 189.213C263.333 189.213 261.447 189.742 260.826 191.651H271.107C270.44 189.742 268.508 189.213 266.024 189.213ZM287.695 186.223C289.305 186.223 290.432 186.453 291.352 186.683V189.972C290.064 189.65 289.029 189.512 287.879 189.512C285.671 189.512 283.141 190.018 280.749 191.881V200H276.816V186.453H280.749V188.753C282.773 186.936 285.165 186.223 287.695 186.223ZM300.998 186.223C306.656 186.223 309.876 188.04 309.922 193.169V200H305.966V198.321C303.574 199.494 300.929 200.23 297.732 200.23C293.937 200.23 291.568 199.011 291.568 195.952C291.568 192.433 295.432 191.329 299.733 191.329C302.056 191.329 304.195 191.697 305.966 192.295C305.966 189.719 302.654 189.512 300.814 189.512C299.043 189.512 296.881 189.673 294.098 190.501L292.695 187.626C295.455 186.729 298.169 186.223 300.998 186.223ZM305.966 195.791V194.733C304.586 194.296 302.723 193.905 300.216 193.905C297.272 193.905 295.501 194.411 295.501 195.791C295.501 197.217 296.812 197.332 298.859 197.332C300.998 197.332 303.942 196.665 305.966 195.791ZM324.463 189.742H318.046V193.652C318.046 196.274 318.552 196.941 320.944 196.941C322.186 196.941 322.876 196.941 324.463 196.711V199.885C323.152 200.115 321.657 200.23 319.84 200.23C316.344 200.23 314.09 198.919 314.09 195.929V189.742H310.525V186.453H314.09V183.647L318.046 182.52V186.453H324.463V189.742ZM334.593 197.033C337.307 197.033 338.963 196.527 339.952 195.147H343.862C342.965 198.597 339.607 200.23 334.593 200.23C329.441 200.23 325.439 198.206 325.439 193.238C325.439 188.247 329.326 186.223 334.823 186.223C339.975 186.223 344.092 187.994 344.092 194.158H329.464C329.901 196.32 331.971 197.033 334.593 197.033ZM334.8 189.213C332.109 189.213 330.223 189.742 329.602 191.651H339.883C339.216 189.742 337.284 189.213 334.8 189.213ZM141.414 214.453H145.807L139.712 228H134.468L130.489 218.57L126.51 228H121.266L115.171 214.453H119.564L124.003 224.918L128.143 214.453H132.835L136.975 224.895L141.414 214.453ZM146.801 209.6H150.734V213.027H146.801V209.6ZM146.801 214.453H150.734V228H146.801V214.453ZM166.034 217.742H159.617V221.652C159.617 224.274 160.123 224.941 162.515 224.941C163.757 224.941 164.447 224.941 166.034 224.711V227.885C164.723 228.115 163.228 228.23 161.411 228.23C157.915 228.23 155.661 226.919 155.661 223.929V217.742H152.096V214.453H155.661V211.647L159.617 210.52V214.453H166.034V217.742ZM179.467 214.223C183.078 214.223 186.459 215.511 186.505 220.502L186.459 228H182.503V221.997C182.503 219.122 181.537 217.627 178.294 217.627C175.649 217.627 172.797 218.984 171.578 220.41V228H167.645V209.6H171.578V216.822C173.51 215.304 176.178 214.223 179.467 214.223ZM188.331 209.6H192.264V213.027H188.331V209.6ZM188.331 214.453H192.264V228H188.331V214.453ZM206.061 214.223C209.672 214.223 213.053 215.511 213.099 220.502L213.053 228H209.097V221.997C209.097 219.122 208.131 217.627 204.888 217.627C202.243 217.627 199.391 218.984 198.172 220.41V228H194.239V214.453H198.172V216.822C200.104 215.304 202.772 214.223 206.061 214.223ZM234.726 228.23C229.114 228.23 225.342 226.206 225.342 221.238C225.342 216.247 229.114 214.223 234.726 214.223C240.315 214.223 244.11 216.247 244.11 221.238C244.11 226.206 240.315 228.23 234.726 228.23ZM234.726 224.941C238.36 224.941 240.154 224.044 240.154 221.238C240.154 218.409 238.36 217.512 234.726 217.512C231.069 217.512 229.275 218.409 229.275 221.238C229.275 224.044 231.069 224.941 234.726 224.941ZM260.511 214.453H264.444V228H260.511V225.631C258.579 227.149 255.911 228.23 252.622 228.23C249.011 228.23 245.63 226.942 245.584 221.951L245.63 214.453H249.586V220.456C249.586 223.331 250.552 224.826 253.795 224.826C256.44 224.826 259.292 223.469 260.511 222.043V214.453ZM277.172 214.223C278.782 214.223 279.909 214.453 280.829 214.683V217.972C279.541 217.65 278.506 217.512 277.356 217.512C275.148 217.512 272.618 218.018 270.226 219.881V228H266.293V214.453H270.226V216.753C272.25 214.936 274.642 214.223 277.172 214.223ZM34.4236 249.238C34.4236 244.247 38.1956 242.223 43.8076 242.223C48.8676 242.223 52.4326 243.879 53.0766 247.858H49.0516C48.5226 246.11 46.6596 245.512 43.8076 245.512C40.4266 245.512 38.3566 246.409 38.3566 249.238C38.3566 252.044 40.4266 252.941 43.8076 252.941C46.6596 252.941 48.5226 252.343 49.0516 250.595H53.0766C52.4326 254.574 48.8676 256.23 43.8076 256.23C38.1956 256.23 34.4236 254.206 34.4236 249.238ZM63.5956 256.23C57.9836 256.23 54.2116 254.206 54.2116 249.238C54.2116 244.247 57.9836 242.223 63.5956 242.223C69.1846 242.223 72.9796 244.247 72.9796 249.238C72.9796 254.206 69.1846 256.23 63.5956 256.23ZM63.5956 252.941C67.2296 252.941 69.0236 252.044 69.0236 249.238C69.0236 246.409 67.2296 245.512 63.5956 245.512C59.9386 245.512 58.1446 246.409 58.1446 249.238C58.1446 252.044 59.9386 252.941 63.5956 252.941ZM97.9828 242.223C101.019 242.223 103.779 243.511 103.825 248.41L103.779 256H99.8458V249.997C99.8458 247.122 99.3628 245.627 96.5568 245.627C94.4868 245.627 92.4628 246.616 91.2668 247.697C91.2898 247.927 91.2898 248.157 91.2898 248.41L91.2438 256H87.3108V249.997C87.3108 247.122 86.8278 245.627 84.0218 245.627C81.7448 245.627 79.5368 246.8 78.4098 248.019V256H74.4768V242.453H78.4098V244.661C79.8818 243.488 82.0898 242.223 85.4478 242.223C87.4948 242.223 89.4268 242.821 90.4618 244.707C92.2098 243.396 94.6248 242.223 97.9828 242.223ZM129.181 242.223C132.217 242.223 134.977 243.511 135.023 248.41L134.977 256H131.044V249.997C131.044 247.122 130.561 245.627 127.755 245.627C125.685 245.627 123.661 246.616 122.465 247.697C122.488 247.927 122.488 248.157 122.488 248.41L122.442 256H118.509V249.997C118.509 247.122 118.026 245.627 115.22 245.627C112.943 245.627 110.735 246.8 109.608 248.019V256H105.675V242.453H109.608V244.661C111.08 243.488 113.288 242.223 116.646 242.223C118.693 242.223 120.625 242.821 121.66 244.707C123.408 243.396 125.823 242.223 129.181 242.223ZM151.665 242.453H155.598V256H151.665V253.631C149.733 255.149 147.065 256.23 143.776 256.23C140.165 256.23 136.784 254.942 136.738 249.951L136.784 242.453H140.74V248.456C140.74 251.331 141.706 252.826 144.949 252.826C147.594 252.826 150.446 251.469 151.665 250.043V242.453ZM169.269 242.223C172.88 242.223 176.261 243.511 176.307 248.502L176.261 256H172.305V249.997C172.305 247.122 171.339 245.627 168.096 245.627C165.451 245.627 162.599 246.984 161.38 248.41V256H157.447V242.453H161.38V244.822C163.312 243.304 165.98 242.223 169.269 242.223ZM178.134 237.6H182.067V241.027H178.134V237.6ZM178.134 242.453H182.067V256H178.134V242.453ZM197.367 245.742H190.95V249.652C190.95 252.274 191.456 252.941 193.848 252.941C195.09 252.941 195.78 252.941 197.367 252.711V255.885C196.056 256.115 194.561 256.23 192.744 256.23C189.248 256.23 186.994 254.919 186.994 251.929V245.742H183.429V242.453H186.994V239.647L190.95 238.52V242.453H197.367V245.742ZM213.665 242.453H218.012L208.858 261.75H204.511L207.248 256H205.224L198.209 242.453H202.579L208.375 253.631L213.665 242.453ZM243.974 245.742H237.557V249.652C237.557 252.274 238.063 252.941 240.455 252.941C241.697 252.941 242.387 252.941 243.974 252.711V255.885C242.663 256.115 241.168 256.23 239.351 256.23C235.855 256.23 233.601 254.919 233.601 251.929V245.742H230.036V242.453H233.601V239.647L237.557 238.52V242.453H243.974V245.742ZM257.406 242.223C261.017 242.223 264.398 243.511 264.444 248.502L264.398 256H260.442V249.997C260.442 247.122 259.476 245.627 256.233 245.627C253.588 245.627 250.736 246.984 249.517 248.41V256H245.584V237.6H249.517V244.822C251.449 243.304 254.117 242.223 257.406 242.223ZM277.15 242.223C278.76 242.223 279.887 242.453 280.807 242.683V245.972C279.519 245.65 278.484 245.512 277.334 245.512C275.126 245.512 272.596 246.018 270.204 247.881V256H266.271V242.453H270.204V244.753C272.228 242.936 274.62 242.223 277.15 242.223ZM290.563 256.23C284.951 256.23 281.179 254.206 281.179 249.238C281.179 244.247 284.951 242.223 290.563 242.223C296.152 242.223 299.947 244.247 299.947 249.238C299.947 254.206 296.152 256.23 290.563 256.23ZM290.563 252.941C294.197 252.941 295.991 252.044 295.991 249.238C295.991 246.409 294.197 245.512 290.563 245.512C286.906 245.512 285.112 246.409 285.112 249.238C285.112 252.044 286.906 252.941 290.563 252.941ZM316.349 242.453H320.282V256H316.349V253.631C314.417 255.149 311.749 256.23 308.46 256.23C304.849 256.23 301.468 254.942 301.422 249.951L301.468 242.453H305.424V248.456C305.424 251.331 306.39 252.826 309.633 252.826C312.278 252.826 315.13 251.469 316.349 250.043V242.453ZM336.713 242.453H340.669V253.838C340.669 259.358 336.966 261.75 331.837 261.75C327.904 261.75 324.661 261.014 323.35 260.669V257.495C324.937 257.794 327.973 258.461 330.963 258.461C335.034 258.461 336.552 256.897 336.713 253.424C335.333 254.942 333.056 255.839 329.859 255.839C325.213 255.839 321.901 253.815 321.901 249.031C321.901 244.247 325.213 242.223 329.859 242.223C333.079 242.223 335.356 243.12 336.713 244.638V242.453ZM331.285 252.55C334.988 252.55 336.713 251.515 336.713 249.031C336.713 246.547 334.988 245.512 331.285 245.512C327.582 245.512 325.834 246.547 325.834 249.031C325.834 251.515 327.582 252.55 331.285 252.55ZM354.325 242.223C357.936 242.223 361.317 243.511 361.363 248.502L361.317 256H357.361V249.997C357.361 247.122 356.395 245.627 353.152 245.627C350.507 245.627 347.655 246.984 346.436 248.41V256H342.503V237.6H346.436V244.822C348.368 243.304 351.036 242.223 354.325 242.223ZM101.746 284.23C96.1335 284.23 92.3615 282.206 92.3615 277.238C92.3615 272.247 96.1335 270.223 101.746 270.223C107.335 270.223 111.13 272.247 111.13 277.238C111.13 282.206 107.335 284.23 101.746 284.23ZM101.746 280.941C105.38 280.941 107.174 280.044 107.174 277.238C107.174 274.409 105.38 273.512 101.746 273.512C98.0885 273.512 96.2945 274.409 96.2945 277.238C96.2945 280.044 98.0885 280.941 101.746 280.941ZM127.531 270.453H131.464V284H127.531V281.631C125.599 283.149 122.931 284.23 119.642 284.23C116.031 284.23 112.65 282.942 112.604 277.951L112.65 270.453H116.606V276.456C116.606 279.331 117.572 280.826 120.815 280.826C123.46 280.826 126.312 279.469 127.531 278.043V270.453ZM144.192 270.223C145.802 270.223 146.929 270.453 147.849 270.683V273.972C146.561 273.65 145.526 273.512 144.376 273.512C142.168 273.512 139.638 274.018 137.246 275.881V284H133.313V270.453H137.246V272.753C139.27 270.936 141.662 270.223 144.192 270.223ZM159.879 278.457H164.019C164.019 280.159 165.399 280.941 170.643 280.941C174.99 280.941 176.301 280.458 176.301 279.193C176.301 277.859 175.381 277.629 170.16 277.376C163.145 277.054 160.362 275.95 160.362 272.339C160.362 268.797 163.973 267.67 169.999 267.67C176.071 267.67 179.751 269.188 179.751 273.167H175.611C175.611 271.396 173.84 270.959 169.539 270.959C165.468 270.959 164.502 271.35 164.502 272.546C164.502 273.788 165.468 274.018 170.16 274.294C176.508 274.639 180.441 274.984 180.441 279.055C180.441 283.356 176.37 284.23 170.413 284.23C163.812 284.23 159.879 283.103 159.879 278.457ZM191.095 284.23C185.483 284.23 181.711 282.206 181.711 277.238C181.711 272.247 185.483 270.223 191.095 270.223C196.684 270.223 200.479 272.247 200.479 277.238C200.479 282.206 196.684 284.23 191.095 284.23ZM191.095 280.941C194.729 280.941 196.523 280.044 196.523 277.238C196.523 274.409 194.729 273.512 191.095 273.512C187.438 273.512 185.644 274.409 185.644 277.238C185.644 280.044 187.438 280.941 191.095 280.941ZM201.976 265.6H205.909V284H201.976V265.6ZM218.444 270.223C222.791 270.223 226.517 272.063 226.517 277.238C226.517 282.413 222.791 284.23 218.444 284.23C215.523 284.23 213.154 283.425 211.682 281.884V284H207.749V265.6H211.682V272.569C213.154 271.028 215.523 270.223 218.444 270.223ZM217.133 280.941C220.652 280.941 222.561 279.906 222.561 277.238C222.561 274.547 220.652 273.512 217.133 273.512C213.614 273.512 211.682 274.547 211.682 277.238C211.682 279.906 213.614 280.941 217.133 280.941ZM228.009 265.6H231.942V269.027H228.009V265.6ZM228.009 270.453H231.942V284H228.009V270.453ZM248.274 265.6H252.207V284H248.274V281.884C246.802 283.425 244.433 284.23 241.512 284.23C237.165 284.23 233.439 282.413 233.439 277.238C233.439 272.063 237.165 270.223 241.512 270.223C244.433 270.223 246.802 271.028 248.274 272.569V265.6ZM242.823 280.941C246.342 280.941 248.274 279.906 248.274 277.238C248.274 274.547 246.342 273.512 242.823 273.512C239.304 273.512 237.395 274.547 237.395 277.238C237.395 279.906 239.304 280.941 242.823 280.941ZM254.041 265.6H257.974V269.027H254.041V265.6ZM254.041 270.453H257.974V284H254.041V270.453ZM268.625 281.033C271.339 281.033 272.995 280.527 273.984 279.147H277.894C276.997 282.597 273.639 284.23 268.625 284.23C263.473 284.23 259.471 282.206 259.471 277.238C259.471 272.247 263.358 270.223 268.855 270.223C274.007 270.223 278.124 271.994 278.124 278.158H263.496C263.933 280.32 266.003 281.033 268.625 281.033ZM268.832 273.213C266.141 273.213 264.255 273.742 263.634 275.651H273.915C273.248 273.742 271.316 273.213 268.832 273.213ZM279.012 279.239H282.945C282.945 280.688 284.44 281.24 288.833 281.24C293.088 281.24 293.778 280.964 293.778 279.906C293.778 278.871 293.134 278.802 288.373 278.503C282.416 278.158 279.495 277.698 279.495 274.432C279.495 270.89 283.635 270.223 288.465 270.223C293.571 270.223 297.274 270.89 297.274 274.616H293.318C293.318 273.489 291.892 273.213 288.235 273.213C284.509 273.213 283.451 273.489 283.451 274.271C283.451 275.122 284.164 275.26 288.833 275.605C294.123 275.996 297.734 276.134 297.734 279.745C297.734 283.563 294.284 284.23 289.063 284.23C283.842 284.23 279.012 283.563 279.012 279.239ZM299.479 280.918H303.412V284L301.549 288.531H299.663L300.836 284H299.479V280.918ZM33.4779 298.223C37.8479 298.223 41.5509 300.063 41.5509 305.238C41.5509 310.413 37.8479 312.23 33.4779 312.23C30.5569 312.23 28.2109 311.448 26.7389 309.907V317.75H22.7829V298.453H26.7389V300.546C28.2109 299.028 30.5569 298.223 33.4779 298.223ZM32.1669 308.941C35.6859 308.941 37.6179 307.906 37.6179 305.238C37.6179 302.547 35.6859 301.512 32.1669 301.512C28.6479 301.512 26.7389 302.547 26.7389 305.238C26.7389 307.906 28.6479 308.941 32.1669 308.941ZM53.9217 298.223C55.5317 298.223 56.6587 298.453 57.5787 298.683V301.972C56.2907 301.65 55.2557 301.512 54.1057 301.512C51.8977 301.512 49.3677 302.018 46.9757 303.881V312H43.0427V298.453H46.9757V300.753C48.9997 298.936 51.3917 298.223 53.9217 298.223ZM67.1054 309.033C69.8194 309.033 71.4754 308.527 72.4644 307.147H76.3744C75.4774 310.597 72.1194 312.23 67.1054 312.23C61.9534 312.23 57.9514 310.206 57.9514 305.238C57.9514 300.247 61.8384 298.223 67.3354 298.223C72.4874 298.223 76.6044 299.994 76.6044 306.158H61.9764C62.4134 308.32 64.4834 309.033 67.1054 309.033ZM67.3124 301.213C64.6214 301.213 62.7354 301.742 62.1144 303.651H72.3954C71.7284 301.742 69.7964 301.213 67.3124 301.213ZM88.7992 298.223C93.1692 298.223 96.8722 300.063 96.8722 305.238C96.8722 310.413 93.1692 312.23 88.7992 312.23C85.8782 312.23 83.5322 311.448 82.0602 309.907V317.75H78.1042V298.453H82.0602V300.546C83.5322 299.028 85.8782 298.223 88.7992 298.223ZM87.4882 308.941C91.0072 308.941 92.9392 307.906 92.9392 305.238C92.9392 302.547 91.0072 301.512 87.4882 301.512C83.9692 301.512 82.0602 302.547 82.0602 305.238C82.0602 307.906 83.9692 308.941 87.4882 308.941ZM107.317 298.223C112.975 298.223 116.195 300.04 116.241 305.169V312H112.285V310.321C109.893 311.494 107.248 312.23 104.051 312.23C100.256 312.23 97.8869 311.011 97.8869 307.952C97.8869 304.433 101.751 303.329 106.052 303.329C108.375 303.329 110.514 303.697 112.285 304.295C112.285 301.719 108.973 301.512 107.133 301.512C105.362 301.512 103.2 301.673 100.417 302.501L99.0139 299.626C101.774 298.729 104.488 298.223 107.317 298.223ZM112.285 307.791V306.733C110.905 306.296 109.042 305.905 106.535 305.905C103.591 305.905 101.82 306.411 101.82 307.791C101.82 309.217 103.131 309.332 105.178 309.332C107.317 309.332 110.261 308.665 112.285 307.791ZM128.874 298.223C130.484 298.223 131.611 298.453 132.531 298.683V301.972C131.243 301.65 130.208 301.512 129.058 301.512C126.85 301.512 124.32 302.018 121.928 303.881V312H117.995V298.453H121.928V300.753C123.952 298.936 126.344 298.223 128.874 298.223ZM134.144 293.6H138.077V297.027H134.144V293.6ZM134.144 298.453H138.077V312H134.144V298.453ZM151.874 298.223C155.485 298.223 158.866 299.511 158.912 304.502L158.866 312H154.91V305.997C154.91 303.122 153.944 301.627 150.701 301.627C148.056 301.627 145.204 302.984 143.985 304.41V312H140.052V298.453H143.985V300.822C145.917 299.304 148.585 298.223 151.874 298.223ZM175.208 298.453H179.164V309.838C179.164 315.358 175.461 317.75 170.332 317.75C166.399 317.75 163.156 317.014 161.845 316.669V313.495C163.432 313.794 166.468 314.461 169.458 314.461C173.529 314.461 175.047 312.897 175.208 309.424C173.828 310.942 171.551 311.839 168.354 311.839C163.708 311.839 160.396 309.815 160.396 305.031C160.396 300.247 163.708 298.223 168.354 298.223C171.574 298.223 173.851 299.12 175.208 300.638V298.453ZM169.78 308.55C173.483 308.55 175.208 307.515 175.208 305.031C175.208 302.547 173.483 301.512 169.78 301.512C166.077 301.512 164.329 302.547 164.329 305.031C164.329 307.515 166.077 308.55 169.78 308.55ZM205.352 301.742H198.935V305.652C198.935 308.274 199.441 308.941 201.833 308.941C203.075 308.941 203.765 308.941 205.352 308.711V311.885C204.041 312.115 202.546 312.23 200.729 312.23C197.233 312.23 194.979 310.919 194.979 307.929V301.742H191.414V298.453H194.979V295.647L198.935 294.52V298.453H205.352V301.742ZM218.785 298.223C222.396 298.223 225.777 299.511 225.823 304.502L225.777 312H221.821V305.997C221.821 303.122 220.855 301.627 217.612 301.627C214.967 301.627 212.115 302.984 210.896 304.41V312H206.963V293.6H210.896V300.822C212.828 299.304 215.496 298.223 218.785 298.223ZM236.349 309.033C239.063 309.033 240.719 308.527 241.708 307.147H245.618C244.721 310.597 241.363 312.23 236.349 312.23C231.197 312.23 227.195 310.206 227.195 305.238C227.195 300.247 231.082 298.223 236.579 298.223C241.731 298.223 245.848 299.994 245.848 306.158H231.22C231.657 308.32 233.727 309.033 236.349 309.033ZM236.556 301.213C233.865 301.213 231.979 301.742 231.358 303.651H241.639C240.972 301.742 239.04 301.213 236.556 301.213ZM270.853 298.223C273.889 298.223 276.649 299.511 276.695 304.41L276.649 312H272.716V305.997C272.716 303.122 272.233 301.627 269.427 301.627C267.357 301.627 265.333 302.616 264.137 303.697C264.16 303.927 264.16 304.157 264.16 304.41L264.114 312H260.181V305.997C260.181 303.122 259.698 301.627 256.892 301.627C254.615 301.627 252.407 302.8 251.28 304.019V312H247.347V298.453H251.28V300.661C252.752 299.488 254.96 298.223 258.318 298.223C260.365 298.223 262.297 298.821 263.332 300.707C265.08 299.396 267.495 298.223 270.853 298.223ZM302.9 301.742H296.483V305.652C296.483 308.274 296.989 308.941 299.381 308.941C300.623 308.941 301.313 308.941 302.9 308.711V311.885C301.589 312.115 300.094 312.23 298.277 312.23C294.781 312.23 292.527 310.919 292.527 307.929V301.742H288.962V298.453H292.527V295.647L296.483 294.52V298.453H302.9V301.742ZM313.26 312.23C307.648 312.23 303.876 310.206 303.876 305.238C303.876 300.247 307.648 298.223 313.26 298.223C318.849 298.223 322.644 300.247 322.644 305.238C322.644 310.206 318.849 312.23 313.26 312.23ZM313.26 308.941C316.894 308.941 318.688 308.044 318.688 305.238C318.688 302.409 316.894 301.512 313.26 301.512C309.603 301.512 307.809 302.409 307.809 305.238C307.809 308.044 309.603 308.941 313.26 308.941ZM345.595 298.223C349.942 298.223 353.668 300.063 353.668 305.238C353.668 310.413 349.942 312.23 345.595 312.23C342.674 312.23 340.305 311.425 338.833 309.884V312H334.9V293.6H338.833V300.569C340.305 299.028 342.674 298.223 345.595 298.223ZM344.284 308.941C347.803 308.941 349.712 307.906 349.712 305.238C349.712 302.547 347.803 301.512 344.284 301.512C340.765 301.512 338.833 302.547 338.833 305.238C338.833 307.906 340.765 308.941 344.284 308.941ZM363.949 309.033C366.663 309.033 368.319 308.527 369.308 307.147H373.218C372.321 310.597 368.963 312.23 363.949 312.23C358.797 312.23 354.795 310.206 354.795 305.238C354.795 300.247 358.682 298.223 364.179 298.223C369.331 298.223 373.448 299.994 373.448 306.158H358.82C359.257 308.32 361.327 309.033 363.949 309.033ZM364.156 301.213C361.465 301.213 359.579 301.742 358.958 303.651H369.239C368.572 301.742 366.64 301.213 364.156 301.213ZM43.9434 326.223C49.6014 326.223 52.8214 328.04 52.8674 333.169V340H48.9114V338.321C46.5194 339.494 43.8744 340.23 40.6774 340.23C36.8824 340.23 34.5134 339.011 34.5134 335.952C34.5134 332.433 38.3774 331.329 42.6784 331.329C45.0014 331.329 47.1404 331.697 48.9114 332.295C48.9114 329.719 45.5994 329.512 43.7594 329.512C41.9884 329.512 39.8264 329.673 37.0434 330.501L35.6404 327.626C38.4004 326.729 41.1144 326.223 43.9434 326.223ZM48.9114 335.791V334.733C47.5314 334.296 45.6684 333.905 43.1614 333.905C40.2174 333.905 38.4464 334.411 38.4464 335.791C38.4464 337.217 39.7574 337.332 41.8044 337.332C43.9434 337.332 46.8874 336.665 48.9114 335.791ZM65.4062 326.223C69.7532 326.223 73.4792 328.063 73.4792 333.238C73.4792 338.413 69.7532 340.23 65.4062 340.23C62.4852 340.23 60.1162 339.425 58.6442 337.884V340H54.7112V321.6H58.6442V328.569C60.1162 327.028 62.4852 326.223 65.4062 326.223ZM64.0952 336.941C67.6142 336.941 69.5232 335.906 69.5232 333.238C69.5232 330.547 67.6142 329.512 64.0952 329.512C60.5762 329.512 58.6442 330.547 58.6442 333.238C58.6442 335.906 60.5762 336.941 64.0952 336.941ZM74.9709 321.6H78.9039V340H74.9709V321.6ZM89.5551 337.033C92.2691 337.033 93.9251 336.527 94.9141 335.147H98.8241C97.9271 338.597 94.5691 340.23 89.5551 340.23C84.4031 340.23 80.4011 338.206 80.4011 333.238C80.4011 328.247 84.2881 326.223 89.7851 326.223C94.9371 326.223 99.0541 327.994 99.0541 334.158H84.4261C84.8631 336.32 86.9331 337.033 89.5551 337.033ZM89.7621 329.213C87.0711 329.213 85.1851 329.742 84.5641 331.651H94.8451C94.1781 329.742 92.2461 329.213 89.7621 329.213ZM126.056 326.453H130.426L123.549 340H117.937L111.083 326.453H115.453L120.766 337.217L126.056 326.453ZM138.879 337.033C141.593 337.033 143.249 336.527 144.238 335.147H148.148C147.251 338.597 143.893 340.23 138.879 340.23C133.727 340.23 129.725 338.206 129.725 333.238C129.725 328.247 133.612 326.223 139.109 326.223C144.261 326.223 148.378 327.994 148.378 334.158H133.75C134.187 336.32 136.257 337.033 138.879 337.033ZM139.086 329.213C136.395 329.213 134.509 329.742 133.888 331.651H144.169C143.502 329.742 141.57 329.213 139.086 329.213ZM149.266 335.239H153.199C153.199 336.688 154.694 337.24 159.087 337.24C163.342 337.24 164.032 336.964 164.032 335.906C164.032 334.871 163.388 334.802 158.627 334.503C152.67 334.158 149.749 333.698 149.749 330.432C149.749 326.89 153.889 326.223 158.719 326.223C163.825 326.223 167.528 326.89 167.528 330.616H163.572C163.572 329.489 162.146 329.213 158.489 329.213C154.763 329.213 153.705 329.489 153.705 330.271C153.705 331.122 154.418 331.26 159.087 331.605C164.377 331.996 167.988 332.134 167.988 335.745C167.988 339.563 164.538 340.23 159.317 340.23C154.096 340.23 149.266 339.563 149.266 335.239ZM169.122 335.239H173.055C173.055 336.688 174.55 337.24 178.943 337.24C183.198 337.24 183.888 336.964 183.888 335.906C183.888 334.871 183.244 334.802 178.483 334.503C172.526 334.158 169.605 333.698 169.605 330.432C169.605 326.89 173.745 326.223 178.575 326.223C183.681 326.223 187.384 326.89 187.384 330.616H183.428C183.428 329.489 182.002 329.213 178.345 329.213C174.619 329.213 173.561 329.489 173.561 330.271C173.561 331.122 174.274 331.26 178.943 331.605C184.233 331.996 187.844 332.134 187.844 335.745C187.844 339.563 184.394 340.23 179.173 340.23C173.952 340.23 169.122 339.563 169.122 335.239ZM198.131 337.033C200.845 337.033 202.501 336.527 203.49 335.147H207.4C206.503 338.597 203.145 340.23 198.131 340.23C192.979 340.23 188.977 338.206 188.977 333.238C188.977 328.247 192.864 326.223 198.361 326.223C203.513 326.223 207.63 327.994 207.63 334.158H193.002C193.439 336.32 195.509 337.033 198.131 337.033ZM198.338 329.213C195.647 329.213 193.761 329.742 193.14 331.651H203.421C202.754 329.742 200.822 329.213 198.338 329.213ZM209.13 321.6H213.063V340H209.13V321.6ZM214.56 335.239H218.493C218.493 336.688 219.988 337.24 224.381 337.24C228.636 337.24 229.326 336.964 229.326 335.906C229.326 334.871 228.682 334.802 223.921 334.503C217.964 334.158 215.043 333.698 215.043 330.432C215.043 326.89 219.183 326.223 224.013 326.223C229.119 326.223 232.822 326.89 232.822 330.616H228.866C228.866 329.489 227.44 329.213 223.783 329.213C220.057 329.213 218.999 329.489 218.999 330.271C218.999 331.122 219.712 331.26 224.381 331.605C229.671 331.996 233.282 332.134 233.282 335.745C233.282 339.563 229.832 340.23 224.611 340.23C219.39 340.23 214.56 339.563 214.56 335.239ZM255.728 324.268C253.474 324.268 252.899 324.751 252.83 326.453H258.557V329.742H252.83V340H248.874V329.742H245.309V326.453H248.874V325.441C248.874 322.681 250.53 321.37 254.486 321.37C255.843 321.37 256.556 321.37 258.557 321.6V324.383C257.66 324.314 256.74 324.268 255.728 324.268ZM268.552 340.23C262.94 340.23 259.168 338.206 259.168 333.238C259.168 328.247 262.94 326.223 268.552 326.223C274.141 326.223 277.936 328.247 277.936 333.238C277.936 338.206 274.141 340.23 268.552 340.23ZM268.552 336.941C272.186 336.941 273.98 336.044 273.98 333.238C273.98 330.409 272.186 329.512 268.552 329.512C264.895 329.512 263.101 330.409 263.101 333.238C263.101 336.044 264.895 336.941 268.552 336.941ZM290.312 326.223C291.922 326.223 293.049 326.453 293.969 326.683V329.972C292.681 329.65 291.646 329.512 290.496 329.512C288.288 329.512 285.758 330.018 283.366 331.881V340H279.433V326.453H283.366V328.753C285.39 326.936 287.782 326.223 290.312 326.223ZM315.383 340.23C309.771 340.23 305.999 338.206 305.999 333.238C305.999 328.247 309.771 326.223 315.383 326.223C320.972 326.223 324.767 328.247 324.767 333.238C324.767 338.206 320.972 340.23 315.383 340.23ZM315.383 336.941C319.017 336.941 320.811 336.044 320.811 333.238C320.811 330.409 319.017 329.512 315.383 329.512C311.726 329.512 309.932 330.409 309.932 333.238C309.932 336.044 311.726 336.941 315.383 336.941ZM341.168 326.453H345.101V340H341.168V337.631C339.236 339.149 336.568 340.23 333.279 340.23C329.668 340.23 326.287 338.942 326.241 333.951L326.287 326.453H330.243V332.456C330.243 335.331 331.209 336.826 334.452 336.826C337.097 336.826 339.949 335.469 341.168 334.043V326.453ZM357.829 326.223C359.439 326.223 360.566 326.453 361.486 326.683V329.972C360.198 329.65 359.163 329.512 358.013 329.512C355.805 329.512 353.275 330.018 350.883 331.881V340H346.95V326.453H350.883V328.753C352.907 326.936 355.299 326.223 357.829 326.223ZM100.928 354.223C105.275 354.223 109.001 356.063 109.001 361.238C109.001 366.413 105.275 368.23 100.928 368.23C98.0071 368.23 95.6381 367.425 94.1661 365.884V368H90.2331V349.6H94.1661V356.569C95.6381 355.028 98.0071 354.223 100.928 354.223ZM99.6171 364.941C103.136 364.941 105.045 363.906 105.045 361.238C105.045 358.547 103.136 357.512 99.6171 357.512C96.0981 357.512 94.1661 358.547 94.1661 361.238C94.1661 363.906 96.0981 364.941 99.6171 364.941ZM119.334 354.223C124.992 354.223 128.212 356.04 128.258 361.169V368H124.302V366.321C121.91 367.494 119.265 368.23 116.068 368.23C112.273 368.23 109.904 367.011 109.904 363.952C109.904 360.433 113.768 359.329 118.069 359.329C120.392 359.329 122.531 359.697 124.302 360.295C124.302 357.719 120.99 357.512 119.15 357.512C117.379 357.512 115.217 357.673 112.434 358.501L111.031 355.626C113.791 354.729 116.505 354.223 119.334 354.223ZM124.302 363.791V362.733C122.922 362.296 121.059 361.905 118.552 361.905C115.608 361.905 113.837 362.411 113.837 363.791C113.837 365.217 115.148 365.332 117.195 365.332C119.334 365.332 122.278 364.665 124.302 363.791ZM140.796 354.223C145.143 354.223 148.869 356.063 148.869 361.238C148.869 366.413 145.143 368.23 140.796 368.23C137.875 368.23 135.506 367.425 134.034 365.884V368H130.101V349.6H134.034V356.569C135.506 355.028 137.875 354.223 140.796 354.223ZM139.485 364.941C143.004 364.941 144.913 363.906 144.913 361.238C144.913 358.547 143.004 357.512 139.485 357.512C135.966 357.512 134.034 358.547 134.034 361.238C134.034 363.906 135.966 364.941 139.485 364.941ZM163.476 354.453H167.823L158.669 373.75H154.322L157.059 368H155.035L148.02 354.453H152.39L158.186 365.631L163.476 354.453ZM179.847 362.457H183.987C183.987 364.159 185.367 364.941 190.611 364.941C194.958 364.941 196.269 364.458 196.269 363.193C196.269 361.859 195.349 361.629 190.128 361.376C183.113 361.054 180.33 359.95 180.33 356.339C180.33 352.797 183.941 351.67 189.967 351.67C196.039 351.67 199.719 353.188 199.719 357.167H195.579C195.579 355.396 193.808 354.959 189.507 354.959C185.436 354.959 184.47 355.35 184.47 356.546C184.47 357.788 185.436 358.018 190.128 358.294C196.476 358.639 200.409 358.984 200.409 363.055C200.409 367.356 196.338 368.23 190.381 368.23C183.78 368.23 179.847 367.103 179.847 362.457ZM222.537 354.453L213.751 359.996L222.537 368H217.063L210.577 362.089L205.954 364.872V368H202.021V349.6H205.954V360.548L215.821 354.453H222.537ZM223.427 349.6H227.36V353.027H223.427V349.6ZM223.427 354.453H227.36V368H223.427V354.453ZM239.894 354.223C244.241 354.223 247.967 356.063 247.967 361.238C247.967 366.413 244.241 368.23 239.894 368.23C236.973 368.23 234.604 367.425 233.132 365.884V368H229.199V349.6H233.132V356.569C234.604 355.028 236.973 354.223 239.894 354.223ZM238.583 364.941C242.102 364.941 244.011 363.906 244.011 361.238C244.011 358.547 242.102 357.512 238.583 357.512C235.064 357.512 233.132 358.547 233.132 361.238C233.132 363.906 235.064 364.941 238.583 364.941ZM249.459 349.6H253.392V353.027H249.459V349.6ZM249.459 354.453H253.392V368H249.459V354.453ZM269.724 349.6H273.657V368H269.724V365.884C268.252 367.425 265.883 368.23 262.962 368.23C258.615 368.23 254.889 366.413 254.889 361.238C254.889 356.063 258.615 354.223 262.962 354.223C265.883 354.223 268.252 355.028 269.724 356.569V349.6ZM264.273 364.941C267.792 364.941 269.724 363.906 269.724 361.238C269.724 358.547 267.792 357.512 264.273 357.512C260.754 357.512 258.845 358.547 258.845 361.238C258.845 363.906 260.754 364.941 264.273 364.941ZM275.491 349.6H279.424V353.027H275.491V349.6ZM275.491 354.453H279.424V368H275.491V354.453ZM286.346 351.44L284.874 358.8H281.493L282.413 351.44H286.346ZM287.278 363.239H291.211C291.211 364.688 292.706 365.24 297.099 365.24C301.354 365.24 302.044 364.964 302.044 363.906C302.044 362.871 301.4 362.802 296.639 362.503C290.682 362.158 287.761 361.698 287.761 358.432C287.761 354.89 291.901 354.223 296.731 354.223C301.837 354.223 305.54 354.89 305.54 358.616H301.584C301.584 357.489 300.158 357.213 296.501 357.213C292.775 357.213 291.717 357.489 291.717 358.271C291.717 359.122 292.43 359.26 297.099 359.605C302.389 359.996 306 360.134 306 363.745C306 367.563 302.55 368.23 297.329 368.23C292.108 368.23 287.278 367.563 287.278 363.239Z" fill="white"/>
</g>
</svg>
