<svg width="711" height="2195" viewBox="0 0 711 2195" fill="none" xmlns="http://www.w3.org/2000/svg">
<mask id="mask0_23_2688" style="mask-type:alpha" maskUnits="userSpaceOnUse" x="1" y="1" width="1178" height="2193">
<rect x="300.062" width="889" height="2088.41" rx="9" transform="rotate(8.26083 300.062 0)" fill="#6A0F7B"/>
<rect x="300.062" width="889" height="2088.41" rx="9" transform="rotate(8.26083 300.062 0)" fill="#6A0F7B"/>
</mask>
<g mask="url(#mask0_23_2688)">
<rect x="300.062" width="889" height="2088.41" rx="9" transform="rotate(8.26083 300.062 0)" fill="#6A0F7B"/>
<rect x="300.062" width="889" height="2088.41" rx="9" transform="rotate(8.26083 300.062 0)" fill="#6A0F7B"/>
<line x1="178.909" y1="-81" x2="178.909" y2="1435" stroke="#DC1FFF" stroke-width="6"/>
<line x1="454.545" y1="-81" x2="454.545" y2="1435" stroke="#DC1FFF" stroke-width="6"/>
<line x1="41.0908" y1="-81" x2="41.0908" y2="1435" stroke="#DC1FFF" stroke-width="6"/>
<line x1="316.727" y1="-81" x2="316.727" y2="1435" stroke="#DC1FFF" stroke-width="6"/>
<line x1="592.364" y1="-81" x2="592.364" y2="1435" stroke="#DC1FFF" stroke-width="6"/>
<line x1="865" y1="197.636" x2="-651" y2="197.636" stroke="#DC1FFF" stroke-width="6"/>
<line x1="865" y1="473.272" x2="-651" y2="473.272" stroke="#DC1FFF" stroke-width="6"/>
<line x1="865" y1="748.909" x2="-651" y2="748.909" stroke="#DC1FFF" stroke-width="6"/>
<line x1="865" y1="1024.55" x2="-651" y2="1024.55" stroke="#DC1FFF" stroke-width="6"/>
<line x1="865" y1="1300.18" x2="-651" y2="1300.18" stroke="#DC1FFF" stroke-width="6"/>
<line x1="865" y1="59.8184" x2="-651" y2="59.8182" stroke="#DC1FFF" stroke-width="6"/>
<line x1="865" y1="335.455" x2="-651" y2="335.454" stroke="#DC1FFF" stroke-width="6"/>
<line x1="865" y1="611.091" x2="-651" y2="611.091" stroke="#DC1FFF" stroke-width="6"/>
<line x1="865" y1="886.727" x2="-651" y2="886.727" stroke="#DC1FFF" stroke-width="6"/>
<line x1="865" y1="1162.36" x2="-651" y2="1162.36" stroke="#DC1FFF" stroke-width="6"/>
<line x1="865" y1="1438" x2="-651" y2="1438" stroke="#DC1FFF" stroke-width="6"/>
</g>
</svg>
