<svg width="174" height="158" viewBox="0 0 174 158" fill="none" xmlns="http://www.w3.org/2000/svg">
<mask id="mask0_154_789" style="mask-type:alpha" maskUnits="userSpaceOnUse" x="0" y="0" width="174" height="158">
<rect x="0.285156" y="0.697266" width="173" height="157" rx="30" fill="black"/>
</mask>
<g mask="url(#mask0_154_789)">
<rect x="0.785156" y="1.19727" width="172" height="156" rx="29.5" fill="black" stroke="white"/>
<path d="M47.0559 40.0973C50.0979 40.0973 52.9599 42.1133 52.9599 46.3973C52.9599 50.6813 50.0979 52.6973 47.0559 52.6973H37.6959V40.0973H47.0559ZM45.6159 48.7373C46.6239 48.7373 48.2799 48.7373 48.2799 46.3973C48.2799 44.0573 46.6239 44.0573 45.6159 44.0573H42.3759V48.7373H45.6159ZM58.1787 40.0973V52.6973H53.4987V40.0973H58.1787ZM58.7152 48.2513H63.3952C63.3952 48.8633 63.9712 49.2773 66.9412 49.2773C69.7132 49.2773 70.1272 49.0973 70.1272 48.6293C70.1272 48.0893 69.7132 48.0173 66.7612 47.9273C61.0732 47.7473 58.8952 46.8113 58.8952 43.8773C58.8952 41.1053 61.6132 39.9173 66.5812 39.9173C71.4952 39.9173 74.2672 41.1053 74.2672 44.3273H69.5872C69.5872 43.6613 68.5072 43.5173 66.2212 43.5173C64.0252 43.5173 63.5752 43.6253 63.5752 44.1113C63.5752 44.5973 64.0252 44.5793 66.7612 44.6873C71.7292 44.8853 74.8072 45.2273 74.8072 48.5213C74.8072 51.9953 71.9272 52.8773 66.7612 52.8773C61.5952 52.8773 58.7152 51.9953 58.7152 48.2513ZM74.9925 46.3793C74.9925 42.0053 77.3685 39.9173 82.9125 39.9173C87.9525 39.9173 90.5805 41.6813 90.7785 45.6593H85.9905C85.8105 44.4713 84.8925 43.8773 82.9125 43.8773C80.1405 43.8773 79.6725 45.0473 79.6725 46.3793C79.6725 47.7293 80.1585 48.9173 82.9125 48.9173C84.8925 48.9173 85.8105 48.3053 85.9905 47.0993H90.7785C90.5805 51.0953 87.9705 52.8773 82.9125 52.8773C77.3685 52.8773 74.9925 50.7713 74.9925 46.3793ZM99.0668 52.8773C93.5228 52.8773 91.1468 50.7713 91.1468 46.3793C91.1468 42.0053 93.5228 39.9173 99.0668 39.9173C104.593 39.9173 106.987 42.0233 106.987 46.3793C106.987 50.7533 104.593 52.8773 99.0668 52.8773ZM99.0668 48.9173C101.821 48.9173 102.307 47.7113 102.307 46.3793C102.307 45.0653 101.839 43.8773 99.0668 43.8773C96.2948 43.8773 95.8268 45.0473 95.8268 46.3793C95.8268 47.7293 96.3128 48.9173 99.0668 48.9173ZM122.258 44.9213C122.258 46.7573 121.412 48.2693 120.026 49.0793L122.258 52.6973H116.714L114.968 49.7453H112.214V52.6973H107.534V40.0973H117.434C120.296 40.0973 122.258 42.1133 122.258 44.9213ZM112.214 44.0573V45.7853H116.534C117.002 45.7853 117.578 45.7853 117.578 44.9213C117.578 44.0573 117.002 44.0573 116.534 44.0573H112.214ZM132.152 40.0973C135.194 40.0973 138.056 42.1133 138.056 46.3973C138.056 50.6813 135.194 52.6973 132.152 52.6973H122.792V40.0973H132.152ZM130.712 48.7373C131.72 48.7373 133.376 48.7373 133.376 46.3973C133.376 44.0573 131.72 44.0573 130.712 44.0573H127.472V48.7373H130.712Z" fill="white"/>
<mask id="path-4-outside-1_154_789" maskUnits="userSpaceOnUse" x="36.2852" y="68.6973" width="103" height="16" fill="black">
<rect fill="white" x="36.2852" y="68.6973" width="103" height="16"/>
<path d="M47.0559 70.0973C50.0979 70.0973 52.9599 72.1133 52.9599 76.3973C52.9599 80.6813 50.0979 82.6973 47.0559 82.6973H37.6959V70.0973H47.0559ZM45.6159 78.7373C46.6239 78.7373 48.2799 78.7373 48.2799 76.3973C48.2799 74.0573 46.6239 74.0573 45.6159 74.0573H42.3759V78.7373H45.6159ZM58.1787 70.0973V82.6973H53.4987V70.0973H58.1787ZM58.7152 78.2513H63.3952C63.3952 78.8633 63.9712 79.2773 66.9412 79.2773C69.7132 79.2773 70.1272 79.0973 70.1272 78.6293C70.1272 78.0893 69.7132 78.0173 66.7612 77.9273C61.0732 77.7473 58.8952 76.8113 58.8952 73.8773C58.8952 71.1053 61.6132 69.9173 66.5812 69.9173C71.4952 69.9173 74.2672 71.1053 74.2672 74.3273H69.5872C69.5872 73.6613 68.5072 73.5173 66.2212 73.5173C64.0252 73.5173 63.5752 73.6253 63.5752 74.1113C63.5752 74.5973 64.0252 74.5793 66.7612 74.6873C71.7292 74.8853 74.8072 75.2273 74.8072 78.5213C74.8072 81.9953 71.9272 82.8773 66.7612 82.8773C61.5952 82.8773 58.7152 81.9953 58.7152 78.2513ZM74.9925 76.3793C74.9925 72.0053 77.3685 69.9173 82.9125 69.9173C87.9525 69.9173 90.5805 71.6813 90.7785 75.6593H85.9905C85.8105 74.4713 84.8925 73.8773 82.9125 73.8773C80.1405 73.8773 79.6725 75.0473 79.6725 76.3793C79.6725 77.7293 80.1585 78.9173 82.9125 78.9173C84.8925 78.9173 85.8105 78.3053 85.9905 77.0993H90.7785C90.5805 81.0953 87.9705 82.8773 82.9125 82.8773C77.3685 82.8773 74.9925 80.7713 74.9925 76.3793ZM99.0668 82.8773C93.5228 82.8773 91.1468 80.7713 91.1468 76.3793C91.1468 72.0053 93.5228 69.9173 99.0668 69.9173C104.593 69.9173 106.987 72.0233 106.987 76.3793C106.987 80.7533 104.593 82.8773 99.0668 82.8773ZM99.0668 78.9173C101.821 78.9173 102.307 77.7113 102.307 76.3793C102.307 75.0653 101.839 73.8773 99.0668 73.8773C96.2948 73.8773 95.8268 75.0473 95.8268 76.3793C95.8268 77.7293 96.3128 78.9173 99.0668 78.9173ZM122.258 74.9213C122.258 76.7573 121.412 78.2693 120.026 79.0793L122.258 82.6973H116.714L114.968 79.7453H112.214V82.6973H107.534V70.0973H117.434C120.296 70.0973 122.258 72.1133 122.258 74.9213ZM112.214 74.0573V75.7853H116.534C117.002 75.7853 117.578 75.7853 117.578 74.9213C117.578 74.0573 117.002 74.0573 116.534 74.0573H112.214ZM132.152 70.0973C135.194 70.0973 138.056 72.1133 138.056 76.3973C138.056 80.6813 135.194 82.6973 132.152 82.6973H122.792V70.0973H132.152ZM130.712 78.7373C131.72 78.7373 133.376 78.7373 133.376 76.3973C133.376 74.0573 131.72 74.0573 130.712 74.0573H127.472V78.7373H130.712Z"/>
</mask>
<path d="M37.6959 82.6973H36.6959V83.6973H37.6959V82.6973ZM37.6959 70.0973V69.0973H36.6959V70.0973H37.6959ZM42.3759 74.0573V73.0573H41.3759V74.0573H42.3759ZM42.3759 78.7373H41.3759V79.7373H42.3759V78.7373ZM47.0559 71.0973C48.3612 71.0973 49.5778 71.529 50.4604 72.3662C51.3305 73.1916 51.9599 74.4905 51.9599 76.3973H53.9599C53.9599 74.02 53.1584 72.1689 51.8369 70.9153C50.528 69.6736 48.7927 69.0973 47.0559 69.0973V71.0973ZM51.9599 76.3973C51.9599 78.304 51.3305 79.6029 50.4604 80.4283C49.5778 81.2656 48.3612 81.6973 47.0559 81.6973V83.6973C48.7927 83.6973 50.528 83.121 51.8369 81.8792C53.1584 80.6256 53.9599 78.7745 53.9599 76.3973H51.9599ZM47.0559 81.6973H37.6959V83.6973H47.0559V81.6973ZM38.6959 82.6973V70.0973H36.6959V82.6973H38.6959ZM37.6959 71.0973H47.0559V69.0973H37.6959V71.0973ZM45.6159 79.7373C46.071 79.7373 47.002 79.7575 47.8022 79.3241C48.2346 79.0899 48.6228 78.7306 48.8928 78.2112C49.1565 77.7036 49.2799 77.0965 49.2799 76.3973H47.2799C47.2799 76.868 47.1963 77.1384 47.1181 77.289C47.046 77.4276 46.9573 77.5072 46.8497 77.5655C46.5699 77.717 46.1689 77.7373 45.6159 77.7373V79.7373ZM49.2799 76.3973C49.2799 75.698 49.1565 75.0909 48.8928 74.5833C48.6228 74.0639 48.2346 73.7047 47.8022 73.4705C47.002 73.037 46.071 73.0573 45.6159 73.0573V75.0573C46.1689 75.0573 46.5699 75.0775 46.8497 75.2291C46.9573 75.2874 47.046 75.3669 47.1181 75.5056C47.1963 75.6561 47.2799 75.9265 47.2799 76.3973H49.2799ZM45.6159 73.0573H42.3759V75.0573H45.6159V73.0573ZM41.3759 74.0573V78.7373H43.3759V74.0573H41.3759ZM42.3759 79.7373H45.6159V77.7373H42.3759V79.7373ZM58.1787 70.0973H59.1787V69.0973H58.1787V70.0973ZM58.1787 82.6973V83.6973H59.1787V82.6973H58.1787ZM53.4987 82.6973H52.4987V83.6973H53.4987V82.6973ZM53.4987 70.0973V69.0973H52.4987V70.0973H53.4987ZM57.1787 70.0973V82.6973H59.1787V70.0973H57.1787ZM58.1787 81.6973H53.4987V83.6973H58.1787V81.6973ZM54.4987 82.6973V70.0973H52.4987V82.6973H54.4987ZM53.4987 71.0973H58.1787V69.0973H53.4987V71.0973ZM58.7152 78.2513V77.2513H57.7152V78.2513H58.7152ZM63.3952 78.2513H64.3952V77.2513H63.3952V78.2513ZM66.7612 77.9273L66.7295 78.9268L66.7307 78.9268L66.7612 77.9273ZM74.2672 74.3273V75.3273H75.2672V74.3273H74.2672ZM69.5872 74.3273H68.5872V75.3273H69.5872V74.3273ZM66.7612 74.6873L66.801 73.6881L66.8006 73.688L66.7612 74.6873ZM58.7152 79.2513H63.3952V77.2513H58.7152V79.2513ZM62.3952 78.2513C62.3952 78.5732 62.476 78.9528 62.7522 79.2964C63.0115 79.6188 63.3658 79.8125 63.7246 79.9378C64.4136 80.1785 65.4501 80.2773 66.9412 80.2773V78.2773C65.4622 78.2773 64.7258 78.169 64.3842 78.0497C64.2278 77.9951 64.2525 77.9705 64.3109 78.0431C64.3863 78.137 64.3952 78.2353 64.3952 78.2513H62.3952ZM66.9412 80.2773C68.3076 80.2773 69.2187 80.2365 69.7978 80.1033C70.0867 80.0369 70.4474 79.9159 70.7287 79.6326C71.0588 79.3003 71.1272 78.9071 71.1272 78.6293H69.1272C69.1272 78.5854 69.1438 78.3902 69.3096 78.2233C69.4267 78.1054 69.5106 78.1172 69.3495 78.1542C69.0286 78.228 68.3467 78.2773 66.9412 78.2773V80.2773ZM71.1272 78.6293C71.1272 78.3674 71.0751 77.9455 70.7199 77.5938C70.4206 77.2974 70.0346 77.1877 69.7518 77.1298C69.1742 77.0116 68.2278 76.9715 66.7916 76.9277L66.7307 78.9268C68.2465 78.973 68.9831 79.0139 69.3506 79.0892C69.5403 79.128 69.4422 79.1432 69.3128 79.015C69.1275 78.8316 69.1272 78.6212 69.1272 78.6293H71.1272ZM66.7928 76.9278C63.9458 76.8377 62.1801 76.5557 61.1398 76.0393C60.6507 75.7965 60.3644 75.5213 60.1885 75.2192C60.0085 74.9103 59.8952 74.489 59.8952 73.8773H57.8952C57.8952 74.7326 58.054 75.5285 58.4602 76.2258C58.8704 76.9301 59.4841 77.4503 60.2505 77.8307C61.7213 78.5608 63.8885 78.8369 66.7295 78.9268L66.7928 76.9278ZM59.8952 73.8773C59.8952 73.3554 60.0204 72.9591 60.2308 72.6418C60.445 72.3189 60.7888 72.0162 61.3186 71.754C62.4092 71.2144 64.1428 70.9173 66.5812 70.9173V68.9173C64.0515 68.9173 61.9421 69.2141 60.4317 69.9615C59.6611 70.3428 59.0148 70.8569 58.5641 71.5363C58.1097 72.2214 57.8952 73.0132 57.8952 73.8773H59.8952ZM66.5812 70.9173C68.996 70.9173 70.712 71.216 71.795 71.7957C72.3174 72.0753 72.6703 72.4086 72.8984 72.7911C73.1268 73.1741 73.2672 73.6684 73.2672 74.3273H75.2672C75.2672 73.3752 75.061 72.5127 74.6161 71.7667C74.1709 71.0203 73.5237 70.4525 72.7388 70.0324C71.2073 69.2126 69.0803 68.9173 66.5812 68.9173V70.9173ZM74.2672 73.3273H69.5872V75.3273H74.2672V73.3273ZM70.5872 74.3273C70.5872 73.8355 70.3638 73.4177 69.9989 73.1321C69.6858 72.8872 69.3053 72.7665 68.9712 72.6948C68.297 72.5501 67.3535 72.5173 66.2212 72.5173V74.5173C67.3749 74.5173 68.1143 74.5564 68.5516 74.6503C68.7732 74.6978 68.8056 74.7379 68.7665 74.7073C68.6755 74.6361 68.5872 74.486 68.5872 74.3273H70.5872ZM66.2212 72.5173C65.1529 72.5173 64.3711 72.5394 63.8535 72.6568C63.59 72.7165 63.2401 72.8319 62.9637 73.1154C62.6471 73.4402 62.5752 73.8261 62.5752 74.1113H64.5752C64.5752 74.1535 64.5595 74.3436 64.3958 74.5115C64.2725 74.638 64.1723 74.6353 64.2958 74.6073C64.5522 74.5491 65.0934 74.5173 66.2212 74.5173V72.5173ZM62.5752 74.1113C62.5752 74.4042 62.6543 74.8427 63.0613 75.1702C63.3683 75.4172 63.7436 75.4916 63.9905 75.5294C64.5182 75.6104 65.4037 75.6345 66.7217 75.6865L66.8006 73.688C65.3826 73.6321 64.6751 73.6111 64.2938 73.5526C64.0862 73.5207 64.1781 73.5017 64.3151 73.612C64.5523 73.8028 64.5752 74.0613 64.5752 74.1113H62.5752ZM66.7213 75.6865C69.248 75.7872 71.0853 75.9251 72.2957 76.3795C72.8723 76.5959 73.2257 76.8571 73.4427 77.1525C73.6548 77.4411 73.8072 77.858 73.8072 78.5213H75.8072C75.8072 77.5375 75.5748 76.6764 75.0544 75.9683C74.5391 75.2669 73.8125 74.8126 72.9986 74.5071C71.428 73.9175 69.2423 73.7854 66.801 73.6881L66.7213 75.6865ZM73.8072 78.5213C73.8072 79.2506 73.657 79.7652 73.4242 80.1443C73.1933 80.5204 72.8347 80.8387 72.2891 81.1003C71.1449 81.6488 69.3359 81.8773 66.7612 81.8773V83.8773C69.3524 83.8773 71.5665 83.6647 73.1537 82.9037C73.9739 82.5106 74.6581 81.957 75.1286 81.1907C75.5973 80.4273 75.8072 79.5289 75.8072 78.5213H73.8072ZM66.7612 81.8773C64.1829 81.8773 62.386 81.6475 61.2511 81.0753C60.7128 80.804 60.3505 80.468 60.1125 80.0546C59.8704 79.6342 59.7152 79.0604 59.7152 78.2513H57.7152C57.7152 79.3141 57.9199 80.2546 58.3792 81.0525C58.8427 81.8575 59.5232 82.444 60.3508 82.8612C61.9473 83.6661 64.1734 83.8773 66.7612 83.8773V81.8773ZM90.7785 75.6593V76.6593H91.8295L91.7773 75.6096L90.7785 75.6593ZM85.9905 75.6593L85.0018 75.8091L85.1306 76.6593H85.9905V75.6593ZM85.9905 77.0993V76.0993H85.1287L85.0015 76.9516L85.9905 77.0993ZM90.7785 77.0993L91.7773 77.1488L91.8293 76.0993H90.7785V77.0993ZM75.9925 76.3793C75.9925 74.3715 76.5317 73.0917 77.5124 72.2773C78.535 71.4282 80.2325 70.9173 82.9125 70.9173V68.9173C80.0485 68.9173 77.7861 69.4504 76.2346 70.7387C74.6413 72.0618 73.9925 74.013 73.9925 76.3793H75.9925ZM82.9125 70.9173C85.345 70.9173 87.0148 71.3483 88.0795 72.1099C89.0896 72.8323 89.6923 73.9526 89.7797 75.709L91.7773 75.6096C91.6667 73.388 90.8564 71.6372 89.243 70.4832C87.6842 69.3682 85.52 68.9173 82.9125 68.9173V70.9173ZM90.7785 74.6593H85.9905V76.6593H90.7785V74.6593ZM86.9792 75.5095C86.8497 74.6549 86.424 73.9308 85.6376 73.4632C84.912 73.0318 83.9755 72.8773 82.9125 72.8773V74.8773C83.8295 74.8773 84.342 75.0197 84.6154 75.1823C84.828 75.3087 84.9513 75.4756 85.0018 75.8091L86.9792 75.5095ZM82.9125 72.8773C81.4208 72.8773 80.2884 73.1864 79.5494 73.9182C78.7987 74.6616 78.6725 75.6252 78.6725 76.3793H80.6725C80.6725 75.8014 80.7803 75.5139 80.9566 75.3393C81.1446 75.1531 81.6322 74.8773 82.9125 74.8773V72.8773ZM78.6725 76.3793C78.6725 77.1461 78.8047 78.1137 79.5526 78.8616C80.2922 79.6012 81.4241 79.9173 82.9125 79.9173V77.9173C81.6469 77.9173 81.1588 77.6394 80.9669 77.4474C80.7833 77.2638 80.6725 76.9625 80.6725 76.3793H78.6725ZM82.9125 79.9173C83.9793 79.9173 84.9189 79.7572 85.6461 79.3149C86.4313 78.8374 86.8516 78.1042 86.9795 77.2469L85.0015 76.9516C84.9494 77.3003 84.8207 77.4761 84.6069 77.6061C84.3351 77.7714 83.8257 77.9173 82.9125 77.9173V79.9173ZM85.9905 78.0993H90.7785V76.0993H85.9905V78.0993ZM89.7797 77.0498C89.6921 78.8192 89.091 79.9483 88.0828 80.6759C87.0212 81.442 85.3532 81.8773 82.9125 81.8773V83.8773C85.5298 83.8773 87.6958 83.4216 89.2532 82.2977C90.864 81.1352 91.6669 79.3754 91.7773 77.1488L89.7797 77.0498ZM82.9125 81.8773C80.2341 81.8773 78.5373 81.3625 77.5147 80.5079C76.5325 79.6871 75.9925 78.3974 75.9925 76.3793H73.9925C73.9925 78.7532 74.6405 80.7124 76.2323 82.0426C77.7837 83.3391 80.0469 83.8773 82.9125 83.8773V81.8773ZM99.0668 81.8773C96.3884 81.8773 94.6916 81.3625 93.669 80.5079C92.6868 79.6871 92.1468 78.3974 92.1468 76.3793H90.1468C90.1468 78.7532 90.7948 80.7124 92.3866 82.0426C93.938 83.3391 96.2012 83.8773 99.0668 83.8773V81.8773ZM92.1468 76.3793C92.1468 74.3715 92.686 73.0917 93.6667 72.2773C94.6892 71.4282 96.3868 70.9173 99.0668 70.9173V68.9173C96.2028 68.9173 93.9403 69.4504 92.3889 70.7387C90.7956 72.0618 90.1468 74.013 90.1468 76.3793H92.1468ZM99.0668 70.9173C101.735 70.9173 103.434 71.4317 104.46 72.284C105.445 73.1021 105.987 74.3837 105.987 76.3793H107.987C107.987 74.0188 107.332 72.0694 105.738 70.7456C104.186 69.4559 101.924 68.9173 99.0668 68.9173V70.9173ZM105.987 76.3793C105.987 78.3851 105.444 79.6767 104.458 80.5013C103.432 81.359 101.734 81.8773 99.0668 81.8773V83.8773C101.926 83.8773 104.188 83.3336 105.74 82.0357C107.333 80.7048 107.987 78.7474 107.987 76.3793H105.987ZM99.0668 79.9173C100.559 79.9173 101.69 79.5949 102.428 78.8532C103.173 78.1045 103.307 77.1398 103.307 76.3793H101.307C101.307 76.9507 101.197 77.255 101.011 77.4424C100.817 77.6366 100.329 77.9173 99.0668 77.9173V79.9173ZM103.307 76.3793C103.307 75.6314 103.179 74.6708 102.432 73.9267C101.694 73.1926 100.562 72.8773 99.0668 72.8773V74.8773C100.343 74.8773 100.832 75.1559 101.021 75.3443C101.2 75.5227 101.307 75.8132 101.307 76.3793H103.307ZM99.0668 72.8773C97.5751 72.8773 96.4427 73.1864 95.7036 73.9182C94.953 74.6616 94.8268 75.6252 94.8268 76.3793H96.8268C96.8268 75.8014 96.9346 75.5139 97.1109 75.3393C97.2989 75.1531 97.7865 74.8773 99.0668 74.8773V72.8773ZM94.8268 76.3793C94.8268 77.1461 94.959 78.1137 95.7069 78.8616C96.4465 79.6012 97.5784 79.9173 99.0668 79.9173V77.9173C97.8012 77.9173 97.3131 77.6394 97.1212 77.4474C96.9376 77.2638 96.8268 76.9625 96.8268 76.3793H94.8268ZM120.026 79.0793L119.521 78.2159L118.637 78.7327L119.175 79.6043L120.026 79.0793ZM122.258 82.6973V83.6973H124.05L123.109 82.1722L122.258 82.6973ZM116.714 82.6973L115.853 83.2063L116.143 83.6973H116.714V82.6973ZM114.968 79.7453L115.829 79.2362L115.538 78.7453H114.968V79.7453ZM112.214 79.7453V78.7453H111.214V79.7453H112.214ZM112.214 82.6973V83.6973H113.214V82.6973H112.214ZM107.534 82.6973H106.534V83.6973H107.534V82.6973ZM107.534 70.0973V69.0973H106.534V70.0973H107.534ZM112.214 74.0573V73.0573H111.214V74.0573H112.214ZM112.214 75.7853H111.214V76.7853H112.214V75.7853ZM121.258 74.9213C121.258 76.4389 120.57 77.6031 119.521 78.2159L120.53 79.9426C122.254 78.9354 123.258 77.0756 123.258 74.9213H121.258ZM119.175 79.6043L121.407 83.2223L123.109 82.1722L120.877 78.5542L119.175 79.6043ZM122.258 81.6973H116.714V83.6973H122.258V81.6973ZM117.575 82.1882L115.829 79.2362L114.107 80.2543L115.853 83.2063L117.575 82.1882ZM114.968 78.7453H112.214V80.7453H114.968V78.7453ZM111.214 79.7453V82.6973H113.214V79.7453H111.214ZM112.214 81.6973H107.534V83.6973H112.214V81.6973ZM108.534 82.6973V70.0973H106.534V82.6973H108.534ZM107.534 71.0973H117.434V69.0973H107.534V71.0973ZM117.434 71.0973C118.623 71.0973 119.565 71.5116 120.209 72.1606C120.854 72.8108 121.258 73.7554 121.258 74.9213H123.258C123.258 73.2791 122.68 71.8118 121.629 70.752C120.576 69.691 119.107 69.0973 117.434 69.0973V71.0973ZM111.214 74.0573V75.7853H113.214V74.0573H111.214ZM112.214 76.7853H116.534V74.7853H112.214V76.7853ZM116.534 76.7853C116.702 76.7853 117.237 76.8077 117.702 76.5596C117.974 76.4145 118.214 76.1876 118.373 75.8713C118.525 75.5706 118.578 75.2426 118.578 74.9213H116.578C116.578 75.032 116.559 75.0279 116.588 74.9702C116.603 74.9399 116.627 74.9038 116.662 74.869C116.696 74.8345 116.732 74.8105 116.761 74.7949C116.789 74.78 116.808 74.7747 116.811 74.7739C116.813 74.7731 116.805 74.7755 116.782 74.7781C116.759 74.7806 116.728 74.7828 116.685 74.784C116.641 74.7852 116.594 74.7853 116.534 74.7853V76.7853ZM118.578 74.9213C118.578 74.6 118.525 74.2719 118.373 73.9712C118.214 73.6549 117.974 73.428 117.702 73.2829C117.237 73.0348 116.702 73.0573 116.534 73.0573V75.0573C116.594 75.0573 116.641 75.0573 116.685 75.0586C116.728 75.0598 116.759 75.0619 116.782 75.0645C116.805 75.0671 116.813 75.0694 116.811 75.0687C116.808 75.0678 116.789 75.0625 116.761 75.0476C116.732 75.032 116.696 75.008 116.662 74.9735C116.627 74.9387 116.603 74.9027 116.588 74.8723C116.559 74.8146 116.578 74.8106 116.578 74.9213H118.578ZM116.534 73.0573H112.214V75.0573H116.534V73.0573ZM122.792 82.6973H121.792V83.6973H122.792V82.6973ZM122.792 70.0973V69.0973H121.792V70.0973H122.792ZM127.472 74.0573V73.0573H126.472V74.0573H127.472ZM127.472 78.7373H126.472V79.7373H127.472V78.7373ZM132.152 71.0973C133.457 71.0973 134.674 71.529 135.556 72.3662C136.426 73.1916 137.056 74.4905 137.056 76.3973H139.056C139.056 74.02 138.254 72.1689 136.933 70.9153C135.624 69.6736 133.888 69.0973 132.152 69.0973V71.0973ZM137.056 76.3973C137.056 78.304 136.426 79.6029 135.556 80.4283C134.674 81.2656 133.457 81.6973 132.152 81.6973V83.6973C133.888 83.6973 135.624 83.121 136.933 81.8792C138.254 80.6256 139.056 78.7745 139.056 76.3973H137.056ZM132.152 81.6973H122.792V83.6973H132.152V81.6973ZM123.792 82.6973V70.0973H121.792V82.6973H123.792ZM122.792 71.0973H132.152V69.0973H122.792V71.0973ZM130.712 79.7373C131.167 79.7373 132.098 79.7575 132.898 79.3241C133.33 79.0899 133.719 78.7306 133.988 78.2112C134.252 77.7036 134.376 77.0965 134.376 76.3973H132.376C132.376 76.868 132.292 77.1384 132.214 77.289C132.142 77.4276 132.053 77.5072 131.945 77.5655C131.666 77.717 131.265 77.7373 130.712 77.7373V79.7373ZM134.376 76.3973C134.376 75.698 134.252 75.0909 133.988 74.5833C133.719 74.0639 133.33 73.7047 132.898 73.4705C132.098 73.037 131.167 73.0573 130.712 73.0573V75.0573C131.265 75.0573 131.666 75.0775 131.945 75.2291C132.053 75.2874 132.142 75.3669 132.214 75.5056C132.292 75.6561 132.376 75.9265 132.376 76.3973H134.376ZM130.712 73.0573H127.472V75.0573H130.712V73.0573ZM126.472 74.0573V78.7373H128.472V74.0573H126.472ZM127.472 79.7373H130.712V77.7373H127.472V79.7373Z" fill="white" mask="url(#path-4-outside-1_154_789)"/>
<path d="M47.0559 100.097C50.0979 100.097 52.9599 102.113 52.9599 106.397C52.9599 110.681 50.0979 112.697 47.0559 112.697H37.6959V100.097H47.0559ZM45.6159 108.737C46.6239 108.737 48.2799 108.737 48.2799 106.397C48.2799 104.057 46.6239 104.057 45.6159 104.057H42.3759V108.737H45.6159ZM58.1787 100.097V112.697H53.4987V100.097H58.1787ZM58.7152 108.251H63.3952C63.3952 108.863 63.9712 109.277 66.9412 109.277C69.7132 109.277 70.1272 109.097 70.1272 108.629C70.1272 108.089 69.7132 108.017 66.7612 107.927C61.0732 107.747 58.8952 106.811 58.8952 103.877C58.8952 101.105 61.6132 99.9173 66.5812 99.9173C71.4952 99.9173 74.2672 101.105 74.2672 104.327H69.5872C69.5872 103.661 68.5072 103.517 66.2212 103.517C64.0252 103.517 63.5752 103.625 63.5752 104.111C63.5752 104.597 64.0252 104.579 66.7612 104.687C71.7292 104.885 74.8072 105.227 74.8072 108.521C74.8072 111.995 71.9272 112.877 66.7612 112.877C61.5952 112.877 58.7152 111.995 58.7152 108.251ZM74.9925 106.379C74.9925 102.005 77.3685 99.9173 82.9125 99.9173C87.9525 99.9173 90.5805 101.681 90.7785 105.659H85.9905C85.8105 104.471 84.8925 103.877 82.9125 103.877C80.1405 103.877 79.6725 105.047 79.6725 106.379C79.6725 107.729 80.1585 108.917 82.9125 108.917C84.8925 108.917 85.8105 108.305 85.9905 107.099H90.7785C90.5805 111.095 87.9705 112.877 82.9125 112.877C77.3685 112.877 74.9925 110.771 74.9925 106.379ZM99.0668 112.877C93.5228 112.877 91.1468 110.771 91.1468 106.379C91.1468 102.005 93.5228 99.9173 99.0668 99.9173C104.593 99.9173 106.987 102.023 106.987 106.379C106.987 110.753 104.593 112.877 99.0668 112.877ZM99.0668 108.917C101.821 108.917 102.307 107.711 102.307 106.379C102.307 105.065 101.839 103.877 99.0668 103.877C96.2948 103.877 95.8268 105.047 95.8268 106.379C95.8268 107.729 96.3128 108.917 99.0668 108.917ZM122.258 104.921C122.258 106.757 121.412 108.269 120.026 109.079L122.258 112.697H116.714L114.968 109.745H112.214V112.697H107.534V100.097H117.434C120.296 100.097 122.258 102.113 122.258 104.921ZM112.214 104.057V105.785H116.534C117.002 105.785 117.578 105.785 117.578 104.921C117.578 104.057 117.002 104.057 116.534 104.057H112.214ZM132.152 100.097C135.194 100.097 138.056 102.113 138.056 106.397C138.056 110.681 135.194 112.697 132.152 112.697H122.792V100.097H132.152ZM130.712 108.737C131.72 108.737 133.376 108.737 133.376 106.397C133.376 104.057 131.72 104.057 130.712 104.057H127.472V108.737H130.712Z" fill="white"/>
<path d="M47.0559 130.097C50.0979 130.097 52.9599 132.113 52.9599 136.397C52.9599 140.681 50.0979 142.697 47.0559 142.697H37.6959V130.097H47.0559ZM45.6159 138.737C46.6239 138.737 48.2799 138.737 48.2799 136.397C48.2799 134.057 46.6239 134.057 45.6159 134.057H42.3759V138.737H45.6159ZM58.1787 130.097V142.697H53.4987V130.097H58.1787ZM58.7152 138.251H63.3952C63.3952 138.863 63.9712 139.277 66.9412 139.277C69.7132 139.277 70.1272 139.097 70.1272 138.629C70.1272 138.089 69.7132 138.017 66.7612 137.927C61.0732 137.747 58.8952 136.811 58.8952 133.877C58.8952 131.105 61.6132 129.917 66.5812 129.917C71.4952 129.917 74.2672 131.105 74.2672 134.327H69.5872C69.5872 133.661 68.5072 133.517 66.2212 133.517C64.0252 133.517 63.5752 133.625 63.5752 134.111C63.5752 134.597 64.0252 134.579 66.7612 134.687C71.7292 134.885 74.8072 135.227 74.8072 138.521C74.8072 141.995 71.9272 142.877 66.7612 142.877C61.5952 142.877 58.7152 141.995 58.7152 138.251ZM74.9925 136.379C74.9925 132.005 77.3685 129.917 82.9125 129.917C87.9525 129.917 90.5805 131.681 90.7785 135.659H85.9905C85.8105 134.471 84.8925 133.877 82.9125 133.877C80.1405 133.877 79.6725 135.047 79.6725 136.379C79.6725 137.729 80.1585 138.917 82.9125 138.917C84.8925 138.917 85.8105 138.305 85.9905 137.099H90.7785C90.5805 141.095 87.9705 142.877 82.9125 142.877C77.3685 142.877 74.9925 140.771 74.9925 136.379ZM99.0668 142.877C93.5228 142.877 91.1468 140.771 91.1468 136.379C91.1468 132.005 93.5228 129.917 99.0668 129.917C104.593 129.917 106.987 132.023 106.987 136.379C106.987 140.753 104.593 142.877 99.0668 142.877ZM99.0668 138.917C101.821 138.917 102.307 137.711 102.307 136.379C102.307 135.065 101.839 133.877 99.0668 133.877C96.2948 133.877 95.8268 135.047 95.8268 136.379C95.8268 137.729 96.3128 138.917 99.0668 138.917ZM122.258 134.921C122.258 136.757 121.412 138.269 120.026 139.079L122.258 142.697H116.714L114.968 139.745H112.214V142.697H107.534V130.097H117.434C120.296 130.097 122.258 132.113 122.258 134.921ZM112.214 134.057V135.785H116.534C117.002 135.785 117.578 135.785 117.578 134.921C117.578 134.057 117.002 134.057 116.534 134.057H112.214ZM132.152 130.097C135.194 130.097 138.056 132.113 138.056 136.397C138.056 140.681 135.194 142.697 132.152 142.697H122.792V130.097H132.152ZM130.712 138.737C131.72 138.737 133.376 138.737 133.376 136.397C133.376 134.057 131.72 134.057 130.712 134.057H127.472V138.737H130.712Z" fill="white" fill-opacity="0.27"/>
<path d="M47.0559 10.0973C50.0979 10.0973 52.9599 12.1133 52.9599 16.3973C52.9599 20.6813 50.0979 22.6973 47.0559 22.6973H37.6959V10.0973H47.0559ZM45.6159 18.7373C46.6239 18.7373 48.2799 18.7373 48.2799 16.3973C48.2799 14.0573 46.6239 14.0573 45.6159 14.0573H42.3759V18.7373H45.6159ZM58.1787 10.0973V22.6973H53.4987V10.0973H58.1787ZM58.7152 18.2513H63.3952C63.3952 18.8633 63.9712 19.2773 66.9412 19.2773C69.7132 19.2773 70.1272 19.0973 70.1272 18.6293C70.1272 18.0893 69.7132 18.0173 66.7612 17.9273C61.0732 17.7473 58.8952 16.8113 58.8952 13.8773C58.8952 11.1053 61.6132 9.91726 66.5812 9.91726C71.4952 9.91726 74.2672 11.1053 74.2672 14.3273H69.5872C69.5872 13.6613 68.5072 13.5173 66.2212 13.5173C64.0252 13.5173 63.5752 13.6253 63.5752 14.1113C63.5752 14.5973 64.0252 14.5793 66.7612 14.6873C71.7292 14.8853 74.8072 15.2273 74.8072 18.5213C74.8072 21.9953 71.9272 22.8773 66.7612 22.8773C61.5952 22.8773 58.7152 21.9953 58.7152 18.2513ZM74.9925 16.3793C74.9925 12.0053 77.3685 9.91726 82.9125 9.91726C87.9525 9.91726 90.5805 11.6813 90.7785 15.6593H85.9905C85.8105 14.4713 84.8925 13.8773 82.9125 13.8773C80.1405 13.8773 79.6725 15.0473 79.6725 16.3793C79.6725 17.7293 80.1585 18.9173 82.9125 18.9173C84.8925 18.9173 85.8105 18.3053 85.9905 17.0993H90.7785C90.5805 21.0953 87.9705 22.8773 82.9125 22.8773C77.3685 22.8773 74.9925 20.7713 74.9925 16.3793ZM99.0668 22.8773C93.5228 22.8773 91.1468 20.7713 91.1468 16.3793C91.1468 12.0053 93.5228 9.91726 99.0668 9.91726C104.593 9.91726 106.987 12.0233 106.987 16.3793C106.987 20.7533 104.593 22.8773 99.0668 22.8773ZM99.0668 18.9173C101.821 18.9173 102.307 17.7113 102.307 16.3793C102.307 15.0653 101.839 13.8773 99.0668 13.8773C96.2948 13.8773 95.8268 15.0473 95.8268 16.3793C95.8268 17.7293 96.3128 18.9173 99.0668 18.9173ZM122.258 14.9213C122.258 16.7573 121.412 18.2693 120.026 19.0793L122.258 22.6973H116.714L114.968 19.7453H112.214V22.6973H107.534V10.0973H117.434C120.296 10.0973 122.258 12.1133 122.258 14.9213ZM112.214 14.0573V15.7853H116.534C117.002 15.7853 117.578 15.7853 117.578 14.9213C117.578 14.0573 117.002 14.0573 116.534 14.0573H112.214ZM132.152 10.0973C135.194 10.0973 138.056 12.1133 138.056 16.3973C138.056 20.6813 135.194 22.6973 132.152 22.6973H122.792V10.0973L132.152 10.0973ZM130.712 18.7373C131.72 18.7373 133.376 18.7373 133.376 16.3973C133.376 14.0573 131.72 14.0573 130.712 14.0573H127.472V18.7373H130.712Z" fill="white" fill-opacity="0.27"/>
</g>
</svg>
