<svg width="1218" height="408" viewBox="0 0 1218 408" fill="none" xmlns="http://www.w3.org/2000/svg">
<path fill-rule="evenodd" clip-rule="evenodd" d="M116.787 405.381C175.345 405.273 233.564 348.389 233.564 232.058C233.564 111.211 175.345 26.4503 116.787 3.28691C58.2292 -19.2804 0 74.1947 0 288.815C0 371.155 58.2292 406.149 116.787 405.381ZM116.787 128.956C144.562 132.975 168.314 168.23 168.314 224.562C168.314 278.673 144.562 306.587 116.787 307.752C89.0118 310.885 65.25 289.402 65.25 233.15C65.25 166.677 89.0118 127.005 116.787 128.956ZM324.002 157.258C344.079 241.525 364.156 323.284 384.233 402.536C405.425 402.789 426.617 403.033 447.81 403.268V140.009C426.617 131.575 405.425 123.137 384.233 114.697V339.35L374.194 338.681C354.117 257.689 334.041 173.702 313.964 86.7201C292.771 78.2976 271.579 69.8872 250.387 61.4888V400.974C271.579 401.191 292.771 401.423 313.964 401.669V154.269C317.31 155.262 320.656 156.258 324.002 157.258ZM648.056 280.055C702.261 275.079 711.632 285.997 711.632 303.968C711.632 320.936 698.248 333.417 671.479 334.572C642.369 335.394 633.337 320.602 631.325 301.855C608.791 304.269 586.261 306.31 563.735 307.977C567.081 359.036 596.19 408.117 674.496 408C738.74 407.648 775.209 363.696 775.209 316.746C775.209 281.075 760.152 260.405 698.248 269.553C649.4 274.375 626.973 273.047 626.973 255.347C626.973 244.186 641.363 235.887 664.119 232.645C689.215 227.831 698.915 235.363 701.594 246.588C725.797 239.875 750 232.756 774.203 225.231C770.529 182.326 743.76 147.749 666.798 178.398C662.379 179.621 658.083 180.799 653.916 181.941C596.555 197.669 563.396 206.76 563.396 235.309C563.396 263.764 588.492 280.832 648.056 280.055ZM1012.43 163.365C1008.9 174.107 1007 185.581 1007 197.5C1007 214.962 1011.09 231.469 1018.36 246.118C1012.88 353.38 957.607 405.776 902.024 406.239C843.467 406.781 785.238 358.016 785.238 265.019C785.238 176.204 843.467 107.815 902.024 84.3722C949.009 65.5985 995.775 88.3983 1012.43 163.365ZM1035.63 271.332V400.577C1096.42 400.866 1157.21 402.482 1218 405.426V341.237C1188.18 325.764 1158.36 314.134 1128.55 306.345C1124.59 306.778 1120.57 307 1116.5 307C1084.47 307 1055.66 293.25 1035.63 271.332ZM1102.55 88.8806C1076.16 92.2365 1052.7 104.984 1035.63 123.668V36.5825C1057.94 27.9855 1080.25 19.4486 1102.55 10.9719V88.8806ZM902.024 175.048C929.789 167.706 953.551 188.034 953.551 237.404C953.551 286.214 929.789 313.856 902.024 316.114C874.249 318.444 850.488 297.33 850.488 254.309C850.488 211.558 874.249 182.471 902.024 175.048Z" fill="#03E1FF"/>
<mask id="path-2-inside-1_20_2186" fill="white">
<path fill-rule="evenodd" clip-rule="evenodd" d="M1116.83 295C1170.64 295 1214.26 251.376 1214.26 197.564C1214.26 143.752 1170.64 100.128 1116.83 100.128C1063.02 100.128 1019.39 143.752 1019.39 197.564C1019.39 251.376 1063.02 295 1116.83 295ZM1201 197.5C1201 244.168 1163.17 282 1116.5 282C1069.83 282 1032 244.168 1032 197.5C1032 150.832 1069.83 113 1116.5 113C1163.17 113 1201 150.832 1201 197.5ZM1206 197.5C1206 246.929 1165.93 287 1116.5 287C1067.07 287 1027 246.929 1027 197.5C1027 148.071 1067.07 108 1116.5 108C1165.93 108 1206 148.071 1206 197.5Z"/>
</mask>
<path fill-rule="evenodd" clip-rule="evenodd" d="M1116.83 295C1170.64 295 1214.26 251.376 1214.26 197.564C1214.26 143.752 1170.64 100.128 1116.83 100.128C1063.02 100.128 1019.39 143.752 1019.39 197.564C1019.39 251.376 1063.02 295 1116.83 295ZM1201 197.5C1201 244.168 1163.17 282 1116.5 282C1069.83 282 1032 244.168 1032 197.5C1032 150.832 1069.83 113 1116.5 113C1163.17 113 1201 150.832 1201 197.5ZM1206 197.5C1206 246.929 1165.93 287 1116.5 287C1067.07 287 1027 246.929 1027 197.5C1027 148.071 1067.07 108 1116.5 108C1165.93 108 1206 148.071 1206 197.5Z" fill="black"/>
<path d="M1213.26 197.564C1213.26 250.824 1170.09 294 1116.83 294V296C1171.19 296 1215.26 251.929 1215.26 197.564H1213.26ZM1116.83 101.128C1170.09 101.128 1213.26 144.304 1213.26 197.564H1215.26C1215.26 143.199 1171.19 99.1279 1116.83 99.1279V101.128ZM1020.39 197.564C1020.39 144.304 1063.57 101.128 1116.83 101.128V99.1279C1062.46 99.1279 1018.39 143.199 1018.39 197.564H1020.39ZM1116.83 294C1063.57 294 1020.39 250.824 1020.39 197.564H1018.39C1018.39 251.929 1062.46 296 1116.83 296V294ZM1116.5 283C1163.72 283 1202 244.72 1202 197.5H1200C1200 243.616 1162.62 281 1116.5 281V283ZM1031 197.5C1031 244.72 1069.28 283 1116.5 283V281C1070.38 281 1033 243.616 1033 197.5H1031ZM1116.5 112C1069.28 112 1031 150.28 1031 197.5H1033C1033 151.384 1070.38 114 1116.5 114V112ZM1202 197.5C1202 150.28 1163.72 112 1116.5 112V114C1162.62 114 1200 151.384 1200 197.5H1202ZM1116.5 288C1166.48 288 1207 247.482 1207 197.5H1205C1205 246.377 1165.38 286 1116.5 286V288ZM1026 197.5C1026 247.482 1066.52 288 1116.5 288V286C1067.62 286 1028 246.377 1028 197.5H1026ZM1116.5 107C1066.52 107 1026 147.518 1026 197.5H1028C1028 148.623 1067.62 109 1116.5 109V107ZM1207 197.5C1207 147.518 1166.48 107 1116.5 107V109C1165.38 109 1205 148.623 1205 197.5H1207Z" fill="black" mask="url(#path-2-inside-1_20_2186)"/>
<path d="M1051.18 187.083L1053.71 169.061L1062.44 170.287L1067.63 182.465L1076.03 172.198L1084.45 173.381L1081.92 191.404L1075.84 190.55L1077.6 178.063L1068.12 189.464L1064.82 189.001L1058.83 175.425L1057.07 187.912L1051.18 187.083ZM1093.68 174.704L1091.15 192.675L1085.02 191.814L1087.55 173.843L1093.68 174.704ZM1157.82 183.535L1163.95 184.396L1161.4 202.548L1155.27 201.687L1102.07 181.948L1100.38 193.972L1094.25 193.111L1096.8 174.959L1103.73 175.933L1156.21 194.967L1157.82 183.535ZM1171.68 204.019L1173.61 190.27L1165.17 189.084L1165.77 184.81L1188.89 188.059L1188.29 192.333L1179.82 191.142L1177.89 204.891L1171.68 204.019ZM1050.67 194.889L1057.52 195.851L1068.46 208.942L1070.06 197.614L1076.13 198.468L1073.6 216.49L1067.52 215.636L1055.87 201.815L1054.19 213.762L1048.14 212.912L1050.67 194.889ZM1145.31 215.358C1145.32 215.858 1145.28 216.351 1145.21 216.866L1145.11 217.587C1145.04 218.076 1144.94 218.562 1144.8 219.014C1144.68 219.496 1144.45 220.015 1144.16 220.578C1143.84 221.164 1143.48 221.665 1143.08 222.133C1142.64 222.597 1142.08 223.043 1141.36 223.467C1140.65 223.892 1139.87 224.203 1138.97 224.444C1138.1 224.688 1137 224.823 1135.71 224.878C1134.42 224.906 1133.01 224.814 1131.49 224.6L1088.36 218.539C1086.82 218.322 1085.44 218.024 1084.21 217.641C1082.98 217.232 1081.97 216.8 1081.17 216.32C1080.39 215.844 1079.71 215.327 1079.13 214.722C1078.59 214.12 1078.15 213.532 1077.86 212.967C1077.6 212.405 1077.39 211.824 1077.24 211.174C1077.12 210.553 1077.07 209.994 1077.06 209.494C1077.07 209.023 1077.12 208.53 1077.19 208.041L1077.29 207.32C1077.36 206.805 1077.45 206.32 1077.57 205.864C1077.71 205.411 1077.92 204.888 1078.21 204.325C1078.52 203.74 1078.88 203.239 1079.29 202.771C1079.72 202.307 1080.28 201.886 1081 201.462C1081.68 201.06 1082.49 200.727 1083.39 200.511C1084.29 200.27 1085.38 200.161 1086.68 200.107C1087.97 200.078 1089.37 200.171 1090.92 200.388L1134.04 206.449C1135.56 206.662 1136.94 206.961 1138.17 207.344C1139.37 207.749 1140.39 208.155 1141.19 208.635C1141.97 209.085 1142.65 209.628 1143.23 210.208C1143.77 210.81 1144.19 211.368 1144.48 211.933C1144.77 212.499 1144.98 213.079 1145.13 213.704C1145.25 214.325 1145.33 214.887 1145.31 215.358ZM1139.35 216.541L1139.39 216.232C1139.45 215.769 1139.46 215.349 1139.41 214.949C1139.36 214.548 1139.19 214.104 1138.94 213.622C1138.69 213.167 1138.33 212.749 1137.86 212.367C1137.41 212.015 1136.75 211.66 1135.9 211.331C1135.16 211.042 1134.27 210.839 1133.24 210.668C1133.14 210.654 1090.91 204.719 1090.81 204.705C1086.04 204.035 1083.46 205.221 1083.03 208.311L1082.99 208.594C1082.91 209.161 1082.94 209.69 1083.07 210.234C1083.18 210.749 1083.45 211.311 1083.86 211.894C1084.26 212.449 1084.95 212.965 1085.89 213.386C1086.85 213.836 1088.04 214.161 1089.45 214.36C1089.55 214.374 1131.78 220.309 1131.88 220.323C1133.15 220.475 1134.28 220.476 1135.21 220.345C1136.24 220.174 1137.04 219.892 1137.59 219.472C1138.15 219.051 1138.56 218.583 1138.83 218.123C1139.11 217.637 1139.27 217.107 1139.35 216.541ZM1159.38 228.31L1152.69 227.37L1147.23 208.46L1153.85 209.39L1157.13 222.322L1161.96 213.549L1169.78 214.649L1172.39 224.126L1178.95 212.918L1184.93 213.758L1174.57 230.445L1168.47 229.588L1165.81 218.449L1164.78 218.304L1159.38 228.31Z" fill="white"/>
</svg>
