<svg width="396" height="297" viewBox="0 0 396 297" fill="none" xmlns="http://www.w3.org/2000/svg">
<mask id="mask0_128_815" style="mask-type:alpha" maskUnits="userSpaceOnUse" x="0" y="0" width="396" height="297">
<rect x="0.5" y="0.5" width="395" height="296" rx="16.5" fill="#6A0F7B" stroke="white"/>
</mask>
<g mask="url(#mask0_128_815)">
<rect x="0.5" y="0.5" width="395" height="296" rx="16.5" fill="#6A0F7B" stroke="white"/>
<path d="M70.0995 107.036V81.836H82.3035L91.7715 97.532L101.311 81.836H113.083V107.036H104.587V89.576L93.7875 107.036H89.1795L78.3435 89.576V107.036H70.0995ZM151.439 107L148.883 102.392H126.455L123.971 107H115.223L129.119 81.764H146.003L160.727 107H151.439ZM140.567 87.56H134.447L129.515 96.668H145.679L140.567 87.56ZM176.661 107C173.925 107 171.513 106.82 169.497 106.388C167.445 105.956 165.861 105.416 164.745 104.804C163.665 104.192 162.765 103.472 162.117 102.608C161.469 101.744 161.037 100.952 160.857 100.232C160.677 99.548 160.605 98.792 160.605 98V97.64H169.569C169.749 100.304 171.693 101.636 176.949 101.636H226.161C227.853 101.636 228.609 101.564 229.725 101.42C230.877 101.276 231.705 101.06 232.209 100.772C232.713 100.52 233.073 100.232 233.253 99.944C233.397 99.692 233.505 99.332 233.505 98.972C233.505 98.432 233.361 98 233.037 97.676C232.749 97.352 232.065 97.064 230.985 96.848C229.905 96.596 228.357 96.452 226.305 96.416L176.373 96.344L174.357 96.308C165.429 96.092 160.965 93.644 160.965 88.928V88.64C160.965 87.812 161.073 87.056 161.289 86.372C161.505 85.688 161.937 85.004 162.621 84.32C163.269 83.636 164.133 83.06 165.213 82.556C166.293 82.088 167.733 81.692 169.569 81.404C171.369 81.116 173.493 80.936 175.905 80.936H225.657C228.177 80.936 230.409 81.116 232.317 81.404C234.225 81.728 235.773 82.16 236.925 82.628C238.041 83.132 238.977 83.744 239.733 84.464C240.453 85.184 240.957 85.904 241.209 86.624C241.497 87.344 241.605 88.1 241.605 88.892V89.252H232.677C232.641 88.964 232.569 88.748 232.497 88.532C232.389 88.352 232.209 88.1 231.885 87.776C231.561 87.488 231.129 87.2 230.625 87.02C230.085 86.804 229.329 86.624 228.321 86.48C227.277 86.3 226.521 86.228 225.153 86.228H176.661C174.573 86.228 173.277 86.336 172.161 86.588C171.081 86.804 170.397 87.056 170.181 87.344C169.929 87.596 169.821 87.956 169.821 88.388C169.821 88.82 169.929 89.18 170.217 89.432C170.469 89.72 171.081 89.972 172.053 90.188C173.025 90.404 174.393 90.548 176.157 90.548L225.405 90.584L227.997 90.62C233.109 90.728 236.817 91.376 239.085 92.528C241.353 93.716 242.505 95.588 242.505 98.108V98.576C242.505 99.512 242.397 100.34 242.181 101.06C241.965 101.816 241.497 102.572 240.813 103.328C240.129 104.084 239.193 104.732 238.041 105.272C236.925 105.776 235.341 106.208 233.361 106.532C231.381 106.856 229.077 107 226.413 107H176.661ZM261.001 107C258.265 107 255.853 106.82 253.837 106.388C251.785 105.956 250.201 105.416 249.085 104.804C248.005 104.192 247.105 103.472 246.457 102.608C245.809 101.744 245.377 100.952 245.197 100.232C245.017 99.548 244.945 98.792 244.945 98V97.64H253.909C254.089 100.304 256.033 101.636 261.289 101.636H310.501C312.193 101.636 312.949 101.564 314.065 101.42C315.217 101.276 316.045 101.06 316.549 100.772C317.053 100.52 317.413 100.232 317.593 99.944C317.737 99.692 317.845 99.332 317.845 98.972C317.845 98.432 317.701 98 317.377 97.676C317.089 97.352 316.405 97.064 315.325 96.848C314.245 96.596 312.697 96.452 310.645 96.416L260.713 96.344L258.697 96.308C249.769 96.092 245.305 93.644 245.305 88.928V88.64C245.305 87.812 245.413 87.056 245.629 86.372C245.845 85.688 246.277 85.004 246.961 84.32C247.609 83.636 248.473 83.06 249.553 82.556C250.633 82.088 252.073 81.692 253.909 81.404C255.709 81.116 257.833 80.936 260.245 80.936H309.997C312.517 80.936 314.749 81.116 316.657 81.404C318.565 81.728 320.113 82.16 321.265 82.628C322.381 83.132 323.317 83.744 324.073 84.464C324.793 85.184 325.297 85.904 325.549 86.624C325.837 87.344 325.945 88.1 325.945 88.892V89.252H317.017C316.981 88.964 316.909 88.748 316.837 88.532C316.729 88.352 316.549 88.1 316.225 87.776C315.901 87.488 315.469 87.2 314.965 87.02C314.425 86.804 313.669 86.624 312.661 86.48C311.617 86.3 310.861 86.228 309.493 86.228H261.001C258.913 86.228 257.617 86.336 256.501 86.588C255.421 86.804 254.737 87.056 254.521 87.344C254.269 87.596 254.161 87.956 254.161 88.388C254.161 88.82 254.269 89.18 254.557 89.432C254.809 89.72 255.421 89.972 256.393 90.188C257.365 90.404 258.733 90.548 260.497 90.548L309.745 90.584L312.337 90.62C317.449 90.728 321.157 91.376 323.425 92.528C325.693 93.716 326.845 95.588 326.845 98.108V98.576C326.845 99.512 326.737 100.34 326.521 101.06C326.305 101.816 325.837 102.572 325.153 103.328C324.469 104.084 323.533 104.732 322.381 105.272C321.265 105.776 319.681 106.208 317.701 106.532C315.721 106.856 313.417 107 310.753 107H261.001Z" fill="white"/>
<path d="M23.5174 117.764H52.4974V123.488H32.0134V127.232H52.0294V132.992H32.0134V137.132H52.8934V143H23.5174V117.764ZM64.9849 142.712H54.5449L68.0089 130.148L54.8329 117.836H66.1729L73.8409 125.144L81.5089 117.836H91.9129L78.9169 129.968L92.2009 142.712H81.5449L73.2289 134.972L64.9849 142.712ZM104.4 143.036V123.812H92.5924V117.836H124.92V123.812H113.076V143.036H104.4ZM136.006 117.872V143H127.438V117.872H136.006ZM140.342 117.836H149.918L167.45 133.676V117.836H175.946V143.036H167.45L148.802 126.332V143.036H140.342V117.836ZM197.63 143.432C195.434 143.432 193.454 143.288 191.618 142.964C189.782 142.64 188.234 142.244 187.01 141.74C185.75 141.2 184.67 140.588 183.698 139.868C182.726 139.112 181.97 138.392 181.43 137.636C180.89 136.88 180.458 136.088 180.098 135.224C179.738 134.36 179.486 133.568 179.378 132.884C179.27 132.164 179.234 131.48 179.234 130.796V129.788C179.234 128.708 179.342 127.664 179.558 126.692C179.774 125.72 180.278 124.64 181.034 123.452C181.826 122.264 182.834 121.22 184.094 120.356C185.354 119.492 187.154 118.772 189.494 118.196C191.798 117.584 194.534 117.296 197.63 117.296H199.142C202.202 117.296 204.866 117.548 207.206 118.052C209.51 118.592 211.31 119.204 212.57 119.924C213.83 120.68 214.874 121.508 215.666 122.48C216.494 123.452 216.998 124.316 217.25 125.072C217.466 125.828 217.574 126.548 217.574 127.232V127.628H208.43C208.358 127.34 208.286 127.124 208.178 126.908C208.07 126.692 207.782 126.332 207.314 125.864C206.846 125.396 206.306 125 205.658 124.676C205.01 124.352 204.038 124.064 202.778 123.812C201.482 123.56 200.042 123.416 198.386 123.416C196.406 123.416 194.714 123.596 193.346 123.992C191.942 124.352 190.898 124.856 190.178 125.504C189.494 126.188 188.99 126.872 188.702 127.592C188.378 128.312 188.234 129.104 188.234 129.968V130.364C188.234 131.192 188.414 131.984 188.738 132.74C189.062 133.496 189.602 134.216 190.322 134.936C191.042 135.656 192.086 136.232 193.49 136.664C194.894 137.096 196.55 137.312 198.458 137.312C204.11 137.312 207.422 135.836 208.43 132.92C208.466 132.884 208.466 132.848 208.466 132.812H217.61V133.172C217.61 133.928 217.502 134.72 217.25 135.512C216.962 136.304 216.422 137.168 215.63 138.176C214.802 139.148 213.758 140.012 212.462 140.768C211.202 141.488 209.402 142.136 207.098 142.676C204.794 143.18 202.13 143.432 199.142 143.432H197.63ZM230.893 143.036V123.812H219.085V117.836H251.413V123.812H239.569V143.036H230.893ZM262.499 117.872V143H253.931V117.872H262.499ZM284.438 117.764H314.894C317.234 117.764 319.322 117.944 321.194 118.232C323.066 118.52 324.65 118.916 325.946 119.384C327.206 119.852 328.322 120.464 329.258 121.148C330.23 121.868 330.986 122.552 331.49 123.236C332.03 123.956 332.462 124.712 332.822 125.54C333.146 126.368 333.362 127.124 333.47 127.772C333.542 128.42 333.578 129.104 333.578 129.824V130.832C333.578 131.516 333.542 132.2 333.47 132.848C333.362 133.496 333.146 134.252 332.822 135.116C332.462 135.944 332.03 136.736 331.526 137.42C330.986 138.14 330.266 138.86 329.294 139.544C328.322 140.264 327.206 140.876 325.946 141.38C324.686 141.848 323.102 142.244 321.23 142.568C319.322 142.856 317.234 143 314.894 143H284.438C282.098 143 280.01 142.856 278.102 142.568C276.194 142.244 274.61 141.848 273.35 141.38C272.09 140.876 270.974 140.264 270.002 139.544C269.03 138.86 268.274 138.14 267.77 137.42C267.23 136.736 266.798 135.944 266.474 135.116C266.15 134.252 265.934 133.496 265.826 132.848C265.754 132.2 265.718 131.516 265.718 130.832V129.824C265.718 129.104 265.754 128.42 265.826 127.808C265.934 127.16 266.15 126.404 266.474 125.576C266.798 124.712 267.23 123.956 267.77 123.236C268.274 122.552 269.03 121.868 270.002 121.148C270.938 120.464 272.054 119.852 273.314 119.384C274.61 118.916 276.194 118.52 278.102 118.232C280.01 117.944 282.098 117.764 284.438 117.764ZM324.866 130.076C324.866 129.464 324.794 128.888 324.614 128.348C324.47 127.772 324.146 127.232 323.678 126.62C323.174 126.044 322.562 125.54 321.806 125.108C321.05 124.712 320.006 124.352 318.71 124.1C317.63 123.848 316.406 123.74 315.038 123.704C314.714 123.668 284.762 123.668 284.546 123.668C277.814 123.812 274.43 125.936 274.43 130.076V130.472C274.43 131.264 274.574 131.984 274.862 132.704C275.15 133.388 275.654 134.108 276.374 134.792C277.094 135.476 278.21 136.052 279.722 136.448C281.09 136.844 282.746 137.06 284.69 137.096C284.834 137.096 314.642 137.096 314.894 137.06C316.694 137.024 318.242 136.844 319.538 136.484C321.014 136.088 322.13 135.512 322.886 134.828C323.606 134.144 324.146 133.46 324.434 132.776C324.722 132.056 324.866 131.3 324.866 130.544V130.076ZM336.83 117.836H346.406L363.938 133.676V117.836H372.434V143.036H363.938L345.29 126.332V143.036H336.83V117.836Z" fill="#E3B801"/>
<path d="M81.477 167.9V171.373H73.657V184H69.517V171.373H61.697V167.9H81.477ZM94.6601 170.223C98.2711 170.223 101.652 171.511 101.698 176.502L101.652 184H97.6961V177.997C97.6961 175.122 96.7301 173.627 93.4871 173.627C90.8421 173.627 87.9901 174.984 86.7711 176.41V184H82.8381V165.6H86.7711V172.822C88.7031 171.304 91.3711 170.223 94.6601 170.223ZM103.525 165.6H107.458V169.027H103.525V165.6ZM103.525 170.453H107.458V184H103.525V170.453ZM108.955 179.239H112.888C112.888 180.688 114.383 181.24 118.776 181.24C123.031 181.24 123.721 180.964 123.721 179.906C123.721 178.871 123.077 178.802 118.316 178.503C112.359 178.158 109.438 177.698 109.438 174.432C109.438 170.89 113.578 170.223 118.408 170.223C123.514 170.223 127.217 170.89 127.217 174.616H123.261C123.261 173.489 121.835 173.213 118.178 173.213C114.452 173.213 113.394 173.489 113.394 174.271C113.394 175.122 114.107 175.26 118.776 175.605C124.066 175.996 127.677 176.134 127.677 179.745C127.677 183.563 124.227 184.23 119.006 184.23C113.785 184.23 108.955 183.563 108.955 179.239ZM139.934 165.6H143.867V169.027H139.934V165.6ZM139.934 170.453H143.867V184H139.934V170.453ZM145.364 179.239H149.297C149.297 180.688 150.792 181.24 155.185 181.24C159.44 181.24 160.13 180.964 160.13 179.906C160.13 178.871 159.486 178.802 154.725 178.503C148.768 178.158 145.847 177.698 145.847 174.432C145.847 170.89 149.987 170.223 154.817 170.223C159.923 170.223 163.626 170.89 163.626 174.616H159.67C159.67 173.489 158.244 173.213 154.587 173.213C150.861 173.213 149.803 173.489 149.803 174.271C149.803 175.122 150.516 175.26 155.185 175.605C160.475 175.996 164.086 176.134 164.086 179.745C164.086 183.563 160.636 184.23 155.415 184.23C150.194 184.23 145.364 183.563 145.364 179.239ZM190.051 173.742H183.634V177.652C183.634 180.274 184.14 180.941 186.532 180.941C187.774 180.941 188.464 180.941 190.051 180.711V183.885C188.74 184.115 187.245 184.23 185.428 184.23C181.932 184.23 179.678 182.919 179.678 179.929V173.742H176.113V170.453H179.678V167.647L183.634 166.52V170.453H190.051V173.742ZM203.483 170.223C207.094 170.223 210.475 171.511 210.521 176.502L210.475 184H206.519V177.997C206.519 175.122 205.553 173.627 202.31 173.627C199.665 173.627 196.813 174.984 195.594 176.41V184H191.661V165.6H195.594V172.822C197.526 171.304 200.194 170.223 203.483 170.223ZM221.047 181.033C223.761 181.033 225.417 180.527 226.406 179.147H230.316C229.419 182.597 226.061 184.23 221.047 184.23C215.895 184.23 211.893 182.206 211.893 177.238C211.893 172.247 215.78 170.223 221.277 170.223C226.429 170.223 230.546 171.994 230.546 178.158H215.918C216.355 180.32 218.425 181.033 221.047 181.033ZM221.254 173.213C218.563 173.213 216.677 173.742 216.056 175.651H226.337C225.67 173.742 223.738 173.213 221.254 173.213ZM253.5 170.223C257.87 170.223 261.573 172.063 261.573 177.238C261.573 182.413 257.87 184.23 253.5 184.23C250.579 184.23 248.233 183.448 246.761 181.907V189.75H242.805V170.453H246.761V172.546C248.233 171.028 250.579 170.223 253.5 170.223ZM252.189 180.941C255.708 180.941 257.64 179.906 257.64 177.238C257.64 174.547 255.708 173.512 252.189 173.512C248.67 173.512 246.761 174.547 246.761 177.238C246.761 179.906 248.67 180.941 252.189 180.941ZM272.018 170.223C277.676 170.223 280.896 172.04 280.942 177.169V184H276.986V182.321C274.594 183.494 271.949 184.23 268.752 184.23C264.957 184.23 262.588 183.011 262.588 179.952C262.588 176.433 266.452 175.329 270.753 175.329C273.076 175.329 275.215 175.697 276.986 176.295C276.986 173.719 273.674 173.512 271.834 173.512C270.063 173.512 267.901 173.673 265.118 174.501L263.715 171.626C266.475 170.729 269.189 170.223 272.018 170.223ZM276.986 179.791V178.733C275.606 178.296 273.743 177.905 271.236 177.905C268.292 177.905 266.521 178.411 266.521 179.791C266.521 181.217 267.832 181.332 269.879 181.332C272.018 181.332 274.962 180.665 276.986 179.791ZM293.575 170.223C295.185 170.223 296.312 170.453 297.232 170.683V173.972C295.944 173.65 294.909 173.512 293.759 173.512C291.551 173.512 289.021 174.018 286.629 175.881V184H282.696V170.453H286.629V172.753C288.653 170.936 291.045 170.223 293.575 170.223ZM312.306 173.742H305.889V177.652C305.889 180.274 306.395 180.941 308.787 180.941C310.029 180.941 310.719 180.941 312.306 180.711V183.885C310.995 184.115 309.5 184.23 307.683 184.23C304.187 184.23 301.933 182.919 301.933 179.929V173.742H298.368V170.453H301.933V167.647L305.889 166.52V170.453H312.306V173.742ZM40.2891 198.453H44.6821L38.5871 212H33.3431L29.3641 202.57L25.3851 212H20.1411L14.0461 198.453H18.4391L22.8781 208.918L27.0181 198.453H31.7101L35.8501 208.895L40.2891 198.453ZM57.4985 198.223C61.1095 198.223 64.4905 199.511 64.5365 204.502L64.4905 212H60.5345V205.997C60.5345 203.122 59.5685 201.627 56.3255 201.627C53.6805 201.627 50.8285 202.984 49.6095 204.41V212H45.6765V193.6H49.6095V200.822C51.5415 199.304 54.2095 198.223 57.4985 198.223ZM75.0624 209.033C77.7764 209.033 79.4324 208.527 80.4214 207.147H84.3314C83.4344 210.597 80.0764 212.23 75.0624 212.23C69.9104 212.23 65.9084 210.206 65.9084 205.238C65.9084 200.247 69.7954 198.223 75.2924 198.223C80.4444 198.223 84.5614 199.994 84.5614 206.158H69.9334C70.3704 208.32 72.4404 209.033 75.0624 209.033ZM75.2694 201.213C72.5784 201.213 70.6924 201.742 70.0714 203.651H80.3524C79.6854 201.742 77.7534 201.213 75.2694 201.213ZM96.9403 198.223C98.5503 198.223 99.6773 198.453 100.597 198.683V201.972C99.3093 201.65 98.2743 201.512 97.1243 201.512C94.9163 201.512 92.3863 202.018 89.9943 203.881V212H86.0613V198.453H89.9943V200.753C92.0183 198.936 94.4103 198.223 96.9403 198.223ZM110.124 209.033C112.838 209.033 114.494 208.527 115.483 207.147H119.393C118.496 210.597 115.138 212.23 110.124 212.23C104.972 212.23 100.97 210.206 100.97 205.238C100.97 200.247 104.857 198.223 110.354 198.223C115.506 198.223 119.623 199.994 119.623 206.158H104.995C105.432 208.32 107.502 209.033 110.124 209.033ZM110.331 201.213C107.64 201.213 105.754 201.742 105.133 203.651H115.414C114.747 201.742 112.815 201.213 110.331 201.213ZM157.895 198.453H162.288L156.193 212H150.949L146.97 202.57L142.991 212H137.747L131.652 198.453H136.045L140.484 208.918L144.624 198.453H149.316L153.456 208.895L157.895 198.453ZM170.746 209.033C173.46 209.033 175.116 208.527 176.105 207.147H180.015C179.118 210.597 175.76 212.23 170.746 212.23C165.594 212.23 161.592 210.206 161.592 205.238C161.592 200.247 165.479 198.223 170.976 198.223C176.128 198.223 180.245 199.994 180.245 206.158H165.617C166.054 208.32 168.124 209.033 170.746 209.033ZM170.953 201.213C168.262 201.213 166.376 201.742 165.755 203.651H176.036C175.369 201.742 173.437 201.213 170.953 201.213ZM213.02 198.453L204.234 203.996L213.02 212H207.546L201.06 206.089L196.437 208.872V212H192.504V193.6H196.437V204.548L206.304 198.453H213.02ZM213.909 193.6H217.842V197.027H213.909V193.6ZM213.909 198.453H217.842V212H213.909V198.453ZM219.681 193.6H223.614V212H219.681V193.6ZM225.454 193.6H229.387V212H225.454V193.6ZM257.099 198.453H261.446L252.292 217.75H247.945L250.682 212H248.658L241.643 198.453H246.013L251.809 209.631L257.099 198.453ZM270.119 212.23C264.507 212.23 260.735 210.206 260.735 205.238C260.735 200.247 264.507 198.223 270.119 198.223C275.708 198.223 279.503 200.247 279.503 205.238C279.503 210.206 275.708 212.23 270.119 212.23ZM270.119 208.941C273.753 208.941 275.547 208.044 275.547 205.238C275.547 202.409 273.753 201.512 270.119 201.512C266.462 201.512 264.668 202.409 264.668 205.238C264.668 208.044 266.462 208.941 270.119 208.941ZM295.904 198.453H299.837V212H295.904V209.631C293.972 211.149 291.304 212.23 288.015 212.23C284.404 212.23 281.023 210.942 280.977 205.951L281.023 198.453H284.979V204.456C284.979 207.331 285.945 208.826 289.188 208.826C291.833 208.826 294.685 207.469 295.904 206.043V198.453ZM321.533 198.223C327.191 198.223 330.411 200.04 330.457 205.169V212H326.501V210.321C324.109 211.494 321.464 212.23 318.267 212.23C314.472 212.23 312.103 211.011 312.103 207.952C312.103 204.433 315.967 203.329 320.268 203.329C322.591 203.329 324.73 203.697 326.501 204.295C326.501 201.719 323.189 201.512 321.349 201.512C319.578 201.512 317.416 201.673 314.633 202.501L313.23 199.626C315.99 198.729 318.704 198.223 321.533 198.223ZM326.501 207.791V206.733C325.121 206.296 323.258 205.905 320.751 205.905C317.807 205.905 316.036 206.411 316.036 207.791C316.036 209.217 317.347 209.332 319.394 209.332C321.533 209.332 324.477 208.665 326.501 207.791ZM332.301 193.6H336.234V212H332.301V193.6ZM338.073 193.6H342.006V212H338.073V193.6ZM343.98 208.918H347.913V212H343.98V208.918ZM349.887 208.918H353.82V212H349.887V208.918ZM355.795 208.918H359.728V212H355.795V208.918Z" fill="white"/>
</g>
</svg>
