<svg width="390" height="15" viewBox="0 0 390 15" fill="none" xmlns="http://www.w3.org/2000/svg">
<path d="M8.10973 14C6.74173 14 5.53573 13.91 4.52773 13.694C3.50173 13.478 2.70973 13.208 2.15173 12.902C1.61173 12.596 1.16173 12.236 0.837727 11.804C0.513727 11.372 0.297727 10.976 0.207727 10.616C0.117727 10.274 0.0817266 9.896 0.0817266 9.5V9.32H4.56373C4.65373 10.652 5.62573 11.318 8.25373 11.318H32.8597C33.7057 11.318 34.0837 11.282 34.6417 11.21C35.2177 11.138 35.6317 11.03 35.8837 10.886C36.1357 10.76 36.3157 10.616 36.4057 10.472C36.4777 10.346 36.5317 10.166 36.5317 9.986C36.5317 9.716 36.4597 9.5 36.2977 9.338C36.1537 9.176 35.8117 9.032 35.2717 8.924C34.7317 8.798 33.9577 8.726 32.9317 8.708L7.96573 8.672L6.95773 8.654C2.49373 8.546 0.261727 7.322 0.261727 4.964V4.82C0.261727 4.406 0.315727 4.028 0.423727 3.686C0.531727 3.344 0.747727 3.002 1.08973 2.66C1.41373 2.318 1.84573 2.03 2.38573 1.778C2.92573 1.544 3.64573 1.346 4.56373 1.202C5.46373 1.058 6.52573 0.967999 7.73173 0.967999H32.6077C33.8677 0.967999 34.9837 1.058 35.9377 1.202C36.8917 1.364 37.6657 1.58 38.2417 1.814C38.7997 2.066 39.2677 2.372 39.6457 2.732C40.0057 3.092 40.2577 3.452 40.3837 3.812C40.5277 4.172 40.5817 4.55 40.5817 4.946V5.126H36.1177C36.0997 4.982 36.0637 4.874 36.0277 4.766C35.9737 4.676 35.8837 4.55 35.7217 4.388C35.5597 4.244 35.3437 4.1 35.0917 4.01C34.8217 3.902 34.4437 3.812 33.9397 3.74C33.4177 3.65 33.0397 3.614 32.3557 3.614H8.10973C7.06573 3.614 6.41773 3.668 5.85973 3.794C5.31973 3.902 4.97773 4.028 4.86973 4.172C4.74373 4.298 4.68973 4.478 4.68973 4.694C4.68973 4.91 4.74373 5.09 4.88773 5.216C5.01373 5.36 5.31973 5.486 5.80573 5.594C6.29173 5.702 6.97573 5.774 7.85773 5.774L32.4817 5.792L33.7777 5.81C36.3337 5.864 38.1877 6.188 39.3217 6.764C40.4557 7.358 41.0317 8.294 41.0317 9.554V9.788C41.0317 10.256 40.9777 10.67 40.8697 11.03C40.7617 11.408 40.5277 11.786 40.1857 12.164C39.8437 12.542 39.3757 12.866 38.7997 13.136C38.2417 13.388 37.4497 13.604 36.4597 13.766C35.4697 13.928 34.3177 14 32.9857 14H8.10973ZM47.0036 14.018H42.7196V1.418H47.0036V6.674L54.0416 1.418H59.5136L51.6116 7.178L59.8736 14.018H54.2576L47.0036 8.078V14.018ZM65.2493 1.436V14H60.9653V1.436H65.2493ZM67.4169 14V1.382H102.121C103.939 1.382 105.235 1.652 105.991 2.192C106.765 2.732 107.143 3.416 107.143 4.262V4.514C107.143 4.892 107.071 5.234 106.909 5.558C106.765 5.864 106.549 6.116 106.297 6.296C106.027 6.476 105.793 6.62 105.595 6.728C105.379 6.836 105.163 6.908 104.965 6.962C105.253 7.034 105.541 7.124 105.829 7.25C106.117 7.376 106.423 7.556 106.783 7.79C107.125 8.024 107.395 8.348 107.611 8.744C107.809 9.158 107.917 9.626 107.917 10.148V10.382C107.917 12.794 106.027 14 102.229 14H67.4169ZM71.7189 4.046V6.098H101.365C102.373 6.098 102.877 5.756 102.877 5.09V5.054C102.877 4.388 102.373 4.046 101.365 4.046H71.7189ZM101.743 8.78H71.7189V11.264H101.743C102.391 11.264 102.823 11.138 103.075 10.886C103.327 10.634 103.453 10.346 103.453 10.022V9.95C103.453 9.176 102.877 8.78 101.743 8.78ZM113.835 1.436V14H109.551V1.436H113.835ZM116.003 14V1.382H147.953C149.231 1.382 150.383 1.472 151.427 1.616C152.453 1.778 153.317 2.012 154.019 2.318C154.703 2.606 155.297 2.948 155.783 3.308C156.287 3.686 156.665 4.1 156.917 4.55C157.187 5.018 157.367 5.468 157.493 5.918C157.601 6.368 157.655 6.854 157.655 7.358V7.862C157.655 8.474 157.583 9.032 157.439 9.554C157.295 10.076 156.989 10.634 156.557 11.192C156.125 11.75 155.549 12.236 154.865 12.632C154.181 13.028 153.245 13.352 152.057 13.622C150.869 13.874 149.501 14 147.971 14H116.003ZM120.305 4.37V10.976H147.611C151.301 10.976 153.155 9.878 153.155 7.718V7.61C153.155 5.45 151.301 4.37 147.611 4.37H120.305ZM163.546 1.436V14H159.262V1.436H163.546ZM180.368 14.018V4.406H174.464V1.418H190.628V4.406H184.706V14.018H180.368ZM200.707 1.382H215.935C217.105 1.382 218.149 1.472 219.085 1.616C220.021 1.76 220.813 1.958 221.461 2.192C222.091 2.426 222.649 2.732 223.117 3.074C223.603 3.434 223.981 3.776 224.233 4.118C224.503 4.478 224.719 4.856 224.899 5.27C225.061 5.684 225.169 6.062 225.223 6.386C225.259 6.71 225.277 7.052 225.277 7.412V7.916C225.277 8.258 225.259 8.6 225.223 8.924C225.169 9.248 225.061 9.626 224.899 10.058C224.719 10.472 224.503 10.868 224.251 11.21C223.981 11.57 223.621 11.93 223.135 12.272C222.649 12.632 222.091 12.938 221.461 13.19C220.831 13.424 220.039 13.622 219.103 13.784C218.149 13.928 217.105 14 215.935 14H200.707C199.537 14 198.493 13.928 197.539 13.784C196.585 13.622 195.793 13.424 195.163 13.19C194.533 12.938 193.975 12.632 193.489 12.272C193.003 11.93 192.625 11.57 192.373 11.21C192.103 10.868 191.887 10.472 191.725 10.058C191.563 9.626 191.455 9.248 191.401 8.924C191.365 8.6 191.347 8.258 191.347 7.916V7.412C191.347 7.052 191.365 6.71 191.401 6.404C191.455 6.08 191.563 5.702 191.725 5.288C191.887 4.856 192.103 4.478 192.373 4.118C192.625 3.776 193.003 3.434 193.489 3.074C193.957 2.732 194.515 2.426 195.145 2.192C195.793 1.958 196.585 1.76 197.539 1.616C198.493 1.472 199.537 1.382 200.707 1.382ZM220.921 7.538C220.921 7.232 220.885 6.944 220.795 6.674C220.723 6.386 220.561 6.116 220.327 5.81C220.075 5.522 219.769 5.27 219.391 5.054C219.013 4.856 218.491 4.676 217.843 4.55C217.303 4.424 216.691 4.37 216.007 4.352C215.845 4.334 200.869 4.334 200.761 4.334C197.395 4.406 195.703 5.468 195.703 7.538V7.736C195.703 8.132 195.775 8.492 195.919 8.852C196.063 9.194 196.315 9.554 196.675 9.896C197.035 10.238 197.593 10.526 198.349 10.724C199.033 10.922 199.861 11.03 200.833 11.048C200.905 11.048 215.809 11.048 215.935 11.03C216.835 11.012 217.609 10.922 218.257 10.742C218.995 10.544 219.553 10.256 219.931 9.914C220.291 9.572 220.561 9.23 220.705 8.888C220.849 8.528 220.921 8.15 220.921 7.772V7.538ZM231.169 1.436V14H226.885V1.436H231.169ZM233.337 1.418H237.621V10.886H247.179V14.018H233.337V1.418ZM248.489 1.382H289.241V4.244H252.737V6.116H288.989V8.996H252.737V11.066H289.421V14H248.489V1.382ZM296.331 14.018V4.406H290.427V1.418H306.591V4.406H300.669V14.018H296.331ZM333.7 14.018H317.248V12.614C317.248 12.308 317.248 12.02 317.284 11.768C317.302 11.516 317.356 11.228 317.464 10.868C317.554 10.526 317.698 10.22 317.86 9.932C318.04 9.662 318.292 9.356 318.634 9.032C318.958 8.708 319.354 8.42 319.804 8.168C320.254 7.916 320.83 7.664 321.514 7.43C322.198 7.196 322.99 6.998 323.854 6.818L327.004 6.224C327.85 6.08 328.39 5.936 328.642 5.774C328.876 5.63 329.002 5.432 329.002 5.198C329.002 5 328.93 4.856 328.804 4.73C328.66 4.604 328.318 4.496 327.796 4.406C327.274 4.316 326.554 4.262 325.618 4.262C324.826 4.262 324.16 4.316 323.62 4.442C323.098 4.55 322.702 4.712 322.486 4.928C322.252 5.126 322.09 5.306 322.018 5.468C321.946 5.63 321.892 5.81 321.874 6.008H317.482V5.882C317.482 5.522 317.518 5.18 317.59 4.856C317.662 4.55 317.842 4.154 318.148 3.722C318.454 3.272 318.868 2.894 319.39 2.57C319.894 2.264 320.65 1.994 321.64 1.76C322.612 1.526 323.782 1.418 325.114 1.418H325.834C327.058 1.418 328.138 1.49 329.056 1.634C329.974 1.778 330.712 1.958 331.27 2.192C331.81 2.426 332.26 2.696 332.602 3.038C332.926 3.38 333.16 3.722 333.286 4.082C333.412 4.424 333.466 4.802 333.466 5.234V5.27C333.466 5.774 333.394 6.206 333.268 6.548C333.142 6.908 332.89 7.232 332.53 7.556C332.152 7.88 331.63 8.15 330.928 8.384C330.244 8.6 329.344 8.798 328.264 8.978L324.556 9.536C322.198 9.932 321.01 10.454 321.01 11.084H329.542V9.482H333.7V14.018ZM353.753 7.34V7.826C353.753 8.33 353.699 8.816 353.591 9.284C353.501 9.752 353.249 10.292 352.871 10.868C352.493 11.444 351.989 11.948 351.377 12.38C350.765 12.794 349.901 13.154 348.767 13.442C347.651 13.748 346.337 13.892 344.843 13.892H344.069C342.575 13.892 341.261 13.748 340.145 13.442C339.029 13.154 338.165 12.794 337.553 12.38C336.923 11.966 336.437 11.462 336.059 10.868C335.681 10.292 335.429 9.752 335.321 9.284C335.213 8.816 335.159 8.33 335.159 7.826V7.34C335.159 6.836 335.213 6.35 335.321 5.882C335.429 5.414 335.681 4.892 336.059 4.316C336.437 3.74 336.923 3.236 337.553 2.822C338.165 2.408 339.029 2.066 340.145 1.778C341.261 1.49 342.575 1.346 344.069 1.346H344.843C346.337 1.346 347.651 1.49 348.767 1.778C349.901 2.066 350.765 2.408 351.377 2.822C351.989 3.236 352.493 3.74 352.871 4.316C353.249 4.892 353.501 5.414 353.591 5.882C353.699 6.35 353.753 6.836 353.753 7.34ZM349.433 7.448C349.433 7.07 349.361 6.71 349.199 6.368C349.055 6.026 348.803 5.702 348.461 5.36C348.119 5.036 347.615 4.784 346.931 4.586C346.229 4.388 345.419 4.298 344.447 4.298C343.655 4.298 342.971 4.352 342.359 4.496C341.747 4.64 341.279 4.802 340.919 5.018C340.559 5.216 340.271 5.468 340.055 5.756C339.821 6.044 339.677 6.314 339.605 6.584C339.515 6.854 339.479 7.142 339.479 7.448V7.646C339.479 8.024 339.551 8.402 339.713 8.744C339.857 9.104 340.091 9.446 340.433 9.788C340.793 10.13 341.297 10.4 341.981 10.616C342.665 10.814 343.493 10.922 344.447 10.922C345.419 10.922 346.229 10.814 346.931 10.616C347.615 10.418 348.119 10.148 348.461 9.806C348.803 9.482 349.055 9.14 349.199 8.78C349.361 8.438 349.433 8.078 349.433 7.682V7.448ZM371.441 14.018H354.989V12.614C354.989 12.308 354.989 12.02 355.025 11.768C355.043 11.516 355.097 11.228 355.205 10.868C355.295 10.526 355.439 10.22 355.601 9.932C355.781 9.662 356.033 9.356 356.375 9.032C356.699 8.708 357.095 8.42 357.545 8.168C357.995 7.916 358.571 7.664 359.255 7.43C359.939 7.196 360.731 6.998 361.595 6.818L364.745 6.224C365.591 6.08 366.131 5.936 366.383 5.774C366.617 5.63 366.743 5.432 366.743 5.198C366.743 5 366.671 4.856 366.545 4.73C366.401 4.604 366.059 4.496 365.537 4.406C365.015 4.316 364.295 4.262 363.359 4.262C362.567 4.262 361.901 4.316 361.361 4.442C360.839 4.55 360.443 4.712 360.227 4.928C359.993 5.126 359.831 5.306 359.759 5.468C359.687 5.63 359.633 5.81 359.615 6.008H355.223V5.882C355.223 5.522 355.259 5.18 355.331 4.856C355.403 4.55 355.583 4.154 355.889 3.722C356.195 3.272 356.609 2.894 357.131 2.57C357.635 2.264 358.391 1.994 359.381 1.76C360.353 1.526 361.523 1.418 362.855 1.418H363.575C364.799 1.418 365.879 1.49 366.797 1.634C367.715 1.778 368.453 1.958 369.011 2.192C369.551 2.426 370.001 2.696 370.343 3.038C370.667 3.38 370.901 3.722 371.027 4.082C371.153 4.424 371.207 4.802 371.207 5.234V5.27C371.207 5.774 371.135 6.206 371.009 6.548C370.883 6.908 370.631 7.232 370.271 7.556C369.893 7.88 369.371 8.15 368.669 8.384C367.985 8.6 367.085 8.798 366.005 8.978L362.297 9.536C359.939 9.932 358.751 10.454 358.751 11.084H367.283V9.482H371.441V14.018ZM372.894 9.014L382.542 1.364H387.186V8.474H389.958V11.408H387.186V14H382.938V11.408H372.894V9.014ZM382.938 8.474V4.514L377.898 8.474H382.938Z" fill="white"/>
</svg>
