<svg width="1280" height="1506" viewBox="0 0 1280 1506" fill="none" xmlns="http://www.w3.org/2000/svg">
<mask id="mask0_29_3448" style="mask-type:alpha" maskUnits="userSpaceOnUse" x="-87" y="0" width="1452" height="1506">
<rect x="-87" width="1452" height="1506" fill="#B8FF00"/>
</mask>
<g mask="url(#mask0_29_3448)">
<rect x="-87" width="1452" height="1506" fill="#B8FF00"/>
<line x1="58.6365" y1="-3" x2="58.6364" y2="1513" stroke="#FFF84D" stroke-width="6"/>
<line x1="334.273" y1="-3" x2="334.273" y2="1513" stroke="#FFF84D" stroke-width="6"/>
<line x1="609.909" y1="-3" x2="609.909" y2="1513" stroke="#FFF84D" stroke-width="6"/>
<line x1="885.545" y1="-3" x2="885.545" y2="1513" stroke="#FFF84D" stroke-width="6"/>
<line x1="1161.18" y1="-3" x2="1161.18" y2="1513" stroke="#FFF84D" stroke-width="6"/>
<line x1="196.455" y1="-3" x2="196.455" y2="1513" stroke="#FFF84D" stroke-width="6"/>
<line x1="472.091" y1="-3" x2="472.091" y2="1513" stroke="#FFF84D" stroke-width="6"/>
<line x1="747.727" y1="-3" x2="747.727" y2="1513" stroke="#FFF84D" stroke-width="6"/>
<line x1="1023.36" y1="-3" x2="1023.36" y2="1513" stroke="#FFF84D" stroke-width="6"/>
<line x1="1296" x2="-220" y2="-0.000132533" stroke="#FFF84D" stroke-width="6"/>
<line x1="1296" y1="275.636" x2="-220" y2="275.636" stroke="#FFF84D" stroke-width="6"/>
<line x1="1296" y1="551.272" x2="-220" y2="551.272" stroke="#FFF84D" stroke-width="6"/>
<line x1="1296" y1="826.909" x2="-220" y2="826.909" stroke="#FFF84D" stroke-width="6"/>
<line x1="1296" y1="1102.55" x2="-220" y2="1102.55" stroke="#FFF84D" stroke-width="6"/>
<line x1="1296" y1="1378.18" x2="-220" y2="1378.18" stroke="#FFF84D" stroke-width="6"/>
<line x1="1296" y1="137.818" x2="-220" y2="137.818" stroke="#FFF84D" stroke-width="6"/>
<line x1="1296" y1="413.455" x2="-220" y2="413.454" stroke="#FFF84D" stroke-width="6"/>
<line x1="1296" y1="689.091" x2="-220" y2="689.091" stroke="#FFF84D" stroke-width="6"/>
<line x1="1296" y1="964.727" x2="-220" y2="964.727" stroke="#FFF84D" stroke-width="6"/>
<line x1="1296" y1="1240.36" x2="-220" y2="1240.36" stroke="#FFF84D" stroke-width="6"/>
</g>
</svg>
