<svg width="173" height="157" viewBox="0 0 173 157" fill="none" xmlns="http://www.w3.org/2000/svg">
<mask id="mask0_39_3535" style="mask-type:alpha" maskUnits="userSpaceOnUse" x="0" y="0" width="173" height="157">
<rect width="173" height="157" rx="30" fill="black"/>
</mask>
<g mask="url(#mask0_39_3535)">
<rect x="1" y="1" width="171" height="155" rx="29" fill="#ABEE00" stroke="black" stroke-width="2"/>
<path d="M45.1404 39.4V52H40.4604V46.006L37.0224 52H33.9624L30.5244 46.006V52H25.8444V39.4H31.6044L35.4924 46.6L39.3804 39.4H45.1404ZM50.5459 39.4V52H45.8659V39.4H50.5459ZM62.8183 39.4H67.4983V52H61.3783L55.9423 44.566V52H51.2623V39.4H57.3823L62.8183 46.834V39.4ZM83.5252 39.4V43.36H78.1252V52H73.4452V43.36H68.0452V39.4H83.5252ZM102.826 39.4H107.506V52H101.386L95.9502 44.566V52H91.2702V39.4H97.3902L102.826 46.834V39.4ZM115.797 52.18C110.253 52.18 107.877 50.074 107.877 45.682C107.877 41.308 110.253 39.22 115.797 39.22C121.323 39.22 123.717 41.326 123.717 45.682C123.717 50.056 121.323 52.18 115.797 52.18ZM115.797 48.22C118.551 48.22 119.037 47.014 119.037 45.682C119.037 44.368 118.569 43.18 115.797 43.18C113.025 43.18 112.557 44.35 112.557 45.682C112.557 47.032 113.043 48.22 115.797 48.22ZM144.306 39.4H149.328L145.188 52H138.24L136.17 44.746L134.1 52H127.152L123.012 39.4H128.034L130.644 48.292L133.38 39.4H138.96L141.696 48.292L144.306 39.4Z" fill="black"/>
<mask id="path-4-outside-1_39_3535" maskUnits="userSpaceOnUse" x="15" y="68" width="145" height="15" fill="black">
<rect fill="white" x="15" y="68" width="145" height="15"/>
<path d="M28.8646 73.36H20.2246V74.71H27.7846V78.67H20.2246V82H15.5446V69.4H28.8646V73.36ZM34.0761 78.04H42.3561V82H29.3961V69.4H34.0761V78.04ZM58.7361 75.682C58.7361 80.056 56.3421 82.18 50.8161 82.18C45.2721 82.18 42.8961 80.074 42.8961 75.682V69.4H47.5761V75.682C47.5761 77.032 48.0621 78.22 50.8161 78.22C53.5701 78.22 54.0561 77.014 54.0561 75.682V69.4H58.7361V75.682ZM59.2747 77.554H63.9547C63.9547 78.166 64.5307 78.58 67.5007 78.58C70.2727 78.58 70.6867 78.4 70.6867 77.932C70.6867 77.392 70.2727 77.32 67.3207 77.23C61.6327 77.05 59.4547 76.114 59.4547 73.18C59.4547 70.408 62.1727 69.22 67.1407 69.22C72.0547 69.22 74.8267 70.408 74.8267 73.63H70.1467C70.1467 72.964 69.0667 72.82 66.7807 72.82C64.5847 72.82 64.1347 72.928 64.1347 73.414C64.1347 73.9 64.5847 73.882 67.3207 73.99C72.2887 74.188 75.3667 74.53 75.3667 77.824C75.3667 81.298 72.4867 82.18 67.3207 82.18C62.1547 82.18 59.2747 81.298 59.2747 77.554ZM87.9679 69.4H92.6479V82H87.9679V77.68H80.5879V82H75.9079V69.4H80.5879V73.72H87.9679V69.4ZM112.126 69.4H116.806V82H110.686L105.25 74.566V82H100.57V69.4H106.69L112.126 76.834V69.4ZM125.097 82.18C119.553 82.18 117.177 80.074 117.177 75.682C117.177 71.308 119.553 69.22 125.097 69.22C130.623 69.22 133.017 71.326 133.017 75.682C133.017 80.056 130.623 82.18 125.097 82.18ZM125.097 78.22C127.851 78.22 128.337 77.014 128.337 75.682C128.337 74.368 127.869 73.18 125.097 73.18C122.325 73.18 121.857 74.35 121.857 75.682C121.857 77.032 122.343 78.22 125.097 78.22ZM153.606 69.4H158.628L154.488 82H147.54L145.47 74.746L143.4 82H136.452L132.312 69.4H137.334L139.944 78.292L142.68 69.4H148.26L150.996 78.292L153.606 69.4Z"/>
</mask>
<path d="M28.8646 73.36V73.66H29.1646V73.36H28.8646ZM20.2246 73.36V73.06H19.9246V73.36H20.2246ZM20.2246 74.71H19.9246V75.01H20.2246V74.71ZM27.7846 74.71H28.0846V74.41H27.7846V74.71ZM27.7846 78.67V78.97H28.0846V78.67H27.7846ZM20.2246 78.67V78.37H19.9246V78.67H20.2246ZM20.2246 82V82.3H20.5246V82H20.2246ZM15.5446 82H15.2446V82.3H15.5446V82ZM15.5446 69.4V69.1H15.2446V69.4H15.5446ZM28.8646 69.4H29.1646V69.1H28.8646V69.4ZM28.8646 73.06H20.2246V73.66H28.8646V73.06ZM19.9246 73.36V74.71H20.5246V73.36H19.9246ZM20.2246 75.01H27.7846V74.41H20.2246V75.01ZM27.4846 74.71V78.67H28.0846V74.71H27.4846ZM27.7846 78.37H20.2246V78.97H27.7846V78.37ZM19.9246 78.67V82H20.5246V78.67H19.9246ZM20.2246 81.7H15.5446V82.3H20.2246V81.7ZM15.8446 82V69.4H15.2446V82H15.8446ZM15.5446 69.7H28.8646V69.1H15.5446V69.7ZM28.5646 69.4V73.36H29.1646V69.4H28.5646ZM34.0761 78.04H33.7761V78.34H34.0761V78.04ZM42.3561 78.04H42.6561V77.74H42.3561V78.04ZM42.3561 82V82.3H42.6561V82H42.3561ZM29.3961 82H29.0961V82.3H29.3961V82ZM29.3961 69.4V69.1H29.0961V69.4H29.3961ZM34.0761 69.4H34.3761V69.1H34.0761V69.4ZM34.0761 78.34H42.3561V77.74H34.0761V78.34ZM42.0561 78.04V82H42.6561V78.04H42.0561ZM42.3561 81.7H29.3961V82.3H42.3561V81.7ZM29.6961 82V69.4H29.0961V82H29.6961ZM29.3961 69.7H34.0761V69.1H29.3961V69.7ZM33.7761 69.4V78.04H34.3761V69.4H33.7761ZM42.8961 69.4V69.1H42.5961V69.4H42.8961ZM47.5761 69.4H47.8761V69.1H47.5761V69.4ZM54.0561 69.4V69.1H53.7561V69.4H54.0561ZM58.7361 69.4H59.0361V69.1H58.7361V69.4ZM58.4361 75.682C58.4361 77.8147 57.8544 79.3393 56.656 80.3411C55.4457 81.3528 53.5503 81.88 50.8161 81.88V82.48C53.608 82.48 55.6726 81.9452 57.0408 80.8014C58.4209 79.6477 59.0361 77.9233 59.0361 75.682H58.4361ZM50.8161 81.88C48.0722 81.88 46.1772 81.357 44.9695 80.3478C43.7739 79.3487 43.1961 77.8246 43.1961 75.682H42.5961C42.5961 77.9314 43.2063 79.6563 44.5848 80.8082C45.9511 81.95 48.0161 82.48 50.8161 82.48V81.88ZM43.1961 75.682V69.4H42.5961V75.682H43.1961ZM42.8961 69.7H47.5761V69.1H42.8961V69.7ZM47.2761 69.4V75.682H47.8761V69.4H47.2761ZM47.2761 75.682C47.2761 76.3845 47.4009 77.119 47.9513 77.6694C48.4991 78.2173 49.4057 78.52 50.8161 78.52V77.92C49.4725 77.92 48.7591 77.6287 48.3755 77.2451C47.9944 76.864 47.8761 76.3295 47.8761 75.682H47.2761ZM50.8161 78.52C52.2277 78.52 53.1341 78.2122 53.6815 77.6621C54.2311 77.1099 54.3561 76.3764 54.3561 75.682H53.7561C53.7561 76.3196 53.6382 76.8551 53.2562 77.2389C52.8722 77.6248 52.1585 77.92 50.8161 77.92V78.52ZM54.3561 75.682V69.4H53.7561V75.682H54.3561ZM54.0561 69.7H58.7361V69.1H54.0561V69.7ZM58.4361 69.4V75.682H59.0361V69.4H58.4361ZM59.2747 77.554V77.254H58.9747V77.554H59.2747ZM63.9547 77.554H64.2547V77.254H63.9547V77.554ZM67.3207 77.23L67.3112 77.5299L67.3116 77.5299L67.3207 77.23ZM74.8267 73.63V73.93H75.1267V73.63H74.8267ZM70.1467 73.63H69.8467V73.93H70.1467V73.63ZM67.3207 73.99L67.3327 73.6902L67.3326 73.6902L67.3207 73.99ZM59.2747 77.854H63.9547V77.254H59.2747V77.854ZM63.6547 77.554C63.6547 77.7577 63.7042 77.97 63.8573 78.1605C64.0054 78.3446 64.2271 78.4791 64.515 78.5797C65.0824 78.7779 66.0139 78.88 67.5007 78.88V78.28C66.0175 78.28 65.1761 78.1751 64.7129 78.0133C64.4856 77.9339 64.3777 77.8501 64.3249 77.7845C64.2773 77.7252 64.2547 77.6563 64.2547 77.554H63.6547ZM67.5007 78.88C68.8809 78.88 69.7117 78.8363 70.2005 78.7239C70.4446 78.6677 70.6497 78.5849 70.7916 78.4421C70.9481 78.2845 70.9867 78.0973 70.9867 77.932H70.3867C70.3867 78.0007 70.3736 78.0115 70.3659 78.0193C70.3435 78.0418 70.2718 78.0918 70.066 78.1391C69.6547 78.2337 68.8926 78.28 67.5007 78.28V78.88ZM70.9867 77.932C70.9867 77.7589 70.953 77.5583 70.787 77.394C70.6377 77.2462 70.4211 77.1696 70.1709 77.1183C69.6669 77.0151 68.7939 76.9748 67.3299 76.9301L67.3116 77.5299C68.7995 77.5752 69.6096 77.6159 70.0505 77.7062C70.2728 77.7517 70.3442 77.7999 70.3648 77.8203C70.3687 77.8242 70.3867 77.8351 70.3867 77.932H70.9867ZM67.3302 76.9302C64.4853 76.8401 62.579 76.5602 61.3881 75.969C60.802 75.6781 60.4011 75.3171 60.1431 74.8743C59.884 74.4294 59.7547 73.877 59.7547 73.18H59.1547C59.1547 73.95 59.2977 74.6149 59.6247 75.1763C59.9529 75.7398 60.452 76.1742 61.1213 76.5065C62.4414 77.1618 64.4681 77.4399 67.3112 77.5299L67.3302 76.9302ZM59.7547 73.18C59.7547 72.5383 59.9112 72.0037 60.207 71.5576C60.504 71.1099 60.9536 70.7333 61.5678 70.4294C62.8053 69.817 64.6704 69.52 67.1407 69.52V68.92C64.643 68.92 62.6652 69.217 61.3017 69.8916C60.6153 70.2312 60.0749 70.6713 59.707 71.226C59.338 71.7823 59.1547 72.4357 59.1547 73.18H59.7547ZM67.1407 69.52C69.5851 69.52 71.4449 69.8175 72.6849 70.4812C73.2992 70.81 73.7551 71.2254 74.0592 71.7353C74.3633 72.2453 74.5267 72.8685 74.5267 73.63H75.1267C75.1267 72.7805 74.9436 72.0469 74.5745 71.428C74.2053 70.8089 73.661 70.3232 72.9681 69.9523C71.5935 69.2165 69.6104 68.92 67.1407 68.92V69.52ZM74.8267 73.33H70.1467V73.93H74.8267V73.33ZM70.4467 73.63C70.4467 73.3659 70.3325 73.1469 70.1271 72.9862C69.9373 72.8377 69.6787 72.7452 69.3839 72.6819C68.7926 72.555 67.9205 72.52 66.7807 72.52V73.12C67.9269 73.12 68.7378 73.1569 69.258 73.2686C69.519 73.3246 69.6733 73.3929 69.7574 73.4588C69.826 73.5124 69.8467 73.5611 69.8467 73.63H70.4467ZM66.7807 72.52C65.6917 72.52 64.9941 72.5455 64.5679 72.6422C64.3534 72.6908 64.161 72.7668 64.0245 72.9067C63.876 73.0591 63.8347 73.2434 63.8347 73.414H64.4347C64.4347 73.3416 64.4497 73.3301 64.4542 73.3256C64.4707 73.3086 64.5281 73.2664 64.7006 73.2273C65.0484 73.1485 65.6738 73.12 66.7807 73.12V72.52ZM63.8347 73.414C63.8347 73.5869 63.8782 73.7815 64.0597 73.9276C64.2113 74.0495 64.4231 74.1045 64.6562 74.1403C65.1327 74.2134 65.9559 74.2364 67.3089 74.2898L67.3326 73.6902C65.9496 73.6356 65.1798 73.6136 64.7472 73.5472C64.5259 73.5132 64.4542 73.4749 64.4359 73.4601C64.4341 73.4587 64.438 73.4625 64.4397 73.4669C64.4397 73.467 64.4385 73.4637 64.4372 73.4551C64.4359 73.4463 64.4347 73.4331 64.4347 73.414H63.8347ZM67.3088 74.2898C69.8056 74.3893 71.7648 74.5251 73.1013 75.0269C73.761 75.2745 74.245 75.6033 74.5664 76.0408C74.8864 76.4762 75.0667 77.0486 75.0667 77.824H75.6667C75.6667 76.9524 75.4623 76.2468 75.0499 75.6855C74.639 75.1262 74.043 74.7395 73.3122 74.4651C71.8676 73.9229 69.8039 73.7887 67.3327 73.6902L67.3088 74.2898ZM75.0667 77.824C75.0667 78.6507 74.8957 79.2997 74.5804 79.8132C74.2656 80.326 73.793 80.7266 73.1513 81.0342C71.852 81.6571 69.9013 81.88 67.3207 81.88V82.48C69.9062 82.48 71.9785 82.2619 73.4107 81.5753C74.1347 81.2282 74.705 80.7569 75.0917 80.1272C75.4778 79.4983 75.6667 78.7343 75.6667 77.824H75.0667ZM67.3207 81.88C64.7391 81.88 62.792 81.6567 61.4955 81.0031C60.856 80.6807 60.3823 80.2571 60.0654 79.7066C59.7473 79.1541 59.5747 78.4519 59.5747 77.554H58.9747C58.9747 78.5281 59.1621 79.3402 59.5455 80.006C59.93 80.6739 60.4992 81.1728 61.2254 81.5389C62.6604 82.2623 64.7363 82.48 67.3207 82.48V81.88ZM87.9678 69.4V69.1H87.6679V69.4H87.9678ZM92.6479 69.4H92.9479V69.1H92.6479V69.4ZM92.6479 82V82.3H92.9479V82H92.6479ZM87.9678 82H87.6679V82.3H87.9678V82ZM87.9678 77.68H88.2679V77.38H87.9678V77.68ZM80.5879 77.68V77.38H80.2878V77.68H80.5879ZM80.5879 82V82.3H80.8878V82H80.5879ZM75.9079 82H75.6079V82.3H75.9079V82ZM75.9079 69.4V69.1H75.6079V69.4H75.9079ZM80.5879 69.4H80.8878V69.1H80.5879V69.4ZM80.5879 73.72H80.2878V74.02H80.5879V73.72ZM87.9678 73.72V74.02H88.2679V73.72H87.9678ZM87.9678 69.7H92.6479V69.1H87.9678V69.7ZM92.3479 69.4V82H92.9479V69.4H92.3479ZM92.6479 81.7H87.9678V82.3H92.6479V81.7ZM88.2679 82V77.68H87.6679V82H88.2679ZM87.9678 77.38H80.5879V77.98H87.9678V77.38ZM80.2878 77.68V82H80.8878V77.68H80.2878ZM80.5879 81.7H75.9079V82.3H80.5879V81.7ZM76.2079 82V69.4H75.6079V82H76.2079ZM75.9079 69.7H80.5879V69.1H75.9079V69.7ZM80.2878 69.4V73.72H80.8878V69.4H80.2878ZM80.5879 74.02H87.9678V73.42H80.5879V74.02ZM88.2679 73.72V69.4H87.6679V73.72H88.2679ZM112.126 69.4V69.1H111.826V69.4H112.126ZM116.806 69.4H117.106V69.1H116.806V69.4ZM116.806 82V82.3H117.106V82H116.806ZM110.686 82L110.444 82.1771L110.534 82.3H110.686V82ZM105.25 74.566L105.492 74.3889L104.95 73.6475V74.566H105.25ZM105.25 82V82.3H105.55V82H105.25ZM100.57 82H100.27V82.3H100.57V82ZM100.57 69.4V69.1H100.27V69.4H100.57ZM106.69 69.4L106.932 69.2229L106.842 69.1H106.69V69.4ZM112.126 76.834L111.884 77.0111L112.426 77.7525V76.834H112.126ZM112.126 69.7H116.806V69.1H112.126V69.7ZM116.506 69.4V82H117.106V69.4H116.506ZM116.806 81.7H110.686V82.3H116.806V81.7ZM110.928 81.8229L105.492 74.3889L105.008 74.7431L110.444 82.1771L110.928 81.8229ZM104.95 74.566V82H105.55V74.566H104.95ZM105.25 81.7H100.57V82.3H105.25V81.7ZM100.87 82V69.4H100.27V82H100.87ZM100.57 69.7H106.69V69.1H100.57V69.7ZM106.448 69.5771L111.884 77.0111L112.368 76.6569L106.932 69.2229L106.448 69.5771ZM112.426 76.834V69.4H111.826V76.834H112.426ZM125.097 81.88C122.353 81.88 120.458 81.357 119.25 80.3478C118.055 79.3487 117.477 77.8246 117.477 75.682H116.877C116.877 77.9314 117.487 79.6563 118.866 80.8082C120.232 81.95 122.297 82.48 125.097 82.48V81.88ZM117.477 75.682C117.477 73.5488 118.055 72.034 119.25 71.0415C120.457 70.0387 122.353 69.52 125.097 69.52V68.92C122.297 68.92 120.233 69.4453 118.866 70.58C117.488 71.725 116.877 73.4412 116.877 75.682H117.477ZM125.097 69.52C127.832 69.52 129.727 70.0429 130.938 71.0483C132.136 72.0434 132.717 73.5587 132.717 75.682H133.317C133.317 73.4493 132.702 71.7336 131.321 70.5867C129.953 69.4501 127.888 68.92 125.097 68.92V69.52ZM132.717 75.682C132.717 77.8147 132.135 79.3393 130.937 80.3411C129.727 81.3528 127.831 81.88 125.097 81.88V82.48C127.889 82.48 129.954 81.9452 131.322 80.8014C132.702 79.6477 133.317 77.9233 133.317 75.682H132.717ZM125.097 78.52C126.509 78.52 127.415 78.2122 127.962 77.6621C128.512 77.1099 128.637 76.3764 128.637 75.682H128.037C128.037 76.3196 127.919 76.8551 127.537 77.2389C127.153 77.6248 126.439 77.92 125.097 77.92V78.52ZM128.637 75.682C128.637 74.9977 128.517 74.2717 127.968 73.7256C127.422 73.1825 126.516 72.88 125.097 72.88V73.48C126.45 73.48 127.164 73.7715 127.545 74.1509C127.923 74.5273 128.037 75.0523 128.037 75.682H128.637ZM125.097 72.88C123.679 72.88 122.773 73.1775 122.226 73.7183C121.677 74.2626 121.557 74.9896 121.557 75.682H122.157C122.157 75.0424 122.271 74.5184 122.649 74.1447C123.03 73.7675 123.743 73.48 125.097 73.48V72.88ZM121.557 75.682C121.557 76.3845 121.682 77.119 122.232 77.6694C122.78 78.2173 123.687 78.52 125.097 78.52V77.92C123.753 77.92 123.04 77.6287 122.656 77.2451C122.275 76.864 122.157 76.3295 122.157 75.682H121.557ZM153.606 69.4V69.1H153.381L153.318 69.3155L153.606 69.4ZM158.628 69.4L158.913 69.4936L159.042 69.1H158.628V69.4ZM154.488 82V82.3H154.705L154.773 82.0936L154.488 82ZM147.54 82L147.251 82.0823L147.313 82.3H147.54V82ZM145.47 74.746L145.758 74.6637L145.47 73.6527L145.181 74.6637L145.47 74.746ZM143.4 82V82.3H143.626L143.688 82.0823L143.4 82ZM136.452 82L136.167 82.0936L136.235 82.3H136.452V82ZM132.312 69.4V69.1H131.897L132.027 69.4936L132.312 69.4ZM137.334 69.4L137.622 69.3155L137.558 69.1H137.334V69.4ZM139.944 78.292L139.656 78.3765L139.937 79.3341L140.231 78.3802L139.944 78.292ZM142.68 69.4V69.1H142.458L142.393 69.3118L142.68 69.4ZM148.26 69.4L148.547 69.3118L148.481 69.1H148.26V69.4ZM150.996 78.292L150.709 78.3802L151.003 79.3341L151.284 78.3765L150.996 78.292ZM153.606 69.7H158.628V69.1H153.606V69.7ZM158.343 69.3064L154.203 81.9064L154.773 82.0936L158.913 69.4936L158.343 69.3064ZM154.488 81.7H147.54V82.3H154.488V81.7ZM147.828 81.9177L145.758 74.6637L145.181 74.8283L147.251 82.0823L147.828 81.9177ZM145.181 74.6637L143.111 81.9177L143.688 82.0823L145.758 74.8283L145.181 74.6637ZM143.4 81.7H136.452V82.3H143.4V81.7ZM136.737 81.9064L132.597 69.3064L132.027 69.4936L136.167 82.0936L136.737 81.9064ZM132.312 69.7H137.334V69.1H132.312V69.7ZM137.046 69.4845L139.656 78.3765L140.232 78.2075L137.622 69.3155L137.046 69.4845ZM140.231 78.3802L142.967 69.4882L142.393 69.3118L139.657 78.2038L140.231 78.3802ZM142.68 69.7H148.26V69.1H142.68V69.7ZM147.973 69.4882L150.709 78.3802L151.283 78.2038L148.547 69.3118L147.973 69.4882ZM151.284 78.3765L153.894 69.4845L153.318 69.3155L150.708 78.2075L151.284 78.3765Z" fill="black" mask="url(#path-4-outside-1_39_3535)"/>
<path d="M45.1404 99.4V112H40.4604V106.006L37.0224 112H33.9624L30.5244 106.006V112H25.8444V99.4H31.6044L35.4924 106.6L39.3804 99.4H45.1404ZM50.5459 99.4V112H45.8659V99.4H50.5459ZM62.8183 99.4H67.4983V112H61.3783L55.9423 104.566V112H51.2623V99.4H57.3823L62.8183 106.834V99.4ZM83.5252 99.4V103.36H78.1252V112H73.4452V103.36H68.0452V99.4H83.5252ZM102.826 99.4H107.506V112H101.386L95.9502 104.566V112H91.2702V99.4H97.3902L102.826 106.834V99.4ZM115.797 112.18C110.253 112.18 107.877 110.074 107.877 105.682C107.877 101.308 110.253 99.22 115.797 99.22C121.323 99.22 123.717 101.326 123.717 105.682C123.717 110.056 121.323 112.18 115.797 112.18ZM115.797 108.22C118.551 108.22 119.037 107.014 119.037 105.682C119.037 104.368 118.569 103.18 115.797 103.18C113.025 103.18 112.557 104.35 112.557 105.682C112.557 107.032 113.043 108.22 115.797 108.22ZM144.306 99.4H149.328L145.188 112H138.24L136.17 104.746L134.1 112H127.152L123.012 99.4H128.034L130.644 108.292L133.38 99.4H138.96L141.696 108.292L144.306 99.4Z" fill="black"/>
<path d="M45.1404 129.4V142H40.4604V136.006L37.0224 142H33.9624L30.5244 136.006V142H25.8444V129.4H31.6044L35.4924 136.6L39.3804 129.4H45.1404ZM50.5459 129.4V142H45.8659V129.4H50.5459ZM62.8183 129.4H67.4983V142H61.3783L55.9423 134.566V142H51.2623V129.4H57.3823L62.8183 136.834V129.4ZM83.5252 129.4V133.36H78.1252V142H73.4452V133.36H68.0452V129.4H83.5252ZM102.826 129.4H107.506V142H101.386L95.9502 134.566V142H91.2702V129.4H97.3902L102.826 136.834V129.4ZM115.797 142.18C110.253 142.18 107.877 140.074 107.877 135.682C107.877 131.308 110.253 129.22 115.797 129.22C121.323 129.22 123.717 131.326 123.717 135.682C123.717 140.056 121.323 142.18 115.797 142.18ZM115.797 138.22C118.551 138.22 119.037 137.014 119.037 135.682C119.037 134.368 118.569 133.18 115.797 133.18C113.025 133.18 112.557 134.35 112.557 135.682C112.557 137.032 113.043 138.22 115.797 138.22ZM144.306 129.4H149.328L145.188 142H138.24L136.17 134.746L134.1 142H127.152L123.012 129.4H128.034L130.644 138.292L133.38 129.4H138.96L141.696 138.292L144.306 129.4Z" fill="black" fill-opacity="0.31"/>
<path d="M45.1404 9.4V22H40.4604V16.006L37.0224 22H33.9624L30.5244 16.006V22H25.8444V9.4H31.6044L35.4924 16.6L39.3804 9.4H45.1404ZM50.5459 9.4V22H45.8659V9.4H50.5459ZM62.8183 9.4H67.4983V22H61.3783L55.9423 14.566V22H51.2623V9.4H57.3823L62.8183 16.834V9.4ZM83.5252 9.4V13.36H78.1252V22H73.4452V13.36H68.0452V9.4H83.5252ZM102.826 9.4H107.506V22H101.386L95.9502 14.566V22H91.2702V9.4H97.3902L102.826 16.834V9.4ZM115.797 22.18C110.253 22.18 107.877 20.074 107.877 15.682C107.877 11.308 110.253 9.22 115.797 9.22C121.323 9.22 123.717 11.326 123.717 15.682C123.717 20.056 121.323 22.18 115.797 22.18ZM115.797 18.22C118.551 18.22 119.037 17.014 119.037 15.682C119.037 14.368 118.569 13.18 115.797 13.18C113.025 13.18 112.557 14.35 112.557 15.682C112.557 17.032 113.043 18.22 115.797 18.22ZM144.306 9.4H149.328L145.188 22H138.24L136.17 14.746L134.1 22H127.152L123.012 9.4H128.034L130.644 18.292L133.38 9.4H138.96L141.696 18.292L144.306 9.4Z" fill="black" fill-opacity="0.31"/>
</g>
</svg>
