<svg width="1280" height="926" viewBox="0 0 1280 926" fill="none" xmlns="http://www.w3.org/2000/svg">
<path d="M146.437 118.954L161.834 17.5099L196.424 22.7601L190.821 59.6753L265.087 70.9478L270.691 34.0326L305.426 39.3049L290.028 140.749L255.293 135.477L261.359 95.5095L187.093 84.237L181.026 124.204L146.437 118.954ZM394.062 52.3126L517.016 70.9751C526.463 72.409 534.782 74.4151 542.163 76.7249C549.544 79.0347 555.696 81.604 560.641 84.2875C565.441 86.949 569.572 90.1035 572.931 93.4385C576.414 96.9408 579.047 100.165 580.663 103.236C582.401 106.473 583.682 109.79 584.628 113.353C585.429 116.895 585.838 120.079 585.877 122.761C585.77 125.421 585.496 128.205 585.055 131.111L584.437 135.181C584.018 137.942 583.454 140.682 582.766 143.253C581.933 145.803 580.598 148.723 578.76 152.013C576.8 155.135 574.57 158.067 572.116 160.52C569.495 163.096 566.147 165.561 561.804 167.727C557.439 170.038 552.558 171.825 547.163 173.087C541.789 174.205 535.152 174.833 527.396 174.994C519.517 174.987 510.999 174.289 501.552 172.855L378.599 154.193C369.152 152.759 360.811 150.898 353.284 148.566C345.78 146.089 339.628 143.52 334.828 140.858C330.05 138.051 325.92 134.897 322.437 131.395C318.932 128.038 316.321 124.668 314.728 121.452C312.967 118.36 311.708 114.898 310.907 111.356C310.129 107.67 309.72 104.485 309.681 101.803C309.787 99.1431 310.061 96.3596 310.48 93.5982L311.098 89.5289C311.539 86.6222 312.104 83.8828 312.769 81.4563C313.602 78.9064 314.938 75.9867 316.753 72.8425C318.591 69.553 320.798 66.7657 323.419 64.1899C325.873 61.7374 329.344 59.4392 333.709 57.1281C337.907 54.9403 342.788 53.1535 348.161 52.0362C353.68 50.941 360.317 50.3129 368.197 50.3194C376.076 50.3259 384.616 50.8787 394.062 52.3126ZM549.73 126.79C550.105 124.32 550.167 121.95 549.771 119.66C549.543 117.246 548.566 114.868 547.051 112.11C545.37 109.476 543.208 107.066 540.42 104.859C537.611 102.797 533.617 100.704 528.539 98.8925C524.334 97.2133 519.458 96.0273 513.958 95.0437C512.672 94.6998 391.753 76.3461 390.881 76.2138C363.615 72.6699 348.652 79.1711 346.115 95.8847L345.872 97.4834C345.387 100.681 345.527 103.676 346.248 106.759C346.992 109.697 348.585 112.912 351.073 116.115C353.561 119.317 357.713 122.327 363.574 124.852C368.855 127.289 375.408 129.176 383.234 130.512C383.815 130.6 504.153 148.866 505.192 148.875C512.481 149.833 518.841 150.054 524.293 149.395C530.495 148.701 535.353 147.059 538.824 144.761C542.15 142.441 544.749 140.011 546.331 137.426C547.935 134.696 548.98 131.732 549.443 128.68L549.73 126.79ZM658.731 195.523L620.943 189.788L591.278 82.5443L628.629 88.2137L646.346 161.528L674.198 112.229L718.38 118.935L732.526 172.676L770.331 109.722L804.049 114.84L744.479 208.538L710.034 203.31L695.68 140.171L689.866 139.289L658.731 195.523ZM915.911 235.897L927.691 158.288L880.021 151.053L883.683 126.927L1014.19 146.737L1010.53 170.862L962.717 163.605L950.937 241.214L915.911 235.897ZM1098.45 157.742L1103.11 158.448C1112.84 159.926 1121.47 161.831 1129.12 164.33C1136.8 166.684 1143.09 169.275 1148.16 172.126C1153.08 174.955 1157.36 178.132 1160.84 181.634C1164.47 185.158 1167.08 188.528 1168.82 191.766C1170.71 195.026 1171.96 198.488 1172.89 202.196C1173.67 205.883 1174.22 209.089 1174.09 211.895C1174.11 214.722 1173.84 217.506 1173.37 220.558L1172.75 224.627C1172.31 227.534 1171.73 230.419 1170.87 233.114C1170.18 235.686 1168.68 238.729 1166.84 242.018C1164.86 245.286 1162.63 248.218 1159.99 250.939C1157.37 253.515 1153.87 255.959 1149.34 258.393C1144.83 260.682 1139.8 262.447 1134.24 263.833C1128.7 265.073 1121.92 265.679 1113.73 265.774C1105.68 265.891 1096.87 265.149 1087.13 263.671L1082.48 262.965C1072.75 261.487 1064.11 259.582 1056.32 257.061C1048.67 254.561 1042.23 251.948 1037.3 249.119C1032.4 246.145 1028.13 242.968 1024.5 239.444C1020.89 235.774 1018.28 232.404 1016.4 229.144C1014.68 225.762 1013.42 222.299 1012.64 218.613C1011.72 214.904 1011.33 211.574 1011.44 208.914C1011.42 206.087 1011.72 203.158 1012.16 200.251L1012.78 196.182C1013.24 193.13 1013.8 190.391 1014.66 187.695C1015.35 185.123 1016.7 182.058 1018.69 178.791C1020.52 175.501 1022.75 172.569 1025.38 169.993C1028.14 167.439 1031.64 164.996 1036.15 162.707C1040.51 160.396 1045.54 158.631 1051.08 157.39C1056.76 156.172 1063.69 155.588 1071.72 155.616C1079.91 155.522 1088.72 156.264 1098.45 157.742ZM1136.6 217.95L1136.88 216.06C1137.28 213.444 1137.37 210.929 1136.97 208.639C1136.6 206.203 1135.64 203.68 1133.98 200.9C1132.47 198.143 1130.18 195.565 1127.23 193.481C1124.29 191.252 1120.15 189.137 1114.95 187.158C1110.6 185.457 1105.58 184.249 1099.94 183.243C1098.65 182.899 1096.03 182.502 1095.16 182.37C1067.02 178.694 1051.58 185.419 1048.96 202.714L1048.71 204.313C1048.23 207.51 1048.32 210.796 1049.19 213.901C1049.91 216.984 1051.65 220.222 1054.12 223.57C1056.73 226.94 1060.88 229.949 1066.86 232.642C1072.44 235.123 1079.28 237.054 1087.25 238.412C1087.98 238.522 1089.72 238.787 1090.88 238.964C1098.34 239.798 1104.99 240.064 1110.61 239.282C1117.1 238.631 1122.11 237.012 1125.6 234.569C1129.07 232.27 1131.69 229.695 1133.3 226.964C1135.05 224.256 1136.11 221.147 1136.6 217.95Z" fill="white"/>
<path d="M124.222 266.289L139.686 164.409L234.735 178.836C249.56 181.087 259.715 184.71 265.157 189.996C270.745 195.305 272.936 201.436 271.9 208.267L271.613 210.156C271.15 213.208 269.982 216.005 268.444 218.299C266.761 220.571 264.853 222.363 262.453 223.486C260.176 224.775 258.11 225.651 256.255 226.113C254.524 226.743 252.67 227.205 250.86 227.376C253.264 228.187 255.457 229.412 257.628 230.782C259.799 232.152 262.049 233.981 264.546 236.144C267.021 238.452 268.949 241.421 270.04 245.007C271.299 248.469 271.597 252.38 270.958 256.595L270.671 258.484C267.693 278.104 250.809 285.504 220.143 280.849L124.222 266.289ZM171.156 191.191L168.641 207.76L222.997 216.01C231.136 217.245 235.479 215.079 236.317 209.557L236.361 209.266C237.177 203.889 233.651 200.677 225.512 199.442L171.156 191.191ZM222.762 238.128L165.355 229.415L162.332 249.325L219.74 258.039C224.827 258.811 228.614 258.345 230.958 256.619C233.134 255.017 234.504 252.846 234.924 250.085L234.99 249.649C235.96 243.254 231.918 239.518 222.762 238.128ZM538.913 329.233L345.181 299.828C337.042 298.592 329.718 296.886 323.231 294.563C316.744 292.24 311.341 289.636 307.021 286.75C302.701 283.864 299.029 280.63 296.004 277.049C292.979 273.468 290.536 269.974 288.986 266.468C287.415 263.107 286.178 259.5 285.422 255.668C284.665 251.836 284.301 248.361 284.306 245.388C284.311 242.415 284.629 239.341 285.07 236.434L292.46 187.747L326.759 192.953L319.656 239.751C319.127 243.239 319.179 246.815 319.733 250.022C320.287 253.228 321.568 256.545 323.575 259.972C325.582 263.399 329.008 266.298 333.685 268.792C338.507 271.308 342.444 272.798 349.42 273.857C350.728 274.055 540.245 302.821 541.553 303.02C547.556 303.634 553.793 303.688 558.083 302.852C563.289 301.858 567.42 300.107 570.354 297.43C573.288 294.753 575.641 291.987 577.122 289.09C578.602 286.192 579.568 282.77 580.097 279.282L587.2 232.484L621.499 237.69L614.109 286.378C613.47 290.592 612.394 294.741 610.715 298.946C608.89 303.13 606.15 307.472 602.493 311.972C598.691 316.45 594.083 320.36 588.859 323.433C583.489 326.484 576.631 328.565 567.805 329.902C559.145 331.115 549.522 330.844 538.913 329.233ZM669.838 347.916L675.75 308.966L626.656 238.622L669.094 245.063L697.499 287.14L737.692 255.475L776.352 261.343L710.049 314.173L704.137 353.122L669.838 347.916Z" fill="#EEE201"/>
<path d="M-927.239 253.25C-938.284 251.573 -947.889 249.223 -955.764 246.244C-963.783 243.242 -969.869 240.237 -973.999 237.082C-977.984 233.95 -981.154 230.346 -983.241 226.461C-985.328 222.576 -986.586 219.114 -986.894 216.242C-987.201 213.371 -987.029 210.275 -986.544 207.077L-986.323 205.624L-950.134 211.117C-951.04 221.982 -944.008 228.55 -922.789 231.771L-914.796 232.984C-907.82 234.043 -904.847 234.048 -900.108 234.173C-895.514 234.276 -892.061 234.056 -889.85 233.202C-887.494 232.371 -886.031 231.552 -885.128 230.499C-884.225 229.447 -883.736 228.183 -883.493 226.584C-883.162 224.404 -883.479 222.572 -884.443 221.088C-885.429 219.748 -888.159 218.145 -892.365 216.465C-896.593 214.932 -902.754 213.402 -911.016 211.999L-921.872 210.054L-929.989 208.673C-965.899 202.33 -982.399 189.567 -979.531 170.673L-979.333 169.365C-978.847 166.168 -977.948 163.182 -976.657 160.553C-975.366 157.924 -973.203 155.427 -970 152.94C-966.965 150.575 -963.124 148.779 -958.477 147.552C-953.83 146.324 -947.774 145.608 -940.185 145.57C-932.72 145.365 -924.057 146.086 -914.32 147.564L-904.001 149.13C-893.973 150.652 -885.05 152.601 -877.546 155.078C-869.896 157.577 -864.035 160.103 -859.693 162.843C-855.351 165.584 -851.947 168.628 -849.482 171.976C-847.016 175.324 -845.423 178.539 -844.825 181.455C-844.103 184.538 -843.985 187.679 -844.492 191.021L-844.691 192.329L-880.734 186.859C-880.87 185.797 -881.007 184.736 -881.187 183.965C-881.367 183.194 -882.085 182.044 -883.195 180.538C-884.304 179.031 -885.748 177.771 -887.796 176.568C-889.72 175.533 -892.807 174.321 -896.766 172.976C-900.748 171.777 -903.901 171.001 -909.424 170.163L-914.51 169.391C-922.94 168.112 -928.238 167.753 -932.876 167.942C-937.39 168.297 -940.306 168.895 -941.333 169.78C-942.504 170.643 -943.161 172.031 -943.448 173.92C-943.712 175.664 -943.475 177.038 -942.489 178.377C-941.626 179.549 -939.31 180.941 -935.54 182.554C-931.748 184.022 -926.292 185.296 -919.192 186.523L-911.076 187.903L-900.633 189.637C-879.895 193.082 -865.467 197.948 -857.039 204.134C-848.466 210.342 -845.085 218.438 -846.652 228.757L-846.938 230.646C-847.512 234.425 -848.455 237.701 -849.769 240.476C-851.082 243.25 -853.434 246.015 -856.681 248.793C-859.906 251.426 -863.936 253.491 -868.896 254.82C-873.877 256.294 -880.37 256.944 -888.561 257.039C-896.776 257.279 -906.311 256.426 -917.065 254.794L-927.239 253.25ZM-751.583 173.751L-628.629 192.414C-619.182 193.848 -610.863 195.854 -603.482 198.164C-596.101 200.474 -589.949 203.043 -585.004 205.726C-580.204 208.388 -576.074 211.542 -572.714 214.877C-569.231 218.38 -566.598 221.604 -564.983 224.674C-563.244 227.912 -561.963 231.229 -561.017 234.792C-560.216 238.333 -559.808 241.518 -559.769 244.2C-559.875 246.86 -560.149 249.644 -560.59 252.55L-561.208 256.62C-561.627 259.381 -562.191 262.12 -562.879 264.692C-563.712 267.242 -565.048 270.162 -566.885 273.451C-568.846 276.573 -571.075 279.506 -573.529 281.959C-576.15 284.534 -579.498 287 -583.841 289.166C-588.206 291.477 -593.087 293.264 -598.482 294.526C-603.856 295.644 -610.493 296.272 -618.249 296.433C-626.129 296.426 -634.646 295.728 -644.093 294.294L-767.047 275.631C-776.494 274.198 -784.835 272.337 -792.361 270.005C-799.865 267.528 -806.017 264.958 -810.817 262.297C-815.595 259.49 -819.726 256.336 -823.209 252.833C-826.714 249.476 -829.324 246.106 -830.918 242.891C-832.679 239.799 -833.937 236.336 -834.738 232.795C-835.517 229.109 -835.925 225.924 -835.964 223.242C-835.858 220.582 -835.584 217.798 -835.165 215.037L-834.547 210.968C-834.106 208.061 -833.542 205.322 -832.876 202.895C-832.043 200.345 -830.708 197.426 -828.892 194.281C-827.055 190.992 -824.848 188.205 -822.226 185.629C-819.773 183.176 -816.301 180.878 -811.936 178.567C-807.738 176.379 -802.858 174.592 -797.484 173.475C-791.965 172.38 -785.328 171.752 -777.449 171.758C-769.57 171.765 -761.03 172.318 -751.583 173.751ZM-595.916 248.229C-595.541 245.758 -595.478 243.389 -595.874 241.099C-596.103 238.685 -597.08 236.306 -598.594 233.549C-600.276 230.915 -602.438 228.505 -605.225 226.298C-608.034 224.236 -612.029 222.143 -617.106 220.331C-621.312 218.652 -626.187 217.466 -631.688 216.483C-632.974 216.139 -753.893 197.785 -754.765 197.653C-782.031 194.109 -796.994 200.61 -799.531 217.323L-799.773 218.922C-800.259 222.12 -800.118 225.114 -799.397 228.198C-798.653 231.136 -797.06 234.351 -794.572 237.554C-792.085 240.756 -787.932 243.765 -782.071 246.291C-776.791 248.728 -770.238 250.614 -762.412 251.951C-761.83 252.039 -641.493 270.305 -640.453 270.314C-633.164 271.271 -626.805 271.493 -621.352 270.834C-615.151 270.14 -610.292 268.498 -606.821 266.2C-603.495 263.88 -600.896 261.45 -599.314 258.865C-597.71 256.134 -596.666 253.171 -596.203 250.119L-595.916 248.229ZM-540.115 206.146L-505.525 211.397L-517.129 287.843L-439.956 299.557L-443.794 324.845L-555.557 307.881L-540.115 206.146ZM-433.192 326.306L-417.728 224.426L-137.522 266.957C-122.843 269.185 -112.71 272.953 -107.267 278.24C-101.68 283.548 -99.4659 289.534 -100.503 296.365L-100.812 298.4C-101.275 301.452 -102.275 304.125 -103.98 306.542C-105.518 308.837 -107.571 310.607 -109.826 311.751C-112.227 312.874 -114.293 313.749 -116.024 314.379C-117.9 314.986 -119.732 315.303 -121.397 315.496C-119.16 316.43 -116.945 317.51 -114.774 318.88C-112.603 320.251 -110.353 322.079 -107.733 324.41C-105.259 326.718 -103.476 329.665 -102.217 333.127C-101.126 336.712 -100.827 340.624 -101.467 344.838L-101.754 346.728C-104.71 366.203 -121.448 373.624 -152.114 368.969L-433.192 326.306ZM-386.258 251.207L-388.773 267.776L-149.405 304.108C-141.267 305.343 -136.778 303.2 -135.962 297.822L-135.918 297.532C-135.102 292.154 -138.752 288.775 -146.891 287.54L-386.258 251.207ZM-149.64 326.226L-392.06 289.431L-395.104 309.487L-152.685 346.283C-147.453 347.077 -143.81 346.589 -141.467 344.863C-139.123 343.137 -137.753 340.966 -137.356 338.35L-137.267 337.769C-136.319 331.519 -140.484 327.616 -149.64 326.226ZM-43.0041 281.749L-58.4018 383.193L-92.9917 377.943L-77.594 276.499L-43.0041 281.749ZM-25.4364 283.97L48.1033 295.132C58.4221 296.698 67.7807 298.713 75.8663 301.279C84.0972 303.866 90.8085 306.669 95.9563 309.978C101.249 313.309 105.648 316.653 109.109 320.301C112.592 323.803 115.137 327.609 116.743 331.719C118.204 335.806 119.251 339.682 119.572 343.448C120.038 347.236 119.9 351.081 119.283 355.15L118.643 359.365C117.915 364.161 116.65 368.578 114.702 372.594C112.878 376.778 109.89 380.785 105.718 384.761C101.379 388.86 96.2781 392.1 90.2701 394.459C84.1167 396.796 76.1622 398.265 66.2612 398.844C56.4835 399.59 45.2836 398.931 32.7848 397.034L-40.9003 385.85L-25.4364 283.97ZM5.6589 313.222L-2.43702 366.56L33.7515 372.053C63.5452 376.575 79.693 370.105 82.3622 352.52L82.4725 351.793C85.1418 334.208 71.6412 323.237 41.8474 318.715L5.6589 313.222ZM174.005 314.688L158.608 416.132L124.018 410.882L139.416 309.438L174.005 314.688ZM191.573 316.908L308.568 334.666L305.061 357.775L222.365 345.223L220.071 360.338L300.877 372.603L297.347 395.857L216.541 383.591L214.004 400.305L298.299 413.1L294.703 436.789L176.109 418.788L191.573 316.908ZM370.844 450.279C359.799 448.603 350.194 446.253 342.32 443.273C334.3 440.272 328.214 437.267 324.084 434.112C320.099 430.98 316.929 427.376 314.842 423.491C312.756 419.606 311.497 416.144 311.189 413.272C310.882 410.4 311.054 407.304 311.54 404.107L311.76 402.653L347.949 408.146C347.043 419.011 354.075 425.58 375.294 428.801L383.287 430.014C390.264 431.073 393.236 431.078 397.975 431.203C402.569 431.305 406.022 431.086 408.233 430.232C410.59 429.4 412.052 428.581 412.955 427.529C413.858 426.477 414.348 425.213 414.59 423.614C414.921 421.434 414.605 419.602 413.64 418.117C412.654 416.778 409.924 415.174 405.718 413.495C401.491 411.961 395.329 410.431 387.067 409.029L376.211 407.084L368.095 405.703C332.184 399.36 315.684 386.596 318.552 367.703L318.751 366.395C319.236 363.197 320.135 360.212 321.426 357.583C322.718 354.954 324.881 352.457 328.083 349.969C331.118 347.605 334.959 345.809 339.606 344.582C344.253 343.354 350.309 342.638 357.898 342.6C365.363 342.395 374.026 343.115 383.764 344.593L394.082 346.159C404.111 347.682 413.033 349.631 420.537 352.108C428.187 354.607 434.048 357.132 438.39 359.873C442.732 362.613 446.136 365.658 448.601 369.006C451.067 372.354 452.66 375.569 453.259 378.485C453.98 381.568 454.098 384.708 453.591 388.051L453.392 389.359L417.349 383.888C417.213 382.827 417.077 381.765 416.896 380.995C416.716 380.224 415.998 379.074 414.889 377.567C413.779 376.061 412.335 374.801 410.287 373.598C408.363 372.562 405.276 371.35 401.317 370.006C397.336 368.807 394.182 368.031 388.66 367.193L383.573 366.421C375.143 365.141 369.845 364.783 365.207 364.971C360.693 365.327 357.777 365.925 356.751 366.81C355.579 367.673 354.922 369.06 354.636 370.95C354.371 372.694 354.608 374.068 355.595 375.407C356.457 376.579 358.774 377.971 362.543 379.584C366.335 381.052 371.792 382.326 378.891 383.552L387.008 384.933L397.45 386.666C418.189 390.112 432.616 394.978 441.044 401.164C449.617 407.372 452.998 415.468 451.432 425.786L451.145 427.676C450.571 431.454 449.628 434.731 448.315 437.505C447.001 440.28 444.649 443.045 441.402 445.823C438.177 448.456 434.147 450.521 429.187 451.849C424.206 453.323 417.714 453.974 409.522 454.068C401.308 454.308 391.773 453.456 381.018 451.823L370.844 450.279Z" fill="#B8FF00"/>
<path d="M1939.59 688.391C1928.54 686.714 1918.94 684.364 1911.06 681.385C1903.04 678.384 1896.96 675.378 1892.83 672.224C1888.84 669.091 1885.67 665.488 1883.58 661.602C1881.5 657.717 1880.24 654.255 1879.93 651.384C1879.62 648.512 1879.8 645.416 1880.28 642.218L1880.5 640.765L1916.69 646.258C1915.79 657.123 1922.82 663.692 1944.04 666.912L1952.03 668.126C1959.01 669.185 1961.98 669.19 1966.72 669.314C1971.31 669.417 1974.76 669.197 1976.98 668.344C1979.33 667.512 1980.79 666.693 1981.7 665.641C1982.6 664.588 1983.09 663.324 1983.33 661.726C1983.66 659.546 1983.35 657.713 1982.38 656.229C1981.4 654.89 1978.67 653.286 1974.46 651.607C1970.23 650.073 1964.07 648.543 1955.81 647.14L1944.95 645.195L1936.84 643.814C1900.93 637.472 1884.43 624.708 1887.29 605.814L1887.49 604.506C1887.98 601.309 1888.88 598.323 1890.17 595.694C1891.46 593.065 1893.62 590.569 1896.83 588.081C1899.86 585.717 1903.7 583.921 1908.35 582.693C1913 581.466 1919.05 580.749 1926.64 580.712C1934.11 580.507 1942.77 581.227 1952.51 582.705L1962.82 584.271C1972.85 585.793 1981.78 587.742 1989.28 590.219C1996.93 592.719 2002.79 595.244 2007.13 597.984C2011.47 600.725 2014.88 603.769 2017.34 607.117C2019.81 610.465 2021.4 613.681 2022 616.596C2022.72 619.68 2022.84 622.82 2022.33 626.163L2022.13 627.471L1986.09 622C1985.95 620.938 1985.82 619.877 1985.64 619.106C1985.46 618.335 1984.74 617.186 1983.63 615.679C1982.52 614.172 1981.08 612.912 1979.03 611.71C1977.1 610.674 1974.02 609.462 1970.06 608.118C1966.08 606.919 1962.92 606.143 1957.4 605.304L1952.31 604.532C1943.89 603.253 1938.59 602.895 1933.95 603.083C1929.43 603.438 1926.52 604.037 1925.49 604.922C1924.32 605.785 1923.66 607.172 1923.38 609.061C1923.11 610.805 1923.35 612.179 1924.34 613.519C1925.2 614.69 1927.52 616.083 1931.29 617.696C1935.08 619.163 1940.53 620.438 1947.63 621.664L1955.75 623.044L1966.19 624.778C1986.93 628.223 2001.36 633.089 2009.79 639.275C2018.36 645.483 2021.74 653.579 2020.17 663.898L2019.89 665.787C2019.31 669.566 2018.37 672.843 2017.06 675.617C2015.74 678.391 2013.39 681.156 2010.14 683.935C2006.92 686.568 2002.89 688.632 1997.93 689.961C1992.95 691.435 1986.46 692.085 1978.26 692.18C1970.05 692.42 1960.51 691.567 1949.76 689.935L1939.59 688.391ZM2115.24 608.893L2238.2 627.555C2247.64 628.989 2255.96 630.995 2263.34 633.305C2270.72 635.615 2276.88 638.184 2281.82 640.868C2286.62 643.529 2290.75 646.684 2294.11 650.019C2297.59 653.521 2300.23 656.745 2301.84 659.816C2303.58 663.053 2304.86 666.37 2305.81 669.933C2306.61 673.475 2307.02 676.659 2307.06 679.341C2306.95 682.001 2306.68 684.785 2306.24 687.692L2305.62 691.761C2305.2 694.522 2304.63 697.262 2303.95 699.834C2303.11 702.383 2301.78 705.303 2299.94 708.593C2297.98 711.715 2295.75 714.647 2293.3 717.1C2290.68 719.676 2287.33 722.141 2282.98 724.307C2278.62 726.618 2273.74 728.405 2268.34 729.668C2262.97 730.785 2256.33 731.413 2248.58 731.574C2240.7 731.567 2232.18 730.869 2222.73 729.435L2099.78 710.773C2090.33 709.339 2081.99 707.478 2074.46 705.146C2066.96 702.669 2060.81 700.1 2056.01 697.438C2051.23 694.631 2047.1 691.477 2043.62 687.975C2040.11 684.618 2037.5 681.248 2035.91 678.032C2034.15 674.94 2032.89 671.478 2032.09 667.936C2031.31 664.25 2030.9 661.065 2030.86 658.383C2030.97 655.723 2031.24 652.94 2031.66 650.178L2032.28 646.109C2032.72 643.202 2033.28 640.463 2033.95 638.036C2034.78 635.486 2036.12 632.567 2037.93 629.423C2039.77 626.133 2041.98 623.346 2044.6 620.77C2047.05 618.317 2050.52 616.019 2054.89 613.708C2059.09 611.52 2063.97 609.734 2069.34 608.616C2074.86 607.521 2081.5 606.893 2089.38 606.899C2097.26 606.906 2105.8 607.459 2115.24 608.893ZM2270.91 683.37C2271.28 680.9 2271.35 678.53 2270.95 676.24C2270.72 673.826 2269.75 671.448 2268.23 668.69C2266.55 666.056 2264.39 663.646 2261.6 661.439C2258.79 659.377 2254.8 657.284 2249.72 655.473C2245.51 653.793 2240.64 652.607 2235.14 651.624C2233.85 651.28 2112.93 632.926 2112.06 632.794C2084.79 629.25 2069.83 635.751 2067.29 652.465L2067.05 654.063C2066.57 657.261 2066.71 660.256 2067.43 663.339C2068.17 666.277 2069.77 669.492 2072.25 672.695C2074.74 675.897 2078.89 678.907 2084.75 681.432C2090.03 683.869 2096.59 685.756 2104.41 687.092C2104.99 687.18 2225.33 705.446 2226.37 705.455C2233.66 706.413 2240.02 706.634 2245.47 705.975C2251.67 705.281 2256.53 703.64 2260 701.341C2263.33 699.021 2265.93 696.591 2267.51 694.006C2269.11 691.276 2270.16 688.312 2270.62 685.26L2270.91 683.37ZM2326.71 641.288L2361.3 646.538L2349.7 722.984L2426.87 734.698L2423.03 759.986L2311.27 743.022L2326.71 641.288ZM2433.63 761.447L2449.1 659.567L2729.3 702.098C2743.98 704.326 2754.12 708.094 2759.56 713.381C2765.15 718.69 2767.36 724.676 2766.32 731.506L2766.01 733.541C2765.55 736.593 2764.55 739.266 2762.84 741.684C2761.31 743.978 2759.25 745.748 2757 746.892C2754.6 748.015 2752.53 748.891 2750.8 749.52C2748.93 750.127 2747.09 750.444 2745.43 750.637C2747.67 751.572 2749.88 752.651 2752.05 754.022C2754.22 755.392 2756.47 757.22 2759.09 759.551C2761.57 761.859 2763.35 764.806 2764.61 768.268C2765.7 771.854 2766 775.765 2765.36 779.98L2765.07 781.869C2762.12 801.344 2745.38 808.765 2714.71 804.11L2433.63 761.447ZM2480.57 686.349L2478.05 702.917L2717.42 739.249C2725.56 740.485 2730.05 738.341 2730.86 732.964L2730.91 732.673C2731.72 727.295 2728.07 723.916 2719.93 722.681L2480.57 686.349ZM2717.18 761.368L2474.77 724.572L2471.72 744.628L2714.14 781.424C2719.37 782.218 2723.02 781.73 2725.36 780.004C2727.7 778.278 2729.07 776.107 2729.47 773.491L2729.56 772.91C2730.51 766.661 2726.34 762.757 2717.18 761.368ZM2823.82 716.89L2808.42 818.334L2773.83 813.084L2789.23 711.64L2823.82 716.89ZM2841.39 719.111L2914.93 730.273C2925.25 731.839 2934.61 733.855 2942.69 736.42C2950.92 739.007 2957.63 741.81 2962.78 745.119C2968.07 748.45 2972.47 751.794 2975.93 755.442C2979.42 758.944 2981.96 762.75 2983.57 766.86C2985.03 770.947 2986.08 774.823 2986.4 778.589C2986.86 782.377 2986.73 786.222 2986.11 790.291L2985.47 794.506C2984.74 799.302 2983.47 803.719 2981.53 807.735C2979.7 811.919 2976.72 815.926 2972.54 819.902C2968.2 824.001 2963.1 827.242 2957.1 829.601C2950.94 831.938 2942.99 833.407 2933.09 833.985C2923.31 834.732 2912.11 834.072 2899.61 832.175L2825.92 820.991L2841.39 719.111ZM2872.48 748.363L2864.39 801.702L2900.58 807.194C2930.37 811.717 2946.52 805.247 2949.19 787.661L2949.3 786.934C2951.97 769.349 2938.47 758.379 2908.67 753.856L2872.48 748.363ZM3040.83 749.829L3025.43 851.273L2990.84 846.023L3006.24 744.579L3040.83 749.829ZM3058.4 752.05L3175.39 769.808L3171.89 792.916L3089.19 780.364L3086.9 795.479L3167.7 807.744L3164.17 830.998L3083.37 818.733L3080.83 835.446L3165.12 848.241L3161.53 871.93L3042.93 853.93L3058.4 752.05ZM3237.67 885.421C3226.62 883.744 3217.02 881.394 3209.14 878.415C3201.13 875.413 3195.04 872.408 3190.91 869.253C3186.92 866.121 3183.75 862.517 3181.67 858.632C3179.58 854.747 3178.32 851.285 3178.01 848.413C3177.71 845.542 3177.88 842.445 3178.36 839.248L3178.59 837.795L3214.77 843.288C3213.87 854.153 3220.9 860.721 3242.12 863.942L3250.11 865.155C3257.09 866.214 3260.06 866.219 3264.8 866.344C3269.39 866.446 3272.85 866.227 3275.06 865.373C3277.41 864.542 3278.88 863.723 3279.78 862.67C3280.68 861.618 3281.17 860.354 3281.42 858.755C3281.75 856.575 3281.43 854.743 3280.47 853.259C3279.48 851.919 3276.75 850.316 3272.54 848.636C3268.32 847.103 3262.15 845.573 3253.89 844.17L3243.04 842.225L3234.92 840.844C3199.01 834.501 3182.51 821.738 3185.38 802.844L3185.58 801.536C3186.06 798.339 3186.96 795.353 3188.25 792.724C3189.54 790.095 3191.71 787.598 3194.91 785.111C3197.94 782.746 3201.78 780.95 3206.43 779.723C3211.08 778.495 3217.13 777.779 3224.72 777.741C3232.19 777.536 3240.85 778.256 3250.59 779.734L3260.91 781.301C3270.94 782.823 3279.86 784.772 3287.36 787.249C3295.01 789.748 3300.87 792.273 3305.22 795.014C3309.56 797.755 3312.96 800.799 3315.43 804.147C3317.89 807.495 3319.49 810.71 3320.08 813.626C3320.81 816.709 3320.92 819.85 3320.42 823.192L3320.22 824.5L3284.17 819.029C3284.04 817.968 3283.9 816.907 3283.72 816.136C3283.54 815.365 3282.82 814.215 3281.71 812.709C3280.6 811.202 3279.16 809.942 3277.11 808.739C3275.19 807.704 3272.1 806.492 3268.14 805.147C3264.16 803.948 3261.01 803.172 3255.48 802.334L3250.4 801.562C3241.97 800.283 3236.67 799.924 3232.03 800.113C3227.52 800.468 3224.6 801.066 3223.58 801.951C3222.4 802.814 3221.75 804.201 3221.46 806.091C3221.2 807.835 3221.43 809.209 3222.42 810.548C3223.28 811.72 3225.6 813.112 3229.37 814.725C3233.16 816.193 3238.62 817.467 3245.72 818.693L3253.83 820.074L3264.28 821.808C3285.01 825.253 3299.44 830.119 3307.87 836.305C3316.44 842.513 3319.82 850.609 3318.26 860.928L3317.97 862.817C3317.4 866.596 3316.45 869.872 3315.14 872.647C3313.83 875.421 3311.47 878.186 3308.23 880.964C3305 883.597 3300.97 885.662 3296.01 886.991C3291.03 888.465 3284.54 889.115 3276.35 889.21C3268.13 889.45 3258.6 888.597 3247.84 886.965L3237.67 885.421Z" fill="#C5A314"/>
<path d="M598.641 484.855C587.595 483.179 577.99 480.829 570.116 477.849C562.096 474.848 556.011 471.843 551.88 468.688C547.895 465.556 544.725 461.952 542.638 458.067C540.552 454.182 539.293 450.72 538.986 447.848C538.678 444.976 538.851 441.88 539.336 438.683L539.556 437.229L575.745 442.722C574.839 453.587 581.871 460.156 603.09 463.377L611.084 464.59C618.06 465.649 621.033 465.654 625.772 465.779C630.365 465.881 633.818 465.662 636.029 464.808C638.386 463.976 639.848 463.158 640.751 462.105C641.655 461.053 642.144 459.789 642.386 458.19C642.717 456.01 642.401 454.178 641.437 452.693C640.45 451.354 637.72 449.75 633.515 448.071C629.287 446.537 623.126 445.007 614.864 443.605L604.008 441.66L595.891 440.279C559.98 433.936 543.481 421.173 546.348 402.279L546.547 400.971C547.032 397.774 547.931 394.788 549.223 392.159C550.514 389.53 552.677 387.033 555.879 384.545C558.915 382.181 562.756 380.385 567.402 379.158C572.049 377.93 578.105 377.214 585.694 377.176C593.159 376.971 601.822 377.691 611.56 379.169L621.879 380.735C631.907 382.258 640.829 384.207 648.333 386.684C655.983 389.183 661.844 391.708 666.186 394.449C670.528 397.19 673.932 400.234 676.397 403.582C678.863 406.93 680.457 410.145 681.055 413.061C681.776 416.144 681.894 419.284 681.387 422.627L681.188 423.935L645.145 418.464C645.009 417.403 644.873 416.341 644.692 415.571C644.512 414.8 643.794 413.65 642.685 412.143C641.575 410.637 640.131 409.377 638.083 408.174C636.159 407.139 633.072 405.927 629.113 404.582C625.132 403.383 621.978 402.607 616.456 401.769L611.369 400.997C602.94 399.717 597.641 399.359 593.004 399.547C588.489 399.903 585.573 400.501 584.547 401.386C583.375 402.249 582.718 403.636 582.432 405.526C582.167 407.27 582.404 408.644 583.391 409.983C584.254 411.155 586.57 412.547 590.34 414.16C594.131 415.628 599.588 416.902 606.687 418.128L614.804 419.509L625.246 421.243C645.985 424.688 660.412 429.554 668.84 435.74C677.414 441.948 680.794 450.044 679.228 460.362L678.941 462.252C678.367 466.03 677.424 469.307 676.111 472.081C674.798 474.856 672.445 477.621 669.198 480.399C665.974 483.032 661.943 485.097 656.984 486.425C652.002 487.9 645.51 488.55 637.318 488.644C629.104 488.884 619.569 488.032 608.814 486.399L598.641 484.855ZM774.296 405.357L897.25 424.02C906.697 425.454 915.016 427.46 922.397 429.769C929.778 432.079 935.93 434.649 940.875 437.332C945.675 439.994 949.806 443.148 953.165 446.483C956.648 449.985 959.281 453.21 960.897 456.28C962.636 459.518 963.916 462.835 964.862 466.398C965.663 469.939 966.072 473.123 966.111 475.806C966.004 478.466 965.73 481.249 965.289 484.156L964.672 488.225C964.252 490.987 963.688 493.726 963 496.298C962.167 498.848 960.832 501.768 958.994 505.057C957.034 508.179 954.804 511.112 952.35 513.564C949.729 516.14 946.381 518.606 942.038 520.771C937.673 523.083 932.793 524.869 927.397 526.132C922.023 527.249 915.386 527.877 907.63 528.038C899.751 528.032 891.233 527.334 881.786 525.9L758.833 507.237C749.386 505.803 741.045 503.942 733.518 501.611C726.014 499.133 719.862 496.564 715.062 493.903C710.284 491.096 706.154 487.941 702.671 484.439C699.166 481.082 696.555 477.712 694.962 474.497C693.201 471.404 691.942 467.942 691.141 464.401C690.363 460.714 689.954 457.53 689.915 454.848C690.021 452.188 690.295 449.404 690.714 446.643L691.332 442.573C691.773 439.667 692.338 436.927 693.003 434.501C693.836 431.951 695.172 429.031 696.987 425.887C698.825 422.598 701.032 419.81 703.653 417.234C706.107 414.782 709.578 412.484 713.943 410.173C718.141 407.985 723.022 406.198 728.395 405.081C733.914 403.986 740.551 403.357 748.431 403.364C756.31 403.37 764.85 403.923 774.296 405.357ZM929.964 479.835C930.339 477.364 930.401 474.995 930.005 472.704C929.777 470.291 928.8 467.912 927.285 465.155C925.604 462.521 923.442 460.111 920.654 457.904C917.845 455.842 913.851 453.748 908.773 451.937C904.568 450.258 899.692 449.072 894.192 448.088C892.906 447.744 771.987 429.391 771.115 429.258C743.849 425.714 728.886 432.216 726.349 448.929L726.106 450.528C725.621 453.725 725.761 456.72 726.482 459.803C727.226 462.741 728.819 465.957 731.307 469.159C733.795 472.362 737.947 475.371 743.808 477.896C749.089 480.333 755.642 482.22 763.468 483.557C764.049 483.645 884.387 501.91 885.426 501.919C892.715 502.877 899.075 503.099 904.527 502.44C910.729 501.745 915.587 500.104 919.058 497.806C922.384 495.486 924.983 493.055 926.565 490.47C928.169 487.74 929.214 484.776 929.677 481.724L929.964 479.835ZM985.764 437.752L1020.35 443.002L1008.75 519.449L1085.92 531.162L1082.09 556.451L970.322 539.487L985.764 437.752ZM1092.69 557.911L1108.15 456.031L1203.2 470.458C1218.02 472.708 1228.18 476.331 1233.62 481.618C1239.21 486.927 1241.4 493.058 1240.36 499.889L1240.08 501.778C1239.61 504.83 1238.45 507.627 1236.91 509.921C1235.23 512.193 1233.32 513.985 1230.92 515.107C1228.64 516.397 1226.57 517.273 1224.72 517.735C1222.99 518.364 1221.14 518.826 1219.32 518.998C1221.73 519.809 1223.92 521.034 1226.09 522.404C1228.26 523.774 1230.51 525.603 1233.01 527.766C1235.49 530.074 1237.41 533.043 1238.51 536.629C1239.76 540.091 1240.06 544.002 1239.42 548.217L1239.14 550.106C1236.16 569.726 1219.27 577.125 1188.61 572.471L1092.69 557.911ZM1139.62 482.813L1137.11 499.381L1191.46 507.632C1199.6 508.867 1203.94 506.701 1204.78 501.179L1204.83 500.888C1205.64 495.51 1202.12 492.299 1193.98 491.063L1139.62 482.813ZM1191.23 529.75L1133.82 521.036L1130.8 540.947L1188.2 549.661C1193.29 550.433 1197.08 549.967 1199.42 548.241C1201.6 546.639 1202.97 544.468 1203.39 541.706L1203.45 541.27C1204.43 534.876 1200.38 531.14 1191.23 529.75ZM1297.94 485.285L1282.54 586.729L1247.95 581.479L1263.35 480.034L1297.94 485.285ZM1315.51 487.505L1389.05 498.667C1399.37 500.234 1408.73 502.249 1416.81 504.814C1425.04 507.402 1431.75 510.205 1436.9 513.514C1442.2 516.845 1446.59 520.189 1450.05 523.836C1453.54 527.339 1456.08 531.145 1457.69 535.254C1459.15 539.342 1460.2 543.218 1460.52 546.984C1460.98 550.771 1460.85 554.616 1460.23 558.686L1459.59 562.9C1458.86 567.696 1457.6 572.114 1455.65 576.13C1453.82 580.313 1450.84 584.32 1446.66 588.296C1442.32 592.396 1437.22 595.636 1431.22 597.995C1425.06 600.332 1417.11 601.801 1407.21 602.38C1397.43 603.126 1386.23 602.467 1373.73 600.57L1300.05 589.385L1315.51 487.505ZM1346.6 516.758L1338.51 570.096L1374.7 575.589C1404.49 580.111 1420.64 573.641 1423.31 556.055L1423.42 555.329C1426.09 537.743 1412.59 526.773 1382.79 522.251L1346.6 516.758ZM1514.95 518.223L1499.55 619.668L1464.96 614.417L1480.36 512.973L1514.95 518.223ZM1532.52 520.444L1649.51 538.202L1646.01 561.31L1563.31 548.758L1561.02 563.873L1641.82 576.138L1638.29 599.392L1557.49 587.127L1554.95 603.84L1639.24 616.635L1635.65 640.325L1517.06 622.324L1532.52 520.444ZM1711.79 653.815C1700.74 652.138 1691.14 649.788 1683.27 646.809C1675.25 643.807 1669.16 640.802 1665.03 637.648C1661.04 634.515 1657.87 630.912 1655.79 627.026C1653.7 623.141 1652.44 619.679 1652.14 616.808C1651.83 613.936 1652 610.84 1652.49 607.642L1652.71 606.189L1688.89 611.682C1687.99 622.547 1695.02 629.116 1716.24 632.336L1724.23 633.55C1731.21 634.608 1734.18 634.614 1738.92 634.738C1743.51 634.841 1746.97 634.621 1749.18 633.768C1751.54 632.936 1753 632.117 1753.9 631.065C1754.8 630.012 1755.29 628.748 1755.54 627.15C1755.87 624.97 1755.55 623.137 1754.59 621.653C1753.6 620.314 1750.87 618.71 1746.66 617.031C1742.44 615.497 1736.28 613.967 1728.01 612.564L1717.16 610.619L1709.04 609.238C1673.13 602.896 1656.63 590.132 1659.5 571.238L1659.7 569.93C1660.18 566.733 1661.08 563.747 1662.37 561.118C1663.66 558.489 1665.83 555.992 1669.03 553.505C1672.06 551.141 1675.91 549.345 1680.55 548.117C1685.2 546.89 1691.26 546.173 1698.84 546.136C1706.31 545.931 1714.97 546.651 1724.71 548.129L1735.03 549.695C1745.06 551.217 1753.98 553.166 1761.48 555.643C1769.13 558.143 1774.99 560.668 1779.34 563.408C1783.68 566.149 1787.08 569.193 1789.55 572.541C1792.01 575.889 1793.61 579.105 1794.2 582.02C1794.93 585.104 1795.04 588.244 1794.54 591.587L1794.34 592.895L1758.29 587.424C1758.16 586.362 1758.02 585.301 1757.84 584.53C1757.66 583.759 1756.94 582.61 1755.83 581.103C1754.73 579.596 1753.28 578.336 1751.23 577.134C1749.31 576.098 1746.22 574.886 1742.26 573.542C1738.28 572.343 1735.13 571.567 1729.61 570.728L1724.52 569.956C1716.09 568.677 1710.79 568.319 1706.15 568.507C1701.64 568.862 1698.72 569.461 1697.7 570.346C1696.52 571.209 1695.87 572.596 1695.58 574.485C1695.32 576.229 1695.55 577.603 1696.54 578.942C1697.4 580.114 1699.72 581.507 1703.49 583.12C1707.28 584.587 1712.74 585.861 1719.84 587.088L1727.95 588.468L1738.4 590.202C1759.13 593.647 1773.56 598.513 1781.99 604.699C1790.56 610.907 1793.94 619.003 1792.38 629.322L1792.09 631.211C1791.52 634.99 1790.57 638.266 1789.26 641.041C1787.95 643.815 1785.59 646.58 1782.35 649.359C1779.12 651.992 1775.09 654.056 1770.13 655.385C1765.15 656.859 1758.66 657.509 1750.47 657.604C1742.25 657.844 1732.72 656.991 1721.96 655.359L1711.79 653.815Z" fill="#03E1FF"/>
<path d="M-2016.19 230.257C-2027.23 228.581 -2036.84 226.231 -2044.71 223.251C-2052.73 220.25 -2058.82 217.245 -2062.95 214.09C-2066.93 210.958 -2070.1 207.354 -2072.19 203.469C-2074.28 199.584 -2075.54 196.122 -2075.84 193.25C-2076.15 190.378 -2075.98 187.282 -2075.49 184.085L-2075.27 182.632L-2039.08 188.124C-2039.99 198.99 -2032.96 205.558 -2011.74 208.779L-2003.74 209.992C-1996.77 211.051 -1993.8 211.056 -1989.06 211.181C-1984.46 211.283 -1981.01 211.064 -1978.8 210.21C-1976.44 209.378 -1974.98 208.56 -1974.08 207.507C-1973.17 206.455 -1972.68 205.191 -1972.44 203.592C-1972.11 201.412 -1972.43 199.58 -1973.39 198.095C-1974.38 196.756 -1977.11 195.152 -1981.31 193.473C-1985.54 191.939 -1991.7 190.41 -1999.96 189.007L-2010.82 187.062L-2018.94 185.681C-2054.85 179.338 -2071.35 166.575 -2068.48 147.681L-2068.28 146.373C-2067.8 143.176 -2066.9 140.19 -2065.61 137.561C-2064.31 134.932 -2062.15 132.435 -2058.95 129.947C-2055.91 127.583 -2052.07 125.787 -2047.43 124.56C-2042.78 123.332 -2036.72 122.616 -2029.13 122.578C-2021.67 122.373 -2013.01 123.093 -2003.27 124.571L-1992.95 126.138C-1982.92 127.66 -1974 129.609 -1966.49 132.086C-1958.85 134.585 -1952.98 137.11 -1948.64 139.851C-1944.3 142.592 -1940.9 145.636 -1938.43 148.984C-1935.97 152.332 -1934.37 155.547 -1933.77 158.463C-1933.05 161.546 -1932.93 164.686 -1933.44 168.029L-1933.64 169.337L-1969.68 163.866C-1969.82 162.805 -1969.96 161.743 -1970.14 160.973C-1970.32 160.202 -1971.03 159.052 -1972.14 157.546C-1973.25 156.039 -1974.7 154.779 -1976.74 153.576C-1978.67 152.541 -1981.76 151.329 -1985.72 149.984C-1989.7 148.785 -1992.85 148.009 -1998.37 147.171L-2003.46 146.399C-2011.89 145.119 -2017.19 144.761 -2021.82 144.949C-2026.34 145.305 -2029.25 145.903 -2030.28 146.788C-2031.45 147.651 -2032.11 149.038 -2032.4 150.928C-2032.66 152.672 -2032.42 154.046 -2031.44 155.385C-2030.57 156.557 -2028.26 157.949 -2024.49 159.562C-2020.7 161.03 -2015.24 162.304 -2008.14 163.53L-2000.02 164.911L-1989.58 166.645C-1968.84 170.09 -1954.42 174.956 -1945.99 181.142C-1937.41 187.35 -1934.03 195.446 -1935.6 205.764L-1935.89 207.654C-1936.46 211.433 -1937.4 214.709 -1938.72 217.483C-1940.03 220.258 -1942.38 223.023 -1945.63 225.801C-1948.85 228.434 -1952.89 230.499 -1957.84 231.827C-1962.83 233.302 -1969.32 233.952 -1977.51 234.046C-1985.72 234.287 -1995.26 233.434 -2006.01 231.802L-2016.19 230.257ZM-1840.53 150.759L-1717.58 169.422C-1708.13 170.856 -1699.81 172.862 -1692.43 175.172C-1685.05 177.481 -1678.9 180.051 -1673.95 182.734C-1669.15 185.396 -1665.02 188.55 -1661.66 191.885C-1658.18 195.387 -1655.55 198.612 -1653.93 201.682C-1652.19 204.92 -1650.91 208.237 -1649.97 211.8C-1649.17 215.341 -1648.76 218.526 -1648.72 221.208C-1648.82 223.868 -1649.1 226.651 -1649.54 229.558L-1650.16 233.627C-1650.58 236.389 -1651.14 239.128 -1651.83 241.7C-1652.66 244.25 -1654 247.17 -1655.83 250.459C-1657.79 253.581 -1660.02 256.514 -1662.48 258.966C-1665.1 261.542 -1668.45 264.008 -1672.79 266.173C-1677.16 268.485 -1682.04 270.271 -1687.43 271.534C-1692.8 272.651 -1699.44 273.279 -1707.2 273.44C-1715.08 273.434 -1723.6 272.736 -1733.04 271.302L-1856 252.639C-1865.44 251.205 -1873.78 249.345 -1881.31 247.013C-1888.81 244.536 -1894.97 241.966 -1899.77 239.305C-1904.54 236.498 -1908.67 233.343 -1912.16 229.841C-1915.66 226.484 -1918.27 223.114 -1919.87 219.899C-1921.63 216.806 -1922.89 213.344 -1923.69 209.803C-1924.47 206.116 -1924.87 202.932 -1924.91 200.25C-1924.81 197.59 -1924.53 194.806 -1924.11 192.045L-1923.5 187.975C-1923.06 185.069 -1922.49 182.329 -1921.82 179.903C-1920.99 177.353 -1919.66 174.433 -1917.84 171.289C-1916 168 -1913.8 165.212 -1911.18 162.636C-1908.72 160.184 -1905.25 157.886 -1900.88 155.575C-1896.69 153.387 -1891.81 151.6 -1886.43 150.483C-1880.91 149.388 -1874.28 148.76 -1866.4 148.766C-1858.52 148.772 -1849.98 149.325 -1840.53 150.759ZM-1684.86 225.237C-1684.49 222.766 -1684.43 220.397 -1684.82 218.106C-1685.05 215.693 -1686.03 213.314 -1687.54 210.557C-1689.22 207.923 -1691.39 205.513 -1694.17 203.306C-1696.98 201.244 -1700.98 199.151 -1706.06 197.339C-1710.26 195.66 -1715.14 194.474 -1720.64 193.49C-1721.92 193.146 -1842.84 174.793 -1843.71 174.66C-1870.98 171.117 -1885.94 177.618 -1888.48 194.331L-1888.72 195.93C-1889.21 199.127 -1889.07 202.122 -1888.35 205.205C-1887.6 208.143 -1886.01 211.359 -1883.52 214.561C-1881.03 217.764 -1876.88 220.773 -1871.02 223.298C-1865.74 225.735 -1859.19 227.622 -1851.36 228.959C-1850.78 229.047 -1730.44 247.312 -1729.4 247.321C-1722.11 248.279 -1715.75 248.501 -1710.3 247.842C-1704.1 247.148 -1699.24 245.506 -1695.77 243.208C-1692.44 240.888 -1689.84 238.457 -1688.26 235.872C-1686.66 233.142 -1685.61 230.178 -1685.15 227.126L-1684.86 225.237ZM-1629.06 183.154L-1594.47 188.404L-1606.08 264.851L-1528.9 276.564L-1532.74 301.853L-1644.51 284.889L-1629.06 183.154ZM-1522.14 303.313L-1506.68 201.433L-1226.47 243.964C-1211.79 246.193 -1201.66 249.961 -1196.22 255.247C-1190.63 260.556 -1188.41 266.542 -1189.45 273.373L-1189.76 275.408C-1190.22 278.46 -1191.22 281.133 -1192.93 283.55C-1194.47 285.844 -1196.52 287.614 -1198.78 288.759C-1201.18 289.881 -1203.24 290.757 -1204.97 291.387C-1206.85 291.994 -1208.68 292.311 -1210.35 292.504C-1208.11 293.438 -1205.89 294.518 -1203.72 295.888C-1201.55 297.258 -1199.3 299.087 -1196.68 301.417C-1194.21 303.726 -1192.42 306.673 -1191.17 310.135C-1190.07 313.72 -1189.78 317.631 -1190.42 321.846L-1190.7 323.735C-1193.66 343.21 -1210.4 350.632 -1241.06 345.977L-1522.14 303.313ZM-1475.21 228.215L-1477.72 244.783L-1238.35 281.116C-1230.22 282.351 -1225.73 280.207 -1224.91 274.83L-1224.87 274.539C-1224.05 269.162 -1227.7 265.783 -1235.84 264.548L-1475.21 228.215ZM-1238.59 303.234L-1481.01 266.438L-1484.05 286.495L-1241.63 323.29C-1236.4 324.084 -1232.76 323.597 -1230.42 321.871C-1228.07 320.145 -1226.7 317.974 -1226.3 315.358L-1226.22 314.777C-1225.27 308.527 -1229.43 304.624 -1238.59 303.234ZM-1131.95 258.757L-1147.35 360.201L-1181.94 354.951L-1166.54 253.507L-1131.95 258.757ZM-1114.39 260.977L-1040.85 272.14C-1030.53 273.706 -1021.17 275.721 -1013.08 278.286C-1004.85 280.874 -998.14 283.677 -992.993 286.986C-987.699 290.317 -983.301 293.661 -979.84 297.309C-976.357 300.811 -973.812 304.617 -972.206 308.726C-970.745 312.814 -969.697 316.69 -969.377 320.456C-968.911 324.244 -969.049 328.088 -969.666 332.158L-970.306 336.373C-971.034 341.169 -972.299 345.586 -974.247 349.602C-976.071 353.786 -979.058 357.793 -983.23 361.769C-987.57 365.868 -992.671 369.108 -998.679 371.467C-1004.83 373.804 -1012.79 375.273 -1022.69 375.852C-1032.47 376.598 -1043.67 375.939 -1056.16 374.042L-1129.85 362.857L-1114.39 260.977ZM-1083.29 290.23L-1091.39 343.568L-1055.2 349.061C-1025.4 353.583 -1009.26 347.113 -1006.59 329.528L-1006.48 328.801C-1003.81 311.215 -1017.31 300.245 -1047.1 295.723L-1083.29 290.23ZM-914.943 291.696L-930.341 393.14L-964.931 387.89L-949.533 286.445L-914.943 291.696ZM-897.376 293.916L-780.381 311.674L-783.888 334.783L-866.584 322.231L-868.878 337.345L-788.072 349.611L-791.601 372.864L-872.408 360.599L-874.945 377.313L-790.65 390.107L-794.246 413.797L-912.84 395.796L-897.376 293.916ZM-718.104 427.287C-729.15 425.61 -738.755 423.26 -746.629 420.281C-754.649 417.28 -760.734 414.274 -764.865 411.12C-768.85 407.987 -772.02 404.384 -774.107 400.499C-776.193 396.614 -777.452 393.151 -777.759 390.28C-778.067 387.408 -777.894 384.312 -777.409 381.115L-777.188 379.661L-741 385.154C-741.906 396.019 -734.874 402.588 -713.655 405.809L-705.661 407.022C-698.685 408.081 -695.712 408.086 -690.973 408.21C-686.38 408.313 -682.927 408.094 -680.716 407.24C-678.359 406.408 -676.897 405.589 -675.994 404.537C-675.09 403.484 -674.601 402.221 -674.359 400.622C-674.028 398.442 -674.344 396.61 -675.308 395.125C-676.295 393.786 -679.025 392.182 -683.23 390.503C-687.458 388.969 -693.619 387.439 -701.881 386.036L-712.737 384.091L-720.854 382.711C-756.765 376.368 -773.264 363.604 -770.397 344.711L-770.198 343.403C-769.713 340.205 -768.814 337.219 -767.522 334.59C-766.231 331.961 -764.068 329.465 -760.866 326.977C-757.83 324.613 -753.989 322.817 -749.343 321.589C-744.696 320.362 -738.64 319.645 -731.051 319.608C-723.586 319.403 -714.923 320.123 -705.185 321.601L-694.866 323.167C-684.838 324.689 -675.916 326.638 -668.411 329.116C-660.762 331.615 -654.9 334.14 -650.559 336.881C-646.217 339.621 -642.813 342.665 -640.347 346.013C-637.882 349.361 -636.288 352.577 -635.69 355.493C-634.969 358.576 -634.851 361.716 -635.358 365.059L-635.557 366.367L-671.6 360.896C-671.736 359.835 -671.872 358.773 -672.053 358.002C-672.233 357.231 -672.951 356.082 -674.06 354.575C-675.17 353.069 -676.614 351.809 -678.662 350.606C-680.586 349.57 -683.673 348.358 -687.632 347.014C-691.613 345.815 -694.766 345.039 -700.289 344.201L-705.376 343.429C-713.805 342.149 -719.104 341.791 -723.741 341.979C-728.256 342.335 -731.172 342.933 -732.198 343.818C-733.37 344.681 -734.026 346.068 -734.313 347.957C-734.578 349.701 -734.341 351.076 -733.354 352.415C-732.491 353.586 -730.175 354.979 -726.405 356.592C-722.614 358.059 -717.157 359.334 -710.058 360.56L-701.941 361.941L-691.499 363.674C-670.76 367.119 -656.333 371.986 -647.905 378.171C-639.331 384.379 -635.951 392.475 -637.517 402.794L-637.804 404.683C-638.378 408.462 -639.321 411.739 -640.634 414.513C-641.947 417.287 -644.3 420.053 -647.547 422.831C-650.771 425.464 -654.802 427.528 -659.761 428.857C-664.743 430.331 -671.235 430.981 -679.427 431.076C-687.641 431.316 -697.176 430.464 -707.931 428.831L-718.104 427.287Z" fill="#03E1FF"/>
<path d="M-490.308 461.863C-501.354 460.187 -510.959 457.837 -518.833 454.857C-526.852 451.856 -532.938 448.85 -537.069 445.696C-541.054 442.563 -544.224 438.96 -546.31 435.075C-548.397 431.19 -549.656 427.727 -549.963 424.856C-550.271 421.984 -550.098 418.888 -549.613 415.691L-549.392 414.237L-513.204 419.73C-514.11 430.595 -507.078 437.164 -485.859 440.385L-477.865 441.598C-470.889 442.657 -467.916 442.662 -463.177 442.787C-458.584 442.889 -455.131 442.67 -452.919 441.816C-450.563 440.984 -449.101 440.165 -448.197 439.113C-447.294 438.061 -446.805 436.797 -446.562 435.198C-446.231 433.018 -446.548 431.186 -447.512 429.701C-448.498 428.362 -451.229 426.758 -455.434 425.079C-459.662 423.545 -465.823 422.015 -474.085 420.612L-484.941 418.667L-493.058 417.287C-528.969 410.944 -545.468 398.18 -542.601 379.287L-542.402 377.979C-541.917 374.781 -541.017 371.795 -539.726 369.166C-538.435 366.537 -536.272 364.041 -533.069 361.553C-530.034 359.189 -526.193 357.393 -521.546 356.165C-516.9 354.938 -510.843 354.222 -503.255 354.184C-495.79 353.979 -487.127 354.699 -477.389 356.177L-467.07 357.743C-457.042 359.265 -448.12 361.214 -440.615 363.692C-432.966 366.191 -427.104 368.716 -422.762 371.457C-418.421 374.197 -415.017 377.242 -412.551 380.589C-410.086 383.937 -408.492 387.153 -407.894 390.069C-407.173 393.152 -407.055 396.292 -407.562 399.635L-407.76 400.943L-443.804 395.472C-443.94 394.411 -444.076 393.349 -444.256 392.578C-444.437 391.808 -445.154 390.658 -446.264 389.151C-447.373 387.645 -448.818 386.385 -450.865 385.182C-452.79 384.146 -455.877 382.934 -459.836 381.59C-463.817 380.391 -466.97 379.615 -472.493 378.777L-477.58 378.005C-486.009 376.725 -491.308 376.367 -495.945 376.555C-500.46 376.911 -503.376 377.509 -504.402 378.394C-505.574 379.257 -506.23 380.644 -506.517 382.533C-506.782 384.277 -506.544 385.652 -505.558 386.991C-504.695 388.162 -502.379 389.555 -498.609 391.168C-494.818 392.635 -489.361 393.91 -482.262 395.136L-474.145 396.517L-463.703 398.25C-442.964 401.696 -428.537 406.562 -420.109 412.747C-411.535 418.955 -408.155 427.051 -409.721 437.37L-410.008 439.259C-410.581 443.038 -411.525 446.315 -412.838 449.089C-414.151 451.863 -416.504 454.629 -419.751 457.407C-422.975 460.04 -427.006 462.104 -431.965 463.433C-436.947 464.907 -443.439 465.557 -451.631 465.652C-459.845 465.892 -469.38 465.04 -480.135 463.407L-490.308 461.863ZM-314.652 382.365L-191.699 401.027C-182.252 402.461 -173.933 404.467 -166.552 406.777C-159.171 409.087 -153.019 411.656 -148.073 414.34C-143.273 417.001 -139.143 420.156 -135.783 423.491C-132.301 426.993 -129.668 430.218 -128.052 433.288C-126.313 436.526 -125.033 439.842 -124.087 443.406C-123.286 446.947 -122.877 450.131 -122.838 452.813C-122.945 455.474 -123.218 458.257 -123.66 461.164L-124.277 465.233C-124.696 467.995 -125.261 470.734 -125.949 473.306C-126.782 475.856 -128.117 478.775 -129.954 482.065C-131.915 485.187 -134.145 488.12 -136.598 490.572C-139.22 493.148 -142.567 495.613 -146.911 497.779C-151.276 500.09 -156.156 501.877 -161.552 503.14C-166.925 504.257 -173.563 504.885 -181.319 505.046C-189.198 505.039 -197.716 504.341 -207.163 502.907L-330.116 484.245C-339.563 482.811 -347.904 480.95 -355.431 478.618C-362.935 476.141 -369.087 473.572 -373.887 470.91C-378.665 468.104 -382.795 464.949 -386.278 461.447C-389.783 458.09 -392.394 454.72 -393.987 451.504C-395.748 448.412 -397.007 444.95 -397.808 441.409C-398.586 437.722 -398.995 434.538 -399.034 431.855C-398.927 429.195 -398.654 426.412 -398.234 423.651L-397.617 419.581C-397.176 416.674 -396.611 413.935 -395.945 411.509C-395.112 408.959 -393.777 406.039 -391.962 402.895C-390.124 399.605 -387.917 396.818 -385.296 394.242C-382.842 391.79 -379.371 389.492 -375.005 387.18C-370.808 384.993 -365.927 383.206 -360.554 382.088C-355.035 380.993 -348.397 380.365 -340.518 380.372C-332.639 380.378 -324.099 380.931 -314.652 382.365ZM-158.985 456.843C-158.61 454.372 -158.548 452.002 -158.944 449.712C-159.172 447.299 -160.149 444.92 -161.664 442.162C-163.345 439.528 -165.507 437.119 -168.294 434.911C-171.104 432.849 -175.098 430.756 -180.176 428.945C-184.381 427.266 -189.257 426.08 -194.757 425.096C-196.043 424.752 -316.962 406.398 -317.834 406.266C-345.1 402.722 -360.063 409.223 -362.6 425.937L-362.843 427.536C-363.328 430.733 -363.188 433.728 -362.466 436.811C-361.723 439.749 -360.129 442.965 -357.642 446.167C-355.154 449.37 -351.002 452.379 -345.14 454.904C-339.86 457.341 -333.307 459.228 -325.481 460.564C-324.9 460.653 -204.562 478.918 -203.523 478.927C-196.234 479.885 -189.874 480.107 -184.421 479.447C-178.22 478.753 -173.362 477.112 -169.891 474.814C-166.565 472.493 -163.966 470.063 -162.384 467.478C-160.78 464.748 -159.735 461.784 -159.272 458.732L-158.985 456.843ZM-103.185 414.76L-68.5949 420.01L-80.1983 496.456L-3.02526 508.17L-6.86366 533.459L-118.627 516.495L-103.185 414.76ZM3.73836 534.919L19.2022 433.039L114.252 447.466C129.076 449.716 139.231 453.339 144.673 458.626C150.261 463.934 152.453 470.066 151.416 476.896L151.129 478.786C150.666 481.838 149.498 484.634 147.96 486.928C146.277 489.201 144.37 490.993 141.969 492.115C139.692 493.405 137.626 494.281 135.772 494.743C134.041 495.372 132.186 495.834 130.376 496.005C132.781 496.816 134.974 498.041 137.145 499.412C139.315 500.782 141.566 502.61 144.062 504.774C146.537 507.082 148.465 510.051 149.556 513.636C150.815 517.099 151.114 521.01 150.474 525.224L150.187 527.114C147.209 546.734 130.325 554.133 99.6597 549.479L3.73836 534.919ZM50.6725 459.821L48.1577 476.389L102.513 484.639C110.652 485.875 114.995 483.709 115.833 478.186L115.878 477.896C116.694 472.518 113.167 469.307 105.028 468.071L50.6725 459.821ZM102.278 506.758L44.8708 498.044L41.8487 517.955L99.2561 526.669C104.343 527.441 108.131 526.975 110.474 525.249C112.65 523.646 114.021 521.476 114.44 518.714L114.506 518.278C115.477 511.883 111.434 508.147 102.278 506.758ZM208.993 462.292L193.595 563.737L159.005 558.486L174.403 457.042L208.993 462.292ZM226.561 464.513L300.1 475.675C310.419 477.241 319.778 479.257 327.863 481.822C336.094 484.41 342.806 487.212 347.953 490.521C353.246 493.852 357.645 497.196 361.106 500.844C364.589 504.346 367.134 508.152 368.74 512.262C370.201 516.35 371.248 520.226 371.569 523.991C372.035 527.779 371.897 531.624 371.28 535.693L370.64 539.908C369.912 544.704 368.647 549.121 366.699 553.138C364.875 557.321 361.887 561.328 357.715 565.304C353.376 569.403 348.275 572.644 342.267 575.003C336.114 577.34 328.159 578.809 318.258 579.387C308.481 580.134 297.281 579.474 284.782 577.577L211.097 566.393L226.561 464.513ZM257.656 493.766L249.56 547.104L285.748 552.596C315.542 557.119 331.69 550.649 334.359 533.063L334.47 532.336C337.139 514.751 323.638 503.781 293.844 499.258L257.656 493.766ZM426.002 495.231L410.605 596.675L376.015 591.425L391.413 489.981L426.002 495.231ZM443.57 497.452L560.565 515.21L557.058 538.318L474.362 525.766L472.068 540.881L552.874 553.146L549.344 576.4L468.538 564.135L466.001 580.848L550.296 593.643L546.7 617.333L428.106 599.332L443.57 497.452ZM622.841 630.823C611.796 629.146 602.191 626.796 594.317 623.817C586.297 620.815 580.211 617.81 576.081 614.655C572.096 611.523 568.926 607.919 566.839 604.034C564.753 600.149 563.494 596.687 563.186 593.815C562.879 590.944 563.051 587.847 563.537 584.65L563.757 583.197L599.946 588.69C599.04 599.555 606.072 606.123 627.291 609.344L635.284 610.557C642.261 611.616 645.233 611.621 649.972 611.746C654.566 611.849 658.019 611.629 660.23 610.775C662.587 609.944 664.049 609.125 664.952 608.072C665.855 607.02 666.345 605.756 666.587 604.157C666.918 601.977 666.602 600.145 665.637 598.661C664.651 597.321 661.921 595.718 657.715 594.038C653.488 592.505 647.326 590.975 639.064 589.572L628.208 587.627L620.092 586.246C584.181 579.903 567.681 567.14 570.549 548.246L570.748 546.938C571.233 543.741 572.132 540.755 573.423 538.126C574.715 535.497 576.878 533 580.08 530.513C583.115 528.148 586.956 526.352 591.603 525.125C596.25 523.897 602.306 523.181 609.895 523.143C617.36 522.938 626.023 523.659 635.761 525.137L646.079 526.703C656.108 528.225 665.03 530.174 672.534 532.651C680.184 535.15 686.045 537.676 690.387 540.416C694.729 543.157 698.133 546.201 700.598 549.549C703.064 552.897 704.657 556.112 705.256 559.028C705.977 562.111 706.095 565.252 705.588 568.594L705.389 569.902L669.346 564.432C669.21 563.37 669.074 562.309 668.893 561.538C668.713 560.767 667.995 559.617 666.886 558.111C665.776 556.604 664.332 555.344 662.284 554.141C660.36 553.106 657.273 551.894 653.314 550.549C649.333 549.35 646.179 548.574 640.657 547.736L635.57 546.964C627.14 545.685 621.842 545.326 617.204 545.515C612.69 545.87 609.774 546.468 608.748 547.353C607.576 548.216 606.919 549.603 606.633 551.493C606.368 553.237 606.605 554.611 607.592 555.95C608.454 557.122 610.771 558.514 614.54 560.127C618.332 561.595 623.789 562.869 630.888 564.095L639.005 565.476L649.447 567.21C670.186 570.655 684.613 575.521 693.041 581.707C701.614 587.915 704.995 596.011 703.429 606.33L703.142 608.219C702.568 611.998 701.625 615.274 700.312 618.049C698.998 620.823 696.646 623.588 693.399 626.366C690.174 628.999 686.144 631.064 681.184 632.393C676.203 633.867 669.711 634.517 661.519 634.612C653.305 634.852 643.77 633.999 633.015 632.367L622.841 630.823Z" fill="#C5A314"/>
<path d="M850.638 665.399C839.592 663.722 829.987 661.372 822.113 658.393C814.093 655.391 808.008 652.386 803.877 649.231C799.892 646.099 796.722 642.495 794.635 638.61C792.549 634.725 791.29 631.263 790.983 628.391C790.675 625.52 790.848 622.424 791.333 619.226L791.553 617.773L827.742 623.266C826.836 634.131 833.868 640.699 855.087 643.92L863.081 645.133C870.057 646.192 873.03 646.197 877.769 646.322C882.362 646.425 885.815 646.205 888.026 645.351C890.383 644.52 891.845 643.701 892.748 642.648C893.652 641.596 894.141 640.332 894.383 638.733C894.714 636.553 894.398 634.721 893.434 633.237C892.447 631.898 889.717 630.294 885.512 628.614C881.284 627.081 875.123 625.551 866.861 624.148L856.005 622.203L847.888 620.822C811.977 614.479 795.478 601.716 798.345 582.822L798.544 581.514C799.029 578.317 799.928 575.331 801.22 572.702C802.511 570.073 804.674 567.576 807.876 565.089C810.912 562.724 814.753 560.928 819.399 559.701C824.046 558.473 830.102 557.757 837.691 557.719C845.156 557.514 853.819 558.235 863.557 559.713L873.876 561.279C883.904 562.801 892.826 564.75 900.33 567.227C907.98 569.726 913.841 572.252 918.183 574.992C922.525 577.733 925.929 580.777 928.394 584.125C930.86 587.473 932.454 590.688 933.052 593.604C933.773 596.687 933.891 599.828 933.384 603.17L933.185 604.478L897.142 599.008C897.006 597.946 896.87 596.885 896.689 596.114C896.509 595.343 895.791 594.193 894.682 592.687C893.572 591.18 892.128 589.92 890.08 588.717C888.156 587.682 885.069 586.47 881.11 585.125C877.129 583.926 873.975 583.15 868.453 582.312L863.366 581.54C854.937 580.261 849.638 579.903 845.001 580.091C840.486 580.446 837.57 581.044 836.544 581.929C835.372 582.792 834.715 584.18 834.429 586.069C834.164 587.813 834.401 589.187 835.388 590.526C836.251 591.698 838.567 593.09 842.337 594.703C846.128 596.171 851.585 597.445 858.684 598.672L866.801 600.052L877.243 601.786C897.982 605.231 912.409 610.097 920.837 616.283C929.411 622.491 932.791 630.587 931.225 640.906L930.938 642.795C930.364 646.574 929.421 649.85 928.108 652.625C926.795 655.399 924.442 658.164 921.195 660.943C917.971 663.575 913.94 665.64 908.981 666.969C903.999 668.443 897.507 669.093 889.315 669.188C881.101 669.428 871.566 668.575 860.811 666.943L850.638 665.399ZM1026.29 585.9L1149.25 604.563C1158.69 605.997 1167.01 608.003 1174.39 610.313C1181.78 612.623 1187.93 615.192 1192.87 617.875C1197.67 620.537 1201.8 623.691 1205.16 627.026C1208.65 630.529 1211.28 633.753 1212.89 636.823C1214.63 640.061 1215.91 643.378 1216.86 646.941C1217.66 650.482 1218.07 653.667 1218.11 656.349C1218 659.009 1217.73 661.793 1217.29 664.699L1216.67 668.769C1216.25 671.53 1215.68 674.269 1215 676.841C1214.16 679.391 1212.83 682.311 1210.99 685.6C1209.03 688.722 1206.8 691.655 1204.35 694.108C1201.73 696.683 1198.38 699.149 1194.04 701.315C1189.67 703.626 1184.79 705.413 1179.39 706.675C1174.02 707.793 1167.38 708.421 1159.63 708.582C1151.75 708.575 1143.23 707.877 1133.78 706.443L1010.83 687.78C1001.38 686.347 993.042 684.486 985.515 682.154C978.011 679.677 971.859 677.107 967.059 674.446C962.281 671.639 958.151 668.485 954.668 664.982C951.163 661.625 948.552 658.255 946.959 655.04C945.198 651.948 943.939 648.485 943.138 644.944C942.36 641.258 941.951 638.073 941.912 635.391C942.018 632.731 942.292 629.947 942.711 627.186L943.329 623.117C943.77 620.21 944.335 617.471 945 615.044C945.833 612.494 947.169 609.575 948.984 606.43C950.822 603.141 953.029 600.354 955.65 597.778C958.104 595.325 961.575 593.027 965.94 590.716C970.138 588.528 975.019 586.741 980.392 585.624C985.911 584.529 992.548 583.901 1000.43 583.907C1008.31 583.914 1016.85 584.467 1026.29 585.9ZM1181.96 660.378C1182.34 657.907 1182.4 655.538 1182 653.248C1181.77 650.834 1180.8 648.455 1179.28 645.698C1177.6 643.064 1175.44 640.654 1172.65 638.447C1169.84 636.385 1165.85 634.292 1160.77 632.48C1156.56 630.801 1151.69 629.615 1146.19 628.632C1144.9 628.288 1023.98 609.934 1023.11 609.802C995.846 606.258 980.883 612.759 978.346 629.472L978.103 631.071C977.618 634.269 977.758 637.264 978.479 640.347C979.223 643.285 980.816 646.5 983.304 649.703C985.792 652.905 989.944 655.914 995.805 658.44C1001.09 660.877 1007.64 662.763 1015.46 664.1C1016.05 664.188 1136.38 682.454 1137.42 682.463C1144.71 683.42 1151.07 683.642 1156.52 682.983C1162.73 682.289 1167.58 680.647 1171.06 678.349C1174.38 676.029 1176.98 673.599 1178.56 671.014C1180.17 668.283 1181.21 665.32 1181.67 662.268L1181.96 660.378ZM1237.76 618.295L1272.35 623.546L1260.75 699.992L1337.92 711.706L1334.08 736.994L1222.32 720.03L1237.76 618.295ZM1344.68 738.455L1360.15 636.575L1455.2 651.002C1470.02 653.252 1480.18 656.875 1485.62 662.161C1491.21 667.47 1493.4 673.601 1492.36 680.432L1492.07 682.321C1491.61 685.373 1490.44 688.17 1488.91 690.464C1487.22 692.736 1485.32 694.528 1482.91 695.651C1480.64 696.941 1478.57 697.816 1476.72 698.278C1474.99 698.908 1473.13 699.37 1471.32 699.541C1473.73 700.352 1475.92 701.577 1478.09 702.947C1480.26 704.318 1482.51 706.146 1485.01 708.309C1487.48 710.618 1489.41 713.587 1490.5 717.172C1491.76 720.634 1492.06 724.545 1491.42 728.76L1491.13 730.649C1488.15 750.27 1471.27 757.669 1440.61 753.014L1344.68 738.455ZM1391.62 663.356L1389.1 679.925L1443.46 688.175C1451.6 689.41 1455.94 687.245 1456.78 681.722L1456.82 681.431C1457.64 676.054 1454.11 672.842 1445.97 671.607L1391.62 663.356ZM1443.22 710.293L1385.82 701.58L1382.79 721.491L1440.2 730.204C1445.29 730.976 1449.08 730.51 1451.42 728.785C1453.6 727.182 1454.97 725.011 1455.39 722.25L1455.45 721.814C1456.42 715.419 1452.38 711.683 1443.22 710.293ZM1549.94 665.828L1534.54 767.272L1499.95 762.022L1515.35 660.578L1549.94 665.828ZM1567.51 668.048L1641.05 679.211C1651.36 680.777 1660.72 682.792 1668.81 685.358C1677.04 687.945 1683.75 690.748 1688.9 694.057C1694.19 697.388 1698.59 700.732 1702.05 704.38C1705.53 707.882 1708.08 711.688 1709.69 715.798C1711.15 719.885 1712.19 723.761 1712.51 727.527C1712.98 731.315 1712.84 735.16 1712.23 739.229L1711.59 743.444C1710.86 748.24 1709.59 752.657 1707.64 756.673C1705.82 760.857 1702.83 764.864 1698.66 768.84C1694.32 772.939 1689.22 776.179 1683.21 778.538C1677.06 780.875 1669.1 782.344 1659.2 782.923C1649.43 783.669 1638.23 783.01 1625.73 781.113L1552.04 769.929L1567.51 668.048ZM1598.6 697.301L1590.51 750.639L1626.69 756.132C1656.49 760.654 1672.64 754.184 1675.31 736.599L1675.42 735.872C1678.08 718.286 1664.58 707.316 1634.79 702.794L1598.6 697.301ZM1766.95 698.767L1751.55 800.211L1716.96 794.961L1732.36 693.517L1766.95 698.767ZM1784.52 700.987L1901.51 718.745L1898 741.854L1815.31 729.302L1813.01 744.417L1893.82 756.682L1890.29 779.935L1809.48 767.67L1806.95 784.384L1891.24 797.178L1887.65 820.868L1769.05 802.867L1784.52 700.987ZM1963.79 834.358C1952.74 832.682 1943.14 830.332 1935.26 827.352C1927.24 824.351 1921.16 821.345 1917.03 818.191C1913.04 815.058 1909.87 811.455 1907.79 807.57C1905.7 803.685 1904.44 800.223 1904.13 797.351C1903.82 794.479 1904 791.383 1904.48 788.186L1904.7 786.732L1940.89 792.225C1939.99 803.09 1947.02 809.659 1968.24 812.88L1976.23 814.093C1983.21 815.152 1986.18 815.157 1990.92 815.282C1995.51 815.384 1998.96 815.165 2001.18 814.311C2003.53 813.479 2004.99 812.66 2005.9 811.608C2006.8 810.556 2007.29 809.292 2007.53 807.693C2007.86 805.513 2007.55 803.681 2006.58 802.196C2005.6 800.857 2002.87 799.253 1998.66 797.574C1994.43 796.04 1988.27 794.51 1980.01 793.108L1969.15 791.162L1961.04 789.782C1925.13 783.439 1908.63 770.675 1911.49 751.782L1911.69 750.474C1912.18 747.276 1913.08 744.29 1914.37 741.661C1915.66 739.032 1917.82 736.536 1921.03 734.048C1924.06 731.684 1927.9 729.888 1932.55 728.66C1937.2 727.433 1943.25 726.717 1950.84 726.679C1958.31 726.474 1966.97 727.194 1976.71 728.672L1987.03 730.238C1997.05 731.76 2005.98 733.709 2013.48 736.187C2021.13 738.686 2026.99 741.211 2031.33 743.952C2035.67 746.692 2039.08 749.737 2041.54 753.084C2044.01 756.432 2045.6 759.648 2046.2 762.564C2046.92 765.647 2047.04 768.787 2046.53 772.13L2046.34 773.438L2010.29 767.967C2010.16 766.906 2010.02 765.844 2009.84 765.073C2009.66 764.303 2008.94 763.153 2007.83 761.646C2006.72 760.14 2005.28 758.88 2003.23 757.677C2001.31 756.641 1998.22 755.429 1994.26 754.085C1990.28 752.886 1987.13 752.11 1981.6 751.272L1976.52 750.5C1968.09 749.22 1962.79 748.862 1958.15 749.05C1953.64 749.406 1950.72 750.004 1949.69 750.889C1948.52 751.752 1947.87 753.139 1947.58 755.028C1947.31 756.772 1947.55 758.147 1948.54 759.486C1949.4 760.658 1951.72 762.05 1955.49 763.663C1959.28 765.13 1964.73 766.405 1971.83 767.631L1979.95 769.012L1990.39 770.745C2011.13 774.191 2025.56 779.057 2033.99 785.243C2042.56 791.45 2045.94 799.546 2044.37 809.865L2044.09 811.755C2043.51 815.533 2042.57 818.81 2041.26 821.584C2039.94 824.358 2037.59 827.124 2034.34 829.902C2031.12 832.535 2027.09 834.599 2022.13 835.928C2017.15 837.402 2010.66 838.052 2002.46 838.147C1994.25 838.387 1984.72 837.535 1973.96 835.902L1963.79 834.358Z" fill="#B8FF00"/>
</svg>
