<svg width="320" height="91" viewBox="0 0 320 91" fill="none" xmlns="http://www.w3.org/2000/svg">
<path d="M24.637 37.52H21.673C18.501 37.52 15.641 37.208 13.145 36.532C10.649 35.908 8.62102 35.076 7.11302 33.984C5.55302 32.944 4.30502 31.696 3.31702 30.292C2.32902 28.888 1.60102 27.536 1.23702 26.132C0.821016 24.728 0.665016 23.272 0.665016 21.816V21.504H13.197C13.249 22.024 13.301 22.492 13.405 22.908C13.509 23.324 13.769 23.896 14.185 24.624C14.601 25.404 15.121 26.028 15.745 26.548C16.317 27.068 17.253 27.536 18.501 27.9C19.697 28.316 21.153 28.524 22.765 28.524H23.389C26.613 28.524 29.005 27.692 30.565 26.132C32.125 24.572 32.905 22.336 32.905 19.528V0.703999H45.385V19.84C45.385 21.452 45.229 23.012 44.865 24.572C44.553 26.08 43.877 27.64 42.941 29.304C41.953 30.916 40.757 32.32 39.249 33.464C37.793 34.66 35.765 35.596 33.269 36.376C30.721 37.156 27.861 37.52 24.637 37.52ZM77.3102 0.0279987H78.9742C82.4582 0.0279987 85.5782 0.235999 88.3862 0.703999C91.1942 1.12 93.5342 1.692 95.4582 2.42C97.3302 3.148 98.9942 4.032 100.398 5.072C101.854 6.112 102.946 7.152 103.726 8.192C104.558 9.232 105.182 10.376 105.702 11.624C106.17 12.872 106.534 13.964 106.638 14.952C106.794 15.94 106.846 16.928 106.846 18.02V19.476C106.846 20.516 106.794 21.556 106.638 22.544C106.534 23.48 106.17 24.624 105.702 25.872C105.182 27.12 104.558 28.264 103.778 29.356C102.998 30.396 101.906 31.436 100.45 32.528C98.9942 33.568 97.3302 34.452 95.4582 35.232C93.5862 35.96 91.2462 36.532 88.3862 37C85.5782 37.468 82.4582 37.676 78.9742 37.676H77.3102C73.8262 37.676 70.7062 37.468 67.8462 37C65.0382 36.532 62.6462 35.96 60.7742 35.232C58.9022 34.452 57.2382 33.568 55.7822 32.528C54.3262 31.436 53.2342 30.396 52.4022 29.356C51.6222 28.264 50.9982 27.12 50.5302 25.872C50.0102 24.624 49.6982 23.48 49.5942 22.544C49.4382 21.556 49.3862 20.516 49.3862 19.476V18.02C49.3862 16.928 49.4382 15.94 49.5942 14.952C49.6982 14.016 50.0102 12.872 50.5302 11.624C50.9982 10.376 51.6222 9.232 52.4022 8.192C53.2342 7.152 54.3262 6.112 55.7822 5.072C57.1862 4.032 58.8502 3.148 60.7222 2.42C62.6462 1.692 65.0382 1.12 67.8462 0.703999C70.7062 0.235999 73.8262 0.0279987 77.3102 0.0279987ZM93.8462 19.06V18.384C93.8462 17.448 93.7422 16.564 93.4822 15.784C93.2222 14.952 92.7542 14.12 92.0262 13.236C91.3502 12.352 90.4142 11.572 89.2702 11C88.1262 10.376 86.5662 9.856 84.6422 9.44C83.0302 9.076 81.2102 8.92 79.1822 8.868C78.7142 8.816 77.7782 8.816 77.4662 8.816C67.4302 9.024 62.3862 12.196 62.3862 18.384V18.956C62.3862 20.1 62.5942 21.244 63.0622 22.284C63.4782 23.324 64.2582 24.364 65.2982 25.404C66.3902 26.444 68.0022 27.276 70.2382 27.9C72.3182 28.472 74.8142 28.784 77.6742 28.836C77.9342 28.836 78.5582 28.836 78.9742 28.836C81.6262 28.732 83.9662 28.472 85.8902 27.9C88.1262 27.328 89.7902 26.496 90.8822 25.456C91.9742 24.468 92.7542 23.428 93.1702 22.388C93.6382 21.348 93.8462 20.204 93.8462 19.06ZM123.903 0.703999V37H111.527V0.703999H123.903ZM130.165 0.651997H143.997L169.321 23.532V0.651997H181.593V37.052H169.321L142.385 12.924V37.052H130.165V0.651997ZM241.21 37.104H239.286C236.374 37.104 233.722 36.896 231.33 36.428C228.938 35.96 226.91 35.336 225.246 34.556C223.582 33.776 222.126 32.84 220.878 31.748C219.63 30.656 218.59 29.564 217.862 28.42C217.134 27.276 216.51 26.08 216.042 24.78C215.574 23.532 215.262 22.336 215.106 21.296C214.95 20.204 214.898 19.164 214.898 18.072V0.651997H227.17V17.396C227.17 18.696 227.378 19.892 227.742 20.984C228.106 22.128 228.73 23.22 229.614 24.312C230.498 25.352 231.85 26.236 233.618 26.86C235.438 27.484 237.622 27.796 240.118 27.796C242.614 27.796 244.746 27.484 246.514 26.86C248.282 26.236 249.634 25.352 250.518 24.312C251.402 23.22 252.078 22.128 252.442 20.984C252.806 19.892 252.962 18.696 252.962 17.396V0.651997H265.234V18.072C265.234 19.58 265.078 21.14 264.714 22.648C264.298 24.208 263.57 25.872 262.53 27.692C261.438 29.46 260.034 31.02 258.37 32.372C256.654 33.724 254.314 34.868 251.35 35.752C248.386 36.636 245.006 37.104 241.21 37.104ZM292.415 37.676C288.463 37.676 284.979 37.364 282.067 36.74C279.103 36.116 276.815 35.388 275.203 34.504C273.643 33.62 272.343 32.528 271.407 31.28C270.471 30.032 269.847 28.888 269.587 27.9C269.327 26.912 269.223 25.82 269.223 24.676V24.156H282.171C282.431 28.004 285.239 29.928 292.831 29.928H295.691C298.187 29.928 299.227 29.772 300.891 29.564C302.503 29.356 303.699 29.096 304.427 28.68C305.207 28.264 305.675 27.9 305.935 27.484C306.195 27.068 306.299 26.6 306.299 26.028C306.299 25.248 306.091 24.624 305.675 24.156C305.259 23.74 304.219 23.324 302.659 22.96C301.099 22.648 298.863 22.44 295.899 22.388L291.999 22.284L289.087 22.232C276.191 21.92 269.743 18.332 269.743 11.572V11.104C269.743 9.96 269.899 8.868 270.211 7.88C270.523 6.892 271.147 5.904 272.135 4.864C273.071 3.876 274.319 3.044 275.879 2.368C277.439 1.692 279.519 1.12 282.171 0.703999C284.771 0.235999 287.839 0.0279987 291.323 0.0279987H295.015C298.603 0.0279987 301.827 0.235999 304.583 0.703999C307.391 1.172 309.575 1.744 311.239 2.472C312.903 3.2 314.255 4.084 315.295 5.124C316.335 6.164 317.063 7.204 317.427 8.192C317.843 9.232 318.051 10.324 318.051 11.52V11.988H305.155C305.051 11.624 304.947 11.26 304.843 11C304.739 10.74 304.427 10.376 303.959 9.908C303.491 9.44 302.919 9.076 302.139 8.764C301.411 8.504 300.267 8.244 298.811 7.984C297.355 7.776 296.211 7.672 294.235 7.672H292.415C289.399 7.672 287.527 7.828 285.915 8.14C284.355 8.504 283.367 8.868 283.055 9.232C282.691 9.596 282.535 10.116 282.535 10.792C282.535 11.416 282.691 11.884 283.107 12.3C283.471 12.664 284.355 13.028 285.759 13.392C287.163 13.704 289.139 13.86 291.687 13.912L294.599 13.964L298.343 14.016C305.779 14.12 311.083 15.056 314.359 16.772C317.687 18.488 319.299 21.14 319.299 24.832V25.508C319.299 26.86 319.143 28.056 318.831 29.096C318.519 30.136 317.843 31.228 316.855 32.372C315.867 33.464 314.567 34.4 312.903 35.128C311.239 35.908 309.003 36.48 306.143 36.948C303.283 37.468 299.903 37.676 296.055 37.676H292.415Z" fill="white"/>
<path d="M69.4899 53.028H71.1539C74.6379 53.028 77.7579 53.236 80.5659 53.704C83.3739 54.12 85.7139 54.692 87.6379 55.42C89.5099 56.148 91.1739 57.032 92.5779 58.072C94.0339 59.112 95.1259 60.152 95.9059 61.192C96.7379 62.232 97.3619 63.376 97.8819 64.624C98.3499 65.872 98.7139 66.964 98.8179 67.952C98.9739 68.94 99.0259 69.928 99.0259 71.02V72.476C99.0259 73.516 98.9739 74.556 98.8179 75.544C98.7139 76.48 98.3499 77.624 97.8819 78.872C97.3619 80.12 96.7379 81.264 95.9579 82.356C95.1779 83.396 94.0859 84.436 92.6299 85.528C91.1739 86.568 89.5099 87.452 87.6379 88.232C85.7659 88.96 83.4259 89.532 80.5659 90C77.7579 90.468 74.6379 90.676 71.1539 90.676H69.4899C66.0059 90.676 62.8859 90.468 60.0259 90C57.2179 89.532 54.8259 88.96 52.9539 88.232C51.0819 87.452 49.4179 86.568 47.9619 85.528C46.5059 84.436 45.4139 83.396 44.5819 82.356C43.8019 81.264 43.1779 80.12 42.7099 78.872C42.1899 77.624 41.8779 76.48 41.7739 75.544C41.6179 74.556 41.5659 73.516 41.5659 72.476V71.02C41.5659 69.928 41.6179 68.94 41.7739 67.952C41.8779 67.016 42.1899 65.872 42.7099 64.624C43.1779 63.376 43.8019 62.232 44.5819 61.192C45.4139 60.152 46.5059 59.112 47.9619 58.072C49.3659 57.032 51.0299 56.148 52.9019 55.42C54.8259 54.692 57.2179 54.12 60.0259 53.704C62.8859 53.236 66.0059 53.028 69.4899 53.028ZM86.0259 72.06V71.384C86.0259 70.448 85.9219 69.564 85.6619 68.784C85.4019 67.952 84.9339 67.12 84.2059 66.236C83.5299 65.352 82.5939 64.572 81.4499 64C80.3059 63.376 78.7459 62.856 76.8219 62.44C75.2099 62.076 73.3899 61.92 71.3619 61.868C70.8939 61.816 69.9579 61.816 69.6459 61.816C59.6099 62.024 54.5659 65.196 54.5659 71.384V71.956C54.5659 73.1 54.7739 74.244 55.2419 75.284C55.6579 76.324 56.4379 77.364 57.4779 78.404C58.5699 79.444 60.1819 80.276 62.4179 80.9C64.4979 81.472 66.9939 81.784 69.8539 81.836C70.1139 81.836 70.7379 81.836 71.1539 81.836C73.8059 81.732 76.1459 81.472 78.0699 80.9C80.3059 80.328 81.9699 79.496 83.0619 78.456C84.1539 77.468 84.9339 76.428 85.3499 75.388C85.8179 74.348 86.0259 73.204 86.0259 72.06ZM116.135 77.156V90.052H103.759V53.652H135.739C147.231 53.652 152.951 56.824 152.951 63.116V63.688C152.951 67.536 150.507 70.188 145.567 71.644C147.803 72.216 149.623 73.204 151.027 74.608C152.431 76.012 153.107 77.78 153.107 80.016V85.372C153.107 87.556 153.107 90.052 153.107 90.052H140.627C140.627 90.052 140.627 88.804 140.627 87.764V83.552C140.627 81.264 140.003 79.652 138.755 78.664C137.507 77.624 135.375 77.156 132.359 77.156H116.135ZM116.135 61.92V69.044H134.959C136.675 69.044 137.923 68.732 138.755 68.108C139.587 67.432 140.003 66.548 140.003 65.508V65.456C140.003 64.416 139.587 63.532 138.755 62.908C137.923 62.232 136.675 61.92 134.959 61.92H116.135ZM186.532 53.548H212.844C216.536 53.548 219.916 53.756 222.88 54.224C225.896 54.692 228.392 55.316 230.368 56.2C232.396 57.084 234.112 58.02 235.516 59.112C236.92 60.152 238.012 61.348 238.792 62.7C239.52 64.052 240.092 65.352 240.404 66.652C240.768 67.952 240.924 69.304 240.924 70.76V72.268C240.924 73.984 240.716 75.596 240.248 77.104C239.832 78.664 239 80.224 237.752 81.836C236.452 83.5 234.84 84.904 232.864 86.048C230.836 87.192 228.132 88.128 224.7 88.856C221.32 89.636 217.368 90 212.896 90H186.532V53.548ZM198.96 62.128V81.212H211.908C222.568 81.212 227.872 78.092 227.872 71.8V71.54C227.872 65.248 222.568 62.128 211.908 62.128H198.96ZM257.915 53.704V90H245.539V53.704H257.915ZM264.177 53.548H306.037V61.816H276.449V67.224H305.361V75.544H276.449V81.524H306.609V90H264.177V53.548Z" fill="#829B92"/>
</svg>
