<svg width="965" height="56" viewBox="0 0 965 56" fill="none" xmlns="http://www.w3.org/2000/svg">
<path d="M35.1729 54.8977H30.8409C26.2049 54.8977 22.0249 54.4417 18.3769 53.4537C14.7289 52.5417 11.7649 51.3257 9.56085 49.7297C7.28085 48.2097 5.45685 46.3857 4.01285 44.3337C2.56885 42.2817 1.50485 40.3057 0.972854 38.2537C0.364854 36.2017 0.136854 34.0737 0.136854 31.9457V31.4897H18.4529C18.5289 32.2497 18.6049 32.9337 18.7569 33.5417C18.9089 34.1497 19.2889 34.9857 19.8969 36.0497C20.5049 37.1897 21.2649 38.1017 22.1769 38.8617C23.0129 39.6217 24.3809 40.3057 26.2049 40.8377C27.9529 41.4457 30.0809 41.7497 32.4369 41.7497H33.3489C38.0609 41.7497 41.5569 40.5337 43.8369 38.2537C46.1169 35.9737 47.2569 32.7057 47.2569 28.6017V1.08969H65.4969V29.0577C65.4969 31.4137 65.2689 33.6937 64.7369 35.9737C64.2809 38.1777 63.2929 40.4577 61.9249 42.8897C60.4809 45.2457 58.7329 47.2977 56.5289 48.9697C54.4009 50.7177 51.4369 52.0857 47.7889 53.2257C44.0649 54.3657 39.8849 54.8977 35.1729 54.8977ZM112.157 0.101693H114.589C119.681 0.101693 124.241 0.405694 128.345 1.08969C132.449 1.69769 135.869 2.53369 138.681 3.59769C141.417 4.66169 143.849 5.9537 145.901 7.47369C148.029 8.99369 149.625 10.5137 150.765 12.0337C151.981 13.5537 152.893 15.2257 153.653 17.0497C154.337 18.8737 154.869 20.4697 155.021 21.9137C155.249 23.3577 155.325 24.8017 155.325 26.3977V28.5257C155.325 30.0457 155.249 31.5657 155.021 33.0097C154.869 34.3777 154.337 36.0497 153.653 37.8737C152.893 39.6977 151.981 41.3697 150.841 42.9657C149.701 44.4857 148.105 46.0057 145.977 47.6017C143.849 49.1217 141.417 50.4137 138.681 51.5537C135.945 52.6177 132.525 53.4537 128.345 54.1377C124.241 54.8217 119.681 55.1257 114.589 55.1257H112.157C107.065 55.1257 102.505 54.8217 98.3247 54.1377C94.2207 53.4537 90.7247 52.6177 87.9887 51.5537C85.2527 50.4137 82.8207 49.1217 80.6927 47.6017C78.5647 46.0057 76.9687 44.4857 75.7527 42.9657C74.6127 41.3697 73.7007 39.6977 73.0167 37.8737C72.2567 36.0497 71.8007 34.3777 71.6487 33.0097C71.4207 31.5657 71.3447 30.0457 71.3447 28.5257V26.3977C71.3447 24.8017 71.4207 23.3577 71.6487 21.9137C71.8007 20.5457 72.2567 18.8737 73.0167 17.0497C73.7007 15.2257 74.6127 13.5537 75.7527 12.0337C76.9687 10.5137 78.5647 8.99369 80.6927 7.47369C82.7447 5.9537 85.1767 4.66169 87.9127 3.59769C90.7247 2.53369 94.2207 1.69769 98.3247 1.08969C102.505 0.405694 107.065 0.101693 112.157 0.101693ZM136.325 27.9177V26.9297C136.325 25.5617 136.173 24.2697 135.793 23.1297C135.413 21.9137 134.729 20.6977 133.665 19.4057C132.677 18.1137 131.309 16.9737 129.637 16.1377C127.965 15.2257 125.685 14.4657 122.873 13.8577C120.517 13.3257 117.857 13.0977 114.893 13.0217C114.209 12.9457 112.841 12.9457 112.385 12.9457C97.7167 13.2497 90.3447 17.8857 90.3447 26.9297V27.7657C90.3447 29.4377 90.6487 31.1097 91.3327 32.6297C91.9407 34.1497 93.0807 35.6697 94.6007 37.1897C96.1967 38.7097 98.5527 39.9257 101.821 40.8377C104.861 41.6737 108.509 42.1297 112.689 42.2057C113.069 42.2057 113.981 42.2057 114.589 42.2057C118.465 42.0537 121.885 41.6737 124.697 40.8377C127.965 40.0017 130.397 38.7857 131.993 37.2657C133.589 35.8217 134.729 34.3017 135.337 32.7817C136.021 31.2617 136.325 29.5897 136.325 27.9177ZM180.254 1.08969V54.1377H162.166V1.08969H180.254ZM189.406 1.01369H209.622L246.634 34.4537V1.01369H264.57V54.2137H246.634L207.266 18.9497V54.2137H189.406V1.01369ZM351.703 54.2897H348.891C344.635 54.2897 340.759 53.9857 337.263 53.3017C333.767 52.6177 330.803 51.7057 328.371 50.5657C325.939 49.4257 323.811 48.0577 321.987 46.4617C320.163 44.8657 318.643 43.2697 317.579 41.5977C316.515 39.9257 315.603 38.1777 314.919 36.2777C314.235 34.4537 313.779 32.7057 313.551 31.1857C313.323 29.5897 313.247 28.0697 313.247 26.4737V1.01369H331.183V25.4857C331.183 27.3857 331.487 29.1337 332.019 30.7297C332.551 32.4017 333.463 33.9977 334.755 35.5937C336.047 37.1137 338.023 38.4057 340.607 39.3177C343.267 40.2297 346.459 40.6857 350.107 40.6857C353.755 40.6857 356.871 40.2297 359.455 39.3177C362.039 38.4057 364.015 37.1137 365.307 35.5937C366.599 33.9977 367.587 32.4017 368.119 30.7297C368.651 29.1337 368.879 27.3857 368.879 25.4857V1.01369H386.815V26.4737C386.815 28.6777 386.587 30.9577 386.055 33.1617C385.447 35.4417 384.383 37.8737 382.863 40.5337C381.267 43.1177 379.215 45.3977 376.783 47.3737C374.275 49.3497 370.855 51.0217 366.523 52.3137C362.191 53.6057 357.251 54.2897 351.703 54.2897ZM426.541 55.1257C420.765 55.1257 415.673 54.6697 411.417 53.7577C407.085 52.8457 403.741 51.7817 401.385 50.4897C399.105 49.1977 397.205 47.6017 395.837 45.7777C394.469 43.9537 393.557 42.2817 393.177 40.8377C392.797 39.3937 392.645 37.7977 392.645 36.1257V35.3657H411.569C411.949 40.9897 416.053 43.8017 427.149 43.8017H431.329C434.977 43.8017 436.497 43.5737 438.929 43.2697C441.285 42.9657 443.033 42.5857 444.097 41.9777C445.237 41.3697 445.921 40.8377 446.301 40.2297C446.681 39.6217 446.833 38.9377 446.833 38.1017C446.833 36.9617 446.529 36.0497 445.921 35.3657C445.313 34.7577 443.793 34.1497 441.513 33.6177C439.233 33.1617 435.965 32.8577 431.633 32.7817L425.933 32.6297L421.677 32.5537C402.829 32.0977 393.405 26.8537 393.405 16.9737V16.2897C393.405 14.6177 393.633 13.0217 394.089 11.5777C394.545 10.1337 395.457 8.68969 396.901 7.16969C398.269 5.72569 400.093 4.50969 402.373 3.52169C404.653 2.53369 407.693 1.69769 411.569 1.08969C415.369 0.405694 419.853 0.101693 424.945 0.101693H430.341C435.585 0.101693 440.297 0.405694 444.325 1.08969C448.429 1.77369 451.621 2.60969 454.053 3.67369C456.485 4.73769 458.461 6.02969 459.981 7.54969C461.501 9.06969 462.565 10.5897 463.097 12.0337C463.705 13.5537 464.009 15.1497 464.009 16.8977V17.5817H445.161C445.009 17.0497 444.857 16.5177 444.705 16.1377C444.553 15.7577 444.097 15.2257 443.413 14.5417C442.729 13.8577 441.893 13.3257 440.753 12.8697C439.689 12.4897 438.017 12.1097 435.889 11.7297C433.761 11.4257 432.089 11.2737 429.201 11.2737H426.541C422.133 11.2737 419.397 11.5017 417.041 11.9577C414.761 12.4897 413.317 13.0217 412.861 13.5537C412.329 14.0857 412.101 14.8457 412.101 15.8337C412.101 16.7457 412.329 17.4297 412.937 18.0377C413.469 18.5697 414.761 19.1017 416.813 19.6337C418.865 20.0897 421.753 20.3177 425.477 20.3937L429.733 20.4697L435.205 20.5457C446.073 20.6977 453.825 22.0657 458.613 24.5737C463.477 27.0817 465.833 30.9577 465.833 36.3537V37.3417C465.833 39.3177 465.605 41.0657 465.149 42.5857C464.693 44.1057 463.705 45.7017 462.261 47.3737C460.817 48.9697 458.917 50.3377 456.485 51.4017C454.053 52.5417 450.785 53.3777 446.605 54.0617C442.425 54.8217 437.485 55.1257 431.861 55.1257H426.541ZM511.158 27.5377H532.134V37.8737H511.158V27.5377Z" fill="white"/>
<path d="M618.032 0.101693H620.464C625.556 0.101693 630.116 0.405694 634.22 1.08969C638.324 1.69769 641.744 2.53369 644.556 3.59769C647.292 4.66169 649.724 5.9537 651.776 7.47369C653.904 8.99369 655.5 10.5137 656.64 12.0337C657.856 13.5537 658.768 15.2257 659.528 17.0497C660.212 18.8737 660.744 20.4697 660.896 21.9137C661.124 23.3577 661.2 24.8017 661.2 26.3977V28.5257C661.2 30.0457 661.124 31.5657 660.896 33.0097C660.744 34.3777 660.212 36.0497 659.528 37.8737C658.768 39.6977 657.856 41.3697 656.716 42.9657C655.576 44.4857 653.98 46.0057 651.852 47.6017C649.724 49.1217 647.292 50.4137 644.556 51.5537C641.82 52.6177 638.4 53.4537 634.22 54.1377C630.116 54.8217 625.556 55.1257 620.464 55.1257H618.032C612.94 55.1257 608.38 54.8217 604.2 54.1377C600.096 53.4537 596.6 52.6177 593.864 51.5537C591.128 50.4137 588.696 49.1217 586.568 47.6017C584.44 46.0057 582.844 44.4857 581.628 42.9657C580.488 41.3697 579.576 39.6977 578.892 37.8737C578.132 36.0497 577.676 34.3777 577.524 33.0097C577.296 31.5657 577.22 30.0457 577.22 28.5257V26.3977C577.22 24.8017 577.296 23.3577 577.524 21.9137C577.676 20.5457 578.132 18.8737 578.892 17.0497C579.576 15.2257 580.488 13.5537 581.628 12.0337C582.844 10.5137 584.44 8.99369 586.568 7.47369C588.62 5.9537 591.052 4.66169 593.788 3.59769C596.6 2.53369 600.096 1.69769 604.2 1.08969C608.38 0.405694 612.94 0.101693 618.032 0.101693ZM642.2 27.9177V26.9297C642.2 25.5617 642.048 24.2697 641.668 23.1297C641.288 21.9137 640.604 20.6977 639.54 19.4057C638.552 18.1137 637.184 16.9737 635.512 16.1377C633.84 15.2257 631.56 14.4657 628.748 13.8577C626.392 13.3257 623.732 13.0977 620.768 13.0217C620.084 12.9457 618.716 12.9457 618.26 12.9457C603.592 13.2497 596.22 17.8857 596.22 26.9297V27.7657C596.22 29.4377 596.524 31.1097 597.208 32.6297C597.816 34.1497 598.956 35.6697 600.476 37.1897C602.072 38.7097 604.428 39.9257 607.696 40.8377C610.736 41.6737 614.384 42.1297 618.564 42.2057C618.944 42.2057 619.856 42.2057 620.464 42.2057C624.34 42.0537 627.76 41.6737 630.572 40.8377C633.84 40.0017 636.272 38.7857 637.868 37.2657C639.464 35.8217 640.604 34.3017 641.212 32.7817C641.896 31.2617 642.2 29.5897 642.2 27.9177ZM686.205 35.3657V54.2137H668.117V1.01369H714.857C731.653 1.01369 740.013 5.64969 740.013 14.8457V15.6817C740.013 21.3057 736.441 25.1817 729.221 27.3097C732.489 28.1457 735.149 29.5897 737.201 31.6417C739.253 33.6937 740.241 36.2777 740.241 39.5457V47.3737C740.241 50.5657 740.241 54.2137 740.241 54.2137H722.001C722.001 54.2137 722.001 52.3897 722.001 50.8697V44.7137C722.001 41.3697 721.089 39.0137 719.265 37.5697C717.441 36.0497 714.325 35.3657 709.917 35.3657H686.205ZM686.205 13.0977V23.5097H713.717C716.225 23.5097 718.049 23.0537 719.265 22.1417C720.481 21.1537 721.089 19.8617 721.089 18.3417V18.2657C721.089 16.7457 720.481 15.4537 719.265 14.5417C718.049 13.5537 716.225 13.0977 713.717 13.0977H686.205ZM789.093 0.861693H827.549C832.945 0.861693 837.885 1.16569 842.217 1.84969C846.625 2.53369 850.273 3.44569 853.161 4.73769C856.125 6.02969 858.633 7.39769 860.685 8.99369C862.737 10.5137 864.333 12.2617 865.473 14.2377C866.537 16.2137 867.373 18.1137 867.829 20.0137C868.361 21.9137 868.589 23.8897 868.589 26.0177V28.2217C868.589 30.7297 868.285 33.0857 867.601 35.2897C866.993 37.5697 865.777 39.8497 863.953 42.2057C862.053 44.6377 859.697 46.6897 856.809 48.3617C853.845 50.0337 849.893 51.4017 844.877 52.4657C839.937 53.6057 834.161 54.1377 827.625 54.1377H789.093V0.861693ZM807.257 13.4017V41.2937H826.181C841.761 41.2937 849.513 36.7337 849.513 27.5377V27.1577C849.513 17.9617 841.761 13.4017 826.181 13.4017H807.257ZM893.422 1.08969V54.1377H875.334V1.08969H893.422ZM902.574 0.861693H963.754V12.9457H920.51V20.8497H962.766V33.0097H920.51V41.7497H964.59V54.1377H902.574V0.861693Z" fill="#829B92"/>
</svg>
