<svg width="1280" height="1338" viewBox="0 0 1280 1338" fill="none" xmlns="http://www.w3.org/2000/svg">
<line x1="228.636" y1="-184" x2="228.636" y2="1332" stroke="black" stroke-width="6"/>
<line x1="504.273" y1="-184" x2="504.273" y2="1332" stroke="black" stroke-width="6"/>
<line x1="779.909" y1="-184" x2="779.909" y2="1332" stroke="black" stroke-width="6"/>
<line x1="1055.55" y1="-184" x2="1055.55" y2="1332" stroke="black" stroke-width="6"/>
<line x1="90.8181" y1="-184" x2="90.818" y2="1332" stroke="black" stroke-width="6"/>
<line x1="366.455" y1="-184" x2="366.455" y2="1332" stroke="black" stroke-width="6"/>
<line x1="642.091" y1="-184" x2="642.091" y2="1332" stroke="black" stroke-width="6"/>
<line x1="917.727" y1="-184" x2="917.727" y2="1332" stroke="black" stroke-width="6"/>
<line x1="1193.36" y1="-184" x2="1193.36" y2="1332" stroke="black" stroke-width="6"/>
<line x1="1466" y1="94.6365" x2="-50.0002" y2="94.6363" stroke="black" stroke-width="6"/>
<line x1="1466" y1="370.273" x2="-50.0002" y2="370.273" stroke="black" stroke-width="6"/>
<line x1="1466" y1="645.909" x2="-50" y2="645.909" stroke="black" stroke-width="6"/>
<line x1="1466" y1="921.545" x2="-50" y2="921.545" stroke="black" stroke-width="6"/>
<line x1="1466" y1="1197.18" x2="-50" y2="1197.18" stroke="black" stroke-width="6"/>
<line x1="1466" y1="232.455" x2="-50.0002" y2="232.454" stroke="black" stroke-width="6"/>
<line x1="1466" y1="508.091" x2="-50.0002" y2="508.091" stroke="black" stroke-width="6"/>
<line x1="1466" y1="783.727" x2="-50" y2="783.727" stroke="black" stroke-width="6"/>
<line x1="1466" y1="1059.36" x2="-50" y2="1059.36" stroke="black" stroke-width="6"/>
<line x1="1466" y1="1335" x2="-50.0002" y2="1335" stroke="black" stroke-width="6"/>
</svg>
