<svg width="1280" height="1145" viewBox="0 0 1280 1145" fill="none" xmlns="http://www.w3.org/2000/svg">
<rect x="-3630.52" y="3.97032" width="7113" height="107" transform="rotate(8.33353 -3630.52 3.97032)" fill="#C5A314" stroke="#829B92" stroke-width="7"/>
<path d="M935.052 717.545L946.106 719.164L963.666 740.414L966.344 722.129L976.151 723.566L971.89 752.655L962.083 751.219L943.381 728.783L940.557 748.065L930.791 746.635L935.052 717.545ZM1001.53 727.198L1036.68 732.348C1039.39 732.743 1041.77 733.304 1043.88 733.953C1045.99 734.602 1047.75 735.327 1049.17 736.087C1050.54 736.84 1051.73 737.735 1052.69 738.683C1053.69 739.678 1054.45 740.596 1054.92 741.471C1055.42 742.393 1055.79 743.339 1056.06 744.355C1056.3 745.366 1056.42 746.275 1056.44 747.041C1056.41 747.802 1056.33 748.597 1056.21 749.428L1056.04 750.592C1055.93 751.382 1055.77 752.165 1055.58 752.901C1055.34 753.631 1054.97 754.467 1054.45 755.409C1053.89 756.304 1053.26 757.146 1052.56 757.85C1051.81 758.59 1050.86 759.299 1049.62 759.924C1048.38 760.591 1046.99 761.109 1045.45 761.478C1043.92 761.805 1042.02 761.994 1039.8 762.052C1037.55 762.061 1035.12 761.874 1032.42 761.479L997.261 756.329C994.559 755.933 992.173 755.414 990.02 754.759C987.872 754.062 986.11 753.337 984.735 752.584C983.366 751.789 982.181 750.894 981.181 749.899C980.174 748.945 979.423 747.986 978.963 747.069C978.456 746.188 978.091 745.201 977.857 744.191C977.629 743.138 977.508 742.229 977.492 741.463C977.519 740.703 977.593 739.907 977.709 739.117L977.879 737.954C978.001 737.123 978.158 736.339 978.345 735.645C978.579 734.915 978.956 734.079 979.47 733.178C979.99 732.236 980.617 731.436 981.362 730.696C982.059 729.992 983.048 729.33 984.291 728.663C985.487 728.032 986.879 727.514 988.413 727.187C989.988 726.866 991.883 726.677 994.135 726.667C996.386 726.657 998.827 726.802 1001.53 727.198ZM1046.11 748.246C1046.22 747.54 1046.23 746.863 1046.12 746.209C1046.05 745.52 1045.76 744.841 1045.33 744.056C1044.84 743.306 1044.22 742.62 1043.42 741.994C1042.62 741.409 1041.47 740.817 1040.02 740.307C1038.81 739.833 1037.42 739.502 1035.85 739.229C1035.48 739.133 1000.9 734.068 1000.65 734.031C992.859 733.059 988.593 734.939 987.893 739.718L987.826 740.175C987.692 741.089 987.737 741.945 987.947 742.825C988.164 743.663 988.624 744.579 989.34 745.491C990.055 746.402 991.246 747.255 992.925 747.968C994.437 748.657 996.312 749.186 998.55 749.556C998.716 749.581 1033.12 754.621 1033.42 754.622C1035.51 754.885 1037.32 754.939 1038.88 754.742C1040.65 754.535 1042.04 754.059 1043.02 753.397C1043.97 752.729 1044.71 752.031 1045.16 751.29C1045.61 750.507 1045.91 749.659 1046.03 748.786L1046.11 748.246ZM1066.67 766.496L1058.03 735.941L1068.71 737.505L1073.88 758.426L1081.76 744.299L1130.8 751.482L1134.97 766.78L1145.67 748.779L1155.31 750.191L1138.44 777.009L1128.55 775.56L1124.39 757.589L1086.28 752.007L1077.47 768.079L1066.67 766.496ZM1153.68 779.241L1157.93 750.235L1167.82 751.683L1166.26 762.28L1242.15 773.396L1243.7 762.799L1253.59 764.248L1249.34 793.254L1239.45 791.805L1241.12 780.419L1165.23 769.303L1163.57 780.69L1153.68 779.241ZM1258.63 764.859L1352.71 778.64L1351.74 785.248L1267.47 772.903L1266.84 777.224L1350.53 789.484L1349.56 796.133L1265.86 783.874L1265.16 788.653L1349.85 801.058L1348.86 807.832L1254.36 793.99L1258.63 764.859ZM1364.66 799.619L1363.15 809.925L1353.26 808.477L1357.52 779.429L1437.89 791.201C1447.07 792.547 1451.28 795.71 1450.54 800.738L1450.47 801.237C1450.02 804.312 1447.75 806.145 1443.68 806.737C1445.4 807.455 1446.74 808.458 1447.65 809.738C1448.61 810.983 1448.94 812.517 1448.68 814.304L1448.06 818.543C1447.8 820.288 1447.51 822.283 1447.51 822.283L1437.54 820.822C1437.54 820.822 1437.72 819.872 1437.85 818.999L1438.34 815.633C1438.6 813.846 1438.29 812.485 1437.42 811.508C1436.53 810.572 1434.89 809.907 1432.48 809.554L1364.66 799.619ZM1366.44 787.485L1365.6 793.178L1435.5 803.417C1436.87 803.618 1437.91 803.515 1438.65 803.072C1439.35 802.664 1439.78 802.007 1439.91 801.134L1439.92 801.092C1440.04 800.261 1439.81 799.548 1439.25 798.958C1438.67 798.32 1437.71 797.925 1436.34 797.724L1366.44 787.485ZM1456.23 793.803L1550.31 807.584L1549.34 814.192L1465.06 801.847L1464.43 806.169L1548.13 818.429L1547.15 825.078L1463.46 812.818L1462.76 817.597L1547.45 830.003L1546.46 836.776L1451.96 822.934L1456.23 793.803ZM1584.68 842.418L1587.93 820.227L1574.3 818.231L1575.31 811.332L1612.63 816.799L1611.62 823.697L1597.95 821.694L1594.7 843.885L1584.68 842.418ZM1635.91 820.124L1671.07 825.274C1673.77 825.669 1676.15 826.23 1678.26 826.879C1680.38 827.528 1682.14 828.253 1683.55 829.013C1684.93 829.766 1686.11 830.661 1687.08 831.609C1688.08 832.604 1688.84 833.522 1689.3 834.397C1689.8 835.319 1690.18 836.265 1690.45 837.281C1690.69 838.292 1690.81 839.201 1690.82 839.968C1690.8 840.728 1690.72 841.523 1690.6 842.355L1690.43 843.518C1690.31 844.308 1690.16 845.091 1689.96 845.827C1689.73 846.557 1689.35 847.393 1688.83 848.336C1688.28 849.23 1687.64 850.072 1686.95 850.776C1686.2 851.516 1685.25 852.225 1684.01 852.85C1682.77 853.517 1681.38 854.035 1679.84 854.404C1678.3 854.731 1676.41 854.92 1674.19 854.978C1671.94 854.987 1669.5 854.801 1666.8 854.405L1631.65 849.255C1628.95 848.859 1626.56 848.34 1624.41 847.685C1622.26 846.988 1620.5 846.263 1619.12 845.51C1617.75 844.715 1616.57 843.82 1615.57 842.825C1614.56 841.871 1613.81 840.912 1613.35 839.995C1612.84 839.115 1612.48 838.127 1612.24 837.117C1612.02 836.065 1611.89 835.155 1611.88 834.389C1611.91 833.629 1611.98 832.833 1612.1 832.044L1612.27 830.88C1612.39 830.049 1612.54 829.265 1612.73 828.571C1612.97 827.841 1613.34 827.005 1613.86 826.104C1614.38 825.162 1615 824.362 1615.75 823.622C1616.45 822.918 1617.43 822.256 1618.68 821.589C1619.87 820.958 1621.27 820.44 1622.8 820.113C1624.37 819.792 1626.27 819.603 1628.52 819.593C1630.77 819.583 1633.21 819.728 1635.91 820.124ZM1680.5 841.172C1680.6 840.466 1680.62 839.789 1680.5 839.135C1680.43 838.446 1680.15 837.768 1679.71 836.982C1679.23 836.232 1678.61 835.547 1677.81 834.92C1677 834.335 1675.86 833.743 1674.4 833.233C1673.2 832.759 1671.81 832.428 1670.23 832.155C1669.86 832.059 1635.29 826.994 1635.04 826.957C1627.25 825.985 1622.98 827.865 1622.28 832.644L1622.21 833.101C1622.08 834.015 1622.12 834.871 1622.33 835.751C1622.55 836.589 1623.01 837.505 1623.73 838.417C1624.44 839.328 1625.63 840.182 1627.31 840.894C1628.82 841.583 1630.7 842.112 1632.94 842.482C1633.1 842.507 1667.51 847.547 1667.81 847.548C1669.89 847.811 1671.71 847.865 1673.27 847.668C1675.04 847.461 1676.42 846.985 1677.41 846.323C1678.36 845.655 1679.1 844.957 1679.55 844.216C1680 843.434 1680.29 842.585 1680.42 841.713L1680.5 841.172ZM1725.81 852.52L1724.3 862.826L1714.41 861.378L1718.66 832.33L1799.03 844.102C1808.21 845.448 1812.42 848.611 1811.68 853.639L1811.61 854.138C1811.16 857.213 1808.9 859.046 1804.82 859.638C1806.54 860.357 1807.88 861.359 1808.8 862.639C1809.76 863.884 1810.09 865.418 1809.82 867.205L1809.2 871.444C1808.95 873.189 1808.66 875.184 1808.66 875.184L1798.68 873.723C1798.68 873.723 1798.86 872.773 1798.99 871.9L1799.48 868.534C1799.75 866.747 1799.44 865.386 1798.56 864.409C1797.68 863.473 1796.04 862.808 1793.63 862.455L1725.81 852.52ZM1727.58 840.386L1726.75 846.079L1796.65 856.318C1798.02 856.519 1799.05 856.416 1799.8 855.973C1800.49 855.565 1800.93 854.908 1801.06 854.035L1801.06 853.993C1801.18 853.162 1800.95 852.449 1800.4 851.859C1799.81 851.221 1798.85 850.826 1797.48 850.625L1727.58 840.386ZM1887.24 886.695L1831.84 878.58C1829.52 878.239 1827.42 877.763 1825.57 877.109C1823.71 876.455 1822.16 875.719 1820.92 874.901C1819.68 874.082 1818.63 873.164 1817.76 872.145C1816.89 871.126 1816.19 870.132 1815.74 869.132C1815.29 868.175 1814.93 867.146 1814.71 866.052C1814.48 864.958 1814.37 863.966 1814.37 863.117C1814.37 862.267 1814.45 861.388 1814.58 860.557L1816.62 846.636L1826.42 848.072L1824.46 861.454C1824.32 862.451 1824.34 863.473 1824.5 864.388C1824.66 865.303 1825.03 866.249 1825.61 867.225C1826.19 868.201 1827.17 869.025 1828.51 869.73C1829.9 870.442 1831.02 870.862 1833.02 871.154C1833.39 871.209 1887.58 879.147 1887.95 879.201C1889.67 879.368 1891.45 879.374 1892.68 879.129C1894.16 878.837 1895.34 878.331 1896.18 877.561C1897.01 876.792 1897.68 875.999 1898.1 875.169C1898.51 874.339 1898.79 873.359 1898.93 872.362L1900.89 858.981L1910.7 860.417L1908.66 874.339C1908.48 875.544 1908.18 876.731 1907.71 877.935C1907.19 879.133 1906.42 880.378 1905.38 881.669C1904.3 882.954 1902.99 884.078 1901.5 884.963C1899.97 885.843 1898.01 886.448 1895.49 886.843C1893.02 887.202 1890.27 887.139 1887.24 886.695ZM1914.96 861.084L1926.01 862.703L1943.57 883.952L1946.25 865.667L1956.06 867.104L1951.8 896.194L1941.99 894.757L1923.29 872.322L1920.46 891.604L1910.7 890.173L1914.96 861.084Z" fill="black"/>
<path d="M-188.951 550.132L-177.897 551.751L-160.337 573.001L-157.659 554.716L-147.851 556.153L-152.112 585.242L-161.92 583.805L-180.621 561.37L-183.446 580.652L-193.212 579.222L-188.951 550.132ZM-122.475 559.785L-87.3181 564.935C-84.617 565.33 -82.2371 565.891 -80.1249 566.54C-78.0126 567.189 -76.2511 567.914 -74.8342 568.673C-73.4589 569.427 -72.2741 570.322 -71.3093 571.27C-70.309 572.265 -69.552 573.183 -69.0859 574.057C-68.5843 574.98 -68.2134 575.926 -67.9378 576.942C-67.7038 577.953 -67.5823 578.862 -67.5672 579.628C-67.5937 580.389 -67.6678 581.184 -67.7895 582.015L-67.96 583.179C-68.0757 583.969 -68.2329 584.752 -68.4255 585.488C-68.6598 586.218 -69.037 587.054 -69.5571 587.996C-70.1126 588.891 -70.7452 589.732 -71.4427 590.437C-72.1878 591.177 -73.1407 591.886 -74.3783 592.511C-75.6221 593.178 -77.0138 593.696 -78.5536 594.064C-80.0872 594.392 -81.9826 594.581 -84.1983 594.638C-86.4495 594.648 -88.8842 594.461 -91.5853 594.066L-126.742 588.916C-129.443 588.52 -131.829 588.001 -133.983 587.346C-136.131 586.649 -137.892 585.924 -139.268 585.171C-140.637 584.376 -141.822 583.481 -142.822 582.485C-143.828 581.532 -144.579 580.573 -145.039 579.656C-145.547 578.775 -145.912 577.788 -146.146 576.777C-146.374 575.725 -146.495 574.816 -146.51 574.05C-146.484 573.29 -146.41 572.494 -146.294 571.704L-146.124 570.541C-146.002 569.71 -145.845 568.926 -145.658 568.232C-145.424 567.502 -145.047 566.666 -144.533 565.765C-144.013 564.822 -143.386 564.023 -142.641 563.283C-141.943 562.579 -140.955 561.917 -139.711 561.25C-138.515 560.619 -137.123 560.101 -135.59 559.774C-134.015 559.453 -132.119 559.263 -129.868 559.254C-127.617 559.244 -125.176 559.389 -122.475 559.785ZM-77.8888 580.833C-77.7854 580.127 -77.7711 579.45 -77.8875 578.796C-77.9564 578.107 -78.2391 577.428 -78.6758 576.643C-79.1602 575.893 -79.7815 575.207 -80.5811 574.581C-81.3868 573.996 -82.5311 573.404 -83.9845 572.894C-85.1886 572.42 -86.5833 572.089 -88.1563 571.816C-88.5242 571.719 -123.099 566.655 -123.349 566.618C-131.144 565.646 -135.41 567.526 -136.11 572.305L-136.176 572.762C-136.31 573.676 -136.266 574.532 -136.055 575.412C-135.838 576.25 -135.378 577.166 -134.663 578.077C-133.947 578.989 -132.757 579.842 -131.078 580.555C-129.566 581.244 -127.691 581.773 -125.453 582.143C-125.287 582.168 -90.8779 587.208 -90.5809 587.209C-88.497 587.472 -86.6797 587.526 -85.1227 587.329C-83.352 587.122 -81.9663 586.646 -80.978 585.984C-80.0312 585.316 -79.2922 584.618 -78.8441 583.877C-78.3899 583.094 -78.0958 582.246 -77.968 581.373L-77.8888 580.833ZM-57.3353 599.083L-65.976 568.528L-55.296 570.092L-50.1255 591.012L-42.2408 576.886L6.79588 584.069L10.9647 599.367L21.6667 581.366L31.3078 582.778L14.4328 609.595L4.54239 608.147L0.383039 590.176L-37.7243 584.594L-46.5306 600.665L-57.3353 599.083ZM29.6737 611.828L33.9226 582.822L43.8131 584.27L42.2608 594.867L118.143 605.983L119.695 595.386L129.586 596.834L125.337 625.841L115.446 624.392L117.114 613.006L41.2321 601.89L39.5641 613.277L29.6737 611.828ZM134.626 597.445L228.71 611.227L227.742 617.835L143.466 605.49L142.833 609.811L226.527 622.071L225.553 628.72L141.859 616.46L141.159 621.239L225.851 633.645L224.859 640.419L130.359 626.577L134.626 597.445ZM240.659 632.206L239.149 642.512L229.259 641.064L233.514 612.016L313.884 623.788C323.068 625.134 327.274 628.297 326.537 633.325L326.464 633.824C326.014 636.899 323.75 638.732 319.674 639.323C321.394 640.042 322.732 641.045 323.648 642.325C324.612 643.57 324.939 645.104 324.678 646.891L324.057 651.129C323.801 652.875 323.509 654.87 323.509 654.87L313.535 653.409C313.535 653.409 313.717 652.459 313.845 651.586L314.338 648.22C314.6 646.433 314.29 645.072 313.414 644.095C312.532 643.159 310.889 642.494 308.479 642.141L240.659 632.206ZM242.436 620.072L241.602 625.765L311.5 636.004C312.872 636.205 313.906 636.101 314.65 635.659C315.346 635.251 315.782 634.594 315.91 633.721L315.916 633.679C316.038 632.848 315.803 632.135 315.252 631.545C314.667 630.907 313.706 630.511 312.334 630.311L242.436 620.072ZM332.223 626.39L426.307 640.171L425.339 646.779L341.062 634.434L340.429 638.756L424.124 651.015L423.15 657.665L339.455 645.405L338.755 650.184L423.447 662.59L422.455 669.363L327.955 655.521L332.223 626.39ZM460.682 675.005L463.932 652.814L450.302 650.817L451.312 643.919L488.63 649.385L487.619 656.284L473.947 654.281L470.697 676.472L460.682 675.005ZM511.911 652.711L547.068 657.861C549.769 658.256 552.149 658.817 554.261 659.466C556.374 660.115 558.135 660.84 559.552 661.6C560.928 662.353 562.112 663.248 563.077 664.196C564.077 665.191 564.834 666.109 565.301 666.984C565.802 667.906 566.173 668.852 566.449 669.868C566.683 670.879 566.804 671.788 566.819 672.554C566.793 673.315 566.719 674.11 566.597 674.941L566.426 676.105C566.311 676.895 566.154 677.678 565.961 678.414C565.727 679.144 565.349 679.98 564.829 680.922C564.274 681.817 563.641 682.659 562.944 683.363C562.199 684.103 561.246 684.812 560.008 685.437C558.764 686.104 557.373 686.622 555.833 686.991C554.299 687.318 552.404 687.507 550.188 687.565C547.937 687.574 545.502 687.388 542.801 686.992L507.644 681.842C504.943 681.446 502.557 680.927 500.403 680.272C498.256 679.575 496.494 678.85 495.119 678.097C493.749 677.302 492.565 676.407 491.564 675.412C490.558 674.458 489.807 673.499 489.347 672.582C488.839 671.701 488.475 670.714 488.241 669.704C488.013 668.651 487.891 667.742 487.876 666.976C487.903 666.216 487.977 665.42 488.092 664.631L488.263 663.467C488.385 662.636 488.542 661.852 488.728 661.158C488.963 660.428 489.34 659.592 489.854 658.691C490.374 657.749 491 656.949 491.745 656.209C492.443 655.505 493.431 654.843 494.675 654.176C495.871 653.545 497.263 653.027 498.797 652.7C500.372 652.379 502.267 652.19 504.518 652.18C506.77 652.17 509.21 652.315 511.911 652.711ZM556.498 673.759C556.601 673.053 556.615 672.376 556.499 671.722C556.43 671.033 556.147 670.355 555.711 669.569C555.226 668.819 554.605 668.134 553.805 667.507C553 666.922 551.855 666.33 550.402 665.82C549.198 665.346 547.803 665.015 546.23 664.742C545.862 664.646 511.287 659.581 511.038 659.544C503.242 658.572 498.977 660.452 498.277 665.231L498.21 665.688C498.076 666.602 498.12 667.458 498.331 668.338C498.548 669.176 499.008 670.092 499.723 671.004C500.439 671.915 501.63 672.768 503.308 673.481C504.82 674.17 506.695 674.699 508.933 675.069C509.1 675.094 543.508 680.134 543.805 680.135C545.889 680.398 547.707 680.452 549.264 680.255C551.034 680.048 552.42 679.572 553.408 678.91C554.355 678.242 555.094 677.544 555.542 676.803C555.997 676.02 556.291 675.172 556.418 674.299L556.498 673.759ZM601.803 685.107L600.293 695.413L590.403 693.965L594.658 664.917L675.028 676.689C684.212 678.035 688.418 681.198 687.682 686.226L687.608 686.725C687.158 689.8 684.894 691.633 680.818 692.225C682.538 692.943 683.876 693.946 684.793 695.226C685.756 696.471 686.083 698.005 685.822 699.792L685.201 704.03C684.945 705.776 684.653 707.771 684.653 707.771L674.679 706.31C674.679 706.31 674.861 705.36 674.989 704.487L675.482 701.121C675.744 699.334 675.434 697.973 674.558 696.996C673.676 696.06 672.033 695.395 669.623 695.042L601.803 685.107ZM603.58 672.973L602.746 678.666L672.644 688.905C674.016 689.106 675.05 689.003 675.794 688.56C676.49 688.152 676.926 687.495 677.054 686.622L677.06 686.58C677.182 685.749 676.947 685.036 676.396 684.446C675.811 683.808 674.85 683.413 673.478 683.212L603.58 672.973ZM763.236 719.282L707.842 711.167C705.514 710.826 703.419 710.35 701.562 709.696C699.706 709.042 698.158 708.306 696.92 707.487C695.681 706.669 694.627 705.751 693.757 704.732C692.888 703.713 692.185 702.719 691.737 701.719C691.283 700.761 690.924 699.733 690.702 698.639C690.481 697.545 690.371 696.553 690.368 695.704C690.365 694.854 690.452 693.975 690.573 693.144L692.613 679.223L702.42 680.659L700.46 694.041C700.314 695.038 700.334 696.06 700.497 696.975C700.66 697.89 701.031 698.836 701.609 699.812C702.188 700.788 703.171 701.611 704.511 702.317C705.892 703.029 707.02 703.449 709.014 703.741C709.388 703.796 763.578 711.733 763.952 711.788C765.668 711.955 767.45 711.961 768.674 711.716C770.16 711.424 771.338 710.918 772.172 710.148C773.007 709.379 773.675 708.586 774.094 707.756C774.512 706.925 774.783 705.946 774.929 704.949L776.889 691.568L786.697 693.004L784.657 706.926C784.481 708.131 784.18 709.318 783.706 710.522C783.191 711.72 782.414 712.964 781.376 714.256C780.297 715.541 778.986 716.665 777.498 717.55C775.968 718.43 774.012 719.035 771.492 719.43C769.02 719.789 766.27 719.726 763.236 719.282ZM790.956 693.671L802.01 695.29L819.569 716.539L822.248 698.254L832.055 699.691L827.794 728.781L817.987 727.344L799.285 704.909L796.46 724.191L786.694 722.76L790.956 693.671Z" fill="black"/>
<rect x="885.221" y="700.145" width="11.8332" height="11.8332" transform="rotate(53.3335 885.221 700.145)" fill="black"/>
<rect x="871.458" y="710.391" width="11.8332" height="11.8332" transform="rotate(53.3335 871.458 710.391)" fill="black"/>
<rect x="895.468" y="713.908" width="11.8332" height="11.8332" transform="rotate(53.3335 895.468 713.908)" fill="black"/>
<rect x="881.704" y="724.154" width="11.8332" height="11.8332" transform="rotate(53.3335 881.704 724.154)" fill="black"/>
</svg>
