<svg width="173" height="157" viewBox="0 0 173 157" fill="none" xmlns="http://www.w3.org/2000/svg">
<mask id="mask0_39_3543" style="mask-type:alpha" maskUnits="userSpaceOnUse" x="0" y="0" width="173" height="157">
<rect width="173" height="157" rx="30" fill="black"/>
</mask>
<g mask="url(#mask0_39_3543)">
<rect x="1" y="1" width="171" height="155" rx="29" fill="#BF5FDE" stroke="black" stroke-width="2"/>
<mask id="path-3-outside-1_39_3543" maskUnits="userSpaceOnUse" x="25" y="38" width="125" height="15" fill="black">
<rect fill="white" x="25" y="38" width="125" height="15"/>
<path d="M45.1404 39.4V52H40.4604V46.006L37.0224 52H33.9624L30.5244 46.006V52H25.8444V39.4H31.6044L35.4924 46.6L39.3804 39.4H45.1404ZM50.5459 39.4V52H45.8659V39.4H50.5459ZM62.8183 39.4H67.4983V52H61.3783L55.9423 44.566V52H51.2623V39.4H57.3823L62.8183 46.834V39.4ZM83.5252 39.4V43.36H78.1252V52H73.4452V43.36H68.0452V39.4H83.5252ZM102.826 39.4H107.506V52H101.386L95.9502 44.566V52H91.2702V39.4H97.3902L102.826 46.834V39.4ZM115.797 52.18C110.253 52.18 107.877 50.074 107.877 45.682C107.877 41.308 110.253 39.22 115.797 39.22C121.323 39.22 123.717 41.326 123.717 45.682C123.717 50.056 121.323 52.18 115.797 52.18ZM115.797 48.22C118.551 48.22 119.037 47.014 119.037 45.682C119.037 44.368 118.569 43.18 115.797 43.18C113.025 43.18 112.557 44.35 112.557 45.682C112.557 47.032 113.043 48.22 115.797 48.22ZM144.306 39.4H149.328L145.188 52H138.24L136.17 44.746L134.1 52H127.152L123.012 39.4H128.034L130.644 48.292L133.38 39.4H138.96L141.696 48.292L144.306 39.4Z"/>
</mask>
<path d="M45.1404 39.4V52H40.4604V46.006L37.0224 52H33.9624L30.5244 46.006V52H25.8444V39.4H31.6044L35.4924 46.6L39.3804 39.4H45.1404ZM50.5459 39.4V52H45.8659V39.4H50.5459ZM62.8183 39.4H67.4983V52H61.3783L55.9423 44.566V52H51.2623V39.4H57.3823L62.8183 46.834V39.4ZM83.5252 39.4V43.36H78.1252V52H73.4452V43.36H68.0452V39.4H83.5252ZM102.826 39.4H107.506V52H101.386L95.9502 44.566V52H91.2702V39.4H97.3902L102.826 46.834V39.4ZM115.797 52.18C110.253 52.18 107.877 50.074 107.877 45.682C107.877 41.308 110.253 39.22 115.797 39.22C121.323 39.22 123.717 41.326 123.717 45.682C123.717 50.056 121.323 52.18 115.797 52.18ZM115.797 48.22C118.551 48.22 119.037 47.014 119.037 45.682C119.037 44.368 118.569 43.18 115.797 43.18C113.025 43.18 112.557 44.35 112.557 45.682C112.557 47.032 113.043 48.22 115.797 48.22ZM144.306 39.4H149.328L145.188 52H138.24L136.17 44.746L134.1 52H127.152L123.012 39.4H128.034L130.644 48.292L133.38 39.4H138.96L141.696 48.292L144.306 39.4Z" fill="white"/>
<path d="M45.1404 39.4H45.5404V39H45.1404V39.4ZM45.1404 52V52.4H45.5404V52H45.1404ZM40.4604 52H40.0604V52.4H40.4604V52ZM40.4604 46.006H40.8604V44.5047L40.1134 45.807L40.4604 46.006ZM37.0224 52V52.4H37.2541L37.3694 52.199L37.0224 52ZM33.9624 52L33.6154 52.199L33.7307 52.4H33.9624V52ZM30.5244 46.006L30.8714 45.807L30.1244 44.5047V46.006H30.5244ZM30.5244 52V52.4H30.9244V52H30.5244ZM25.8444 52H25.4444V52.4H25.8444V52ZM25.8444 39.4V39H25.4444V39.4H25.8444ZM31.6044 39.4L31.9563 39.2099L31.843 39H31.6044V39.4ZM35.4924 46.6L35.1404 46.7901L35.4924 47.4418L35.8443 46.7901L35.4924 46.6ZM39.3804 39.4V39H39.1418L39.0284 39.2099L39.3804 39.4ZM44.7404 39.4V52H45.5404V39.4H44.7404ZM45.1404 51.6H40.4604V52.4H45.1404V51.6ZM40.8604 52V46.006H40.0604V52H40.8604ZM40.1134 45.807L36.6754 51.801L37.3694 52.199L40.8074 46.205L40.1134 45.807ZM37.0224 51.6H33.9624V52.4H37.0224V51.6ZM34.3094 51.801L30.8714 45.807L30.1774 46.205L33.6154 52.199L34.3094 51.801ZM30.1244 46.006V52H30.9244V46.006H30.1244ZM30.5244 51.6H25.8444V52.4H30.5244V51.6ZM26.2444 52V39.4H25.4444V52H26.2444ZM25.8444 39.8H31.6044V39H25.8444V39.8ZM31.2524 39.5901L35.1404 46.7901L35.8443 46.4099L31.9563 39.2099L31.2524 39.5901ZM35.8443 46.7901L39.7323 39.5901L39.0284 39.2099L35.1404 46.4099L35.8443 46.7901ZM39.3804 39.8H45.1404V39H39.3804V39.8ZM50.5459 39.4H50.9459V39H50.5459V39.4ZM50.5459 52V52.4H50.9459V52H50.5459ZM45.8659 52H45.4659V52.4H45.8659V52ZM45.8659 39.4V39H45.4659V39.4H45.8659ZM50.1459 39.4V52H50.9459V39.4H50.1459ZM50.5459 51.6H45.8659V52.4H50.5459V51.6ZM46.2659 52V39.4H45.4659V52H46.2659ZM45.8659 39.8H50.5459V39H45.8659V39.8ZM62.8183 39.4V39H62.4183V39.4H62.8183ZM67.4983 39.4H67.8983V39H67.4983V39.4ZM67.4983 52V52.4H67.8983V52H67.4983ZM61.3783 52L61.0555 52.2361L61.1753 52.4H61.3783V52ZM55.9423 44.566L56.2652 44.3299L55.5423 43.3413V44.566H55.9423ZM55.9423 52V52.4H56.3423V52H55.9423ZM51.2623 52H50.8623V52.4H51.2623V52ZM51.2623 39.4V39H50.8623V39.4H51.2623ZM57.3823 39.4L57.7052 39.1639L57.5854 39H57.3823V39.4ZM62.8183 46.834L62.4955 47.0701L63.2183 48.0587V46.834H62.8183ZM62.8183 39.8H67.4983V39H62.8183V39.8ZM67.0983 39.4V52H67.8983V39.4H67.0983ZM67.4983 51.6H61.3783V52.4H67.4983V51.6ZM61.7012 51.7639L56.2652 44.3299L55.6195 44.8021L61.0555 52.2361L61.7012 51.7639ZM55.5423 44.566V52H56.3423V44.566H55.5423ZM55.9423 51.6H51.2623V52.4H55.9423V51.6ZM51.6623 52V39.4H50.8623V52H51.6623ZM51.2623 39.8H57.3823V39H51.2623V39.8ZM57.0595 39.6361L62.4955 47.0701L63.1412 46.5979L57.7052 39.1639L57.0595 39.6361ZM63.2183 46.834V39.4H62.4183V46.834H63.2183ZM83.5252 39.4H83.9252V39H83.5252V39.4ZM83.5252 43.36V43.76H83.9252V43.36H83.5252ZM78.1252 43.36V42.96H77.7252V43.36H78.1252ZM78.1252 52V52.4H78.5252V52H78.1252ZM73.4452 52H73.0452V52.4H73.4452V52ZM73.4452 43.36H73.8452V42.96H73.4452V43.36ZM68.0452 43.36H67.6452V43.76H68.0452V43.36ZM68.0452 39.4V39H67.6452V39.4H68.0452ZM83.1252 39.4V43.36H83.9252V39.4H83.1252ZM83.5252 42.96H78.1252V43.76H83.5252V42.96ZM77.7252 43.36V52H78.5252V43.36H77.7252ZM78.1252 51.6H73.4452V52.4H78.1252V51.6ZM73.8452 52V43.36H73.0452V52H73.8452ZM73.4452 42.96H68.0452V43.76H73.4452V42.96ZM68.4452 43.36V39.4H67.6452V43.36H68.4452ZM68.0452 39.8H83.5252V39H68.0452V39.8ZM102.826 39.4V39H102.426V39.4H102.826ZM107.506 39.4H107.906V39H107.506V39.4ZM107.506 52V52.4H107.906V52H107.506ZM101.386 52L101.063 52.2361L101.183 52.4H101.386V52ZM95.9502 44.566L96.273 44.3299L95.5502 43.3413V44.566H95.9502ZM95.9502 52V52.4H96.3502V52H95.9502ZM91.2702 52H90.8702V52.4H91.2702V52ZM91.2702 39.4V39H90.8702V39.4H91.2702ZM97.3902 39.4L97.713 39.1639L97.5932 39H97.3902V39.4ZM102.826 46.834L102.503 47.0701L103.226 48.0587V46.834H102.826ZM102.826 39.8H107.506V39H102.826V39.8ZM107.106 39.4V52H107.906V39.4H107.106ZM107.506 51.6H101.386V52.4H107.506V51.6ZM101.709 51.7639L96.273 44.3299L95.6273 44.8021L101.063 52.2361L101.709 51.7639ZM95.5502 44.566V52H96.3502V44.566H95.5502ZM95.9502 51.6H91.2702V52.4H95.9502V51.6ZM91.6702 52V39.4H90.8702V52H91.6702ZM91.2702 39.8H97.3902V39H91.2702V39.8ZM97.0673 39.6361L102.503 47.0701L103.149 46.5979L97.713 39.1639L97.0673 39.6361ZM103.226 46.834V39.4H102.426V46.834H103.226ZM115.797 51.78C113.063 51.78 111.196 51.2582 110.015 50.2711C108.85 49.2974 108.277 47.8068 108.277 45.682H107.477C107.477 47.9492 108.093 49.7076 109.502 50.8849C110.895 52.0488 112.988 52.58 115.797 52.58V51.78ZM108.277 45.682C108.277 43.5667 108.849 42.0855 110.014 41.1185C111.195 40.1376 113.062 39.62 115.797 39.62V38.82C112.988 38.82 110.895 39.3464 109.503 40.503C108.093 41.6735 107.477 43.4233 107.477 45.682H108.277ZM115.797 39.62C118.522 39.62 120.39 40.1417 121.574 41.1252C122.741 42.095 123.317 43.577 123.317 45.682H124.117C124.117 43.431 123.496 41.682 122.085 40.5098C120.691 39.3513 118.598 38.82 115.797 38.82V39.62ZM123.317 45.682C123.317 47.7965 122.741 49.2879 121.573 50.2644C120.389 51.2541 118.522 51.78 115.797 51.78V52.58C118.599 52.58 120.692 52.0439 122.086 50.8781C123.496 49.6991 124.117 47.9415 124.117 45.682H123.317ZM115.797 48.62C117.22 48.62 118.159 48.3102 118.734 47.7327C119.311 47.1524 119.437 46.3858 119.437 45.682H118.637C118.637 46.3102 118.521 46.8126 118.166 47.1683C117.81 47.5268 117.128 47.82 115.797 47.82V48.62ZM119.437 45.682C119.437 44.9886 119.316 44.2291 118.739 43.6547C118.166 43.0843 117.227 42.78 115.797 42.78V43.58C117.139 43.58 117.821 43.8697 118.175 44.2218C118.524 44.5699 118.637 45.0614 118.637 45.682H119.437ZM115.797 42.78C114.369 42.78 113.43 43.0791 112.856 43.6473C112.278 44.22 112.157 44.9808 112.157 45.682H112.957C112.957 45.0512 113.071 44.561 113.419 44.2157C113.773 43.8659 114.454 43.58 115.797 43.58V42.78ZM112.157 45.682C112.157 46.3937 112.283 47.1615 112.862 47.7401C113.437 48.3154 114.376 48.62 115.797 48.62V47.82C114.465 47.82 113.784 47.5306 113.427 47.1744C113.074 46.8215 112.957 46.3203 112.957 45.682H112.157ZM144.306 39.4V39H144.007L143.922 39.2873L144.306 39.4ZM149.328 39.4L149.708 39.5249L149.881 39H149.328V39.4ZM145.188 52V52.4H145.478L145.568 52.1249L145.188 52ZM138.24 52L137.855 52.1098L137.938 52.4H138.24V52ZM136.17 44.746L136.555 44.6362L136.17 43.2883L135.785 44.6362L136.17 44.746ZM134.1 52V52.4H134.402L134.485 52.1098L134.1 52ZM127.152 52L126.772 52.1249L126.862 52.4H127.152V52ZM123.012 39.4V39H122.46L122.632 39.5249L123.012 39.4ZM128.034 39.4L128.418 39.2873L128.333 39H128.034V39.4ZM130.644 48.292L130.26 48.4047L130.635 49.6815L131.026 48.4096L130.644 48.292ZM133.38 39.4V39H133.085L132.998 39.2824L133.38 39.4ZM138.96 39.4L139.342 39.2824L139.255 39H138.96V39.4ZM141.696 48.292L141.314 48.4096L141.705 49.6815L142.08 48.4047L141.696 48.292ZM144.306 39.8H149.328V39H144.306V39.8ZM148.948 39.2751L144.808 51.8751L145.568 52.1249L149.708 39.5249L148.948 39.2751ZM145.188 51.6H138.24V52.4H145.188V51.6ZM138.625 51.8902L136.555 44.6362L135.785 44.8558L137.855 52.1098L138.625 51.8902ZM135.785 44.6362L133.715 51.8902L134.485 52.1098L136.555 44.8558L135.785 44.6362ZM134.1 51.6H127.152V52.4H134.1V51.6ZM127.532 51.8751L123.392 39.2751L122.632 39.5249L126.772 52.1249L127.532 51.8751ZM123.012 39.8H128.034V39H123.012V39.8ZM127.65 39.5127L130.26 48.4047L131.028 48.1793L128.418 39.2873L127.65 39.5127ZM131.026 48.4096L133.762 39.5176L132.998 39.2824L130.262 48.1744L131.026 48.4096ZM133.38 39.8H138.96V39H133.38V39.8ZM138.578 39.5176L141.314 48.4096L142.078 48.1744L139.342 39.2824L138.578 39.5176ZM142.08 48.4047L144.69 39.5127L143.922 39.2873L141.312 48.1793L142.08 48.4047Z" fill="black" mask="url(#path-3-outside-1_39_3543)"/>
<mask id="path-5-outside-2_39_3543" maskUnits="userSpaceOnUse" x="14" y="68" width="147" height="16" fill="black">
<rect fill="white" x="14" y="68" width="147" height="16"/>
<path d="M28.8646 73.36H20.2246V74.71H27.7846V78.67H20.2246V82H15.5446V69.4H28.8646V73.36ZM34.0761 78.04H42.3561V82H29.3961V69.4H34.0761V78.04ZM58.7361 75.682C58.7361 80.056 56.3421 82.18 50.8161 82.18C45.2721 82.18 42.8961 80.074 42.8961 75.682V69.4H47.5761V75.682C47.5761 77.032 48.0621 78.22 50.8161 78.22C53.5701 78.22 54.0561 77.014 54.0561 75.682V69.4H58.7361V75.682ZM59.2747 77.554H63.9547C63.9547 78.166 64.5307 78.58 67.5007 78.58C70.2727 78.58 70.6867 78.4 70.6867 77.932C70.6867 77.392 70.2727 77.32 67.3207 77.23C61.6327 77.05 59.4547 76.114 59.4547 73.18C59.4547 70.408 62.1727 69.22 67.1407 69.22C72.0547 69.22 74.8267 70.408 74.8267 73.63H70.1467C70.1467 72.964 69.0667 72.82 66.7807 72.82C64.5847 72.82 64.1347 72.928 64.1347 73.414C64.1347 73.9 64.5847 73.882 67.3207 73.99C72.2887 74.188 75.3667 74.53 75.3667 77.824C75.3667 81.298 72.4867 82.18 67.3207 82.18C62.1547 82.18 59.2747 81.298 59.2747 77.554ZM87.9679 69.4H92.6479V82H87.9679V77.68H80.5879V82H75.9079V69.4H80.5879V73.72H87.9679V69.4ZM112.126 69.4H116.806V82H110.686L105.25 74.566V82H100.57V69.4H106.69L112.126 76.834V69.4ZM125.097 82.18C119.553 82.18 117.177 80.074 117.177 75.682C117.177 71.308 119.553 69.22 125.097 69.22C130.623 69.22 133.017 71.326 133.017 75.682C133.017 80.056 130.623 82.18 125.097 82.18ZM125.097 78.22C127.851 78.22 128.337 77.014 128.337 75.682C128.337 74.368 127.869 73.18 125.097 73.18C122.325 73.18 121.857 74.35 121.857 75.682C121.857 77.032 122.343 78.22 125.097 78.22ZM153.606 69.4H158.628L154.488 82H147.54L145.47 74.746L143.4 82H136.452L132.312 69.4H137.334L139.944 78.292L142.68 69.4H148.26L150.996 78.292L153.606 69.4Z"/>
</mask>
<path d="M28.8646 73.36V74.36H29.8646V73.36H28.8646ZM20.2246 73.36V72.36H19.2246V73.36H20.2246ZM20.2246 74.71H19.2246V75.71H20.2246V74.71ZM27.7846 74.71H28.7846V73.71H27.7846V74.71ZM27.7846 78.67V79.67H28.7846V78.67H27.7846ZM20.2246 78.67V77.67H19.2246V78.67H20.2246ZM20.2246 82V83H21.2246V82H20.2246ZM15.5446 82H14.5446V83H15.5446V82ZM15.5446 69.4V68.4H14.5446V69.4H15.5446ZM28.8646 69.4H29.8646V68.4H28.8646V69.4ZM28.8646 72.36H20.2246V74.36H28.8646V72.36ZM19.2246 73.36V74.71H21.2246V73.36H19.2246ZM20.2246 75.71H27.7846V73.71H20.2246V75.71ZM26.7846 74.71V78.67H28.7846V74.71H26.7846ZM27.7846 77.67H20.2246V79.67H27.7846V77.67ZM19.2246 78.67V82H21.2246V78.67H19.2246ZM20.2246 81H15.5446V83H20.2246V81ZM16.5446 82V69.4H14.5446V82H16.5446ZM15.5446 70.4H28.8646V68.4H15.5446V70.4ZM27.8646 69.4V73.36H29.8646V69.4H27.8646ZM34.0761 78.04H33.0761V79.04H34.0761V78.04ZM42.3561 78.04H43.3561V77.04H42.3561V78.04ZM42.3561 82V83H43.3561V82H42.3561ZM29.3961 82H28.3961V83H29.3961V82ZM29.3961 69.4V68.4H28.3961V69.4H29.3961ZM34.0761 69.4H35.0761V68.4H34.0761V69.4ZM34.0761 79.04H42.3561V77.04H34.0761V79.04ZM41.3561 78.04V82H43.3561V78.04H41.3561ZM42.3561 81H29.3961V83H42.3561V81ZM30.3961 82V69.4H28.3961V82H30.3961ZM29.3961 70.4H34.0761V68.4H29.3961V70.4ZM33.0761 69.4V78.04H35.0761V69.4H33.0761ZM42.8961 69.4V68.4H41.8961V69.4H42.8961ZM47.5761 69.4H48.5761V68.4H47.5761V69.4ZM54.0561 69.4V68.4H53.0561V69.4H54.0561ZM58.7361 69.4H59.7361V68.4H58.7361V69.4ZM57.7361 75.682C57.7361 77.6879 57.1934 78.9794 56.207 79.804C55.181 80.6617 53.483 81.18 50.8161 81.18V83.18C53.6753 83.18 55.9373 82.6363 57.4898 81.3385C59.0819 80.0076 59.7361 78.0501 59.7361 75.682H57.7361ZM50.8161 81.18C48.1377 81.18 46.441 80.6652 45.4184 79.8107C44.4362 78.9899 43.8961 77.7001 43.8961 75.682H41.8961C41.8961 78.0559 42.5441 80.0151 44.1359 81.3453C45.6873 82.6418 47.9506 83.18 50.8161 83.18V81.18ZM43.8961 75.682V69.4H41.8961V75.682H43.8961ZM42.8961 70.4H47.5761V68.4H42.8961V70.4ZM46.5761 69.4V75.682H48.5761V69.4H46.5761ZM46.5761 75.682C46.5761 76.4488 46.7084 77.4164 47.4563 78.1644C48.1958 78.9039 49.3278 79.22 50.8161 79.22V77.22C49.5505 77.22 49.0625 76.9421 48.8705 76.7501C48.6869 76.5666 48.5761 76.2652 48.5761 75.682H46.5761ZM50.8161 79.22C52.3084 79.22 53.4395 78.8976 54.1777 78.1559C54.9228 77.4072 55.0561 76.4425 55.0561 75.682H53.0561C53.0561 76.2535 52.9465 76.5578 52.7601 76.7451C52.5667 76.9394 52.0779 77.22 50.8161 77.22V79.22ZM55.0561 75.682V69.4H53.0561V75.682H55.0561ZM54.0561 70.4H58.7361V68.4H54.0561V70.4ZM57.7361 69.4V75.682H59.7361V69.4H57.7361ZM59.2747 77.554V76.554H58.2747V77.554H59.2747ZM63.9547 77.554H64.9547V76.554H63.9547V77.554ZM67.3207 77.23L67.2891 78.2295L67.2903 78.2295L67.3207 77.23ZM74.8267 73.63V74.63H75.8267V73.63H74.8267ZM70.1467 73.63H69.1467V74.63H70.1467V73.63ZM67.3207 73.99L67.3605 72.9908L67.3602 72.9908L67.3207 73.99ZM59.2747 78.554H63.9547V76.554H59.2747V78.554ZM62.9547 77.554C62.9547 77.876 63.0356 78.2556 63.3118 78.5991C63.571 78.9215 63.9254 79.1152 64.2842 79.2406C64.9731 79.4812 66.0097 79.58 67.5007 79.58V77.58C66.0218 77.58 65.2853 77.4718 64.9438 77.3524C64.7873 77.2978 64.8121 77.2732 64.8705 77.3459C64.9459 77.4397 64.9547 77.538 64.9547 77.554H62.9547ZM67.5007 79.58C68.8672 79.58 69.7783 79.5392 70.3574 79.4061C70.6463 79.3396 71.0069 79.2186 71.2882 78.9354C71.6183 78.603 71.6867 78.2098 71.6867 77.932H69.6867C69.6867 77.8882 69.7034 77.693 69.8692 77.526C69.9863 77.4081 70.0702 77.4199 69.9091 77.4569C69.5882 77.5308 68.9063 77.58 67.5007 77.58V79.58ZM71.6867 77.932C71.6867 77.6701 71.6347 77.2482 71.2795 76.8965C70.9801 76.6002 70.5941 76.4905 70.3113 76.4326C69.7338 76.3143 68.7874 76.2743 67.3512 76.2305L67.2903 78.2295C68.8061 78.2757 69.5427 78.3167 69.9101 78.3919C70.0998 78.4308 70.0018 78.446 69.8723 78.3178C69.687 78.1343 69.6867 77.9239 69.6867 77.932H71.6867ZM67.3524 76.2305C64.5054 76.1404 62.7396 75.8584 61.6994 75.342C61.2103 75.0992 60.924 74.824 60.748 74.522C60.5681 74.213 60.4547 73.7917 60.4547 73.18H58.4547C58.4547 74.0353 58.6136 74.8312 59.0198 75.5286C59.43 76.2329 60.0437 76.753 60.8101 77.1335C62.2808 77.8636 64.448 78.1396 67.2891 78.2295L67.3524 76.2305ZM60.4547 73.18C60.4547 72.6581 60.5799 72.2618 60.7904 71.9446C61.0046 71.6216 61.3483 71.319 61.8782 71.0568C62.9688 70.5172 64.7024 70.22 67.1407 70.22V68.22C64.6111 68.22 62.5017 68.5168 60.9912 69.2642C60.2206 69.6455 59.5744 70.1596 59.1237 70.8391C58.6693 71.5242 58.4547 72.3159 58.4547 73.18H60.4547ZM67.1407 70.22C69.5556 70.22 71.2716 70.5187 72.3545 71.0984C72.877 71.378 73.2298 71.7114 73.458 72.0939C73.6864 72.4768 73.8267 72.9711 73.8267 73.63H75.8267C75.8267 72.6779 75.6206 71.8154 75.1757 71.0694C74.7305 70.323 74.0832 69.7552 73.2984 69.3351C71.7668 68.5153 69.6399 68.22 67.1407 68.22V70.22ZM74.8267 72.63H70.1467V74.63H74.8267V72.63ZM71.1467 73.63C71.1467 73.1382 70.9234 72.7204 70.5584 72.4349C70.2454 72.19 69.8649 72.0692 69.5308 71.9975C68.8566 71.8528 67.913 71.82 66.7807 71.82V73.82C67.9344 73.82 68.6739 73.8592 69.1112 73.953C69.3328 74.0005 69.3652 74.0407 69.3261 74.0101C69.235 73.9389 69.1467 73.7888 69.1467 73.63H71.1467ZM66.7807 71.82C65.7125 71.82 64.9307 71.8421 64.4131 71.9595C64.1496 72.0193 63.7997 72.1346 63.5233 72.4181C63.2067 72.7429 63.1347 73.1288 63.1347 73.414H65.1347C65.1347 73.4562 65.119 73.6464 64.9554 73.8142C64.832 73.9407 64.7319 73.938 64.8554 73.91C65.1117 73.8519 65.6529 73.82 66.7807 73.82V71.82ZM63.1347 73.414C63.1347 73.7069 63.2138 74.1454 63.6209 74.4729C63.9278 74.7199 64.3032 74.7943 64.55 74.8322C65.0778 74.9132 65.9633 74.9372 67.2813 74.9892L67.3602 72.9908C65.9422 72.9348 65.2346 72.9138 64.8534 72.8553C64.6458 72.8235 64.7376 72.8045 64.8747 72.9147C65.1119 73.1056 65.1347 73.3641 65.1347 73.414H63.1347ZM67.2809 74.9892C69.8076 75.0899 71.6449 75.2278 72.8553 75.6822C73.4319 75.8987 73.7852 76.1598 74.0023 76.4552C74.2144 76.7438 74.3667 77.1608 74.3667 77.824H76.3667C76.3667 76.8402 76.1343 75.9792 75.614 75.271C75.0987 74.5697 74.3721 74.1153 73.5582 73.8098C71.9876 73.2202 69.8019 73.0881 67.3605 72.9908L67.2809 74.9892ZM74.3667 77.824C74.3667 78.5533 74.2166 79.0679 73.9838 79.447C73.7529 79.8231 73.3943 80.1415 72.8487 80.403C71.7044 80.9516 69.8955 81.18 67.3207 81.18V83.18C69.912 83.18 72.126 82.9674 73.7133 82.2065C74.5334 81.8133 75.2177 81.2597 75.6882 80.4934C76.1569 79.7301 76.3667 78.8317 76.3667 77.824H74.3667ZM67.3207 81.18C64.7424 81.18 62.9456 80.9502 61.8106 80.378C61.2724 80.1067 60.9101 79.7707 60.6721 79.3574C60.43 78.9369 60.2747 78.3631 60.2747 77.554H58.2747C58.2747 78.6169 58.4794 79.5573 58.9388 80.3552C59.4023 81.1603 60.0828 81.7468 60.9103 82.164C62.5069 82.9688 64.733 83.18 67.3207 83.18V81.18ZM87.9678 69.4V68.4H86.9678V69.4H87.9678ZM92.6479 69.4H93.6479V68.4H92.6479V69.4ZM92.6479 82V83H93.6479V82H92.6479ZM87.9678 82H86.9678V83H87.9678V82ZM87.9678 77.68H88.9678V76.68H87.9678V77.68ZM80.5879 77.68V76.68H79.5879V77.68H80.5879ZM80.5879 82V83H81.5879V82H80.5879ZM75.9079 82H74.9079V83H75.9079V82ZM75.9079 69.4V68.4H74.9079V69.4H75.9079ZM80.5879 69.4H81.5879V68.4H80.5879V69.4ZM80.5879 73.72H79.5879V74.72H80.5879V73.72ZM87.9678 73.72V74.72H88.9678V73.72H87.9678ZM87.9678 70.4H92.6479V68.4H87.9678V70.4ZM91.6479 69.4V82H93.6479V69.4H91.6479ZM92.6479 81H87.9678V83H92.6479V81ZM88.9678 82V77.68H86.9678V82H88.9678ZM87.9678 76.68H80.5879V78.68H87.9678V76.68ZM79.5879 77.68V82H81.5879V77.68H79.5879ZM80.5879 81H75.9079V83H80.5879V81ZM76.9079 82V69.4H74.9079V82H76.9079ZM75.9079 70.4H80.5879V68.4H75.9079V70.4ZM79.5879 69.4V73.72H81.5879V69.4H79.5879ZM80.5879 74.72H87.9678V72.72H80.5879V74.72ZM88.9678 73.72V69.4H86.9678V73.72H88.9678ZM112.126 69.4V68.4H111.126V69.4H112.126ZM116.806 69.4H117.806V68.4H116.806V69.4ZM116.806 82V83H117.806V82H116.806ZM110.686 82L109.879 82.5903L110.178 83H110.686V82ZM105.25 74.566L106.057 73.9757L104.25 71.5043V74.566H105.25ZM105.25 82V83H106.25V82H105.25ZM100.57 82H99.57V83H100.57V82ZM100.57 69.4V68.4H99.57V69.4H100.57ZM106.69 69.4L107.497 68.8097L107.198 68.4H106.69V69.4ZM112.126 76.834L111.319 77.4243L113.126 79.8957V76.834H112.126ZM112.126 70.4H116.806V68.4H112.126V70.4ZM115.806 69.4V82H117.806V69.4H115.806ZM116.806 81H110.686V83H116.806V81ZM111.493 81.4097L106.057 73.9757L104.443 75.1563L109.879 82.5903L111.493 81.4097ZM104.25 74.566V82H106.25V74.566H104.25ZM105.25 81H100.57V83H105.25V81ZM101.57 82V69.4H99.57V82H101.57ZM100.57 70.4H106.69V68.4H100.57V70.4ZM105.883 69.9903L111.319 77.4243L112.933 76.2437L107.497 68.8097L105.883 69.9903ZM113.126 76.834V69.4H111.126V76.834H113.126ZM125.097 81.18C122.419 81.18 120.722 80.6652 119.699 79.8107C118.717 78.9899 118.177 77.7001 118.177 75.682H116.177C116.177 78.0559 116.825 80.0151 118.417 81.3453C119.968 82.6418 122.232 83.18 125.097 83.18V81.18ZM118.177 75.682C118.177 73.6742 118.716 72.3944 119.697 71.5801C120.72 70.7309 122.417 70.22 125.097 70.22V68.22C122.233 68.22 119.971 68.7531 118.419 70.0414C116.826 71.3646 116.177 73.3158 116.177 75.682H118.177ZM125.097 70.22C127.766 70.22 129.464 70.7344 130.49 71.5867C131.475 72.4049 132.017 73.6865 132.017 75.682H134.017C134.017 73.3215 133.362 71.3721 131.768 70.0483C130.216 68.7586 127.955 68.22 125.097 68.22V70.22ZM132.017 75.682C132.017 77.6879 131.474 78.9794 130.488 79.804C129.462 80.6617 127.764 81.18 125.097 81.18V83.18C127.956 83.18 130.218 82.6363 131.771 81.3385C133.363 80.0076 134.017 78.0501 134.017 75.682H132.017ZM125.097 79.22C126.589 79.22 127.72 78.8976 128.459 78.1559C129.204 77.4072 129.337 76.4425 129.337 75.682H127.337C127.337 76.2535 127.227 76.5578 127.041 76.7451C126.848 76.9394 126.359 77.22 125.097 77.22V79.22ZM129.337 75.682C129.337 74.9341 129.21 73.9736 128.462 73.2294C127.724 72.4953 126.593 72.18 125.097 72.18V74.18C126.373 74.18 126.862 74.4587 127.051 74.6471C127.23 74.8254 127.337 75.1159 127.337 75.682H129.337ZM125.097 72.18C123.605 72.18 122.473 72.4891 121.734 73.221C120.983 73.9643 120.857 74.9279 120.857 75.682H122.857C122.857 75.1041 122.965 74.8167 123.141 74.642C123.329 74.4559 123.817 74.18 125.097 74.18V72.18ZM120.857 75.682C120.857 76.4488 120.989 77.4164 121.737 78.1644C122.477 78.9039 123.609 79.22 125.097 79.22V77.22C123.831 77.22 123.343 76.9421 123.151 76.7501C122.968 76.5666 122.857 76.2652 122.857 75.682H120.857ZM153.606 69.4V68.4H152.857L152.646 69.1184L153.606 69.4ZM158.628 69.4L159.578 69.7122L160.009 68.4H158.628V69.4ZM154.488 82V83H155.212L155.438 82.3122L154.488 82ZM147.54 82L146.578 82.2744L146.785 83H147.54V82ZM145.47 74.746L146.431 74.4716L145.47 71.1018L144.508 74.4716L145.47 74.746ZM143.4 82V83H144.154L144.361 82.2744L143.4 82ZM136.452 82L135.502 82.3122L135.728 83H136.452V82ZM132.312 69.4V68.4H130.931L131.362 69.7122L132.312 69.4ZM137.334 69.4L138.293 69.1184L138.083 68.4H137.334V69.4ZM139.944 78.292L138.984 78.5736L139.921 81.7657L140.9 78.5861L139.944 78.292ZM142.68 69.4V68.4H141.941L141.724 69.1059L142.68 69.4ZM148.26 69.4L149.216 69.1059L148.998 68.4H148.26V69.4ZM150.996 78.292L150.04 78.5861L151.018 81.7657L151.955 78.5736L150.996 78.292ZM153.606 70.4H158.628V68.4H153.606V70.4ZM157.678 69.0878L153.538 81.6878L155.438 82.3122L159.578 69.7122L157.678 69.0878ZM154.488 81H147.54V83H154.488V81ZM148.501 81.7256L146.431 74.4716L144.508 75.0204L146.578 82.2744L148.501 81.7256ZM144.508 74.4716L142.438 81.7256L144.361 82.2744L146.431 75.0204L144.508 74.4716ZM143.4 81H136.452V83H143.4V81ZM137.402 81.6878L133.262 69.0878L131.362 69.7122L135.502 82.3122L137.402 81.6878ZM132.312 70.4H137.334V68.4H132.312V70.4ZM136.374 69.6816L138.984 78.5736L140.903 78.0104L138.293 69.1184L136.374 69.6816ZM140.9 78.5861L143.636 69.6941L141.724 69.1059L138.988 77.9979L140.9 78.5861ZM142.68 70.4H148.26V68.4H142.68V70.4ZM147.304 69.6941L150.04 78.5861L151.952 77.9979L149.216 69.1059L147.304 69.6941ZM151.955 78.5736L154.565 69.6816L152.646 69.1184L150.036 78.0104L151.955 78.5736Z" fill="white" mask="url(#path-5-outside-2_39_3543)"/>
<mask id="path-7-outside-3_39_3543" maskUnits="userSpaceOnUse" x="25" y="98" width="125" height="15" fill="black">
<rect fill="white" x="25" y="98" width="125" height="15"/>
<path d="M45.1404 99.4V112H40.4604V106.006L37.0224 112H33.9624L30.5244 106.006V112H25.8444V99.4H31.6044L35.4924 106.6L39.3804 99.4H45.1404ZM50.5459 99.4V112H45.8659V99.4H50.5459ZM62.8183 99.4H67.4983V112H61.3783L55.9423 104.566V112H51.2623V99.4H57.3823L62.8183 106.834V99.4ZM83.5252 99.4V103.36H78.1252V112H73.4452V103.36H68.0452V99.4H83.5252ZM102.826 99.4H107.506V112H101.386L95.9502 104.566V112H91.2702V99.4H97.3902L102.826 106.834V99.4ZM115.797 112.18C110.253 112.18 107.877 110.074 107.877 105.682C107.877 101.308 110.253 99.22 115.797 99.22C121.323 99.22 123.717 101.326 123.717 105.682C123.717 110.056 121.323 112.18 115.797 112.18ZM115.797 108.22C118.551 108.22 119.037 107.014 119.037 105.682C119.037 104.368 118.569 103.18 115.797 103.18C113.025 103.18 112.557 104.35 112.557 105.682C112.557 107.032 113.043 108.22 115.797 108.22ZM144.306 99.4H149.328L145.188 112H138.24L136.17 104.746L134.1 112H127.152L123.012 99.4H128.034L130.644 108.292L133.38 99.4H138.96L141.696 108.292L144.306 99.4Z"/>
</mask>
<path d="M45.1404 99.4V112H40.4604V106.006L37.0224 112H33.9624L30.5244 106.006V112H25.8444V99.4H31.6044L35.4924 106.6L39.3804 99.4H45.1404ZM50.5459 99.4V112H45.8659V99.4H50.5459ZM62.8183 99.4H67.4983V112H61.3783L55.9423 104.566V112H51.2623V99.4H57.3823L62.8183 106.834V99.4ZM83.5252 99.4V103.36H78.1252V112H73.4452V103.36H68.0452V99.4H83.5252ZM102.826 99.4H107.506V112H101.386L95.9502 104.566V112H91.2702V99.4H97.3902L102.826 106.834V99.4ZM115.797 112.18C110.253 112.18 107.877 110.074 107.877 105.682C107.877 101.308 110.253 99.22 115.797 99.22C121.323 99.22 123.717 101.326 123.717 105.682C123.717 110.056 121.323 112.18 115.797 112.18ZM115.797 108.22C118.551 108.22 119.037 107.014 119.037 105.682C119.037 104.368 118.569 103.18 115.797 103.18C113.025 103.18 112.557 104.35 112.557 105.682C112.557 107.032 113.043 108.22 115.797 108.22ZM144.306 99.4H149.328L145.188 112H138.24L136.17 104.746L134.1 112H127.152L123.012 99.4H128.034L130.644 108.292L133.38 99.4H138.96L141.696 108.292L144.306 99.4Z" fill="white"/>
<path d="M45.1404 99.4H45.5404V99H45.1404V99.4ZM45.1404 112V112.4H45.5404V112H45.1404ZM40.4604 112H40.0604V112.4H40.4604V112ZM40.4604 106.006H40.8604V104.505L40.1134 105.807L40.4604 106.006ZM37.0224 112V112.4H37.2541L37.3694 112.199L37.0224 112ZM33.9624 112L33.6154 112.199L33.7307 112.4H33.9624V112ZM30.5244 106.006L30.8714 105.807L30.1244 104.505V106.006H30.5244ZM30.5244 112V112.4H30.9244V112H30.5244ZM25.8444 112H25.4444V112.4H25.8444V112ZM25.8444 99.4V99H25.4444V99.4H25.8444ZM31.6044 99.4L31.9563 99.2099L31.843 99H31.6044V99.4ZM35.4924 106.6L35.1404 106.79L35.4924 107.442L35.8443 106.79L35.4924 106.6ZM39.3804 99.4V99H39.1418L39.0284 99.2099L39.3804 99.4ZM44.7404 99.4V112H45.5404V99.4H44.7404ZM45.1404 111.6H40.4604V112.4H45.1404V111.6ZM40.8604 112V106.006H40.0604V112H40.8604ZM40.1134 105.807L36.6754 111.801L37.3694 112.199L40.8074 106.205L40.1134 105.807ZM37.0224 111.6H33.9624V112.4H37.0224V111.6ZM34.3094 111.801L30.8714 105.807L30.1774 106.205L33.6154 112.199L34.3094 111.801ZM30.1244 106.006V112H30.9244V106.006H30.1244ZM30.5244 111.6H25.8444V112.4H30.5244V111.6ZM26.2444 112V99.4H25.4444V112H26.2444ZM25.8444 99.8H31.6044V99H25.8444V99.8ZM31.2524 99.5901L35.1404 106.79L35.8443 106.41L31.9563 99.2099L31.2524 99.5901ZM35.8443 106.79L39.7323 99.5901L39.0284 99.2099L35.1404 106.41L35.8443 106.79ZM39.3804 99.8H45.1404V99H39.3804V99.8ZM50.5459 99.4H50.9459V99H50.5459V99.4ZM50.5459 112V112.4H50.9459V112H50.5459ZM45.8659 112H45.4659V112.4H45.8659V112ZM45.8659 99.4V99H45.4659V99.4H45.8659ZM50.1459 99.4V112H50.9459V99.4H50.1459ZM50.5459 111.6H45.8659V112.4H50.5459V111.6ZM46.2659 112V99.4H45.4659V112H46.2659ZM45.8659 99.8H50.5459V99H45.8659V99.8ZM62.8183 99.4V99H62.4183V99.4H62.8183ZM67.4983 99.4H67.8983V99H67.4983V99.4ZM67.4983 112V112.4H67.8983V112H67.4983ZM61.3783 112L61.0555 112.236L61.1753 112.4H61.3783V112ZM55.9423 104.566L56.2652 104.33L55.5423 103.341V104.566H55.9423ZM55.9423 112V112.4H56.3423V112H55.9423ZM51.2623 112H50.8623V112.4H51.2623V112ZM51.2623 99.4V99H50.8623V99.4H51.2623ZM57.3823 99.4L57.7052 99.1639L57.5854 99H57.3823V99.4ZM62.8183 106.834L62.4955 107.07L63.2183 108.059V106.834H62.8183ZM62.8183 99.8H67.4983V99H62.8183V99.8ZM67.0983 99.4V112H67.8983V99.4H67.0983ZM67.4983 111.6H61.3783V112.4H67.4983V111.6ZM61.7012 111.764L56.2652 104.33L55.6195 104.802L61.0555 112.236L61.7012 111.764ZM55.5423 104.566V112H56.3423V104.566H55.5423ZM55.9423 111.6H51.2623V112.4H55.9423V111.6ZM51.6623 112V99.4H50.8623V112H51.6623ZM51.2623 99.8H57.3823V99H51.2623V99.8ZM57.0595 99.6361L62.4955 107.07L63.1412 106.598L57.7052 99.1639L57.0595 99.6361ZM63.2183 106.834V99.4H62.4183V106.834H63.2183ZM83.5252 99.4H83.9252V99H83.5252V99.4ZM83.5252 103.36V103.76H83.9252V103.36H83.5252ZM78.1252 103.36V102.96H77.7252V103.36H78.1252ZM78.1252 112V112.4H78.5252V112H78.1252ZM73.4452 112H73.0452V112.4H73.4452V112ZM73.4452 103.36H73.8452V102.96H73.4452V103.36ZM68.0452 103.36H67.6452V103.76H68.0452V103.36ZM68.0452 99.4V99H67.6452V99.4H68.0452ZM83.1252 99.4V103.36H83.9252V99.4H83.1252ZM83.5252 102.96H78.1252V103.76H83.5252V102.96ZM77.7252 103.36V112H78.5252V103.36H77.7252ZM78.1252 111.6H73.4452V112.4H78.1252V111.6ZM73.8452 112V103.36H73.0452V112H73.8452ZM73.4452 102.96H68.0452V103.76H73.4452V102.96ZM68.4452 103.36V99.4H67.6452V103.36H68.4452ZM68.0452 99.8H83.5252V99H68.0452V99.8ZM102.826 99.4V99H102.426V99.4H102.826ZM107.506 99.4H107.906V99H107.506V99.4ZM107.506 112V112.4H107.906V112H107.506ZM101.386 112L101.063 112.236L101.183 112.4H101.386V112ZM95.9502 104.566L96.273 104.33L95.5502 103.341V104.566H95.9502ZM95.9502 112V112.4H96.3502V112H95.9502ZM91.2702 112H90.8702V112.4H91.2702V112ZM91.2702 99.4V99H90.8702V99.4H91.2702ZM97.3902 99.4L97.713 99.1639L97.5932 99H97.3902V99.4ZM102.826 106.834L102.503 107.07L103.226 108.059V106.834H102.826ZM102.826 99.8H107.506V99H102.826V99.8ZM107.106 99.4V112H107.906V99.4H107.106ZM107.506 111.6H101.386V112.4H107.506V111.6ZM101.709 111.764L96.273 104.33L95.6273 104.802L101.063 112.236L101.709 111.764ZM95.5502 104.566V112H96.3502V104.566H95.5502ZM95.9502 111.6H91.2702V112.4H95.9502V111.6ZM91.6702 112V99.4H90.8702V112H91.6702ZM91.2702 99.8H97.3902V99H91.2702V99.8ZM97.0673 99.6361L102.503 107.07L103.149 106.598L97.713 99.1639L97.0673 99.6361ZM103.226 106.834V99.4H102.426V106.834H103.226ZM115.797 111.78C113.063 111.78 111.196 111.258 110.015 110.271C108.85 109.297 108.277 107.807 108.277 105.682H107.477C107.477 107.949 108.093 109.708 109.502 110.885C110.895 112.049 112.988 112.58 115.797 112.58V111.78ZM108.277 105.682C108.277 103.567 108.849 102.085 110.014 101.118C111.195 100.138 113.062 99.62 115.797 99.62V98.82C112.988 98.82 110.895 99.3464 109.503 100.503C108.093 101.674 107.477 103.423 107.477 105.682H108.277ZM115.797 99.62C118.522 99.62 120.39 100.142 121.574 101.125C122.741 102.095 123.317 103.577 123.317 105.682H124.117C124.117 103.431 123.496 101.682 122.085 100.51C120.691 99.3513 118.598 98.82 115.797 98.82V99.62ZM123.317 105.682C123.317 107.797 122.741 109.288 121.573 110.264C120.389 111.254 118.522 111.78 115.797 111.78V112.58C118.599 112.58 120.692 112.044 122.086 110.878C123.496 109.699 124.117 107.941 124.117 105.682H123.317ZM115.797 108.62C117.22 108.62 118.159 108.31 118.734 107.733C119.311 107.152 119.437 106.386 119.437 105.682H118.637C118.637 106.31 118.521 106.813 118.166 107.168C117.81 107.527 117.128 107.82 115.797 107.82V108.62ZM119.437 105.682C119.437 104.989 119.316 104.229 118.739 103.655C118.166 103.084 117.227 102.78 115.797 102.78V103.58C117.139 103.58 117.821 103.87 118.175 104.222C118.524 104.57 118.637 105.061 118.637 105.682H119.437ZM115.797 102.78C114.369 102.78 113.43 103.079 112.856 103.647C112.278 104.22 112.157 104.981 112.157 105.682H112.957C112.957 105.051 113.071 104.561 113.419 104.216C113.773 103.866 114.454 103.58 115.797 103.58V102.78ZM112.157 105.682C112.157 106.394 112.283 107.161 112.862 107.74C113.437 108.315 114.376 108.62 115.797 108.62V107.82C114.465 107.82 113.784 107.531 113.427 107.174C113.074 106.822 112.957 106.32 112.957 105.682H112.157ZM144.306 99.4V99H144.007L143.922 99.2873L144.306 99.4ZM149.328 99.4L149.708 99.5249L149.881 99H149.328V99.4ZM145.188 112V112.4H145.478L145.568 112.125L145.188 112ZM138.24 112L137.855 112.11L137.938 112.4H138.24V112ZM136.17 104.746L136.555 104.636L136.17 103.288L135.785 104.636L136.17 104.746ZM134.1 112V112.4H134.402L134.485 112.11L134.1 112ZM127.152 112L126.772 112.125L126.862 112.4H127.152V112ZM123.012 99.4V99H122.46L122.632 99.5249L123.012 99.4ZM128.034 99.4L128.418 99.2873L128.333 99H128.034V99.4ZM130.644 108.292L130.26 108.405L130.635 109.681L131.026 108.41L130.644 108.292ZM133.38 99.4V99H133.085L132.998 99.2824L133.38 99.4ZM138.96 99.4L139.342 99.2824L139.255 99H138.96V99.4ZM141.696 108.292L141.314 108.41L141.705 109.681L142.08 108.405L141.696 108.292ZM144.306 99.8H149.328V99H144.306V99.8ZM148.948 99.2751L144.808 111.875L145.568 112.125L149.708 99.5249L148.948 99.2751ZM145.188 111.6H138.24V112.4H145.188V111.6ZM138.625 111.89L136.555 104.636L135.785 104.856L137.855 112.11L138.625 111.89ZM135.785 104.636L133.715 111.89L134.485 112.11L136.555 104.856L135.785 104.636ZM134.1 111.6H127.152V112.4H134.1V111.6ZM127.532 111.875L123.392 99.2751L122.632 99.5249L126.772 112.125L127.532 111.875ZM123.012 99.8H128.034V99H123.012V99.8ZM127.65 99.5127L130.26 108.405L131.028 108.179L128.418 99.2873L127.65 99.5127ZM131.026 108.41L133.762 99.5176L132.998 99.2824L130.262 108.174L131.026 108.41ZM133.38 99.8H138.96V99H133.38V99.8ZM138.578 99.5176L141.314 108.41L142.078 108.174L139.342 99.2824L138.578 99.5176ZM142.08 108.405L144.69 99.5127L143.922 99.2873L141.312 108.179L142.08 108.405Z" fill="black" mask="url(#path-7-outside-3_39_3543)"/>
<path d="M45.1404 129.4V142H40.4604V136.006L37.0224 142H33.9624L30.5244 136.006V142H25.8444V129.4H31.6044L35.4924 136.6L39.3804 129.4H45.1404ZM50.5459 129.4V142H45.8659V129.4H50.5459ZM62.8183 129.4H67.4983V142H61.3783L55.9423 134.566V142H51.2623V129.4H57.3823L62.8183 136.834V129.4ZM83.5252 129.4V133.36H78.1252V142H73.4452V133.36H68.0452V129.4H83.5252ZM102.826 129.4H107.506V142H101.386L95.9502 134.566V142H91.2702V129.4H97.3902L102.826 136.834V129.4ZM115.797 142.18C110.253 142.18 107.877 140.074 107.877 135.682C107.877 131.308 110.253 129.22 115.797 129.22C121.323 129.22 123.717 131.326 123.717 135.682C123.717 140.056 121.323 142.18 115.797 142.18ZM115.797 138.22C118.551 138.22 119.037 137.014 119.037 135.682C119.037 134.368 118.569 133.18 115.797 133.18C113.025 133.18 112.557 134.35 112.557 135.682C112.557 137.032 113.043 138.22 115.797 138.22ZM144.306 129.4H149.328L145.188 142H138.24L136.17 134.746L134.1 142H127.152L123.012 129.4H128.034L130.644 138.292L133.38 129.4H138.96L141.696 138.292L144.306 129.4Z" fill="white" fill-opacity="0.27"/>
<path d="M45.1404 9.4V22H40.4604V16.006L37.0224 22H33.9624L30.5244 16.006V22H25.8444V9.4H31.6044L35.4924 16.6L39.3804 9.4H45.1404ZM50.5459 9.4V22H45.8659V9.4H50.5459ZM62.8183 9.4H67.4983V22H61.3783L55.9423 14.566V22H51.2623V9.4H57.3823L62.8183 16.834V9.4ZM83.5252 9.4V13.36H78.1252V22H73.4452V13.36H68.0452V9.4H83.5252ZM102.826 9.4H107.506V22H101.386L95.9502 14.566V22H91.2702V9.4H97.3902L102.826 16.834V9.4ZM115.797 22.18C110.253 22.18 107.877 20.074 107.877 15.682C107.877 11.308 110.253 9.22 115.797 9.22C121.323 9.22 123.717 11.326 123.717 15.682C123.717 20.056 121.323 22.18 115.797 22.18ZM115.797 18.22C118.551 18.22 119.037 17.014 119.037 15.682C119.037 14.368 118.569 13.18 115.797 13.18C113.025 13.18 112.557 14.35 112.557 15.682C112.557 17.032 113.043 18.22 115.797 18.22ZM144.306 9.4H149.328L145.188 22H138.24L136.17 14.746L134.1 22H127.152L123.012 9.4H128.034L130.644 18.292L133.38 9.4H138.96L141.696 18.292L144.306 9.4Z" fill="white" fill-opacity="0.27"/>
</g>
</svg>
