<svg width="391" height="462" viewBox="0 0 391 462" fill="none" xmlns="http://www.w3.org/2000/svg">
<path d="M388.271 55.7176C389.611 28.3656 363.689 7.78599 337.353 15.2937L32.2115 102.284C13.573 107.597 1.42523 125.508 3.38232 144.79L31.9287 426.039C34.0015 446.462 51.1969 462 71.7242 462H330.287C351.617 462 369.195 445.262 370.239 423.956L388.271 55.7176Z" fill="#00FFA3"/>
<mask id="mask0_137_2109" style="mask-type:alpha" maskUnits="userSpaceOnUse" x="21" y="35" width="350" height="405">
<path d="M369.718 77.6519C371.045 50.6536 345.471 30.3293 319.469 37.7179L50.441 114.165C32.0142 119.402 20.0005 137.105 21.9412 156.163L47.1778 404.001C49.2308 424.163 66.2088 439.5 86.4746 439.5H314.334C335.396 439.5 352.753 422.975 353.787 401.938L369.718 77.6519Z" fill="black" stroke="black"/>
</mask>
<g mask="url(#mask0_137_2109)">
<path d="M369.718 77.6519C371.045 50.6536 345.471 30.3293 319.469 37.7179L50.441 114.165C32.0142 119.402 20.0005 137.105 21.9412 156.163L47.1778 404.001C49.2308 424.163 66.2088 439.5 86.4746 439.5H314.334C335.396 439.5 352.753 422.975 353.787 401.938L369.718 77.6519Z" fill="black" stroke="black"/>
<path d="M104.54 255.41C103.943 251.512 105.834 249.038 111.009 248.245C115.698 247.526 118.323 248.947 119.146 252.295L116.07 252.766C115.494 250.911 113.919 250.396 111.398 250.782C108.323 251.253 107.196 252.544 107.565 254.947C107.935 257.366 109.416 258.275 112.474 257.806C114.978 257.423 116.341 256.44 116.333 254.48L119.408 254.009C119.628 257.467 117.551 259.625 112.863 260.344C107.687 261.136 105.14 259.325 104.54 255.41ZM128.46 247.48C131.099 247.076 133.713 247.639 134.305 251.28L135.111 256.763L132.221 257.206L131.549 252.82C131.227 250.72 130.354 249.736 127.984 250.099C126.052 250.395 124.12 251.705 123.389 252.884L124.239 258.429L121.365 258.869L119.306 245.426L122.179 244.986L122.987 250.262C124.229 248.937 126.057 247.848 128.46 247.48ZM143.028 255.722C138.928 256.35 135.946 255.294 135.39 251.664C134.831 248.018 137.361 246.117 141.461 245.489C145.544 244.863 148.543 245.917 149.102 249.563C149.658 253.193 147.112 255.097 143.028 255.722ZM142.66 253.319C145.315 252.912 146.526 252.056 146.212 250.006C145.895 247.939 144.484 247.485 141.829 247.892C139.157 248.301 137.947 249.157 138.263 251.224C138.577 253.274 139.989 253.729 142.66 253.319ZM157.568 253.495C153.468 254.123 150.485 253.066 149.929 249.437C149.371 245.79 151.9 243.889 156 243.261C160.083 242.636 163.083 243.69 163.641 247.336C164.197 250.966 161.651 252.869 157.568 253.495ZM157.2 251.092C159.855 250.685 161.065 249.829 160.751 247.779C160.434 245.712 159.023 245.257 156.368 245.664C153.696 246.073 152.486 246.93 152.803 248.997C153.117 251.047 154.528 251.501 157.2 251.092ZM164.512 248.699L167.385 248.259C167.548 249.317 168.702 249.553 171.911 249.062C175.02 248.585 175.493 248.306 175.375 247.533C175.259 246.777 174.781 246.799 171.269 247.113C166.878 247.528 164.692 247.519 164.327 245.133C163.93 242.545 166.88 241.594 170.409 241.054C174.14 240.482 176.92 240.555 177.337 243.277L174.447 243.72C174.32 242.897 173.248 242.855 170.576 243.264C167.854 243.681 167.112 244.001 167.199 244.572C167.294 245.194 167.831 245.215 171.281 244.945C175.189 244.638 177.843 244.335 178.247 246.973C178.674 249.762 176.228 250.636 172.414 251.22C168.599 251.805 164.996 251.858 164.512 248.699ZM185.907 246.763C187.89 246.459 189.043 245.904 189.612 244.785L192.468 244.347C192.199 246.968 189.928 248.537 186.265 249.098C182.501 249.675 179.351 248.644 178.795 245.015C178.236 241.368 180.849 239.454 184.865 238.839C188.63 238.262 191.836 239.095 192.526 243.599L181.838 245.236C182.4 246.767 183.992 247.056 185.907 246.763ZM185.183 241.026C183.217 241.327 181.899 241.925 181.658 243.389L189.17 242.238C188.469 240.918 186.998 240.748 185.183 241.026ZM211.744 234.893L214.92 234.407L210.391 249.53L207.216 250.016L208.572 245.509L207.093 245.736L200.451 236.623L203.644 236.134L209.13 243.652L211.744 234.893ZM222.798 243.502C218.698 244.13 215.715 243.073 215.159 239.443C214.601 235.797 217.13 233.896 221.23 233.268C225.314 232.642 228.313 233.696 228.871 237.343C229.427 240.972 226.881 242.876 222.798 243.502ZM222.43 241.099C225.085 240.692 226.295 239.836 225.981 237.786C225.664 235.719 224.253 235.264 221.598 235.671C218.927 236.08 217.716 236.936 218.033 239.003C218.347 241.053 219.758 241.508 222.43 241.099ZM240.095 230.55L242.968 230.11L244.485 240.007L241.611 240.447L241.346 238.717C240.104 240.042 238.276 241.13 235.873 241.498C233.235 241.903 230.62 241.34 230.028 237.699L229.223 232.215L232.113 231.773L232.785 236.158C233.107 238.259 233.98 239.243 236.349 238.88C238.281 238.584 240.213 237.273 240.944 236.095L240.095 230.55ZM252.242 228.517C253.418 228.337 254.267 228.379 254.965 228.444L255.333 230.847C254.356 230.756 253.585 230.771 252.745 230.899C251.131 231.146 249.34 231.799 247.801 233.428L248.709 239.36L245.836 239.8L244.32 229.903L247.193 229.462L247.45 231.143C248.726 229.589 250.394 228.8 252.242 228.517ZM264.625 232.777L267.649 232.313C267.84 233.557 268.936 233.974 272.767 233.387C275.943 232.9 276.847 232.401 276.705 231.477C276.556 230.502 275.858 230.437 272.015 230.836C266.854 231.386 264.697 230.891 264.293 228.253C263.896 225.665 266.408 224.438 270.811 223.763C275.247 223.083 278.106 223.781 278.551 226.688L275.526 227.151C275.328 225.857 273.985 225.736 270.843 226.218C267.869 226.673 267.207 227.067 267.341 227.941C267.48 228.848 268.211 228.908 271.67 228.585C276.347 228.126 279.259 227.938 279.714 230.912C280.196 234.055 277.319 235.149 272.967 235.816C268.144 236.554 265.145 236.171 264.625 232.777ZM288.077 233.501C283.977 234.129 280.995 233.072 280.439 229.443C279.88 225.796 282.409 223.895 286.51 223.267C290.593 222.642 293.592 223.695 294.151 227.342C294.707 230.972 292.161 232.875 288.077 233.501ZM287.709 231.098C290.364 230.691 291.575 229.835 291.261 227.785C290.944 225.718 289.533 225.263 286.878 225.67C284.206 226.079 282.996 226.936 283.312 229.002C283.626 231.053 285.037 231.507 287.709 231.098ZM293.942 218.672L296.815 218.231L298.875 231.675L296.001 232.115L293.942 218.672ZM305.316 220.386C309.45 219.753 312.006 220.72 312.614 224.462L313.378 229.453L310.488 229.895L310.3 228.669C308.684 229.793 306.834 230.627 304.498 230.985C301.725 231.41 299.858 230.784 299.516 228.549C299.122 225.978 301.821 224.739 304.964 224.258C306.661 223.998 308.265 224.027 309.626 224.266C309.337 222.384 306.894 222.604 305.55 222.809C304.256 223.008 302.695 223.367 300.754 224.284L299.407 222.34C301.323 221.376 303.249 220.703 305.316 220.386ZM310.017 226.82L309.899 226.047C308.841 225.882 307.437 225.805 305.605 226.086C303.454 226.415 302.217 226.983 302.371 227.992C302.531 229.033 303.501 228.971 304.997 228.742C306.56 228.502 308.636 227.685 310.017 226.82ZM321.755 217.867C324.393 217.463 327.008 218.026 327.6 221.667L328.405 227.15L325.515 227.593L324.843 223.207C324.521 221.107 323.648 220.123 321.279 220.486C319.347 220.782 317.415 222.092 316.684 223.271L317.533 228.816L314.66 229.256L313.143 219.359L316.017 218.919L316.282 220.649C317.524 219.324 319.352 218.236 321.755 217.867ZM334.789 215.871C338.923 215.237 341.479 216.205 342.086 219.947L342.851 224.937L339.961 225.38L339.773 224.154C338.156 225.278 336.306 226.112 333.971 226.47C331.198 226.895 329.331 226.269 328.988 224.034C328.594 221.463 331.294 220.224 334.436 219.743C336.133 219.483 337.737 219.512 339.098 219.751C338.81 217.869 336.367 218.088 335.023 218.294C333.729 218.492 332.167 218.852 330.227 219.769L328.88 217.825C330.796 216.861 332.722 216.187 334.789 215.871ZM339.49 222.305L339.371 221.532C338.314 221.367 336.909 221.29 335.077 221.571C332.927 221.9 331.689 222.468 331.844 223.476C332.003 224.518 332.974 224.456 334.47 224.226C336.032 223.987 338.109 223.17 339.49 222.305ZM143.163 265.633L146.372 265.141L143.436 275.721L139.604 276.308L135.642 269.864L133.79 277.199L129.959 277.786L123.989 268.571L127.199 268.079L131.614 275.228L133.467 267.119L136.895 266.593L141.088 273.759L143.163 265.633ZM152.728 263.996C156.862 263.362 159.418 264.33 160.025 268.072L160.79 273.063L157.9 273.505L157.712 272.279C156.095 273.403 154.245 274.237 151.91 274.595C149.137 275.02 147.27 274.394 146.927 272.159C146.533 269.588 149.233 268.349 152.375 267.868C154.073 267.608 155.676 267.637 157.037 267.876C156.749 265.994 154.306 266.213 152.962 266.419C151.668 266.618 150.106 266.977 148.166 267.894L146.819 265.95C148.735 264.986 150.661 264.312 152.728 263.996ZM157.429 270.43L157.31 269.657C156.253 269.492 154.848 269.415 153.017 269.696C150.866 270.025 149.628 270.593 149.783 271.602C149.942 272.643 150.913 272.581 152.409 272.352C153.971 272.112 156.048 271.295 157.429 270.43ZM160.078 259.413L162.951 258.973L165.011 272.416L162.137 272.856L160.078 259.413ZM164.295 258.767L167.168 258.327L169.228 271.77L166.354 272.21L164.295 258.767ZM176.678 268.41C178.661 268.106 179.814 267.551 180.382 266.432L183.239 265.995C182.969 268.616 180.699 270.184 177.035 270.746C173.271 271.322 170.121 270.292 169.565 266.662C169.006 263.015 171.62 261.102 175.636 260.486C179.4 259.91 182.606 260.743 183.296 265.246L172.609 266.884C173.17 268.414 174.762 268.703 176.678 268.41ZM175.954 262.673C173.988 262.975 172.669 263.572 172.429 265.036L179.94 263.886C179.239 262.566 177.768 262.395 175.954 262.673ZM193.191 260.428L188.502 261.147L188.94 264.003C189.233 265.919 189.678 266.35 191.425 266.082C192.333 265.943 192.837 265.866 193.971 265.52L194.326 267.839C193.394 268.154 192.314 268.405 190.987 268.608C188.433 269 186.639 268.294 186.304 266.11L185.612 261.589L183.007 261.988L182.639 259.585L185.244 259.186L184.93 257.136L187.694 255.87L188.134 258.744L192.822 258.025L193.191 260.428ZM195.269 265.476L198.142 265.036L198.487 267.287L197.633 270.806L196.255 271.017L196.605 267.576L195.614 267.728L195.269 265.476ZM213.293 253.255C211.646 253.508 211.28 253.925 211.42 255.176L215.604 254.535L215.972 256.938L211.788 257.579L212.936 265.074L210.046 265.516L208.898 258.022L206.293 258.421L205.925 256.018L208.53 255.619L208.416 254.88C208.108 252.863 209.171 251.72 212.061 251.277C213.052 251.125 213.573 251.045 215.061 250.99L215.373 253.023C214.709 253.073 214.032 253.142 213.293 253.255ZM227.583 252.7L230.457 252.26L231.973 262.157L229.099 262.597L228.834 260.867C227.593 262.192 225.764 263.28 223.361 263.649C220.723 264.053 218.109 263.49 217.517 259.849L216.711 254.366L219.601 253.923L220.273 258.309C220.595 260.409 221.468 261.393 223.837 261.03C225.77 260.734 227.702 259.424 228.433 258.245L227.583 252.7ZM240.419 250.561C243.058 250.157 245.672 250.72 246.264 254.361L247.07 259.844L244.179 260.287L243.508 255.901C243.186 253.801 242.313 252.817 239.943 253.18C238.011 253.476 236.079 254.786 235.348 255.965L236.198 261.51L233.324 261.95L231.808 252.053L234.681 251.613L234.946 253.343C236.188 252.018 238.016 250.93 240.419 250.561ZM256.885 244.582L259.758 244.142L261.818 257.585L258.944 258.025L258.707 256.479C257.804 257.77 256.164 258.623 254.03 258.95C250.854 259.437 247.928 258.526 247.349 254.745C246.77 250.964 249.286 249.203 252.462 248.717C254.596 248.39 256.417 248.713 257.665 249.674L256.885 244.582ZM254.619 256.4C257.19 256.007 258.486 255.034 258.187 253.085C257.886 251.119 256.359 250.579 253.788 250.973C251.217 251.367 249.938 252.337 250.239 254.303C250.538 256.252 252.048 256.794 254.619 256.4ZM268.877 242.745L271.75 242.305L272.134 244.809L269.26 245.249L268.877 242.745ZM269.42 246.291L272.293 245.85L273.81 255.748L270.936 256.188L269.42 246.291ZM283.84 246.541L279.152 247.259L279.589 250.116C279.883 252.031 280.327 252.462 282.075 252.194C282.982 252.055 283.486 251.978 284.62 251.632L284.975 253.951C284.043 254.266 282.964 254.517 281.636 254.721C279.082 255.112 277.289 254.407 276.954 252.222L276.261 247.702L273.657 248.101L273.289 245.698L275.893 245.299L275.579 243.249L278.343 241.983L278.783 244.856L283.472 244.138L283.84 246.541ZM311.432 239.854L314.642 239.363L311.705 249.942L307.874 250.529L303.911 244.085L302.059 251.42L298.228 252.007L292.259 242.792L295.468 242.3L299.883 249.449L301.736 241.34L305.164 240.815L309.358 247.98L311.432 239.854ZM314.825 235.706L317.698 235.265L318.082 237.769L315.208 238.209L314.825 235.706ZM315.368 239.251L318.242 238.811L319.758 248.709L316.884 249.149L315.368 239.251ZM329.788 239.501L325.1 240.22L325.538 243.076C325.831 244.992 326.275 245.423 328.023 245.155C328.93 245.016 329.435 244.939 330.568 244.593L330.924 246.912C329.991 247.227 328.912 247.478 327.585 247.682C325.03 248.073 323.237 247.367 322.902 245.183L322.21 240.663L319.605 241.062L319.237 238.659L321.842 238.26L321.527 236.209L324.292 234.943L324.732 237.817L329.42 237.099L329.788 239.501ZM339.208 235.427C341.846 235.023 344.461 235.585 345.053 239.227L345.859 244.71L342.968 245.153L342.296 240.767C341.975 238.666 341.101 237.682 338.732 238.045C336.8 238.341 334.868 239.652 334.137 240.83L334.986 246.376L332.113 246.816L330.053 233.373L332.927 232.932L333.735 238.209C334.977 236.884 336.805 235.795 339.208 235.427ZM68.2909 302.41C67.7323 298.764 70.2616 296.863 74.3618 296.235C78.0586 295.668 80.8486 296.479 81.7645 299.314L78.8238 299.765C78.2417 298.547 76.8136 298.319 74.7299 298.638C72.2597 299.016 70.8478 299.903 71.1644 301.97C71.4785 304.02 73.0912 304.444 75.5614 304.065C77.6451 303.746 78.9393 303.101 79.1301 301.765L82.0708 301.314C82.0457 304.293 79.6264 305.902 75.9296 306.468C71.8294 307.097 68.847 306.04 68.2909 302.41ZM90.1778 293.812C91.3541 293.632 92.2032 293.674 92.9011 293.739L93.2693 296.142C92.2922 296.05 91.5206 296.065 90.6804 296.194C89.0672 296.441 87.2754 297.094 85.7363 298.723L86.6451 304.655L83.7716 305.095L82.2553 295.198L85.1288 294.757L85.3862 296.438C86.6616 294.884 88.3294 294.095 90.1778 293.812ZM104.785 291.746L107.96 291.26L103.432 306.383L100.256 306.869L101.613 302.362L100.134 302.588L93.4923 293.476L96.685 292.987L102.171 300.505L104.785 291.746ZM116.464 289.785C119.656 289.296 122.568 290.226 123.147 294.006C123.726 297.787 121.224 299.529 118.031 300.018C115.897 300.345 114.096 300.037 112.848 299.076L113.726 304.806L110.835 305.248L108.676 291.15L111.566 290.707L111.8 292.236C112.706 290.963 114.33 290.112 116.464 289.785ZM116.706 297.762C119.277 297.368 120.572 296.396 120.274 294.447C119.972 292.481 118.445 291.941 115.874 292.335C113.303 292.728 112.024 293.698 112.325 295.664C112.624 297.614 114.134 298.156 116.706 297.762ZM133.368 289.826L128.68 290.545L129.118 293.401C129.411 295.317 129.856 295.748 131.603 295.48C132.511 295.341 133.015 295.264 134.149 294.918L134.504 297.237C133.572 297.552 132.492 297.803 131.165 298.006C128.611 298.398 126.817 297.692 126.482 295.508L125.79 290.987L123.185 291.386L122.817 288.983L125.422 288.584L125.108 286.534L127.872 285.268L128.312 288.142L133 287.423L133.368 289.826ZM142.112 296.329C138.011 296.958 135.029 295.901 134.473 292.271C133.914 288.625 136.444 286.724 140.544 286.096C144.627 285.47 147.626 286.524 148.185 290.171C148.741 293.8 146.195 295.704 142.112 296.329ZM141.743 293.926C144.398 293.52 145.609 292.664 145.295 290.613C144.978 288.547 143.567 288.092 140.912 288.499C138.24 288.908 137.03 289.764 137.346 291.831C137.66 293.881 139.072 294.336 141.743 293.926ZM149.477 292.724L152.351 292.284L152.696 294.536L151.842 298.055L150.464 298.266L150.814 294.824L149.822 294.976L149.477 292.724ZM166.998 282.043C171.131 281.41 173.687 282.377 174.295 286.119L175.06 291.11L172.169 291.553L171.981 290.326C170.365 291.451 168.515 292.284 166.179 292.642C163.407 293.067 161.539 292.442 161.197 290.207C160.803 287.636 163.503 286.397 166.645 285.915C168.342 285.655 169.946 285.685 171.307 285.923C171.019 284.041 168.576 284.261 167.231 284.467C165.937 284.665 164.376 285.024 162.435 285.941L161.088 283.997C163.004 283.033 164.931 282.36 166.998 282.043ZM171.698 288.477L171.58 287.704C170.523 287.54 169.118 287.462 167.286 287.743C165.135 288.073 163.898 288.641 164.052 289.649C164.212 290.691 165.183 290.628 166.678 290.399C168.241 290.159 170.317 289.343 171.698 288.477ZM183.436 279.525C186.074 279.12 188.689 279.683 189.281 283.324L190.087 288.808L187.196 289.25L186.524 284.865C186.203 282.764 185.33 281.78 182.96 282.143C181.028 282.439 179.096 283.75 178.365 284.928L179.214 290.473L176.341 290.913L174.825 281.016L177.698 280.576L177.963 282.306C179.205 280.981 181.033 279.893 183.436 279.525ZM199.902 273.545L202.775 273.105L204.835 286.548L201.961 286.988L201.724 285.442C200.821 286.733 199.181 287.586 197.047 287.913C193.871 288.4 190.945 287.489 190.366 283.709C189.786 279.928 192.303 278.166 195.479 277.68C197.613 277.353 199.434 277.676 200.682 278.637L199.902 273.545ZM197.636 285.364C200.207 284.97 201.503 283.997 201.204 282.048C200.903 280.082 199.376 279.542 196.805 279.936C194.234 280.33 192.955 281.3 193.256 283.266C193.555 285.215 195.065 285.757 197.636 285.364ZM220.141 281.985C222.124 281.681 223.277 281.126 223.845 280.007L226.702 279.569C226.433 282.19 224.162 283.759 220.499 284.32C216.735 284.897 213.584 283.866 213.028 280.237C212.469 276.59 215.083 274.676 219.099 274.061C222.863 273.484 226.069 274.318 226.759 278.821L216.072 280.458C216.633 281.989 218.225 282.278 220.141 281.985ZM219.417 276.248C217.451 276.549 216.132 277.147 215.892 278.611L223.403 277.46C222.702 276.14 221.232 275.97 219.417 276.248ZM235.604 271.533C238.242 271.128 240.856 271.691 241.449 275.332L242.254 280.815L239.364 281.258L238.692 276.872C238.37 274.772 237.497 273.788 235.128 274.151C233.195 274.447 231.264 275.758 230.533 276.936L231.382 282.481L228.509 282.921L226.992 273.024L229.866 272.584L230.131 274.314C231.373 272.989 233.201 271.901 235.604 271.533ZM242.741 277.181L245.614 276.741C245.777 277.799 246.931 278.035 250.14 277.544C253.249 277.067 253.722 276.788 253.604 276.015C253.488 275.259 253.01 275.281 249.498 275.595C245.107 276.01 242.921 276.001 242.556 273.615C242.159 271.027 245.109 270.076 248.638 269.536C252.369 268.964 255.149 269.037 255.566 271.759L252.676 272.202C252.549 271.379 251.477 271.337 248.805 271.746C246.083 272.163 245.341 272.483 245.428 273.054C245.523 273.676 246.06 273.697 249.51 273.427C253.418 273.12 256.072 272.817 256.476 275.455C256.903 278.244 254.457 279.118 250.643 279.702C246.828 280.287 243.225 280.34 242.741 277.181ZM267.338 266.843L270.211 266.403L271.727 276.3L268.854 276.74L268.589 275.01C267.347 276.335 265.519 277.423 263.116 277.791C260.478 278.196 257.863 277.633 257.271 273.992L256.465 268.509L259.356 268.066L260.028 272.452C260.349 274.552 261.222 275.536 263.592 275.173C265.524 274.877 267.456 273.567 268.187 272.388L267.338 266.843ZM279.485 264.81C280.661 264.63 281.51 264.672 282.208 264.737L282.576 267.14C281.599 267.049 280.828 267.064 279.987 267.192C278.374 267.439 276.582 268.092 275.043 269.721L275.952 275.653L273.079 276.093L271.562 266.196L274.436 265.755L274.693 267.436C275.969 265.882 277.636 265.093 279.485 264.81ZM290.327 271.232C292.31 270.928 293.463 270.373 294.031 269.254L296.888 268.817C296.619 271.438 294.348 273.007 290.685 273.568C286.921 274.145 283.77 273.114 283.214 269.484C282.655 265.838 285.269 263.924 289.285 263.309C293.049 262.732 296.255 263.565 296.945 268.068L286.258 269.706C286.819 271.236 288.411 271.526 290.327 271.232ZM289.603 265.496C287.637 265.797 286.318 266.394 286.078 267.859L293.589 266.708C292.888 265.388 291.418 265.218 289.603 265.496ZM316.163 259.363L319.339 258.876L314.811 273.999L311.635 274.486L312.991 269.979L311.512 270.205L304.871 261.093L308.064 260.604L313.549 268.122L316.163 259.363ZM327.218 267.971C323.117 268.599 320.135 267.543 319.579 263.913C319.02 260.267 321.55 258.366 325.65 257.738C329.733 257.112 332.732 258.166 333.291 261.812C333.847 265.442 331.301 267.346 327.218 267.971ZM326.849 265.568C329.504 265.161 330.715 264.305 330.401 262.255C330.084 260.188 328.673 259.734 326.018 260.14C323.346 260.55 322.136 261.406 322.452 263.473C322.766 265.523 324.178 265.977 326.849 265.568ZM344.514 255.019L347.388 254.579L348.904 264.477L346.031 264.917L345.765 263.186C344.524 264.511 342.696 265.6 340.293 265.968C337.654 266.372 335.04 265.81 334.448 262.168L333.642 256.685L336.532 256.242L337.204 260.628C337.526 262.729 338.399 263.713 340.769 263.35C342.701 263.054 344.633 261.743 345.364 260.565L344.514 255.019ZM101.51 312.309C104.148 311.905 106.762 312.468 107.355 316.109L108.16 321.592L105.27 322.035L104.598 317.649C104.276 315.549 103.403 314.564 101.034 314.927C99.1013 315.223 97.1695 316.534 96.4385 317.712L97.288 323.258L94.4146 323.698L92.3551 310.255L95.2285 309.815L96.0369 315.091C97.2785 313.766 99.1068 312.677 101.51 312.309ZM114.544 310.312C118.677 309.679 121.233 310.646 121.841 314.388L122.606 319.379L119.715 319.822L119.527 318.595C117.911 319.72 116.061 320.554 113.725 320.911C110.953 321.336 109.085 320.711 108.743 318.476C108.349 315.905 111.049 314.666 114.191 314.184C115.888 313.924 117.492 313.954 118.853 314.192C118.565 312.31 116.122 312.53 114.777 312.736C113.484 312.934 111.922 313.294 109.981 314.21L108.635 312.267C110.551 311.302 112.477 310.629 114.544 310.312ZM119.244 316.747L119.126 315.974C118.069 315.809 116.664 315.732 114.832 316.012C112.681 316.342 111.444 316.91 111.598 317.918C111.758 318.96 112.729 318.897 114.224 318.668C115.787 318.429 117.863 317.612 119.244 316.747ZM131.583 307.874L134.776 307.385L131.268 318.052L127.168 318.68L120.644 309.55L123.837 309.061L128.923 316.33L131.583 307.874ZM142.136 314.168C144.119 313.865 145.272 313.31 145.841 312.191L148.697 311.753C148.428 314.374 146.157 315.943 142.494 316.504C138.73 317.081 135.58 316.05 135.024 312.42C134.465 308.774 137.078 306.86 141.094 306.245C144.859 305.668 148.065 306.501 148.755 311.005L138.067 312.642C138.629 314.173 140.221 314.462 142.136 314.168ZM141.412 308.432C139.446 308.733 138.128 309.331 137.888 310.795L145.399 309.644C144.698 308.324 143.227 308.154 141.412 308.432ZM164.553 310.734C166.535 310.43 167.689 309.875 168.257 308.756L171.113 308.319C170.844 310.94 168.574 312.509 164.91 313.07C161.146 313.647 157.996 312.616 157.44 308.986C156.881 305.34 159.495 303.426 163.511 302.811C167.275 302.234 170.481 303.067 171.171 307.57L160.484 309.208C161.045 310.738 162.637 311.028 164.553 310.734ZM163.829 304.998C161.862 305.299 160.544 305.896 160.304 307.361L167.815 306.21C167.114 304.89 165.643 304.72 163.829 304.998ZM180.016 300.282C182.654 299.878 185.268 300.44 185.861 304.082L186.666 309.565L183.776 310.008L183.104 305.622C182.782 303.521 181.909 302.537 179.54 302.9C177.607 303.196 175.675 304.507 174.944 305.685L175.794 311.231L172.921 311.671L171.404 301.773L174.278 301.333L174.543 303.064C175.784 301.739 177.613 300.65 180.016 300.282ZM194.584 308.524C190.484 309.152 187.501 308.096 186.945 304.466C186.387 300.819 188.916 298.918 193.016 298.29C197.099 297.665 200.099 298.719 200.657 302.365C201.213 305.995 198.667 307.898 194.584 308.524ZM194.216 306.121C196.871 305.714 198.081 304.858 197.767 302.808C197.45 300.741 196.039 300.287 193.384 300.693C190.712 301.103 189.502 301.959 189.819 304.026C190.133 306.076 191.544 306.53 194.216 306.121ZM211.881 295.572L214.754 295.132L216.27 305.03L213.397 305.47L213.132 303.739C211.89 305.064 210.062 306.153 207.659 306.521C205.021 306.925 202.406 306.362 201.814 302.721L201.008 297.238L203.899 296.795L204.571 301.181C204.892 303.281 205.766 304.266 208.135 303.903C210.067 303.607 211.999 302.296 212.73 301.118L211.881 295.572ZM226.759 293.293L229.649 292.85L230.924 301.168C231.541 305.201 229.104 307.363 225.356 307.937C222.483 308.377 220.031 308.203 219.035 308.097L218.68 305.778C219.873 305.819 222.165 305.967 224.35 305.632C227.324 305.176 228.258 303.864 227.987 301.308C227.149 302.572 225.585 303.482 223.25 303.84C219.855 304.36 217.209 303.252 216.674 299.757C216.138 296.261 218.331 294.412 221.726 293.892C224.078 293.532 225.842 293.932 227.004 294.889L226.759 293.293ZM223.923 301.277C226.629 300.863 227.773 299.914 227.495 298.099C227.217 296.284 225.841 295.721 223.136 296.135C220.43 296.55 219.269 297.502 219.547 299.317C219.825 301.131 221.218 301.692 223.923 301.277ZM239.601 291.154C242.239 290.749 244.853 291.312 245.446 294.953L246.251 300.437L243.361 300.879L242.689 296.493C242.367 294.393 241.494 293.409 239.125 293.772C237.192 294.068 235.261 295.379 234.53 296.557L235.379 302.102L232.506 302.542L230.446 289.099L233.32 288.659L234.128 293.935C235.37 292.61 237.198 291.522 239.601 291.154ZM261.081 286.401C259.434 286.653 259.068 287.07 259.208 288.322L263.392 287.681L263.761 290.084L259.576 290.725L260.725 298.219L257.834 298.662L256.686 291.167L254.081 291.566L253.713 289.163L256.318 288.764L256.205 288.025C255.896 286.009 256.959 284.865 259.849 284.423C260.841 284.271 261.362 284.191 262.849 284.135L263.161 286.168C262.498 286.218 261.82 286.288 261.081 286.401ZM272.236 296.628C268.136 297.256 265.154 296.199 264.598 292.57C264.039 288.923 266.568 287.022 270.669 286.394C274.752 285.768 277.751 286.822 278.31 290.469C278.866 294.098 276.32 296.002 272.236 296.628ZM271.868 294.225C274.523 293.818 275.734 292.962 275.42 290.912C275.103 288.845 273.692 288.39 271.037 288.797C268.365 289.206 267.155 290.062 267.471 292.129C267.785 294.179 269.196 294.634 271.868 294.225ZM286.567 283.958C287.743 283.778 288.592 283.82 289.29 283.885L289.658 286.288C288.681 286.197 287.91 286.212 287.069 286.341C285.456 286.588 283.664 287.241 282.125 288.87L283.034 294.801L280.161 295.242L278.644 285.344L281.518 284.904L281.775 286.584C283.051 285.03 284.718 284.242 286.567 283.958ZM305.421 279.608C303.774 279.86 303.408 280.278 303.548 281.529L307.733 280.888L308.101 283.291L303.916 283.932L305.065 291.426L302.174 291.869L301.026 284.375L298.422 284.774L298.053 282.371L300.658 281.972L300.545 281.232C300.236 279.216 301.299 278.073 304.189 277.63C305.181 277.478 305.702 277.398 307.189 277.342L307.501 279.375C306.838 279.425 306.16 279.495 305.421 279.608ZM316.051 287.525C318.034 287.221 319.187 286.666 319.755 285.547L322.612 285.109C322.342 287.73 320.072 289.299 316.409 289.86C312.644 290.437 309.494 289.406 308.938 285.777C308.379 282.13 310.993 280.216 315.009 279.601C318.773 279.024 321.979 279.857 322.669 284.361L311.982 285.998C312.543 287.529 314.135 287.818 316.051 287.525ZM315.327 281.788C313.361 282.089 312.042 282.687 311.802 284.151L319.313 283C318.612 281.68 317.141 281.51 315.327 281.788ZM330.508 285.31C332.491 285.006 333.644 284.451 334.212 283.332L337.069 282.894C336.8 285.515 334.529 287.084 330.866 287.646C327.102 288.222 323.951 287.191 323.395 283.562C322.837 279.915 325.45 278.001 329.466 277.386C333.23 276.81 336.436 277.643 337.126 282.146L326.439 283.783C327 285.314 328.592 285.603 330.508 285.31ZM329.784 279.573C327.818 279.874 326.499 280.472 326.259 281.936L333.77 280.786C333.069 279.465 331.599 279.295 329.784 279.573ZM337.896 282.836L340.769 282.396C340.932 283.455 342.086 283.691 345.295 283.199C348.404 282.723 348.877 282.444 348.759 281.671C348.643 280.915 348.165 280.937 344.653 281.251C340.262 281.666 338.076 281.657 337.711 279.27C337.314 276.683 340.264 275.732 343.793 275.191C347.524 274.62 350.304 274.693 350.721 277.415L347.831 277.858C347.704 277.034 346.632 276.992 343.96 277.402C341.238 277.819 340.496 278.139 340.583 278.71C340.678 279.332 341.215 279.353 344.665 279.082C348.573 278.776 351.227 278.472 351.631 281.111C352.058 283.9 349.612 284.774 345.798 285.358C341.983 285.942 338.38 285.996 337.896 282.836Z" fill="white"/>
<path d="M71.2389 173.23C68.609 173.629 66.2591 173.773 64.2582 173.652C62.2228 173.536 60.6267 173.283 59.4647 172.858C58.3373 172.427 57.362 171.832 56.613 171.096C55.8641 170.36 55.3333 169.661 55.0605 169.03C54.7877 168.399 54.6082 167.683 54.4927 166.921L54.4402 166.575L63.0565 165.268C63.6182 167.802 65.6811 168.799 70.7332 168.032L72.6364 167.743C74.2974 167.491 74.9737 167.282 76.06 166.976C77.1118 166.675 77.8814 166.381 78.3238 166.03C78.8009 165.675 79.0755 165.385 79.2065 165.082C79.3375 164.779 79.3595 164.457 79.3017 164.077C79.2229 163.558 79.0215 163.163 78.6974 162.894C78.3785 162.659 77.6445 162.487 76.5696 162.403C75.5 162.353 73.991 162.44 72.0133 162.705L69.4075 163.029L67.4645 163.289C58.8512 164.384 54.198 162.647 53.5153 158.149L53.468 157.837C53.3525 157.076 53.346 156.334 53.4538 155.645C53.5617 154.956 53.8771 154.235 54.4295 153.443C54.9526 152.691 55.6991 152.012 56.6689 151.404C57.6388 150.797 58.9651 150.206 60.6879 149.661C62.3708 149.087 64.3915 148.639 66.7099 148.287L69.1668 147.914C71.5544 147.552 73.7209 147.365 75.6021 147.398C77.518 147.426 79.0291 147.586 80.21 147.902C81.3908 148.219 82.3798 148.67 83.1769 149.257C83.974 149.844 84.5635 150.463 84.9055 151.084C85.2874 151.734 85.5361 152.439 85.6569 153.235L85.7041 153.547L77.1224 154.849C77.0165 154.617 76.9105 154.386 76.815 154.223C76.7195 154.061 76.4752 153.85 76.1165 153.586C75.7578 153.322 75.3404 153.137 74.7898 153.008C74.2791 152.909 73.4915 152.851 72.4964 152.825C71.5065 152.834 70.7347 152.88 69.4197 153.08L68.2086 153.264C66.2016 153.568 64.9716 153.861 63.9304 154.232C62.9291 154.631 62.3083 154.973 62.1375 155.247C61.932 155.526 61.8807 155.888 61.949 156.338C62.012 156.753 62.1631 157.049 62.482 157.284C62.7609 157.489 63.386 157.642 64.357 157.742C65.3228 157.808 66.6535 157.712 68.3544 157.49L70.2974 157.23L72.7942 156.887C77.753 156.205 81.3771 156.292 83.7305 157.103C86.1184 157.909 87.459 159.511 87.8318 161.968L87.9001 162.418C88.0367 163.317 88.0536 164.129 87.9511 164.853C87.8485 165.576 87.5089 166.371 86.967 167.232C86.4198 168.059 85.6492 168.813 84.6155 169.465C83.5869 170.152 82.1567 170.759 80.3008 171.359C78.4501 171.994 76.2219 172.474 73.6612 172.862L71.2389 173.23ZM88.6406 145.313L116.497 141.085L117.332 146.587L97.6422 149.575L98.1883 153.174L117.428 150.254L118.268 155.791L99.0286 158.711L99.6326 162.69L119.703 159.644L120.559 165.285L92.3222 169.57L88.6406 145.313ZM120.551 140.54L128.787 139.291L131.55 157.492L149.924 154.703L150.838 160.724L124.228 164.763L120.551 140.54ZM149.67 136.05L177.526 131.823L178.361 137.325L158.672 140.313L159.218 143.912L178.458 140.992L179.298 146.528L160.058 149.448L160.662 153.428L180.732 150.382L181.588 156.022L153.352 160.308L149.67 136.05ZM201.96 153.355C199.849 153.675 197.924 153.826 196.112 153.782C194.3 153.739 192.755 153.584 191.505 153.278C190.215 152.943 189.087 152.512 188.048 151.962C187.003 151.377 186.172 150.795 185.542 150.147C184.913 149.499 184.382 148.801 183.91 148.023C183.438 147.245 183.08 146.521 182.877 145.879C182.668 145.203 182.533 144.55 182.434 143.893L182.287 142.924C182.129 141.886 182.081 140.867 182.146 139.901C182.212 138.935 182.539 137.823 183.092 136.571C183.68 135.314 184.497 134.163 185.582 133.149C186.667 132.134 188.292 131.18 190.458 130.285C192.583 129.36 195.171 128.684 198.147 128.233L199.6 128.012C202.541 127.566 205.139 127.419 207.462 127.562C209.755 127.745 211.574 128.071 212.891 128.579C214.212 129.122 215.336 129.766 216.239 130.585C217.177 131.398 217.788 132.155 218.14 132.845C218.458 133.54 218.667 134.216 218.767 134.874L218.824 135.254L210.035 136.588C209.924 136.322 209.823 136.125 209.688 135.933C209.553 135.741 209.223 135.437 208.705 135.056C208.187 134.674 207.61 134.372 206.94 134.155C206.27 133.938 205.293 133.803 204.046 133.745C202.763 133.692 201.358 133.764 199.766 134.005C197.863 134.294 196.263 134.714 195.006 135.294C193.709 135.845 192.779 136.482 192.181 137.21C191.623 137.967 191.239 138.698 191.067 139.432C190.861 140.171 190.838 140.954 190.964 141.784L191.022 142.165C191.142 142.961 191.431 143.696 191.853 144.375C192.274 145.054 192.898 145.668 193.696 146.255C194.493 146.842 195.58 147.243 196.993 147.454C198.405 147.664 200.029 147.63 201.863 147.352C207.295 146.527 210.264 144.625 210.807 141.675C210.836 141.635 210.831 141.601 210.826 141.566L219.615 140.232L219.668 140.578C219.778 141.305 219.79 142.082 219.663 142.88C219.502 143.683 219.109 144.593 218.495 145.677C217.841 146.732 216.963 147.715 215.828 148.631C214.722 149.507 213.086 150.392 210.95 151.247C208.809 152.068 206.285 152.699 203.413 153.134L201.96 153.355ZM233.874 148.122L231.069 129.644L219.719 131.366L218.848 125.622L249.922 120.906L250.794 126.65L239.409 128.378L242.213 146.856L233.874 148.122ZM307.266 136.948L304.137 132.891L282.579 136.163L280.863 140.955L272.455 142.231L282.13 115.947L298.359 113.484L316.194 135.593L307.266 136.948ZM293.98 119.848L288.097 120.741L284.685 130.215L300.222 127.857L293.98 119.848ZM314.555 111.096L323.76 109.699L342.923 122.367L340.612 107.142L348.778 105.902L352.455 130.125L344.288 131.364L323.927 118.029L326.364 134.085L318.232 135.319L314.555 111.096Z" fill="white"/>
<path d="M206.607 178.288L215.811 176.891L234.974 189.559L232.663 174.334L240.83 173.094L244.506 197.317L236.34 198.556L215.978 185.221L218.415 201.277L210.283 202.511L206.607 178.288ZM245.034 172.491L323.135 160.638L323.97 166.14L254.07 176.749L254.611 180.313L324.026 169.778L324.867 175.314L255.452 185.85L256.901 195.4L248.7 196.645L245.034 172.491ZM339.563 182.89L336.758 164.412L325.408 166.134L324.536 160.39L355.611 155.674L356.482 161.418L345.098 163.146L347.902 181.624L339.563 182.89Z" fill="#00FFA3"/>
</g>
</svg>
