<svg width="391" height="462" viewBox="0 0 391 462" fill="none" xmlns="http://www.w3.org/2000/svg">
<path d="M2.72852 55.7176C1.38908 28.3656 27.3115 7.78599 53.647 15.2937L358.788 102.284C377.427 107.597 389.575 125.508 387.618 144.79L359.071 426.039C356.998 446.462 339.803 462 319.276 462H60.7135C39.3826 462 21.8047 445.262 20.7613 423.956L2.72852 55.7176Z" fill="#EEE201"/>
<mask id="mask0_137_2044" style="mask-type:alpha" maskUnits="userSpaceOnUse" x="20" y="35" width="350" height="405">
<path d="M71.5309 37.7179L340.559 114.165C358.986 119.402 370.999 137.105 369.059 156.163L343.822 404.001C341.769 424.163 324.791 439.5 304.525 439.5H76.6659C55.6041 439.5 38.2469 422.975 37.2134 401.938L21.2816 77.6519C19.9552 50.6536 45.5294 30.3293 71.5309 37.7179Z" fill="black" stroke="black"/>
</mask>
<g mask="url(#mask0_137_2044)">
<path d="M71.5309 37.7179L340.559 114.165C358.986 119.402 370.999 137.105 369.059 156.163L343.822 404.001C341.769 424.163 324.791 439.5 304.525 439.5H76.6659C55.6041 439.5 38.2469 422.975 37.2134 401.938L21.2816 77.6519C19.9552 50.6536 45.5294 30.3293 71.5309 37.7179Z" fill="black" stroke="black"/>
<path d="M51.3782 231.049C51.9754 227.15 54.5204 225.356 59.696 226.149C64.3843 226.867 66.464 229.009 66.2465 232.449L63.1714 231.978C63.1766 230.036 61.8279 229.072 59.3073 228.686C56.2322 228.215 54.771 229.109 54.4029 231.512C54.0322 233.932 55.173 235.242 58.2313 235.71C60.7351 236.094 62.3297 235.564 62.9088 233.692L65.984 234.163C65.1589 237.528 62.531 238.966 57.8426 238.248C52.667 237.455 50.7784 234.964 51.3782 231.049ZM76.5756 230.644C79.2138 231.048 81.5398 232.367 81.0148 236.019L80.1421 241.492L77.2518 241.049L77.9236 236.663C78.2454 234.563 77.7069 233.362 75.3376 232.999C73.4051 232.703 71.1696 233.376 70.1194 234.281L69.2699 239.826L66.3964 239.386L68.4557 225.943L71.3292 226.383L70.5209 231.66C72.1023 230.767 74.1726 230.276 76.5756 230.644ZM88.0083 242.869C83.9081 242.241 81.3788 240.34 81.9348 236.71C82.4934 233.064 85.4758 232.007 89.5759 232.635C93.6593 233.261 96.2054 235.164 95.6468 238.811C95.0908 242.44 92.0916 243.494 88.0083 242.869ZM88.3764 240.466C91.0314 240.873 92.4425 240.418 92.7566 238.368C93.0732 236.301 91.8629 235.445 89.2078 235.038C86.536 234.629 85.1249 235.083 84.8083 237.15C84.4942 239.2 85.7046 240.057 88.3764 240.466ZM102.548 245.096C98.4475 244.468 95.9182 242.567 96.4742 238.937C97.0328 235.291 100.015 234.234 104.115 234.862C108.199 235.488 110.745 237.391 110.186 241.038C109.63 244.668 106.631 245.722 102.548 245.096ZM102.916 242.693C105.571 243.1 106.982 242.645 107.296 240.595C107.613 238.528 106.402 237.672 103.747 237.265C101.075 236.856 99.6643 237.311 99.3477 239.378C99.0336 241.428 100.244 242.284 102.916 242.693ZM110.609 242.599L113.483 243.039C113.32 244.098 114.351 244.668 117.56 245.16C120.669 245.636 121.204 245.512 121.323 244.739C121.438 243.983 120.976 243.86 117.531 243.109C113.217 242.19 111.134 241.527 111.5 239.141C111.896 236.553 114.996 236.529 118.525 237.07C122.255 237.641 124.886 238.543 124.469 241.265L121.579 240.822C121.705 239.999 120.694 239.638 118.022 239.228C115.3 238.811 114.496 238.895 114.408 239.466C114.313 240.088 114.819 240.268 118.191 241.043C122.012 241.921 124.635 242.426 124.231 245.064C123.804 247.853 121.208 247.955 117.394 247.37C113.579 246.786 110.125 245.758 110.609 242.599ZM131.603 247.156C133.586 247.46 134.852 247.276 135.729 246.378L138.586 246.816C137.544 249.236 134.908 250.053 131.245 249.492C127.481 248.915 124.784 246.989 125.34 243.359C125.898 239.713 128.965 238.669 132.981 239.284C136.745 239.861 139.555 241.615 138.865 246.119L128.177 244.482C128.255 246.11 129.687 246.863 131.603 247.156ZM132.629 241.466C130.663 241.165 129.226 241.34 128.559 242.666L136.07 243.816C135.796 242.347 134.444 241.744 132.629 241.466ZM159.808 243.566L162.983 244.052L154.136 257.126L150.96 256.64L153.603 252.745L152.124 252.519L148.515 241.836L151.708 242.325L154.692 251.14L159.808 243.566ZM167.778 255.088C163.678 254.46 161.148 252.559 161.704 248.93C162.263 245.283 165.245 244.227 169.346 244.855C173.429 245.48 175.975 247.384 175.417 251.03C174.861 254.66 171.861 255.714 167.778 255.088ZM168.146 252.685C170.801 253.092 172.212 252.638 172.526 250.588C172.843 248.521 171.633 247.665 168.978 247.258C166.306 246.848 164.895 247.303 164.578 249.37C164.264 251.42 165.474 252.276 168.146 252.685ZM188.159 247.909L191.032 248.349L189.516 258.246L186.643 257.806L186.908 256.075C185.326 256.968 183.256 257.459 180.853 257.091C178.215 256.687 175.889 255.368 176.414 251.716L177.287 246.243L180.177 246.686L179.505 251.072C179.183 253.172 179.722 254.373 182.091 254.736C184.023 255.032 186.259 254.359 187.309 253.454L188.159 247.909ZM200.357 249.605C201.534 249.786 202.331 250.08 202.978 250.351L202.61 252.754C201.705 252.374 200.964 252.158 200.124 252.029C198.511 251.782 196.606 251.868 194.649 252.962L193.741 258.894L190.867 258.453L192.383 248.556L195.257 248.996L195 250.676C196.682 249.575 198.509 249.322 200.357 249.605ZM210.897 257.377L213.922 257.84C213.731 259.084 214.652 259.81 218.483 260.396C221.659 260.883 222.671 260.677 222.813 259.753C222.962 258.778 222.315 258.507 218.529 257.738C213.44 256.717 211.53 255.599 211.935 252.961C212.331 250.373 215.095 249.954 219.498 250.628C223.934 251.308 226.453 252.829 226.008 255.736L222.983 255.273C223.181 253.979 221.936 253.461 218.794 252.98C215.819 252.524 215.07 252.702 214.936 253.576C214.797 254.483 215.477 254.759 218.874 255.486C223.474 256.449 226.308 257.141 225.853 260.115C225.371 263.257 222.299 263.44 217.947 262.774C213.124 262.035 210.377 260.771 210.897 257.377ZM233.057 265.088C228.957 264.46 226.428 262.559 226.984 258.93C227.543 255.283 230.525 254.227 234.625 254.855C238.709 255.48 241.255 257.384 240.696 261.03C240.14 264.66 237.141 265.714 233.057 265.088ZM233.426 262.685C236.081 263.092 237.492 262.638 237.806 260.587C238.122 258.521 236.912 257.664 234.257 257.258C231.585 256.848 230.174 257.303 229.857 259.37C229.543 261.42 230.754 262.276 233.426 262.685ZM243.092 252.695L245.966 253.135L243.907 266.578L241.033 266.138L243.092 252.695ZM253.432 257.736C257.566 258.369 259.715 260.057 259.175 263.809L258.41 268.8L255.52 268.357L255.708 267.131C253.829 267.72 251.814 267.962 249.478 267.604C246.705 267.179 245.111 266.023 245.453 263.788C245.847 261.217 248.794 260.843 251.936 261.325C253.633 261.585 255.155 262.093 256.382 262.728C256.67 260.846 254.274 260.324 252.929 260.118C251.636 259.92 250.038 259.796 247.912 260.089L247.209 257.832C249.326 257.485 251.365 257.419 253.432 257.736ZM255.991 265.282L256.109 264.509C255.15 264.035 253.832 263.541 252.001 263.261C249.85 262.931 248.499 263.103 248.345 264.111C248.185 265.153 249.13 265.384 250.626 265.613C252.189 265.852 254.414 265.694 255.991 265.282ZM269.871 260.254C272.509 260.658 274.835 261.977 274.31 265.629L273.437 271.102L270.547 270.659L271.219 266.273C271.54 264.173 271.002 262.973 268.633 262.61C266.7 262.314 264.465 262.986 263.414 263.891L262.565 269.437L259.691 268.996L261.208 259.099L264.081 259.539L263.816 261.27C265.397 260.377 267.468 259.886 269.871 260.254ZM282.905 262.251C287.038 262.884 289.188 264.572 288.647 268.324L287.883 273.315L284.992 272.872L285.18 271.645C283.301 272.235 281.286 272.476 278.951 272.119C276.178 271.694 274.584 270.538 274.926 268.303C275.32 265.732 278.267 265.358 281.409 265.839C283.106 266.099 284.628 266.608 285.855 267.243C286.143 265.361 283.746 264.839 282.402 264.633C281.108 264.435 279.511 264.31 277.385 264.604L276.681 262.346C278.798 262 280.838 261.934 282.905 262.251ZM285.463 269.797L285.582 269.024C284.622 268.55 283.305 268.056 281.473 267.776C279.323 267.446 277.972 267.618 277.818 268.626C277.658 269.668 278.603 269.898 280.098 270.127C281.661 270.367 283.887 270.209 285.463 269.797ZM68.1357 249.756L71.3453 250.248L65.3761 259.463L61.5448 258.876L59.6931 251.541L55.7306 257.986L51.8993 257.399L48.9624 246.819L52.172 247.311L54.2439 255.453L58.4398 248.271L61.8679 248.796L63.7239 256.888L68.1357 249.756ZM77.7525 251.057C81.8863 251.691 84.0355 253.378 83.495 257.131L82.7305 262.122L79.8402 261.679L80.0281 260.452C78.1492 261.041 76.1344 261.283 73.7987 260.925C71.026 260.501 69.4316 259.345 69.774 257.11C70.1678 254.539 73.1145 254.165 76.2568 254.646C77.954 254.906 79.4756 255.414 80.7026 256.05C80.9909 254.167 78.5943 253.646 77.2499 253.44C75.956 253.241 74.3584 253.117 72.2325 253.411L71.5292 251.153C73.6461 250.807 75.6856 250.741 77.7525 251.057ZM80.3113 258.604L80.4297 257.831C79.4704 257.357 78.153 256.863 76.3214 256.582C74.1705 256.253 72.8199 256.424 72.6655 257.433C72.5059 258.474 73.4508 258.705 74.9464 258.934C76.5092 259.174 78.7347 259.016 80.3113 258.604ZM86.1369 248.885L89.0104 249.325L86.9511 262.768L84.0776 262.328L86.1369 248.885ZM90.3543 249.531L93.2278 249.971L91.1685 263.414L88.295 262.974L90.3543 249.531ZM99.2824 262.439C101.265 262.742 102.532 262.558 103.409 261.66L106.265 262.098C105.224 264.518 102.588 265.335 98.9246 264.774C95.1605 264.198 92.4631 262.271 93.0191 258.641C93.5777 254.995 96.6441 253.951 100.66 254.566C104.424 255.143 107.234 256.898 106.544 261.401L95.8568 259.764C95.9341 261.393 97.3667 262.145 99.2824 262.439ZM100.309 256.748C98.3427 256.447 96.9056 256.623 96.2382 257.948L103.75 259.098C103.476 257.629 102.124 257.026 100.309 256.748ZM117.427 259.766L112.739 259.048L112.301 261.905C112.008 263.82 112.303 264.364 114.051 264.632C114.958 264.771 115.462 264.848 116.647 264.858L116.292 267.177C115.309 267.198 114.203 267.115 112.876 266.911C110.322 266.52 108.822 265.31 109.156 263.126L109.849 258.605L107.244 258.206L107.612 255.803L110.217 256.202L110.531 254.152L113.547 253.772L113.107 256.645L117.795 257.363L117.427 259.766ZM117.899 265.204L120.773 265.645L120.428 267.896L118.56 270.998L117.182 270.787L118.546 267.608L117.554 267.456L117.899 265.204ZM138.755 258.94C137.108 258.688 136.634 258.976 136.393 260.212L140.577 260.853L140.209 263.256L136.025 262.615L134.877 270.11L131.987 269.667L133.135 262.172L130.53 261.773L130.898 259.37L133.503 259.769L133.616 259.03C133.925 257.014 135.282 256.241 138.172 256.684C139.163 256.836 139.684 256.916 141.12 257.308L140.809 259.341C140.161 259.19 139.494 259.053 138.755 258.94ZM152.556 262.688L155.43 263.128L153.913 273.026L151.04 272.586L151.305 270.855C149.724 271.748 147.653 272.239 145.251 271.871C142.612 271.467 140.286 270.147 140.811 266.496L141.684 261.023L144.574 261.465L143.902 265.851C143.581 267.952 144.119 269.152 146.488 269.515C148.421 269.811 150.657 269.139 151.707 268.233L152.556 262.688ZM165.444 264.49C168.082 264.895 170.408 266.214 169.883 269.866L169.01 275.339L166.12 274.896L166.792 270.51C167.114 268.409 166.575 267.209 164.206 266.846C162.273 266.55 160.038 267.222 158.988 268.128L158.138 273.673L155.265 273.233L156.781 263.335L159.654 263.776L159.389 265.506C160.971 264.614 163.041 264.122 165.444 264.49ZM182.944 263.714L185.818 264.155L183.758 277.598L180.885 277.158L181.122 275.612C179.874 276.573 178.053 276.896 175.919 276.569C172.743 276.082 170.224 274.338 170.803 270.557C171.382 266.776 174.311 265.849 177.486 266.335C179.621 266.662 181.261 267.515 182.164 268.806L182.944 263.714ZM177.245 274.313C179.816 274.706 181.343 274.166 181.642 272.217C181.943 270.251 180.647 269.279 178.076 268.885C175.505 268.491 173.995 269.034 173.693 271C173.395 272.949 174.674 273.919 177.245 274.313ZM194.936 265.551L197.81 265.992L197.426 268.495L194.553 268.055L194.936 265.551ZM194.393 269.097L197.266 269.537L195.75 279.435L192.877 278.995L194.393 269.097ZM208.077 273.653L203.389 272.934L202.951 275.791C202.658 277.707 202.953 278.251 204.7 278.518C205.608 278.657 206.112 278.735 207.297 278.744L206.942 281.063C205.958 281.084 204.853 281.001 203.526 280.798C200.971 280.407 199.471 279.196 199.806 277.012L200.498 272.492L197.894 272.093L198.262 269.69L200.866 270.089L201.18 268.039L204.197 267.658L203.757 270.531L208.445 271.25L208.077 273.653ZM236.405 275.533L239.615 276.024L233.646 285.24L229.814 284.653L227.963 277.318L224 283.762L220.169 283.175L217.232 272.596L220.442 273.087L222.513 281.23L226.709 274.047L230.137 274.573L231.993 282.665L236.405 275.533ZM240.885 272.59L243.758 273.03L243.374 275.534L240.501 275.094L240.885 272.59ZM240.341 276.136L243.215 276.576L241.699 286.473L238.825 286.033L240.341 276.136ZM254.025 280.691L249.337 279.973L248.899 282.83C248.606 284.745 248.901 285.289 250.649 285.557C251.556 285.696 252.06 285.773 253.245 285.783L252.89 288.102C251.907 288.123 250.801 288.04 249.474 287.836C246.92 287.445 245.42 286.235 245.754 284.051L246.447 279.53L243.842 279.131L244.21 276.728L246.815 277.127L247.129 275.077L250.145 274.697L249.705 277.57L254.393 278.288L254.025 280.691ZM264.233 279.624C266.871 280.028 269.197 281.347 268.672 284.999L267.799 290.472L264.909 290.029L265.581 285.643C265.903 283.543 265.364 282.342 262.995 281.979C261.063 281.683 258.827 282.356 257.777 283.261L256.927 288.806L254.054 288.366L256.113 274.923L258.987 275.363L258.178 280.64C259.76 279.747 261.83 279.255 264.233 279.624ZM45.1746 271.546C45.7332 267.899 48.7156 266.842 52.8158 267.471C56.5126 268.037 58.9319 269.646 58.9571 272.625L56.0164 272.174C55.8255 270.838 54.5313 270.193 52.4477 269.874C49.9775 269.495 48.3647 269.919 48.0481 271.986C47.734 274.036 49.146 274.923 51.6162 275.301C53.6999 275.62 55.1279 275.392 55.7101 274.174L58.6508 274.625C57.7349 277.46 54.945 278.271 51.2481 277.704C47.1479 277.076 44.6186 275.175 45.1746 271.546ZM68.6318 269.893C69.8081 270.074 70.6058 270.368 71.2522 270.639L70.8841 273.042C69.9791 272.662 69.2384 272.446 68.3982 272.317C66.785 272.07 64.8799 272.156 62.9238 273.25L62.0151 279.182L59.1416 278.741L60.6578 268.844L63.5313 269.284L63.2739 270.964C64.956 269.863 66.7834 269.61 68.6318 269.893ZM83.1871 272.295L86.3631 272.782L77.5154 285.856L74.3394 285.369L76.9826 281.474L75.5039 281.248L71.8948 270.565L75.0876 271.054L78.0712 279.87L83.1871 272.295ZM94.9177 273.92C98.1105 274.409 100.61 276.168 100.031 279.949C99.4516 283.73 96.5428 284.643 93.3501 284.154C91.216 283.827 89.5895 282.993 88.6865 281.702L87.8087 287.432L84.9184 286.99L87.0781 272.891L89.9684 273.334L89.7342 274.863C90.9795 273.919 92.7836 273.593 94.9177 273.92ZM92.7604 281.604C95.3314 281.998 96.8587 281.458 97.1573 279.509C97.4585 277.543 96.1628 276.57 93.5918 276.176C91.0208 275.782 89.5102 276.325 89.2091 278.291C88.9105 280.24 90.1893 281.21 92.7604 281.604ZM111.035 279.02L106.347 278.302L105.909 281.159C105.615 283.074 105.911 283.618 107.658 283.886C108.566 284.025 109.07 284.102 110.255 284.112L109.9 286.431C108.916 286.452 107.811 286.369 106.483 286.166C103.929 285.774 102.429 284.564 102.764 282.38L103.456 277.859L100.852 277.46L101.22 275.057L103.824 275.456L104.138 273.406L107.155 273.026L106.715 275.899L111.403 276.617L111.035 279.02ZM117.43 287.842C113.33 287.214 110.801 285.313 111.357 281.684C111.915 278.037 114.898 276.981 118.998 277.609C123.081 278.234 125.627 280.138 125.069 283.784C124.513 287.414 121.514 288.468 117.43 287.842ZM117.798 285.439C120.453 285.846 121.864 285.392 122.178 283.342C122.495 281.275 121.285 280.418 118.63 280.012C115.958 279.602 114.547 280.057 114.23 282.124C113.916 284.174 115.126 285.03 117.798 285.439ZM125.537 286.608L128.411 287.048L128.066 289.3L126.198 292.402L124.82 292.191L126.184 289.011L125.192 288.86L125.537 286.608ZM145.452 281.661C149.586 282.294 151.735 283.982 151.194 287.735L150.43 292.726L147.54 292.283L147.727 291.056C145.849 291.645 143.834 291.887 141.498 291.529C138.725 291.105 137.131 289.949 137.473 287.714C137.867 285.143 140.814 284.769 143.956 285.25C145.653 285.51 147.175 286.018 148.402 286.653C148.69 284.771 146.294 284.25 144.949 284.044C143.655 283.845 142.058 283.721 139.932 284.014L139.229 281.757C141.345 281.411 143.385 281.345 145.452 281.661ZM148.011 289.208L148.129 288.435C147.17 287.961 145.852 287.467 144.021 287.186C141.87 286.857 140.519 287.028 140.365 288.036C140.205 289.078 141.15 289.309 142.646 289.538C144.208 289.778 146.434 289.62 148.011 289.208ZM161.89 284.179C164.529 284.584 166.855 285.903 166.33 289.555L165.457 295.028L162.567 294.585L163.238 290.199C163.56 288.098 163.022 286.898 160.652 286.535C158.72 286.239 156.484 286.911 155.434 287.817L154.585 293.362L151.711 292.922L153.227 283.024L156.101 283.464L155.836 285.195C157.417 284.302 159.487 283.811 161.89 284.179ZM179.391 283.403L182.264 283.844L180.205 297.287L177.331 296.847L177.568 295.301C176.32 296.262 174.499 296.585 172.365 296.258C169.189 295.771 166.67 294.027 167.25 290.246C167.829 286.465 170.757 285.538 173.933 286.024C176.067 286.351 177.708 287.204 178.611 288.495L179.391 283.403ZM173.691 294.002C176.262 294.395 177.79 293.855 178.088 291.906C178.389 289.94 177.094 288.968 174.523 288.574C171.952 288.18 170.441 288.723 170.14 290.689C169.841 292.638 171.12 293.608 173.691 294.002ZM196.175 297.515C198.158 297.818 199.425 297.634 200.302 296.736L203.158 297.174C202.117 299.594 199.481 300.411 195.817 299.85C192.053 299.274 189.356 297.347 189.912 293.717C190.471 290.071 193.537 289.027 197.553 289.642C201.317 290.219 204.127 291.974 203.437 296.477L192.75 294.84C192.827 296.469 194.26 297.221 196.175 297.515ZM197.202 291.824C195.236 291.523 193.799 291.699 193.131 293.024L200.643 294.174C200.369 292.705 199.017 292.102 197.202 291.824ZM214.058 292.171C216.696 292.575 219.022 293.894 218.498 297.546L217.625 303.019L214.734 302.576L215.406 298.19C215.728 296.09 215.19 294.889 212.82 294.527C210.888 294.23 208.652 294.903 207.602 295.808L206.753 301.353L203.879 300.913L205.395 291.016L208.269 291.456L208.004 293.187C209.585 292.294 211.655 291.803 214.058 292.171ZM219.177 299.697L222.051 300.137C221.888 301.196 222.919 301.766 226.128 302.258C229.237 302.734 229.772 302.61 229.891 301.837C230.006 301.08 229.544 300.958 226.099 300.207C221.785 299.288 219.702 298.625 220.068 296.239C220.464 293.651 223.564 293.627 227.093 294.167C230.823 294.739 233.454 295.641 233.037 298.363L230.147 297.92C230.273 297.097 229.262 296.736 226.59 296.326C223.868 295.909 223.064 295.992 222.976 296.564C222.881 297.186 223.387 297.366 226.759 298.141C230.58 299.019 233.203 299.523 232.799 302.162C232.372 304.951 229.776 305.052 225.962 304.468C222.147 303.884 218.693 302.856 219.177 299.697ZM245.74 297.196L248.614 297.636L247.098 307.534L244.224 307.094L244.489 305.363C242.908 306.256 240.838 306.747 238.435 306.379C235.797 305.975 233.47 304.655 233.995 301.004L234.868 295.531L237.759 295.973L237.087 300.359C236.765 302.46 237.303 303.66 239.673 304.023C241.605 304.319 243.841 303.647 244.891 302.741L245.74 297.196ZM257.939 298.893C259.115 299.073 259.913 299.367 260.56 299.638L260.191 302.041C259.286 301.662 258.546 301.445 257.706 301.316C256.092 301.069 254.187 301.156 252.231 302.249L251.322 308.181L248.449 307.741L249.965 297.843L252.839 298.283L252.581 299.964C254.263 298.863 256.091 298.61 257.939 298.893ZM266.361 308.266C268.344 308.57 269.611 308.386 270.488 307.488L273.345 307.926C272.303 310.346 269.667 311.163 266.004 310.602C262.24 310.025 259.542 308.099 260.098 304.469C260.657 300.823 263.723 299.779 267.739 300.394C271.503 300.971 274.313 302.725 273.623 307.229L262.936 305.592C263.013 307.22 264.446 307.973 266.361 308.266ZM267.388 302.576C265.422 302.275 263.985 302.45 263.317 303.775L270.829 304.926C270.555 303.457 269.203 302.854 267.388 302.576ZM294.566 304.676L297.742 305.162L288.894 318.236L285.718 317.75L288.362 313.855L286.883 313.628L283.274 302.946L286.467 303.435L289.45 312.25L294.566 304.676ZM302.537 316.198C298.436 315.57 295.907 313.669 296.463 310.04C297.022 306.393 300.004 305.337 304.104 305.965C308.188 306.59 310.734 308.494 310.175 312.14C309.619 315.77 306.62 316.824 302.537 316.198ZM302.905 313.795C305.56 314.202 306.971 313.747 307.285 311.697C307.601 309.63 306.391 308.774 303.736 308.368C301.064 307.958 299.653 308.413 299.337 310.48C299.022 312.53 300.233 313.386 302.905 313.795ZM322.917 309.019L325.791 309.459L324.275 319.356L321.401 318.916L321.666 317.185C320.085 318.078 318.015 318.569 315.612 318.201C312.973 317.797 310.647 316.478 311.172 312.826L312.045 307.353L314.935 307.796L314.264 312.182C313.942 314.282 314.48 315.483 316.85 315.845C318.782 316.142 321.018 315.469 322.068 314.564L322.917 309.019ZM51.7366 287.539C54.3748 287.943 56.7009 289.262 56.1759 292.914L55.3031 298.387L52.4128 297.944L53.0847 293.558C53.4064 291.458 52.868 290.257 50.4986 289.894C48.5662 289.598 46.3306 290.271 45.2804 291.176L44.4309 296.721L41.5574 296.281L43.6168 282.838L46.4902 283.278L45.682 288.554C47.2634 287.662 49.3336 287.17 51.7366 287.539ZM64.7706 289.535C68.9044 290.168 71.0536 291.856 70.5131 295.609L69.7486 300.6L66.8583 300.157L67.0462 298.93C65.1674 299.519 63.1525 299.761 60.8168 299.403C58.0441 298.979 56.4497 297.823 56.7921 295.588C57.1859 293.017 60.1326 292.643 63.2749 293.124C64.9721 293.384 66.4937 293.892 67.7207 294.527C68.009 292.645 65.6124 292.124 64.2681 291.918C62.9741 291.719 61.3766 291.595 59.2506 291.889L58.5473 289.631C60.6642 289.285 62.7037 289.219 64.7706 289.535ZM67.3294 297.082L67.4478 296.309C66.4885 295.835 65.1711 295.341 63.3395 295.06C61.1886 294.731 59.838 294.902 59.6836 295.91C59.524 296.952 60.469 297.183 61.9645 297.412C63.5273 297.652 65.7528 297.494 67.3294 297.082ZM81.7586 292.31L84.9514 292.799L78.4108 301.927L74.3106 301.298L70.8192 290.634L74.012 291.123L76.689 299.582L81.7586 292.31ZM89.9435 301.475C91.9264 301.778 93.1929 301.594 94.0699 300.696L96.9266 301.134C95.8851 303.554 93.249 304.371 89.5857 303.81C85.8216 303.234 83.1242 301.307 83.6803 297.677C84.2389 294.031 87.3053 292.987 91.3214 293.602C95.0855 294.179 97.8952 295.934 97.2053 300.437L86.518 298.8C86.5953 300.429 88.0279 301.181 89.9435 301.475ZM90.97 295.784C89.0039 295.483 87.5668 295.659 86.8994 296.984L94.4108 298.135C94.1371 296.665 92.7848 296.062 90.97 295.784ZM112.36 304.908C114.343 305.212 115.609 305.028 116.486 304.13L119.343 304.568C118.301 306.988 115.665 307.805 112.002 307.244C108.238 306.668 105.54 304.741 106.097 301.111C106.655 297.465 109.722 296.421 113.738 297.036C117.502 297.613 120.311 299.368 119.622 303.871L108.934 302.234C109.012 303.862 110.444 304.615 112.36 304.908ZM113.386 299.218C111.42 298.917 109.983 299.092 109.316 300.418L116.827 301.568C116.553 300.099 115.201 299.496 113.386 299.218ZM130.243 299.565C132.881 299.969 135.207 301.288 134.682 304.94L133.809 310.413L130.919 309.97L131.591 305.584C131.913 303.484 131.374 302.283 129.005 301.92C127.072 301.624 124.837 302.297 123.786 303.202L122.937 308.747L120.064 308.307L121.58 298.41L124.453 298.85L124.188 300.581C125.769 299.688 127.84 299.197 130.243 299.565ZM141.675 311.79C137.575 311.162 135.046 309.261 135.602 305.631C136.161 301.985 139.143 300.928 143.243 301.556C147.326 302.182 149.873 304.085 149.314 307.732C148.758 311.361 145.759 312.415 141.675 311.79ZM142.044 309.387C144.699 309.794 146.11 309.339 146.424 307.289C146.74 305.222 145.53 304.366 142.875 303.959C140.203 303.55 138.792 304.004 138.475 306.071C138.161 308.121 139.372 308.978 142.044 309.387ZM162.056 304.61L164.93 305.05L163.413 314.948L160.54 314.508L160.805 312.777C159.224 313.67 157.153 314.161 154.75 313.793C152.112 313.389 149.786 312.069 150.311 308.418L151.184 302.945L154.074 303.387L153.402 307.773C153.081 309.874 153.619 311.074 155.988 311.437C157.921 311.733 160.157 311.061 161.207 310.155L162.056 304.61ZM176.935 306.889L179.825 307.332L178.551 315.65C177.933 319.683 174.96 321.016 171.213 320.442C168.339 320.002 166.052 319.101 165.133 318.702L165.488 316.383C166.614 316.78 168.758 317.607 170.942 317.941C173.916 318.397 175.2 317.424 175.707 314.905C174.529 315.859 172.765 316.26 170.429 315.902C167.035 315.382 164.841 313.533 165.377 310.037C165.912 306.542 168.558 305.434 171.953 305.954C174.305 306.314 175.869 307.225 176.69 308.486L176.935 306.889ZM171.839 313.659C174.544 314.073 175.92 313.51 176.198 311.695C176.476 309.88 175.332 308.931 172.627 308.517C169.921 308.102 168.528 308.663 168.25 310.478C167.972 312.292 169.133 313.244 171.839 313.659ZM189.828 308.692C192.466 309.096 194.792 310.416 194.267 314.068L193.394 319.54L190.504 319.098L191.176 314.712C191.498 312.611 190.959 311.411 188.59 311.048C186.657 310.752 184.422 311.424 183.372 312.33L182.522 317.875L179.649 317.435L181.708 303.992L184.582 304.432L183.773 309.708C185.355 308.815 187.425 308.324 189.828 308.692ZM211.746 310.588C210.099 310.336 209.625 310.624 209.384 311.86L213.568 312.501L213.2 314.904L209.016 314.263L207.868 321.758L204.977 321.315L206.126 313.82L203.521 313.421L203.889 311.018L206.494 311.417L206.607 310.678C206.916 308.661 208.272 307.889 211.163 308.332C212.154 308.484 212.675 308.563 214.111 308.955L213.8 310.989C213.152 310.838 212.485 310.701 211.746 310.588ZM219.328 323.685C215.228 323.057 212.699 321.156 213.255 317.526C213.813 313.88 216.796 312.823 220.896 313.452C224.979 314.077 227.525 315.981 226.967 319.627C226.411 323.257 223.412 324.311 219.328 323.685ZM219.696 321.282C222.351 321.689 223.762 321.234 224.076 319.184C224.393 317.117 223.183 316.261 220.528 315.855C217.856 315.445 216.445 315.9 216.128 317.967C215.814 320.017 217.024 320.873 219.696 321.282ZM236.794 315.887C237.97 316.067 238.768 316.361 239.414 316.632L239.046 319.035C238.141 318.656 237.401 318.439 236.56 318.31C234.947 318.063 233.042 318.15 231.086 319.243L230.177 325.175L227.304 324.735L228.82 314.837L231.693 315.278L231.436 316.958C233.118 315.857 234.946 315.604 236.794 315.887ZM256.086 317.38C254.439 317.128 253.965 317.417 253.724 318.652L257.908 319.293L257.54 321.696L253.356 321.055L252.208 328.55L249.318 328.107L250.466 320.613L247.861 320.214L248.229 317.811L250.834 318.21L250.947 317.47C251.256 315.454 252.613 314.681 255.503 315.124C256.494 315.276 257.015 315.356 258.451 315.748L258.14 317.781C257.492 317.63 256.825 317.494 256.086 317.38ZM263.858 328.116C265.841 328.42 267.108 328.235 267.985 327.338L270.841 327.775C269.8 330.196 267.164 331.013 263.5 330.452C259.736 329.875 257.039 327.948 257.595 324.319C258.153 320.672 261.22 319.629 265.236 320.244C269 320.82 271.81 322.575 271.12 327.079L260.433 325.441C260.51 327.07 261.943 327.823 263.858 328.116ZM264.885 322.426C262.919 322.125 261.481 322.3 260.814 323.625L268.325 324.776C268.052 323.307 266.699 322.704 264.885 322.426ZM278.315 330.331C280.298 330.634 281.565 330.45 282.442 329.553L285.299 329.99C284.257 332.41 281.621 333.228 277.958 332.666C274.194 332.09 271.496 330.163 272.052 326.533C272.611 322.887 275.677 321.843 279.693 322.459C283.457 323.035 286.267 324.79 285.577 329.293L274.89 327.656C274.967 329.285 276.4 330.037 278.315 330.331ZM279.342 324.64C277.376 324.339 275.939 324.515 275.271 325.84L282.783 326.991C282.509 325.521 281.157 324.918 279.342 324.64ZM286.105 330.182L288.979 330.623C288.816 331.681 289.847 332.252 293.056 332.744C296.165 333.22 296.7 333.095 296.819 332.322C296.934 331.566 296.472 331.444 293.027 330.692C288.713 329.774 286.63 329.111 286.996 326.724C287.392 324.137 290.492 324.113 294.021 324.653C297.751 325.225 300.382 326.126 299.965 328.849L297.075 328.406C297.201 327.583 296.19 327.221 293.518 326.812C290.796 326.395 289.992 326.478 289.904 327.05C289.809 327.671 290.315 327.852 293.687 328.627C297.508 329.504 300.131 330.009 299.727 332.648C299.3 335.437 296.704 335.538 292.89 334.954C289.075 334.369 285.621 333.342 286.105 330.182Z" fill="white"/>
<path d="M67.9514 132.654C65.3216 132.255 63.0346 131.695 61.1599 130.986C59.2505 130.271 57.8014 129.556 56.818 128.805C55.8692 128.059 55.1144 127.201 54.6176 126.276C54.1208 125.351 53.8211 124.526 53.7479 123.843C53.6746 123.159 53.7157 122.422 53.8313 121.66L53.8838 121.314L62.5001 122.622C62.2845 125.209 63.9587 126.773 69.0109 127.54L70.9141 127.829C72.575 128.081 73.2829 128.082 74.4112 128.112C75.5049 128.136 76.3271 128.084 76.8535 127.881C77.4146 127.683 77.7628 127.488 77.9778 127.237C78.1929 126.987 78.3094 126.686 78.3671 126.305C78.4459 125.786 78.3705 125.35 78.141 124.996C77.9062 124.677 77.2561 124.296 76.2548 123.896C75.2482 123.531 73.7812 123.166 71.8141 122.832L69.2293 122.369L67.2967 122.04C58.7465 120.53 54.8181 117.491 55.5009 112.993L55.5482 112.681C55.6637 111.92 55.8778 111.209 56.1853 110.583C56.4927 109.957 57.0077 109.363 57.7702 108.771C58.4929 108.208 59.4074 107.78 60.5138 107.488C61.6202 107.195 63.0621 107.025 64.8689 107.016C66.6464 106.967 68.709 107.139 71.0274 107.491L73.4843 107.863C75.872 108.226 77.9964 108.69 79.7831 109.28C81.6044 109.875 83 110.476 84.0338 111.129C85.0676 111.781 85.878 112.506 86.465 113.303C87.052 114.1 87.4314 114.866 87.5739 115.56C87.7456 116.294 87.7738 117.042 87.653 117.838L87.6057 118.149L79.024 116.846C78.9915 116.594 78.9591 116.341 78.9162 116.158C78.8732 115.974 78.7024 115.7 78.4382 115.342C78.174 114.983 77.8302 114.683 77.3426 114.396C76.8844 114.15 76.1494 113.861 75.2068 113.541C74.2589 113.256 73.5081 113.071 72.1932 112.871L70.982 112.688C68.975 112.383 67.7135 112.298 66.6093 112.342C65.5344 112.427 64.8402 112.57 64.5958 112.78C64.3168 112.986 64.1605 113.316 64.0922 113.766C64.0292 114.181 64.0857 114.508 64.3205 114.827C64.526 115.106 65.0775 115.438 65.975 115.822C66.8778 116.171 68.177 116.475 69.8673 116.766L71.7998 117.095L74.2861 117.508C79.2239 118.328 82.6589 119.487 84.6656 120.96C86.7069 122.438 87.5118 124.365 87.1389 126.822L87.0706 127.272C86.934 128.172 86.7094 128.952 86.3967 129.612C86.0841 130.273 85.5239 130.931 84.7509 131.593C83.9831 132.22 83.0235 132.711 81.8426 133.028C80.6565 133.379 79.1108 133.533 77.1603 133.556C75.2046 133.613 72.9344 133.41 70.3737 133.022L67.9514 132.654ZM92.8531 111.157L120.709 115.385L119.874 120.887L100.184 117.899L99.6382 121.498L118.878 124.418L118.037 129.955L98.7978 127.034L98.1938 131.014L118.264 134.06L117.408 139.7L89.1712 135.415L92.8531 111.157ZM130.686 141.751L133.491 123.273L122.141 121.55L123.013 115.806L154.087 120.523L153.215 126.267L141.83 124.539L139.025 143.017L130.686 141.751ZM169.781 147.721L168.501 147.526C166.563 147.232 164.819 146.826 163.275 146.273C161.73 145.72 160.444 145.1 159.415 144.413C158.387 143.726 157.512 142.956 156.792 142.103C156.072 141.25 155.49 140.418 155.121 139.584C154.752 138.749 154.458 137.89 154.278 136.977C154.092 136.1 154.005 135.272 154.007 134.565C154.013 133.822 154.084 133.125 154.194 132.398L155.953 120.806L164.12 122.045L162.429 133.188C162.297 134.053 162.315 134.87 162.447 135.633C162.574 136.431 162.878 137.221 163.356 138.037C163.84 138.818 164.65 139.543 165.764 140.137C166.912 140.736 168.334 141.164 169.994 141.416C171.655 141.668 173.106 141.676 174.345 141.44C175.585 141.203 176.574 140.751 177.267 140.148C177.966 139.511 178.526 138.853 178.884 138.128C179.236 137.438 179.461 136.658 179.592 135.793L181.283 124.651L189.45 125.89L187.69 137.482C187.538 138.486 187.277 139.508 186.882 140.475C186.448 141.471 185.795 142.505 184.919 143.611C184.014 144.677 182.922 145.573 181.678 146.305C180.4 147.031 178.727 147.556 176.665 147.845C174.604 148.134 172.307 148.104 169.781 147.721ZM210.344 145.594L198.787 143.84L197.563 151.902L189.327 150.652L193.004 126.43L212.797 129.434C220.998 130.679 224.682 133.928 223.884 139.188L223.837 139.5C223.033 144.794 218.545 146.839 210.344 145.594ZM200.404 133.182L199.611 138.407L211.031 140.14C213.557 140.523 214.968 139.853 215.226 138.157L215.241 138.053C215.499 136.358 214.35 135.298 211.824 134.915L200.404 133.182ZM275.458 163.69L273.674 158.888L252.116 155.616L249.056 159.683L240.647 158.406L257.686 136.177L273.915 138.64L284.386 165.045L275.458 163.69ZM267.844 143.418L261.962 142.525L255.892 150.56L271.429 152.919L267.844 143.418Z" fill="white"/>
<path d="M57.8167 181.4L48.8197 180.034L41.7566 154.5L50.6497 155.85L54.868 173.306L61.4995 161.568L72.019 163.165L75.387 175.96L84.3883 160.971L92.4163 162.19L78.2329 184.499L70.0318 183.254L66.614 168.221L65.2299 168.011L57.8167 181.4ZM152.564 196.064L150.745 191.257L96.6937 183.053L93.6338 187.12L85.2251 185.843L102.264 163.614L150.986 171.009L161.492 197.419L152.564 196.064ZM144.91 175.822L106.534 169.997L100.465 178.032L148.495 185.322L144.91 175.822ZM167.276 173.552L175.512 174.802L172.749 193.004L191.124 195.793L190.21 201.814L163.6 197.775L167.276 173.552ZM196.406 177.974L204.641 179.224L201.879 197.425L220.253 200.214L219.339 206.235L192.729 202.196L196.406 177.974ZM225.545 182.326L303.888 194.217L303.053 199.719L232.877 189.067L232.331 192.666L302.022 203.244L301.182 208.781L231.49 198.203L230.886 202.182L301.408 212.886L300.552 218.527L221.864 206.583L225.545 182.326ZM313.831 220.578L316.636 202.099L305.286 200.377L306.157 194.632L337.232 199.349L336.36 205.093L324.975 203.365L322.17 221.843L313.831 220.578Z" fill="#EEE201"/>
</g>
</svg>
