<svg width="174" height="158" viewBox="0 0 174 158" fill="none" xmlns="http://www.w3.org/2000/svg">
<rect x="1.40063" y="0.990234" width="172" height="156" rx="29.5" stroke="white"/>
<mask id="mask0_154_806" style="mask-type:alpha" maskUnits="userSpaceOnUse" x="2" y="2" width="170" height="154">
<rect x="2.90063" y="2.49023" width="169" height="153" rx="30" fill="black"/>
</mask>
<g mask="url(#mask0_154_806)">
<rect x="3.40063" y="2.99023" width="168" height="152" rx="29.5" fill="white" stroke="black"/>
<path d="M19.0865 48.0442H23.7665C23.7665 48.6562 24.3425 49.0702 27.3125 49.0702C30.0845 49.0702 30.4985 48.8902 30.4985 48.4222C30.4985 47.8822 30.0845 47.8102 27.1325 47.7202C21.4445 47.5402 19.2665 46.6042 19.2665 43.6702C19.2665 40.8982 21.9845 39.7102 26.9525 39.7102C31.8665 39.7102 34.6385 40.8982 34.6385 44.1202H29.9585C29.9585 43.4542 28.8785 43.3102 26.5925 43.3102C24.3965 43.3102 23.9465 43.4182 23.9465 43.9042C23.9465 44.3902 24.3965 44.3722 27.1325 44.4802C32.1005 44.6782 35.1785 45.0202 35.1785 48.3142C35.1785 51.7882 32.2985 52.6702 27.1325 52.6702C21.9665 52.6702 19.0865 51.7882 19.0865 48.0442ZM43.2838 52.6702C37.7398 52.6702 35.3638 50.5642 35.3638 46.1722C35.3638 41.7982 37.7398 39.7102 43.2838 39.7102C48.8098 39.7102 51.2038 41.8162 51.2038 46.1722C51.2038 50.5462 48.8098 52.6702 43.2838 52.6702ZM43.2838 48.7102C46.0378 48.7102 46.5238 47.5042 46.5238 46.1722C46.5238 44.8582 46.0558 43.6702 43.2838 43.6702C40.5118 43.6702 40.0438 44.8402 40.0438 46.1722C40.0438 47.5222 40.5298 48.7102 43.2838 48.7102ZM71.0469 39.8902V52.4902H66.3669V46.4962L62.9289 52.4902H59.8689L56.4309 46.4962V52.4902H51.7509V39.8902H57.5109L61.3989 47.0902L65.2869 39.8902H71.0469ZM85.0924 43.4902H76.4524V44.6602H85.0924V47.7202H76.4524V48.8902H85.0924V52.4902H71.7724V39.8902H85.0924V43.4902ZM100.924 39.8902V43.8502H95.5239V52.4902H90.8439V43.8502H85.4439V39.8902H100.924ZM113.522 39.8902H118.202V52.4902H113.522V48.1702H106.142V52.4902H101.462V39.8902H106.142V44.2102H113.522V39.8902ZM123.597 39.8902V52.4902H118.917V39.8902H123.597ZM135.869 39.8902H140.549V52.4902H134.429L128.993 45.0562V52.4902H124.313V39.8902H130.433L135.869 47.3242V39.8902ZM148.534 48.1522V45.6322H156.706V52.4902H154.006L153.664 50.6722C152.602 51.9142 150.946 52.6702 148.3 52.6702C143.656 52.6702 140.92 50.5642 140.92 46.1722C140.92 41.7982 143.656 39.7102 148.84 39.7102C153.88 39.7102 156.508 41.4742 156.706 44.9122H151.918C151.738 44.2642 150.82 43.6702 148.84 43.6702C146.068 43.6702 145.6 44.8402 145.6 46.3522C145.6 47.8822 146.086 49.2502 148.84 49.2502C150.64 49.2502 151.738 48.9982 151.918 48.1522H148.534Z" fill="black"/>
<mask id="path-5-outside-1_154_806" maskUnits="userSpaceOnUse" x="17.9006" y="68.4902" width="140" height="16" fill="black">
<rect fill="white" x="17.9006" y="68.4902" width="140" height="16"/>
<path d="M19.0865 78.0442H23.7665C23.7665 78.6562 24.3425 79.0702 27.3125 79.0702C30.0845 79.0702 30.4985 78.8902 30.4985 78.4222C30.4985 77.8822 30.0845 77.8102 27.1325 77.7202C21.4445 77.5402 19.2665 76.6042 19.2665 73.6702C19.2665 70.8982 21.9845 69.7102 26.9525 69.7102C31.8665 69.7102 34.6385 70.8982 34.6385 74.1202H29.9585C29.9585 73.4542 28.8785 73.3102 26.5925 73.3102C24.3965 73.3102 23.9465 73.4182 23.9465 73.9042C23.9465 74.3902 24.3965 74.3722 27.1325 74.4802C32.1005 74.6782 35.1785 75.0202 35.1785 78.3142C35.1785 81.7882 32.2985 82.6702 27.1325 82.6702C21.9665 82.6702 19.0865 81.7882 19.0865 78.0442ZM43.2838 82.6702C37.7398 82.6702 35.3638 80.5642 35.3638 76.1722C35.3638 71.7982 37.7398 69.7102 43.2838 69.7102C48.8098 69.7102 51.2038 71.8162 51.2038 76.1722C51.2038 80.5462 48.8098 82.6702 43.2838 82.6702ZM43.2838 78.7102C46.0378 78.7102 46.5238 77.5042 46.5238 76.1722C46.5238 74.8582 46.0558 73.6702 43.2838 73.6702C40.5118 73.6702 40.0438 74.8402 40.0438 76.1722C40.0438 77.5222 40.5298 78.7102 43.2838 78.7102ZM71.0469 69.8902V82.4902H66.3669V76.4962L62.9289 82.4902H59.8689L56.4309 76.4962V82.4902H51.7509V69.8902H57.5109L61.3989 77.0902L65.2869 69.8902H71.0469ZM85.0924 73.4902H76.4524V74.6602H85.0924V77.7202H76.4524V78.8902H85.0924V82.4902H71.7724V69.8902H85.0924V73.4902ZM100.924 69.8902V73.8502H95.5239V82.4902H90.8439V73.8502H85.4439V69.8902H100.924ZM113.522 69.8902H118.202V82.4902H113.522V78.1702H106.142V82.4902H101.462V69.8902H106.142V74.2102H113.522V69.8902ZM123.597 69.8902V82.4902H118.917V69.8902H123.597ZM135.869 69.8902H140.549V82.4902H134.429L128.993 75.0562V82.4902H124.313V69.8902H130.433L135.869 77.3242V69.8902ZM148.534 78.1522V75.6322H156.706V82.4902H154.006L153.664 80.6722C152.602 81.9142 150.946 82.6702 148.3 82.6702C143.656 82.6702 140.92 80.5642 140.92 76.1722C140.92 71.7982 143.656 69.7102 148.84 69.7102C153.88 69.7102 156.508 71.4742 156.706 74.9122H151.918C151.738 74.2642 150.82 73.6702 148.84 73.6702C146.068 73.6702 145.6 74.8402 145.6 76.3522C145.6 77.8822 146.086 79.2502 148.84 79.2502C150.64 79.2502 151.738 78.9982 151.918 78.1522H148.534Z"/>
</mask>
<path d="M19.0865 78.0442V77.0442H18.0865V78.0442H19.0865ZM23.7665 78.0442H24.7665V77.0442H23.7665V78.0442ZM27.1325 77.7202L27.1009 78.7197L27.102 78.7198L27.1325 77.7202ZM34.6385 74.1202V75.1202H35.6385V74.1202H34.6385ZM29.9585 74.1202H28.9585V75.1202H29.9585V74.1202ZM27.1325 74.4802L27.1723 73.481L27.1719 73.481L27.1325 74.4802ZM19.0865 79.0442H23.7665V77.0442H19.0865V79.0442ZM22.7665 78.0442C22.7665 78.3662 22.8473 78.7458 23.1236 79.0894C23.3828 79.4117 23.7371 79.6054 24.0959 79.7308C24.7849 79.9715 25.8214 80.0702 27.3125 80.0702V78.0702C25.8335 78.0702 25.0971 77.962 24.7555 77.8427C24.5991 77.788 24.6238 77.7635 24.6822 77.8361C24.7577 77.9299 24.7665 78.0283 24.7665 78.0442H22.7665ZM27.3125 80.0702C28.679 80.0702 29.5901 80.0295 30.1691 79.8963C30.4581 79.8298 30.8187 79.7088 31.1 79.4256C31.4301 79.0933 31.4985 78.7001 31.4985 78.4222H29.4985C29.4985 78.3784 29.5152 78.1832 29.681 78.0162C29.798 77.8984 29.8819 77.9101 29.7208 77.9472C29.3999 78.021 28.718 78.0702 27.3125 78.0702V80.0702ZM31.4985 78.4222C31.4985 78.1603 31.4464 77.7384 31.0913 77.3868C30.7919 77.0904 30.4059 76.9807 30.1231 76.9228C29.5456 76.8046 28.5992 76.7645 27.163 76.7207L27.102 78.7198C28.6178 78.766 29.3544 78.8069 29.7219 78.8822C29.9116 78.921 29.8136 78.9362 29.6841 78.808C29.4988 78.6245 29.4985 78.4141 29.4985 78.4222H31.4985ZM27.1641 76.7207C24.3172 76.6306 22.5514 76.3487 21.5111 75.8323C21.022 75.5895 20.7357 75.3143 20.5598 75.0122C20.3799 74.7033 20.2665 74.2819 20.2665 73.6702H18.2665C18.2665 74.5255 18.4254 75.3214 18.8316 76.0188C19.2418 76.7231 19.8555 77.2432 20.6219 77.6237C22.0926 78.3538 24.2598 78.6298 27.1009 78.7197L27.1641 76.7207ZM20.2665 73.6702C20.2665 73.1483 20.3917 72.7521 20.6021 72.4348C20.8164 72.1119 21.1601 71.8092 21.69 71.547C22.7806 71.0074 24.5142 70.7102 26.9525 70.7102V68.7102C24.4228 68.7102 22.3134 69.0071 20.803 69.7545C20.0324 70.1358 19.3861 70.6498 18.9355 71.3293C18.481 72.0144 18.2665 72.8061 18.2665 73.6702H20.2665ZM26.9525 70.7102C29.3673 70.7102 31.0834 71.0089 32.1663 71.5886C32.6887 71.8683 33.0416 72.2016 33.2697 72.5841C33.4981 72.9671 33.6385 73.4613 33.6385 74.1202H35.6385C35.6385 73.1681 35.4323 72.3056 34.9874 71.5597C34.5423 70.8132 33.895 70.2454 33.1102 69.8253C31.5786 69.0055 29.4517 68.7102 26.9525 68.7102V70.7102ZM34.6385 73.1202H29.9585V75.1202H34.6385V73.1202ZM30.9585 74.1202C30.9585 73.6285 30.7352 73.2106 30.3702 72.9251C30.0572 72.6802 29.6767 72.5594 29.3425 72.4877C28.6683 72.3431 27.7248 72.3102 26.5925 72.3102V74.3102C27.7462 74.3102 28.4857 74.3494 28.9229 74.4432C29.1446 74.4908 29.1769 74.5309 29.1378 74.5003C29.0468 74.4291 28.9585 74.279 28.9585 74.1202H30.9585ZM26.5925 72.3102C25.5243 72.3102 24.7425 72.3324 24.2249 72.4497C23.9613 72.5095 23.6114 72.6249 23.3351 72.9083C23.0184 73.2331 22.9465 73.619 22.9465 73.9042H24.9465C24.9465 73.9464 24.9308 74.1366 24.7672 74.3045C24.6438 74.431 24.5436 74.4282 24.6671 74.4002C24.9235 74.3421 25.4647 74.3102 26.5925 74.3102V72.3102ZM22.9465 73.9042C22.9465 74.1972 23.0256 74.6357 23.4327 74.9632C23.7396 75.2101 24.1149 75.2845 24.3618 75.3224C24.8896 75.4034 25.775 75.4274 27.0931 75.4795L27.1719 73.481C25.754 73.425 25.0464 73.4041 24.6652 73.3456C24.4576 73.3137 24.5494 73.2947 24.6865 73.405C24.9236 73.5958 24.9465 73.8543 24.9465 73.9042H22.9465ZM27.0927 75.4794C29.6193 75.5801 31.4566 75.718 32.667 76.1724C33.2437 76.3889 33.597 76.6501 33.8141 76.9455C34.0261 77.2341 34.1785 77.651 34.1785 78.3142H36.1785C36.1785 77.3305 35.9461 76.4694 35.4258 75.7612C34.9105 75.0599 34.1838 74.6056 33.37 74.3C31.7994 73.7104 29.6137 73.5783 27.1723 73.481L27.0927 75.4794ZM34.1785 78.3142C34.1785 79.0436 34.0283 79.5582 33.7956 79.9372C33.5646 80.3134 33.206 80.6317 32.6604 80.8933C31.5162 81.4418 29.7073 81.6702 27.1325 81.6702V83.6702C29.7237 83.6702 31.9378 83.4577 33.525 82.6967C34.3452 82.3035 35.0295 81.75 35.5 80.9837C35.9687 80.2203 36.1785 79.3219 36.1785 78.3142H34.1785ZM27.1325 81.6702C24.5542 81.6702 22.7573 81.4404 21.6224 80.8683C21.0842 80.597 20.7218 80.261 20.4839 79.8476C20.2418 79.4271 20.0865 78.8534 20.0865 78.0442H18.0865C18.0865 79.1071 18.2912 80.0476 18.7506 80.8455C19.214 81.6505 19.8946 82.237 20.7221 82.6542C22.3187 83.459 24.5448 83.6702 27.1325 83.6702V81.6702ZM43.2838 81.6702C40.6054 81.6702 38.9087 81.1554 37.8861 80.3009C36.9039 79.4801 36.3638 78.1903 36.3638 76.1722H34.3638C34.3638 78.5461 35.0118 80.5054 36.6036 81.8356C38.155 83.132 40.4183 83.6702 43.2838 83.6702V81.6702ZM36.3638 76.1722C36.3638 74.1645 36.903 72.8847 37.8837 72.0703C38.9063 71.2211 40.6038 70.7102 43.2838 70.7102V68.7102C40.4198 68.7102 38.1574 69.2433 36.606 70.5317C35.0127 71.8548 34.3638 73.806 34.3638 76.1722H36.3638ZM43.2838 70.7102C45.9523 70.7102 47.6511 71.2246 48.6771 72.0769C49.662 72.8951 50.2038 74.1767 50.2038 76.1722H52.2038C52.2038 73.8118 51.5487 71.8624 49.9551 70.5385C48.4026 69.2488 46.1414 68.7102 43.2838 68.7102V70.7102ZM50.2038 76.1722C50.2038 78.1781 49.6611 79.4697 48.6747 80.2943C47.6487 81.1519 45.9507 81.6702 43.2838 81.6702V83.6702C46.143 83.6702 48.405 83.1265 49.9575 81.8287C51.5496 80.4978 52.2038 78.5404 52.2038 76.1722H50.2038ZM43.2838 79.7102C44.7761 79.7102 45.9072 79.3879 46.6454 78.6461C47.3905 77.8975 47.5238 76.9328 47.5238 76.1722H45.5238C45.5238 76.7437 45.4142 77.048 45.2278 77.2353C45.0344 77.4296 44.5456 77.7102 43.2838 77.7102V79.7102ZM47.5238 76.1722C47.5238 75.4243 47.3965 74.4638 46.6487 73.7197C45.9111 72.9856 44.7795 72.6702 43.2838 72.6702V74.6702C44.5602 74.6702 45.0486 74.9489 45.238 75.1373C45.4172 75.3157 45.5238 75.6061 45.5238 76.1722H47.5238ZM43.2838 72.6702C41.7921 72.6702 40.6597 72.9794 39.9207 73.7112C39.17 74.4546 39.0438 75.4181 39.0438 76.1722H41.0438C41.0438 75.5943 41.1516 75.3069 41.328 75.1323C41.516 74.9461 42.0035 74.6702 43.2838 74.6702V72.6702ZM39.0438 76.1722C39.0438 76.939 39.1761 77.9067 39.924 78.6546C40.6635 79.3941 41.7955 79.7102 43.2838 79.7102V77.7102C42.0182 77.7102 41.5302 77.4323 41.3382 77.2404C41.1546 77.0568 41.0438 76.7554 41.0438 76.1722H39.0438ZM71.0469 69.8902H72.0469V68.8902H71.0469V69.8902ZM71.0469 82.4902V83.4902H72.0469V82.4902H71.0469ZM66.3669 82.4902H65.3669V83.4902H66.3669V82.4902ZM66.3669 76.4962H67.3669V72.7429L65.4994 75.9987L66.3669 76.4962ZM62.9289 82.4902V83.4902H63.5081L63.7963 82.9878L62.9289 82.4902ZM59.8689 82.4902L59.0014 82.9878L59.2896 83.4902H59.8689V82.4902ZM56.4309 76.4962L57.2983 75.9987L55.4309 72.7429V76.4962H56.4309ZM56.4309 82.4902V83.4902H57.4309V82.4902H56.4309ZM51.7509 82.4902H50.7509V83.4902H51.7509V82.4902ZM51.7509 69.8902V68.8902H50.7509V69.8902H51.7509ZM57.5109 69.8902L58.3908 69.4151L58.1074 68.8902H57.5109V69.8902ZM61.3989 77.0902L60.519 77.5654L61.3989 79.1948L62.2788 77.5654L61.3989 77.0902ZM65.2869 69.8902V68.8902H64.6904L64.407 69.4151L65.2869 69.8902ZM70.0469 69.8902V82.4902H72.0469V69.8902H70.0469ZM71.0469 81.4902H66.3669V83.4902H71.0469V81.4902ZM67.3669 82.4902V76.4962H65.3669V82.4902H67.3669ZM65.4994 75.9987L62.0614 81.9927L63.7963 82.9878L67.2343 76.9938L65.4994 75.9987ZM62.9289 81.4902H59.8689V83.4902H62.9289V81.4902ZM60.7363 81.9927L57.2983 75.9987L55.5634 76.9938L59.0014 82.9878L60.7363 81.9927ZM55.4309 76.4962V82.4902H57.4309V76.4962H55.4309ZM56.4309 81.4902H51.7509V83.4902H56.4309V81.4902ZM52.7509 82.4902V69.8902H50.7509V82.4902H52.7509ZM51.7509 70.8902H57.5109V68.8902H51.7509V70.8902ZM56.631 70.3654L60.519 77.5654L62.2788 76.6151L58.3908 69.4151L56.631 70.3654ZM62.2788 77.5654L66.1668 70.3654L64.407 69.4151L60.519 76.6151L62.2788 77.5654ZM65.2869 70.8902H71.0469V68.8902H65.2869V70.8902ZM85.0924 73.4902V74.4902H86.0924V73.4902H85.0924ZM76.4524 73.4902V72.4902H75.4524V73.4902H76.4524ZM76.4524 74.6602H75.4524V75.6602H76.4524V74.6602ZM85.0924 74.6602H86.0924V73.6602H85.0924V74.6602ZM85.0924 77.7202V78.7202H86.0924V77.7202H85.0924ZM76.4524 77.7202V76.7202H75.4524V77.7202H76.4524ZM76.4524 78.8902H75.4524V79.8902H76.4524V78.8902ZM85.0924 78.8902H86.0924V77.8902H85.0924V78.8902ZM85.0924 82.4902V83.4902H86.0924V82.4902H85.0924ZM71.7724 82.4902H70.7724V83.4902H71.7724V82.4902ZM71.7724 69.8902V68.8902H70.7724V69.8902H71.7724ZM85.0924 69.8902H86.0924V68.8902H85.0924V69.8902ZM85.0924 72.4902H76.4524V74.4902H85.0924V72.4902ZM75.4524 73.4902V74.6602H77.4524V73.4902H75.4524ZM76.4524 75.6602H85.0924V73.6602H76.4524V75.6602ZM84.0924 74.6602V77.7202H86.0924V74.6602H84.0924ZM85.0924 76.7202H76.4524V78.7202H85.0924V76.7202ZM75.4524 77.7202V78.8902H77.4524V77.7202H75.4524ZM76.4524 79.8902H85.0924V77.8902H76.4524V79.8902ZM84.0924 78.8902V82.4902H86.0924V78.8902H84.0924ZM85.0924 81.4902H71.7724V83.4902H85.0924V81.4902ZM72.7724 82.4902V69.8902H70.7724V82.4902H72.7724ZM71.7724 70.8902H85.0924V68.8902H71.7724V70.8902ZM84.0924 69.8902V73.4902H86.0924V69.8902H84.0924ZM100.924 69.8902H101.924V68.8902H100.924V69.8902ZM100.924 73.8502V74.8502H101.924V73.8502H100.924ZM95.5239 73.8502V72.8502H94.5239V73.8502H95.5239ZM95.5239 82.4902V83.4902H96.5239V82.4902H95.5239ZM90.8439 82.4902H89.8439V83.4902H90.8439V82.4902ZM90.8439 73.8502H91.8439V72.8502H90.8439V73.8502ZM85.4439 73.8502H84.4439V74.8502H85.4439V73.8502ZM85.4439 69.8902V68.8902H84.4439V69.8902H85.4439ZM99.9239 69.8902V73.8502H101.924V69.8902H99.9239ZM100.924 72.8502H95.5239V74.8502H100.924V72.8502ZM94.5239 73.8502V82.4902H96.5239V73.8502H94.5239ZM95.5239 81.4902H90.8439V83.4902H95.5239V81.4902ZM91.8439 82.4902V73.8502H89.8439V82.4902H91.8439ZM90.8439 72.8502H85.4439V74.8502H90.8439V72.8502ZM86.4439 73.8502V69.8902H84.4439V73.8502H86.4439ZM85.4439 70.8902H100.924V68.8902H85.4439V70.8902ZM113.522 69.8902V68.8902H112.522V69.8902H113.522ZM118.202 69.8902H119.202V68.8902H118.202V69.8902ZM118.202 82.4902V83.4902H119.202V82.4902H118.202ZM113.522 82.4902H112.522V83.4902H113.522V82.4902ZM113.522 78.1702H114.522V77.1702H113.522V78.1702ZM106.142 78.1702V77.1702H105.142V78.1702H106.142ZM106.142 82.4902V83.4902H107.142V82.4902H106.142ZM101.462 82.4902H100.462V83.4902H101.462V82.4902ZM101.462 69.8902V68.8902H100.462V69.8902H101.462ZM106.142 69.8902H107.142V68.8902H106.142V69.8902ZM106.142 74.2102H105.142V75.2102H106.142V74.2102ZM113.522 74.2102V75.2102H114.522V74.2102H113.522ZM113.522 70.8902H118.202V68.8902H113.522V70.8902ZM117.202 69.8902V82.4902H119.202V69.8902H117.202ZM118.202 81.4902H113.522V83.4902H118.202V81.4902ZM114.522 82.4902V78.1702H112.522V82.4902H114.522ZM113.522 77.1702H106.142V79.1702H113.522V77.1702ZM105.142 78.1702V82.4902H107.142V78.1702H105.142ZM106.142 81.4902H101.462V83.4902H106.142V81.4902ZM102.462 82.4902V69.8902H100.462V82.4902H102.462ZM101.462 70.8902H106.142V68.8902H101.462V70.8902ZM105.142 69.8902V74.2102H107.142V69.8902H105.142ZM106.142 75.2102H113.522V73.2102H106.142V75.2102ZM114.522 74.2102V69.8902H112.522V74.2102H114.522ZM123.597 69.8902H124.597V68.8902H123.597V69.8902ZM123.597 82.4902V83.4902H124.597V82.4902H123.597ZM118.917 82.4902H117.917V83.4902H118.917V82.4902ZM118.917 69.8902V68.8902H117.917V69.8902H118.917ZM122.597 69.8902V82.4902H124.597V69.8902H122.597ZM123.597 81.4902H118.917V83.4902H123.597V81.4902ZM119.917 82.4902V69.8902H117.917V82.4902H119.917ZM118.917 70.8902H123.597V68.8902H118.917V70.8902ZM135.869 69.8902V68.8902H134.869V69.8902H135.869ZM140.549 69.8902H141.549V68.8902H140.549V69.8902ZM140.549 82.4902V83.4902H141.549V82.4902H140.549ZM134.429 82.4902L133.622 83.0805L133.922 83.4902H134.429V82.4902ZM128.993 75.0562L129.801 74.466L127.993 71.9945V75.0562H128.993ZM128.993 82.4902V83.4902H129.993V82.4902H128.993ZM124.313 82.4902H123.313V83.4902H124.313V82.4902ZM124.313 69.8902V68.8902H123.313V69.8902H124.313ZM130.433 69.8902L131.241 69.3L130.941 68.8902H130.433V69.8902ZM135.869 77.3242L135.062 77.9145L136.869 80.3859V77.3242H135.869ZM135.869 70.8902H140.549V68.8902H135.869V70.8902ZM139.549 69.8902V82.4902H141.549V69.8902H139.549ZM140.549 81.4902H134.429V83.4902H140.549V81.4902ZM135.237 81.9L129.801 74.466L128.186 75.6465L133.622 83.0805L135.237 81.9ZM127.993 75.0562V82.4902H129.993V75.0562H127.993ZM128.993 81.4902H124.313V83.4902H128.993V81.4902ZM125.313 82.4902V69.8902H123.313V82.4902H125.313ZM124.313 70.8902H130.433V68.8902H124.313V70.8902ZM129.626 70.4805L135.062 77.9145L136.677 76.734L131.241 69.3L129.626 70.4805ZM136.869 77.3242V69.8902H134.869V77.3242H136.869ZM148.534 78.1522H147.534V79.1522H148.534V78.1522ZM148.534 75.6322V74.6322H147.534V75.6322H148.534ZM156.706 75.6322H157.706V74.6322H156.706V75.6322ZM156.706 82.4902V83.4902H157.706V82.4902H156.706ZM154.006 82.4902L153.024 82.6751L153.177 83.4902H154.006V82.4902ZM153.664 80.6722L154.647 80.4874L154.261 78.4356L152.904 80.0224L153.664 80.6722ZM156.706 74.9122V75.9122H157.766L157.705 74.8547L156.706 74.9122ZM151.918 74.9122L150.955 75.1799L151.158 75.9122H151.918V74.9122ZM151.918 78.1522L152.897 78.3603L153.154 77.1522H151.918V78.1522ZM149.534 78.1522V75.6322H147.534V78.1522H149.534ZM148.534 76.6322H156.706V74.6322H148.534V76.6322ZM155.706 75.6322V82.4902H157.706V75.6322H155.706ZM156.706 81.4902H154.006V83.4902H156.706V81.4902ZM154.989 82.3054L154.647 80.4874L152.682 80.8571L153.024 82.6751L154.989 82.3054ZM152.904 80.0224C152.084 80.9817 150.744 81.6702 148.3 81.6702V83.6702C151.149 83.6702 153.121 82.8467 154.425 81.3221L152.904 80.0224ZM148.3 81.6702C146.111 81.6702 144.534 81.1716 143.517 80.3065C142.528 79.4654 141.92 78.1512 141.92 76.1722H139.92C139.92 78.5853 140.681 80.5201 142.221 81.83C143.733 83.1159 145.846 83.6702 148.3 83.6702V81.6702ZM141.92 76.1722C141.92 74.206 142.524 72.9137 143.562 72.081C144.642 71.2147 146.357 70.7102 148.84 70.7102V68.7102C146.14 68.7102 143.895 69.2498 142.311 70.521C140.685 71.8258 139.92 73.7644 139.92 76.1722H141.92ZM148.84 70.7102C151.269 70.7102 152.959 71.1398 154.036 71.8551C155.058 72.5333 155.625 73.53 155.708 74.9697L157.705 74.8547C157.59 72.8564 156.744 71.2521 155.142 70.1888C153.596 69.1627 151.452 68.7102 148.84 68.7102V70.7102ZM156.706 73.9122H151.918V75.9122H156.706V73.9122ZM152.882 74.6446C152.69 73.9522 152.147 73.4498 151.472 73.1396C150.798 72.8301 149.918 72.6702 148.84 72.6702V74.6702C149.743 74.6702 150.312 74.8074 150.637 74.9569C150.961 75.1057 150.967 75.2242 150.955 75.1799L152.882 74.6446ZM148.84 72.6702C147.351 72.6702 146.204 72.9783 145.461 73.7507C144.717 74.5233 144.6 75.5335 144.6 76.3522H146.6C146.6 75.659 146.718 75.3281 146.901 75.1377C147.085 74.9472 147.557 74.6702 148.84 74.6702V72.6702ZM144.6 76.3522C144.6 77.1863 144.724 78.2196 145.435 79.0328C146.167 79.8714 147.317 80.2502 148.84 80.2502V78.2502C147.61 78.2502 147.14 77.9451 146.941 77.7172C146.72 77.4639 146.6 77.0482 146.6 76.3522H144.6ZM148.84 80.2502C149.76 80.2502 150.616 80.1895 151.295 79.97C152.002 79.7413 152.704 79.2676 152.897 78.3603L150.94 77.9441C150.94 77.9466 150.946 77.9368 150.941 77.9418C150.922 77.959 150.853 78.0108 150.679 78.067C150.314 78.185 149.721 78.2502 148.84 78.2502V80.2502ZM151.918 77.1522H148.534V79.1522H151.918V77.1522Z" fill="black" mask="url(#path-5-outside-1_154_806)"/>
<path d="M19.0865 108.044H23.7665C23.7665 108.656 24.3425 109.07 27.3125 109.07C30.0845 109.07 30.4985 108.89 30.4985 108.422C30.4985 107.882 30.0845 107.81 27.1325 107.72C21.4445 107.54 19.2665 106.604 19.2665 103.67C19.2665 100.898 21.9845 99.7102 26.9525 99.7102C31.8665 99.7102 34.6385 100.898 34.6385 104.12H29.9585C29.9585 103.454 28.8785 103.31 26.5925 103.31C24.3965 103.31 23.9465 103.418 23.9465 103.904C23.9465 104.39 24.3965 104.372 27.1325 104.48C32.1005 104.678 35.1785 105.02 35.1785 108.314C35.1785 111.788 32.2985 112.67 27.1325 112.67C21.9665 112.67 19.0865 111.788 19.0865 108.044ZM43.2838 112.67C37.7398 112.67 35.3638 110.564 35.3638 106.172C35.3638 101.798 37.7398 99.7102 43.2838 99.7102C48.8098 99.7102 51.2038 101.816 51.2038 106.172C51.2038 110.546 48.8098 112.67 43.2838 112.67ZM43.2838 108.71C46.0378 108.71 46.5238 107.504 46.5238 106.172C46.5238 104.858 46.0558 103.67 43.2838 103.67C40.5118 103.67 40.0438 104.84 40.0438 106.172C40.0438 107.522 40.5298 108.71 43.2838 108.71ZM71.0469 99.8902V112.49H66.3669V106.496L62.9289 112.49H59.8689L56.4309 106.496V112.49H51.7509V99.8902H57.5109L61.3989 107.09L65.2869 99.8902H71.0469ZM85.0924 103.49H76.4524V104.66H85.0924V107.72H76.4524V108.89H85.0924V112.49H71.7724V99.8902H85.0924V103.49ZM100.924 99.8902V103.85H95.5239V112.49H90.8439V103.85H85.4439V99.8902H100.924ZM113.522 99.8902H118.202V112.49H113.522V108.17H106.142V112.49H101.462V99.8902H106.142V104.21H113.522V99.8902ZM123.597 99.8902V112.49H118.917V99.8902H123.597ZM135.869 99.8902H140.549V112.49H134.429L128.993 105.056V112.49H124.313V99.8902H130.433L135.869 107.324V99.8902ZM148.534 108.152V105.632H156.706V112.49H154.006L153.664 110.672C152.602 111.914 150.946 112.67 148.3 112.67C143.656 112.67 140.92 110.564 140.92 106.172C140.92 101.798 143.656 99.7102 148.84 99.7102C153.88 99.7102 156.508 101.474 156.706 104.912H151.918C151.738 104.264 150.82 103.67 148.84 103.67C146.068 103.67 145.6 104.84 145.6 106.352C145.6 107.882 146.086 109.25 148.84 109.25C150.64 109.25 151.738 108.998 151.918 108.152H148.534Z" fill="black"/>
<path d="M19.0865 138.044H23.7665C23.7665 138.656 24.3425 139.07 27.3125 139.07C30.0845 139.07 30.4985 138.89 30.4985 138.422C30.4985 137.882 30.0845 137.81 27.1325 137.72C21.4445 137.54 19.2665 136.604 19.2665 133.67C19.2665 130.898 21.9845 129.71 26.9525 129.71C31.8665 129.71 34.6385 130.898 34.6385 134.12H29.9585C29.9585 133.454 28.8785 133.31 26.5925 133.31C24.3965 133.31 23.9465 133.418 23.9465 133.904C23.9465 134.39 24.3965 134.372 27.1325 134.48C32.1005 134.678 35.1785 135.02 35.1785 138.314C35.1785 141.788 32.2985 142.67 27.1325 142.67C21.9665 142.67 19.0865 141.788 19.0865 138.044ZM43.2838 142.67C37.7398 142.67 35.3638 140.564 35.3638 136.172C35.3638 131.798 37.7398 129.71 43.2838 129.71C48.8098 129.71 51.2038 131.816 51.2038 136.172C51.2038 140.546 48.8098 142.67 43.2838 142.67ZM43.2838 138.71C46.0378 138.71 46.5238 137.504 46.5238 136.172C46.5238 134.858 46.0558 133.67 43.2838 133.67C40.5118 133.67 40.0438 134.84 40.0438 136.172C40.0438 137.522 40.5298 138.71 43.2838 138.71ZM71.0469 129.89V142.49H66.3669V136.496L62.9289 142.49H59.8689L56.4309 136.496V142.49H51.7509V129.89H57.5109L61.3989 137.09L65.2869 129.89H71.0469ZM85.0924 133.49H76.4524V134.66H85.0924V137.72H76.4524V138.89H85.0924V142.49H71.7724V129.89H85.0924V133.49ZM100.924 129.89V133.85H95.5239V142.49H90.8439V133.85H85.4439V129.89H100.924ZM113.522 129.89H118.202V142.49H113.522V138.17H106.142V142.49H101.462V129.89H106.142V134.21H113.522V129.89ZM123.597 129.89V142.49H118.917V129.89H123.597ZM135.869 129.89H140.549V142.49H134.429L128.993 135.056V142.49H124.313V129.89H130.433L135.869 137.324V129.89ZM148.534 138.152V135.632H156.706V142.49H154.006L153.664 140.672C152.602 141.914 150.946 142.67 148.3 142.67C143.656 142.67 140.92 140.564 140.92 136.172C140.92 131.798 143.656 129.71 148.84 129.71C153.88 129.71 156.508 131.474 156.706 134.912H151.918C151.738 134.264 150.82 133.67 148.84 133.67C146.068 133.67 145.6 134.84 145.6 136.352C145.6 137.882 146.086 139.25 148.84 139.25C150.64 139.25 151.738 138.998 151.918 138.152H148.534Z" fill="black" fill-opacity="0.27"/>
<path d="M19.0865 18.0442H23.7665C23.7665 18.6562 24.3425 19.0702 27.3125 19.0702C30.0845 19.0702 30.4985 18.8902 30.4985 18.4222C30.4985 17.8822 30.0845 17.8102 27.1325 17.7202C21.4445 17.5402 19.2665 16.6042 19.2665 13.6702C19.2665 10.8982 21.9845 9.71023 26.9525 9.71023C31.8665 9.71023 34.6385 10.8982 34.6385 14.1202H29.9585C29.9585 13.4542 28.8785 13.3102 26.5925 13.3102C24.3965 13.3102 23.9465 13.4182 23.9465 13.9042C23.9465 14.3902 24.3965 14.3722 27.1325 14.4802C32.1005 14.6782 35.1785 15.0202 35.1785 18.3142C35.1785 21.7882 32.2985 22.6702 27.1325 22.6702C21.9665 22.6702 19.0865 21.7882 19.0865 18.0442ZM43.2838 22.6702C37.7398 22.6702 35.3638 20.5642 35.3638 16.1722C35.3638 11.7982 37.7398 9.71023 43.2838 9.71023C48.8098 9.71023 51.2038 11.8162 51.2038 16.1722C51.2038 20.5462 48.8098 22.6702 43.2838 22.6702ZM43.2838 18.7102C46.0378 18.7102 46.5238 17.5042 46.5238 16.1722C46.5238 14.8582 46.0558 13.6702 43.2838 13.6702C40.5118 13.6702 40.0438 14.8402 40.0438 16.1722C40.0438 17.5222 40.5298 18.7102 43.2838 18.7102ZM71.0469 9.89023V22.4902H66.3669V16.4962L62.9289 22.4902H59.8689L56.4309 16.4962V22.4902H51.7509V9.89023H57.5109L61.3989 17.0902L65.2869 9.89023H71.0469ZM85.0924 13.4902H76.4524V14.6602H85.0924V17.7202H76.4524V18.8902H85.0924V22.4902H71.7724V9.89023H85.0924V13.4902ZM100.924 9.89023V13.8502L95.5239 13.8502V22.4902H90.8439V13.8502H85.4439V9.89023H100.924ZM113.522 9.89023H118.202V22.4902L113.522 22.4902V18.1702H106.142V22.4902H101.462V9.89023H106.142V14.2102H113.522V9.89023ZM123.597 9.89023V22.4902H118.917V9.89023H123.597ZM135.869 9.89023H140.549V22.4902H134.429L128.993 15.0562V22.4902H124.313V9.89023H130.433L135.869 17.3242V9.89023ZM148.534 18.1522V15.6322H156.706V22.4902H154.006L153.664 20.6722C152.602 21.9142 150.946 22.6702 148.3 22.6702C143.656 22.6702 140.92 20.5642 140.92 16.1722C140.92 11.7982 143.656 9.71023 148.84 9.71023C153.88 9.71023 156.508 11.4742 156.706 14.9122H151.918C151.738 14.2642 150.82 13.6702 148.84 13.6702C146.068 13.6702 145.6 14.8402 145.6 16.3522C145.6 17.8822 146.086 19.2502 148.84 19.2502C150.64 19.2502 151.738 18.9982 151.918 18.1522H148.534Z" fill="black" fill-opacity="0.27"/>
</g>
</svg>
