<svg width="396" height="408" viewBox="0 0 396 408" fill="none" xmlns="http://www.w3.org/2000/svg">
<mask id="mask0_127_799" style="mask-type:alpha" maskUnits="userSpaceOnUse" x="0" y="0" width="396" height="408">
<rect x="0.5" y="0.5" width="395" height="407" rx="16.5" fill="#6A0F7B" stroke="white"/>
</mask>
<g mask="url(#mask0_127_799)">
<rect x="0.5" y="0.5" width="395" height="407" rx="16.5" fill="#6A0F7B" stroke="white"/>
<path d="M37.0586 64.036V44.812H25.2506V38.836H57.5786V44.812H45.7346V64.036H37.0586ZM123.74 64L121.148 59.392H64.9156L62.4316 64H53.6836L67.5796 38.764H118.268L133.028 64H123.74ZM112.832 44.596H72.9076L67.9756 53.704H117.944L112.832 44.596ZM143.794 64.036H135.226V38.836H143.794V49.348L157.87 38.836H168.814L153.01 50.356L169.534 64.036H158.302L143.794 52.156V64.036ZM171.754 38.764H200.734V44.488H180.25V48.232H200.266V53.992H180.25V58.132H201.13V64H171.754V38.764ZM242.494 38.404H243.646C246.058 38.404 248.218 38.548 250.162 38.872C252.106 39.16 253.726 39.556 255.058 40.06C256.354 40.564 257.506 41.176 258.478 41.896C259.486 42.616 260.242 43.336 260.782 44.056C261.358 44.776 261.79 45.568 262.15 46.432C262.474 47.296 262.726 48.052 262.798 48.736C262.906 49.42 262.942 50.104 262.942 50.86V51.868C262.942 52.588 262.906 53.308 262.798 53.992C262.726 54.64 262.474 55.432 262.15 56.296C261.79 57.16 261.358 57.952 260.818 58.708C260.278 59.428 259.522 60.148 258.514 60.904C257.506 61.624 256.354 62.236 255.058 62.776C253.762 63.28 252.142 63.676 250.162 64C248.218 64.324 246.058 64.468 243.646 64.468H242.494C240.082 64.468 237.922 64.324 235.942 64C233.998 63.676 232.342 63.28 231.046 62.776C229.75 62.236 228.598 61.624 227.59 60.904C226.582 60.148 225.826 59.428 225.25 58.708C224.71 57.952 224.278 57.16 223.954 56.296C223.594 55.432 223.378 54.64 223.306 53.992C223.198 53.308 223.162 52.588 223.162 51.868V50.86C223.162 50.104 223.198 49.42 223.306 48.736C223.378 48.088 223.594 47.296 223.954 46.432C224.278 45.568 224.71 44.776 225.25 44.056C225.826 43.336 226.582 42.616 227.59 41.896C228.562 41.176 229.714 40.564 231.01 40.06C232.342 39.556 233.998 39.16 235.942 38.872C237.922 38.548 240.082 38.404 242.494 38.404ZM253.942 51.58V51.112C253.942 50.464 253.87 49.852 253.69 49.312C253.51 48.736 253.186 48.16 252.682 47.548C252.214 46.936 251.566 46.396 250.774 46C249.982 45.568 248.902 45.208 247.57 44.92C246.454 44.668 245.194 44.56 243.79 44.524C243.466 44.488 242.818 44.488 242.602 44.488C235.654 44.632 232.162 46.828 232.162 51.112V51.508C232.162 52.3 232.306 53.092 232.63 53.812C232.918 54.532 233.458 55.252 234.178 55.972C234.934 56.692 236.05 57.268 237.598 57.7C239.038 58.096 240.766 58.312 242.746 58.348C242.926 58.348 243.358 58.348 243.646 58.348C245.482 58.276 247.102 58.096 248.434 57.7C249.982 57.304 251.134 56.728 251.89 56.008C252.646 55.324 253.186 54.604 253.474 53.884C253.798 53.164 253.942 52.372 253.942 51.58ZM286.818 63.712H276.234L262.158 38.836H271.77L281.742 57.124L291.102 38.836H299.922L286.818 63.712ZM302.078 38.764H331.058V44.488H310.574V48.232H330.59V53.992H310.574V58.132H331.454V64H302.078V38.764ZM343.833 55.108V64.036H335.265V38.836H357.405C365.361 38.836 369.321 41.032 369.321 45.388V45.784C369.321 48.448 367.629 50.284 364.209 51.292C365.757 51.688 367.017 52.372 367.989 53.344C368.961 54.316 369.429 55.54 369.429 57.088V60.796C369.429 62.308 369.429 64.036 369.429 64.036H360.789C360.789 64.036 360.789 63.172 360.789 62.452V59.536C360.789 57.952 360.357 56.836 359.493 56.152C358.629 55.432 357.153 55.108 355.065 55.108H343.833ZM343.833 44.56V49.492H356.865C358.053 49.492 358.917 49.276 359.493 48.844C360.069 48.376 360.357 47.764 360.357 47.044V47.008C360.357 46.288 360.069 45.676 359.493 45.244C358.917 44.776 358.053 44.56 356.865 44.56H343.833Z" fill="white"/>
<path d="M18.1913 100V74.764H41.7353C45.4073 74.764 47.9993 75.268 49.5113 76.348C51.0593 77.428 51.8153 78.832 51.8153 80.524V80.992C51.8153 81.748 51.6353 82.468 51.3473 83.08C51.0233 83.692 50.6273 84.196 50.0873 84.556C49.5833 84.952 49.1153 85.24 48.6833 85.42C48.2873 85.636 47.8553 85.816 47.4233 85.924C48.0353 86.032 48.6113 86.248 49.1873 86.5C49.7633 86.752 50.3753 87.112 51.0593 87.544C51.7433 88.012 52.3193 88.66 52.7153 89.488C53.1473 90.28 53.3633 91.216 53.3633 92.26V92.728C53.3633 97.588 49.5473 100 41.9513 100H18.1913ZM26.7953 80.092V84.196H40.2593C42.2753 84.196 43.2473 83.512 43.2473 82.144V82.072C43.2473 80.74 42.2753 80.092 40.2593 80.092H26.7953ZM41.0153 89.56H26.7953V94.492H41.0153C42.2753 94.492 43.1753 94.24 43.6793 93.736C44.1473 93.268 44.3993 92.692 44.3993 92.008V91.9C44.3993 90.316 43.2833 89.56 41.0153 89.56ZM56.6873 74.836H65.2553V93.772H84.3713V100.036H56.6873V74.836ZM105.244 74.404H106.396C108.808 74.404 110.968 74.548 112.912 74.872C114.856 75.16 116.476 75.556 117.808 76.06C119.104 76.564 120.256 77.176 121.228 77.896C122.236 78.616 122.992 79.336 123.532 80.056C124.108 80.776 124.54 81.568 124.9 82.432C125.224 83.296 125.476 84.052 125.548 84.736C125.656 85.42 125.692 86.104 125.692 86.86V87.868C125.692 88.588 125.656 89.308 125.548 89.992C125.476 90.64 125.224 91.432 124.9 92.296C124.54 93.16 124.108 93.952 123.568 94.708C123.028 95.428 122.272 96.148 121.264 96.904C120.256 97.624 119.104 98.236 117.808 98.776C116.512 99.28 114.892 99.676 112.912 100C110.968 100.324 108.808 100.468 106.396 100.468H105.244C102.832 100.468 100.672 100.324 98.692 100C96.748 99.676 95.092 99.28 93.796 98.776C92.5 98.236 91.348 97.624 90.34 96.904C89.332 96.148 88.576 95.428 88 94.708C87.46 93.952 87.028 93.16 86.704 92.296C86.344 91.432 86.128 90.64 86.056 89.992C85.948 89.308 85.912 88.588 85.912 87.868V86.86C85.912 86.104 85.948 85.42 86.056 84.736C86.128 84.088 86.344 83.296 86.704 82.432C87.028 81.568 87.46 80.776 88 80.056C88.576 79.336 89.332 78.616 90.34 77.896C91.312 77.176 92.464 76.564 93.76 76.06C95.092 75.556 96.748 75.16 98.692 74.872C100.672 74.548 102.832 74.404 105.244 74.404ZM116.692 87.58V87.112C116.692 86.464 116.62 85.852 116.44 85.312C116.26 84.736 115.936 84.16 115.432 83.548C114.964 82.936 114.316 82.396 113.524 82C112.732 81.568 111.652 81.208 110.32 80.92C109.204 80.668 107.944 80.56 106.54 80.524C106.216 80.488 105.568 80.488 105.352 80.488C98.404 80.632 94.912 82.828 94.912 87.112V87.508C94.912 88.3 95.056 89.092 95.38 89.812C95.668 90.532 96.208 91.252 96.928 91.972C97.684 92.692 98.8 93.268 100.348 93.7C101.788 94.096 103.516 94.312 105.496 94.348C105.676 94.348 106.108 94.348 106.396 94.348C108.232 94.276 109.852 94.096 111.184 93.7C112.732 93.304 113.884 92.728 114.64 92.008C115.396 91.324 115.936 90.604 116.224 89.884C116.548 89.164 116.692 88.372 116.692 87.58ZM146.285 100.432C144.089 100.432 142.109 100.288 140.273 99.964C138.437 99.64 136.889 99.244 135.665 98.74C134.405 98.2 133.325 97.588 132.353 96.868C131.381 96.112 130.625 95.392 130.085 94.636C129.545 93.88 129.113 93.088 128.753 92.224C128.393 91.36 128.141 90.568 128.033 89.884C127.925 89.164 127.889 88.48 127.889 87.796V86.788C127.889 85.708 127.997 84.664 128.213 83.692C128.429 82.72 128.933 81.64 129.689 80.452C130.481 79.264 131.489 78.22 132.749 77.356C134.009 76.492 135.809 75.772 138.149 75.196C140.453 74.584 143.189 74.296 146.285 74.296H147.797C150.857 74.296 153.521 74.548 155.861 75.052C158.165 75.592 159.965 76.204 161.225 76.924C162.485 77.68 163.529 78.508 164.321 79.48C165.149 80.452 165.653 81.316 165.905 82.072C166.121 82.828 166.229 83.548 166.229 84.232V84.628H157.085C157.013 84.34 156.941 84.124 156.833 83.908C156.725 83.692 156.437 83.332 155.969 82.864C155.501 82.396 154.961 82 154.313 81.676C153.665 81.352 152.693 81.064 151.433 80.812C150.137 80.56 148.697 80.416 147.041 80.416C145.061 80.416 143.369 80.596 142.001 80.992C140.597 81.352 139.553 81.856 138.833 82.504C138.149 83.188 137.645 83.872 137.357 84.592C137.033 85.312 136.889 86.104 136.889 86.968V87.364C136.889 88.192 137.069 88.984 137.393 89.74C137.717 90.496 138.257 91.216 138.977 91.936C139.697 92.656 140.741 93.232 142.145 93.664C143.549 94.096 145.205 94.312 147.113 94.312C152.765 94.312 156.077 92.836 157.085 89.92C157.121 89.884 157.121 89.848 157.121 89.812H166.265V90.172C166.265 90.928 166.157 91.72 165.905 92.512C165.617 93.304 165.077 94.168 164.285 95.176C163.457 96.148 162.413 97.012 161.117 97.768C159.857 98.488 158.057 99.136 155.753 99.676C153.449 100.18 150.785 100.432 147.797 100.432H146.285ZM178.107 100.036H169.539V74.836H178.107V85.348L192.183 74.836H203.127L187.323 86.356L203.847 100.036H192.615L178.107 88.156V100.036ZM220.781 100.432C218.585 100.432 216.605 100.288 214.769 99.964C212.933 99.64 211.385 99.244 210.161 98.74C208.901 98.2 207.821 97.588 206.849 96.868C205.877 96.112 205.121 95.392 204.581 94.636C204.041 93.88 203.609 93.088 203.249 92.224C202.889 91.36 202.637 90.568 202.529 89.884C202.421 89.164 202.385 88.48 202.385 87.796V86.788C202.385 85.708 202.493 84.664 202.709 83.692C202.925 82.72 203.429 81.64 204.185 80.452C204.977 79.264 205.985 78.22 207.245 77.356C208.505 76.492 210.305 75.772 212.645 75.196C214.949 74.584 217.685 74.296 220.781 74.296H222.293C225.353 74.296 228.017 74.548 230.357 75.052C232.661 75.592 234.461 76.204 235.721 76.924C236.981 77.68 238.025 78.508 238.817 79.48C239.645 80.452 240.149 81.316 240.401 82.072C240.617 82.828 240.725 83.548 240.725 84.232V84.628H231.581C231.509 84.34 231.437 84.124 231.329 83.908C231.221 83.692 230.933 83.332 230.465 82.864C229.997 82.396 229.457 82 228.809 81.676C228.161 81.352 227.189 81.064 225.929 80.812C224.633 80.56 223.193 80.416 221.537 80.416C219.557 80.416 217.865 80.596 216.497 80.992C215.093 81.352 214.049 81.856 213.329 82.504C212.645 83.188 212.141 83.872 211.853 84.592C211.529 85.312 211.385 86.104 211.385 86.968V87.364C211.385 88.192 211.565 88.984 211.889 89.74C212.213 90.496 212.753 91.216 213.473 91.936C214.193 92.656 215.237 93.232 216.641 93.664C218.045 94.096 219.701 94.312 221.609 94.312C227.261 94.312 230.573 92.836 231.581 89.92C231.617 89.884 231.617 89.848 231.617 89.812H240.761V90.172C240.761 90.928 240.653 91.72 240.401 92.512C240.113 93.304 239.573 94.168 238.781 95.176C237.953 96.148 236.909 97.012 235.613 97.768C234.353 98.488 232.553 99.136 230.249 99.676C227.945 100.18 225.281 100.432 222.293 100.432H220.781ZM243.999 100V74.872H252.567V84.016H270.963V74.872H279.567V100H270.963V90.1H252.567V100H243.999ZM317.886 100L315.33 95.392H292.902L290.418 100H281.67L295.566 74.764H312.45L327.174 100H317.886ZM307.014 80.56H300.894L295.962 89.668H312.126L307.014 80.56ZM337.821 74.872V100H329.253V74.872H337.821ZM342.156 74.836H351.732L369.264 90.676V74.836H377.76V100.036H369.264L350.616 83.332V100.036H342.156V74.836Z" fill="#DC1FFF"/>
<path d="M50.1363 172.23C43.0523 172.23 40.0163 169.286 40.0163 163.927C40.0163 158.591 43.0523 155.67 50.1363 155.67C57.1973 155.67 60.2563 158.614 60.2563 163.927C60.2563 169.263 57.1973 172.23 50.1363 172.23ZM50.1363 168.757C54.4373 168.757 56.1163 167.216 56.1163 163.927C56.1163 160.661 54.4603 159.143 50.1363 159.143C45.8123 159.143 44.1563 160.638 44.1563 163.927C44.1563 167.239 45.8353 168.757 50.1363 168.757ZM76.7802 158.453H80.7132V172H76.7802V169.631C74.8482 171.149 72.1802 172.23 68.8912 172.23C65.2802 172.23 61.8992 170.942 61.8532 165.951L61.8992 158.453H65.8552V164.456C65.8552 167.331 66.8212 168.826 70.0642 168.826C72.7092 168.826 75.5612 167.469 76.7802 166.043V158.453ZM93.4417 158.223C95.0517 158.223 96.1787 158.453 97.0987 158.683V161.972C95.8107 161.65 94.7757 161.512 93.6257 161.512C91.4177 161.512 88.8877 162.018 86.4957 163.881V172H82.5627V158.453H86.4957V160.753C88.5197 158.936 90.9117 158.223 93.4417 158.223ZM109.129 166.457H113.269C113.269 168.159 114.649 168.941 119.893 168.941C124.24 168.941 125.551 168.458 125.551 167.193C125.551 165.859 124.631 165.629 119.41 165.376C112.395 165.054 109.612 163.95 109.612 160.339C109.612 156.797 113.223 155.67 119.249 155.67C125.321 155.67 129.001 157.188 129.001 161.167H124.861C124.861 159.396 123.09 158.959 118.789 158.959C114.718 158.959 113.752 159.35 113.752 160.546C113.752 161.788 114.718 162.018 119.41 162.294C125.758 162.639 129.691 162.984 129.691 167.055C129.691 171.356 125.62 172.23 119.663 172.23C113.062 172.23 109.129 171.103 109.129 166.457ZM151.819 158.453L143.033 163.996L151.819 172H146.345L139.859 166.089L135.236 168.872V172H131.303V153.6H135.236V164.548L145.103 158.453H151.819ZM152.708 153.6H156.641V157.027H152.708V153.6ZM152.708 158.453H156.641V172H152.708V158.453ZM169.176 158.223C173.523 158.223 177.249 160.063 177.249 165.238C177.249 170.413 173.523 172.23 169.176 172.23C166.255 172.23 163.886 171.425 162.414 169.884V172H158.481V153.6H162.414V160.569C163.886 159.028 166.255 158.223 169.176 158.223ZM167.865 168.941C171.384 168.941 173.293 167.906 173.293 165.238C173.293 162.547 171.384 161.512 167.865 161.512C164.346 161.512 162.414 162.547 162.414 165.238C162.414 167.906 164.346 168.941 167.865 168.941ZM178.74 153.6H182.673V157.027H178.74V153.6ZM178.74 158.453H182.673V172H178.74V158.453ZM199.006 153.6H202.939V172H199.006V169.884C197.534 171.425 195.165 172.23 192.244 172.23C187.897 172.23 184.171 170.413 184.171 165.238C184.171 160.063 187.897 158.223 192.244 158.223C195.165 158.223 197.534 159.028 199.006 160.569V153.6ZM193.555 168.941C197.074 168.941 199.006 167.906 199.006 165.238C199.006 162.547 197.074 161.512 193.555 161.512C190.036 161.512 188.127 162.547 188.127 165.238C188.127 167.906 190.036 168.941 193.555 168.941ZM204.773 153.6H208.706V157.027H204.773V153.6ZM204.773 158.453H208.706V172H204.773V158.453ZM231.082 172.23C223.998 172.23 220.962 169.286 220.962 163.927C220.962 158.591 223.998 155.67 231.082 155.67C238.143 155.67 241.202 158.614 241.202 163.927C241.202 169.263 238.143 172.23 231.082 172.23ZM231.082 168.757C235.383 168.757 237.062 167.216 237.062 163.927C237.062 160.661 235.406 159.143 231.082 159.143C226.758 159.143 225.102 160.638 225.102 163.927C225.102 167.239 226.781 168.757 231.082 168.757ZM256.419 158.453H260.789L253.912 172H248.3L241.446 158.453H245.816L251.129 169.217L256.419 158.453ZM269.243 169.033C271.957 169.033 273.613 168.527 274.602 167.147H278.512C277.615 170.597 274.257 172.23 269.243 172.23C264.091 172.23 260.089 170.206 260.089 165.238C260.089 160.247 263.976 158.223 269.473 158.223C274.625 158.223 278.742 159.994 278.742 166.158H264.114C264.551 168.32 266.621 169.033 269.243 169.033ZM269.45 161.213C266.759 161.213 264.873 161.742 264.252 163.651H274.533C273.866 161.742 271.934 161.213 269.45 161.213ZM291.12 158.223C292.73 158.223 293.857 158.453 294.777 158.683V161.972C293.489 161.65 292.454 161.512 291.304 161.512C289.096 161.512 286.566 162.018 284.174 163.881V172H280.241V158.453H284.174V160.753C286.198 158.936 288.59 158.223 291.12 158.223ZM296.391 153.6H300.324V172H296.391V153.6ZM311.205 172.23C305.593 172.23 301.821 170.206 301.821 165.238C301.821 160.247 305.593 158.223 311.205 158.223C316.794 158.223 320.589 160.247 320.589 165.238C320.589 170.206 316.794 172.23 311.205 172.23ZM311.205 168.941C314.839 168.941 316.633 168.044 316.633 165.238C316.633 162.409 314.839 161.512 311.205 161.512C307.548 161.512 305.754 162.409 305.754 165.238C305.754 168.044 307.548 168.941 311.205 168.941ZM332.965 158.223C334.575 158.223 335.702 158.453 336.622 158.683V161.972C335.334 161.65 334.299 161.512 333.149 161.512C330.941 161.512 328.411 162.018 326.019 163.881V172H322.086V158.453H326.019V160.753C328.043 158.936 330.435 158.223 332.965 158.223ZM351.83 153.6H355.763V172H351.83V169.884C350.358 171.425 347.989 172.23 345.068 172.23C340.721 172.23 336.995 170.413 336.995 165.238C336.995 160.063 340.721 158.223 345.068 158.223C347.989 158.223 350.358 159.028 351.83 160.569V153.6ZM346.379 168.941C349.898 168.941 351.83 167.906 351.83 165.238C351.83 162.547 349.898 161.512 346.379 161.512C342.86 161.512 340.951 162.547 340.951 165.238C340.951 167.906 342.86 168.941 346.379 168.941ZM37.0605 186.223C41.4305 186.223 45.1335 188.063 45.1335 193.238C45.1335 198.413 41.4305 200.23 37.0605 200.23C34.1395 200.23 31.7935 199.448 30.3215 197.907V205.75H26.3655V186.453H30.3215V188.546C31.7935 187.028 34.1395 186.223 37.0605 186.223ZM35.7495 196.941C39.2685 196.941 41.2005 195.906 41.2005 193.238C41.2005 190.547 39.2685 189.512 35.7495 189.512C32.2305 189.512 30.3215 190.547 30.3215 193.238C30.3215 195.906 32.2305 196.941 35.7495 196.941ZM46.7375 181.6H50.6705V200H46.7375V181.6ZM61.5977 186.223C67.2557 186.223 70.4757 188.04 70.5217 193.169V200H66.5657V198.321C64.1737 199.494 61.5287 200.23 58.3317 200.23C54.5367 200.23 52.1677 199.011 52.1677 195.952C52.1677 192.433 56.0317 191.329 60.3327 191.329C62.6557 191.329 64.7947 191.697 66.5657 192.295C66.5657 189.719 63.2537 189.512 61.4137 189.512C59.6427 189.512 57.4807 189.673 54.6977 190.501L53.2947 187.626C56.0547 186.729 58.7687 186.223 61.5977 186.223ZM66.5657 195.791V194.733C65.1857 194.296 63.3227 193.905 60.8157 193.905C57.8717 193.905 56.1007 194.411 56.1007 195.791C56.1007 197.217 57.4117 197.332 59.4587 197.332C61.5977 197.332 64.5417 196.665 66.5657 195.791ZM84.0976 186.223C87.7086 186.223 91.0896 187.511 91.1356 192.502L91.0896 200H87.1336V193.997C87.1336 191.122 86.1676 189.627 82.9246 189.627C80.2796 189.627 77.4276 190.984 76.2086 192.41V200H72.2756V186.453H76.2086V188.822C78.1406 187.304 80.8086 186.223 84.0976 186.223ZM92.4851 195.239H96.4181C96.4181 196.688 97.9131 197.24 102.306 197.24C106.561 197.24 107.251 196.964 107.251 195.906C107.251 194.871 106.607 194.802 101.846 194.503C95.8891 194.158 92.9681 193.698 92.9681 190.432C92.9681 186.89 97.1081 186.223 101.938 186.223C107.044 186.223 110.747 186.89 110.747 190.616H106.791C106.791 189.489 105.365 189.213 101.708 189.213C97.9821 189.213 96.9241 189.489 96.9241 190.271C96.9241 191.122 97.6371 191.26 102.306 191.605C107.596 191.996 111.207 192.134 111.207 195.745C111.207 199.563 107.757 200.23 102.536 200.23C97.3151 200.23 92.4851 199.563 92.4851 195.239ZM137.172 189.742H130.755V193.652C130.755 196.274 131.261 196.941 133.653 196.941C134.895 196.941 135.585 196.941 137.172 196.711V199.885C135.861 200.115 134.366 200.23 132.549 200.23C129.053 200.23 126.799 198.919 126.799 195.929V189.742H123.234V186.453H126.799V183.647L130.755 182.52V186.453H137.172V189.742ZM147.532 200.23C141.92 200.23 138.148 198.206 138.148 193.238C138.148 188.247 141.92 186.223 147.532 186.223C153.121 186.223 156.916 188.247 156.916 193.238C156.916 198.206 153.121 200.23 147.532 200.23ZM147.532 196.941C151.166 196.941 152.96 196.044 152.96 193.238C152.96 190.409 151.166 189.512 147.532 189.512C143.875 189.512 142.081 190.409 142.081 193.238C142.081 196.044 143.875 196.941 147.532 196.941ZM169.172 181.6H173.105V185.027H169.172V181.6ZM169.172 186.453H173.105V200H169.172V186.453ZM186.901 186.223C190.512 186.223 193.893 187.511 193.939 192.502L193.893 200H189.937V193.997C189.937 191.122 188.971 189.627 185.728 189.627C183.083 189.627 180.231 190.984 179.012 192.41V200H175.079V186.453H179.012V188.822C180.944 187.304 183.612 186.223 186.901 186.223ZM205.191 184.268C202.937 184.268 202.362 184.751 202.293 186.453H208.02V189.742H202.293V200H198.337V189.742H194.772V186.453H198.337V185.441C198.337 182.681 199.993 181.37 203.949 181.37C205.306 181.37 206.019 181.37 208.02 181.6V184.383C207.123 184.314 206.203 184.268 205.191 184.268ZM209.512 181.6H213.445V185.027H209.512V181.6ZM209.512 186.453H213.445V200H209.512V186.453ZM215.284 181.6H219.217V200H215.284V181.6ZM234.518 189.742H228.101V193.652C228.101 196.274 228.607 196.941 230.999 196.941C232.241 196.941 232.931 196.941 234.518 196.711V199.885C233.207 200.115 231.712 200.23 229.895 200.23C226.399 200.23 224.145 198.919 224.145 195.929V189.742H220.58V186.453H224.145V183.647L228.101 182.52V186.453H234.518V189.742ZM247.007 186.223C248.617 186.223 249.744 186.453 250.664 186.683V189.972C249.376 189.65 248.341 189.512 247.191 189.512C244.983 189.512 242.453 190.018 240.061 191.881V200H236.128V186.453H240.061V188.753C242.085 186.936 244.477 186.223 247.007 186.223ZM260.31 186.223C265.968 186.223 269.188 188.04 269.234 193.169V200H265.278V198.321C262.886 199.494 260.241 200.23 257.044 200.23C253.249 200.23 250.88 199.011 250.88 195.952C250.88 192.433 254.744 191.329 259.045 191.329C261.368 191.329 263.507 191.697 265.278 192.295C265.278 189.719 261.966 189.512 260.126 189.512C258.355 189.512 256.193 189.673 253.41 190.501L252.007 187.626C254.767 186.729 257.481 186.223 260.31 186.223ZM265.278 195.791V194.733C263.898 194.296 262.035 193.905 259.528 193.905C256.584 193.905 254.813 194.411 254.813 195.791C254.813 197.217 256.124 197.332 258.171 197.332C260.31 197.332 263.254 196.665 265.278 195.791ZM283.775 189.742H277.358V193.652C277.358 196.274 277.864 196.941 280.256 196.941C281.498 196.941 282.188 196.941 283.775 196.711V199.885C282.464 200.115 280.969 200.23 279.152 200.23C275.656 200.23 273.402 198.919 273.402 195.929V189.742H269.837V186.453H273.402V183.647L277.358 182.52V186.453H283.775V189.742ZM293.905 197.033C296.619 197.033 298.275 196.527 299.264 195.147H303.174C302.277 198.597 298.919 200.23 293.905 200.23C288.753 200.23 284.751 198.206 284.751 193.238C284.751 188.247 288.638 186.223 294.135 186.223C299.287 186.223 303.404 187.994 303.404 194.158H288.776C289.213 196.32 291.283 197.033 293.905 197.033ZM294.112 189.213C291.421 189.213 289.535 189.742 288.914 191.651H299.195C298.528 189.742 296.596 189.213 294.112 189.213ZM329.37 189.742H322.953V193.652C322.953 196.274 323.459 196.941 325.851 196.941C327.093 196.941 327.783 196.941 329.37 196.711V199.885C328.059 200.115 326.564 200.23 324.747 200.23C321.251 200.23 318.997 198.919 318.997 195.929V189.742H315.432V186.453H318.997V183.647L322.953 182.52V186.453H329.37V189.742ZM342.803 186.223C346.414 186.223 349.795 187.511 349.841 192.502L349.795 200H345.839V193.997C345.839 191.122 344.873 189.627 341.63 189.627C338.985 189.627 336.133 190.984 334.914 192.41V200H330.981V181.6H334.914V188.822C336.846 187.304 339.514 186.223 342.803 186.223ZM360.367 197.033C363.081 197.033 364.737 196.527 365.726 195.147H369.636C368.739 198.597 365.381 200.23 360.367 200.23C355.215 200.23 351.213 198.206 351.213 193.238C351.213 188.247 355.1 186.223 360.597 186.223C365.749 186.223 369.866 187.994 369.866 194.158H355.238C355.675 196.32 357.745 197.033 360.367 197.033ZM360.574 189.213C357.883 189.213 355.997 189.742 355.376 191.651H365.657C364.99 189.742 363.058 189.213 360.574 189.213ZM28.4377 222.457H32.5777C32.5777 224.159 33.9577 224.941 39.2017 224.941C43.5487 224.941 44.8597 224.458 44.8597 223.193C44.8597 221.859 43.9397 221.629 38.7187 221.376C31.7037 221.054 28.9207 219.95 28.9207 216.339C28.9207 212.797 32.5317 211.67 38.5577 211.67C44.6297 211.67 48.3097 213.188 48.3097 217.167H44.1697C44.1697 215.396 42.3987 214.959 38.0977 214.959C34.0267 214.959 33.0607 215.35 33.0607 216.546C33.0607 217.788 34.0267 218.018 38.7187 218.294C45.0667 218.639 48.9997 218.984 48.9997 223.055C48.9997 227.356 44.9287 228.23 38.9717 228.23C32.3707 228.23 28.4377 227.103 28.4377 222.457ZM59.6537 228.23C54.0417 228.23 50.2697 226.206 50.2697 221.238C50.2697 216.247 54.0417 214.223 59.6537 214.223C65.2427 214.223 69.0377 216.247 69.0377 221.238C69.0377 226.206 65.2427 228.23 59.6537 228.23ZM59.6537 224.941C63.2877 224.941 65.0817 224.044 65.0817 221.238C65.0817 218.409 63.2877 217.512 59.6537 217.512C55.9967 217.512 54.2027 218.409 54.2027 221.238C54.2027 224.044 55.9967 224.941 59.6537 224.941ZM70.5349 209.6H74.4679V228H70.5349V209.6ZM85.3951 214.223C91.0531 214.223 94.2731 216.04 94.3191 221.169V228H90.3631V226.321C87.9711 227.494 85.3261 228.23 82.1291 228.23C78.3341 228.23 75.9651 227.011 75.9651 223.952C75.9651 220.433 79.8291 219.329 84.1301 219.329C86.4531 219.329 88.5921 219.697 90.3631 220.295C90.3631 217.719 87.0511 217.512 85.2111 217.512C83.4401 217.512 81.2781 217.673 78.4951 218.501L77.0921 215.626C79.8521 214.729 82.5661 214.223 85.3951 214.223ZM90.3631 223.791V222.733C88.9831 222.296 87.1201 221.905 84.6131 221.905C81.6691 221.905 79.8981 222.411 79.8981 223.791C79.8981 225.217 81.2091 225.332 83.2561 225.332C85.3951 225.332 88.3391 224.665 90.3631 223.791ZM107.895 214.223C111.506 214.223 114.887 215.511 114.933 220.502L114.887 228H110.931V221.997C110.931 219.122 109.965 217.627 106.722 217.627C104.077 217.627 101.225 218.984 100.006 220.41V228H96.073V214.453H100.006V216.822C101.938 215.304 104.606 214.223 107.895 214.223ZM125.735 214.223C131.393 214.223 134.613 216.04 134.659 221.169V228H130.703V226.321C128.311 227.494 125.666 228.23 122.469 228.23C118.674 228.23 116.305 227.011 116.305 223.952C116.305 220.433 120.169 219.329 124.47 219.329C126.793 219.329 128.932 219.697 130.703 220.295C130.703 217.719 127.391 217.512 125.551 217.512C123.78 217.512 121.618 217.673 118.835 218.501L117.432 215.626C120.192 214.729 122.906 214.223 125.735 214.223ZM130.703 223.791V222.733C129.323 222.296 127.46 221.905 124.953 221.905C122.009 221.905 120.238 222.411 120.238 223.791C120.238 225.217 121.549 225.332 123.596 225.332C125.735 225.332 128.679 224.665 130.703 223.791ZM157.844 214.223C162.191 214.223 165.917 216.063 165.917 221.238C165.917 226.413 162.191 228.23 157.844 228.23C154.923 228.23 152.554 227.425 151.082 225.884V228H147.149V209.6H151.082V216.569C152.554 215.028 154.923 214.223 157.844 214.223ZM156.533 224.941C160.052 224.941 161.961 223.906 161.961 221.238C161.961 218.547 160.052 217.512 156.533 217.512C153.014 217.512 151.082 218.547 151.082 221.238C151.082 223.906 153.014 224.941 156.533 224.941ZM167.409 209.6H171.342V228H167.409V209.6ZM182.223 228.23C176.611 228.23 172.839 226.206 172.839 221.238C172.839 216.247 176.611 214.223 182.223 214.223C187.812 214.223 191.607 216.247 191.607 221.238C191.607 226.206 187.812 228.23 182.223 228.23ZM182.223 224.941C185.857 224.941 187.651 224.044 187.651 221.238C187.651 218.409 185.857 217.512 182.223 217.512C178.566 217.512 176.772 218.409 176.772 221.238C176.772 224.044 178.566 224.941 182.223 224.941ZM192.739 221.238C192.739 216.247 196.511 214.223 202.123 214.223C207.183 214.223 210.748 215.879 211.392 219.858H207.367C206.838 218.11 204.975 217.512 202.123 217.512C198.742 217.512 196.672 218.409 196.672 221.238C196.672 224.044 198.742 224.941 202.123 224.941C204.975 224.941 206.838 224.343 207.367 222.595H211.392C210.748 226.574 207.183 228.23 202.123 228.23C196.511 228.23 192.739 226.206 192.739 221.238ZM233.408 214.453L224.622 219.996L233.408 228H227.934L221.448 222.089L216.825 224.872V228H212.892V209.6H216.825V220.548L226.692 214.453H233.408ZM232.024 221.238C232.024 216.247 235.796 214.223 241.408 214.223C246.468 214.223 250.033 215.879 250.677 219.858H246.652C246.123 218.11 244.26 217.512 241.408 217.512C238.027 217.512 235.957 218.409 235.957 221.238C235.957 224.044 238.027 224.941 241.408 224.941C244.26 224.941 246.123 224.343 246.652 222.595H250.677C250.033 226.574 246.468 228.23 241.408 228.23C235.796 228.23 232.024 226.206 232.024 221.238ZM263.999 214.223C267.61 214.223 270.991 215.511 271.037 220.502L270.991 228H267.035V221.997C267.035 219.122 266.069 217.627 262.826 217.627C260.181 217.627 257.329 218.984 256.11 220.41V228H252.177V209.6H256.11V216.822C258.042 215.304 260.71 214.223 263.999 214.223ZM281.838 214.223C287.496 214.223 290.716 216.04 290.762 221.169V228H286.806V226.321C284.414 227.494 281.769 228.23 278.572 228.23C274.777 228.23 272.408 227.011 272.408 223.952C272.408 220.433 276.272 219.329 280.573 219.329C282.896 219.329 285.035 219.697 286.806 220.295C286.806 217.719 283.494 217.512 281.654 217.512C279.883 217.512 277.721 217.673 274.938 218.501L273.535 215.626C276.295 214.729 279.009 214.223 281.838 214.223ZM286.806 223.791V222.733C285.426 222.296 283.563 221.905 281.056 221.905C278.112 221.905 276.341 222.411 276.341 223.791C276.341 225.217 277.652 225.332 279.699 225.332C281.838 225.332 284.782 224.665 286.806 223.791ZM292.606 209.6H296.539V213.027H292.606V209.6ZM292.606 214.453H296.539V228H292.606V214.453ZM310.335 214.223C313.946 214.223 317.327 215.511 317.373 220.502L317.327 228H313.371V221.997C313.371 219.122 312.405 217.627 309.162 217.627C306.517 217.627 303.665 218.984 302.446 220.41V228H298.513V214.453H302.446V216.822C304.378 215.304 307.046 214.223 310.335 214.223ZM340.541 214.223C344.888 214.223 348.614 216.063 348.614 221.238C348.614 226.413 344.888 228.23 340.541 228.23C337.62 228.23 335.251 227.425 333.779 225.884V228H329.846V209.6H333.779V216.569C335.251 215.028 337.62 214.223 340.541 214.223ZM339.23 224.941C342.749 224.941 344.658 223.906 344.658 221.238C344.658 218.547 342.749 217.512 339.23 217.512C335.711 217.512 333.779 218.547 333.779 221.238C333.779 223.906 335.711 224.941 339.23 224.941ZM363.221 214.453H367.568L358.414 233.75H354.067L356.804 228H354.78L347.765 214.453H352.135L357.931 225.631L363.221 214.453ZM84.4441 251.239H88.3771C88.3771 252.688 89.8721 253.24 94.2651 253.24C98.5201 253.24 99.2101 252.964 99.2101 251.906C99.2101 250.871 98.5661 250.802 93.8051 250.503C87.8481 250.158 84.9271 249.698 84.9271 246.432C84.9271 242.89 89.0671 242.223 93.8971 242.223C99.0031 242.223 102.706 242.89 102.706 246.616H98.7501C98.7501 245.489 97.3241 245.213 93.6671 245.213C89.9411 245.213 88.8831 245.489 88.8831 246.271C88.8831 247.122 89.5961 247.26 94.2651 247.605C99.5551 247.996 103.166 248.134 103.166 251.745C103.166 255.563 99.7161 256.23 94.4951 256.23C89.2741 256.23 84.4441 255.563 84.4441 251.239ZM115.472 242.223C119.842 242.223 123.545 244.063 123.545 249.238C123.545 254.413 119.842 256.23 115.472 256.23C112.551 256.23 110.205 255.448 108.733 253.907V261.75H104.777V242.453H108.733V244.546C110.205 243.028 112.551 242.223 115.472 242.223ZM114.161 252.941C117.68 252.941 119.612 251.906 119.612 249.238C119.612 246.547 117.68 245.512 114.161 245.512C110.642 245.512 108.733 246.547 108.733 249.238C108.733 251.906 110.642 252.941 114.161 252.941ZM135.915 242.223C137.525 242.223 138.652 242.453 139.572 242.683V245.972C138.284 245.65 137.249 245.512 136.099 245.512C133.891 245.512 131.361 246.018 128.969 247.881V256H125.036V242.453H128.969V244.753C130.993 242.936 133.385 242.223 135.915 242.223ZM149.099 253.033C151.813 253.033 153.469 252.527 154.458 251.147H158.368C157.471 254.597 154.113 256.23 149.099 256.23C143.947 256.23 139.945 254.206 139.945 249.238C139.945 244.247 143.832 242.223 149.329 242.223C154.481 242.223 158.598 243.994 158.598 250.158H143.97C144.407 252.32 146.477 253.033 149.099 253.033ZM149.306 245.213C146.615 245.213 144.729 245.742 144.108 247.651H154.389C153.722 245.742 151.79 245.213 149.306 245.213ZM168.939 242.223C174.597 242.223 177.817 244.04 177.863 249.169V256H173.907V254.321C171.515 255.494 168.87 256.23 165.673 256.23C161.878 256.23 159.509 255.011 159.509 251.952C159.509 248.433 163.373 247.329 167.674 247.329C169.997 247.329 172.136 247.697 173.907 248.295C173.907 245.719 170.595 245.512 168.755 245.512C166.984 245.512 164.822 245.673 162.039 246.501L160.636 243.626C163.396 242.729 166.11 242.223 168.939 242.223ZM173.907 251.791V250.733C172.527 250.296 170.664 249.905 168.157 249.905C165.213 249.905 163.442 250.411 163.442 251.791C163.442 253.217 164.753 253.332 166.8 253.332C168.939 253.332 171.883 252.665 173.907 251.791ZM194.087 237.6H198.02V256H194.087V253.884C192.615 255.425 190.246 256.23 187.325 256.23C182.978 256.23 179.252 254.413 179.252 249.238C179.252 244.063 182.978 242.223 187.325 242.223C190.246 242.223 192.615 243.028 194.087 244.569V237.6ZM188.636 252.941C192.155 252.941 194.087 251.906 194.087 249.238C194.087 246.547 192.155 245.512 188.636 245.512C185.117 245.512 183.208 246.547 183.208 249.238C183.208 251.906 185.117 252.941 188.636 252.941ZM199.854 237.6H203.787V241.027H199.854V237.6ZM199.854 242.453H203.787V256H199.854V242.453ZM217.583 242.223C221.194 242.223 224.575 243.511 224.621 248.502L224.575 256H220.619V249.997C220.619 247.122 219.653 245.627 216.41 245.627C213.765 245.627 210.913 246.984 209.694 248.41V256H205.761V242.453H209.694V244.822C211.626 243.304 214.294 242.223 217.583 242.223ZM240.917 242.453H244.873V253.838C244.873 259.358 241.17 261.75 236.041 261.75C232.108 261.75 228.865 261.014 227.554 260.669V257.495C229.141 257.794 232.177 258.461 235.167 258.461C239.238 258.461 240.756 256.897 240.917 253.424C239.537 254.942 237.26 255.839 234.063 255.839C229.417 255.839 226.105 253.815 226.105 249.031C226.105 244.247 229.417 242.223 234.063 242.223C237.283 242.223 239.56 243.12 240.917 244.638V242.453ZM235.489 252.55C239.192 252.55 240.917 251.515 240.917 249.031C240.917 246.547 239.192 245.512 235.489 245.512C231.786 245.512 230.038 246.547 230.038 249.031C230.038 251.515 231.786 252.55 235.489 252.55ZM271.062 245.742H264.645V249.652C264.645 252.274 265.151 252.941 267.543 252.941C268.785 252.941 269.475 252.941 271.062 252.711V255.885C269.751 256.115 268.256 256.23 266.439 256.23C262.943 256.23 260.689 254.919 260.689 251.929V245.742H257.124V242.453H260.689V239.647L264.645 238.52V242.453H271.062V245.742ZM284.494 242.223C288.105 242.223 291.486 243.511 291.532 248.502L291.486 256H287.53V249.997C287.53 247.122 286.564 245.627 283.321 245.627C280.676 245.627 277.824 246.984 276.605 248.41V256H272.672V237.6H276.605V244.822C278.537 243.304 281.205 242.223 284.494 242.223ZM302.058 253.033C304.772 253.033 306.428 252.527 307.417 251.147H311.327C310.43 254.597 307.072 256.23 302.058 256.23C296.906 256.23 292.904 254.206 292.904 249.238C292.904 244.247 296.791 242.223 302.288 242.223C307.44 242.223 311.557 243.994 311.557 250.158H296.929C297.366 252.32 299.436 253.033 302.058 253.033ZM302.265 245.213C299.574 245.213 297.688 245.742 297.067 247.651H307.348C306.681 245.742 304.749 245.213 302.265 245.213ZM23.4177 278.457H27.5577C27.5577 280.159 28.9377 280.941 34.1817 280.941C38.5287 280.941 39.8397 280.458 39.8397 279.193C39.8397 277.859 38.9197 277.629 33.6987 277.376C26.6837 277.054 23.9007 275.95 23.9007 272.339C23.9007 268.797 27.5117 267.67 33.5377 267.67C39.6097 267.67 43.2897 269.188 43.2897 273.167H39.1497C39.1497 271.396 37.3787 270.959 33.0777 270.959C29.0067 270.959 28.0407 271.35 28.0407 272.546C28.0407 273.788 29.0067 274.018 33.6987 274.294C40.0467 274.639 43.9797 274.984 43.9797 279.055C43.9797 283.356 39.9087 284.23 33.9517 284.23C27.3507 284.23 23.4177 283.103 23.4177 278.457ZM54.6337 284.23C49.0217 284.23 45.2497 282.206 45.2497 277.238C45.2497 272.247 49.0217 270.223 54.6337 270.223C60.2227 270.223 64.0177 272.247 64.0177 277.238C64.0177 282.206 60.2227 284.23 54.6337 284.23ZM54.6337 280.941C58.2677 280.941 60.0617 280.044 60.0617 277.238C60.0617 274.409 58.2677 273.512 54.6337 273.512C50.9767 273.512 49.1827 274.409 49.1827 277.238C49.1827 280.044 50.9767 280.941 54.6337 280.941ZM65.5149 265.6H69.4479V284H65.5149V265.6ZM81.9823 270.223C86.3293 270.223 90.0553 272.063 90.0553 277.238C90.0553 282.413 86.3293 284.23 81.9823 284.23C79.0613 284.23 76.6923 283.425 75.2203 281.884V284H71.2873V265.6H75.2203V272.569C76.6923 271.028 79.0613 270.223 81.9823 270.223ZM80.6713 280.941C84.1903 280.941 86.0993 279.906 86.0993 277.238C86.0993 274.547 84.1903 273.512 80.6713 273.512C77.1523 273.512 75.2203 274.547 75.2203 277.238C75.2203 279.906 77.1523 280.941 80.6713 280.941ZM91.5471 265.6H95.4801V269.027H91.5471V265.6ZM91.5471 270.453H95.4801V284H91.5471V270.453ZM111.812 265.6H115.745V284H111.812V281.884C110.34 283.425 107.971 284.23 105.05 284.23C100.703 284.23 96.9773 282.413 96.9773 277.238C96.9773 272.063 100.703 270.223 105.05 270.223C107.971 270.223 110.34 271.028 111.812 272.569V265.6ZM106.361 280.941C109.88 280.941 111.812 279.906 111.812 277.238C111.812 274.547 109.88 273.512 106.361 273.512C102.842 273.512 100.933 274.547 100.933 277.238C100.933 279.906 102.842 280.941 106.361 280.941ZM117.579 265.6H121.512V269.027H117.579V265.6ZM117.579 270.453H121.512V284H117.579V270.453ZM132.163 281.033C134.877 281.033 136.533 280.527 137.522 279.147H141.432C140.535 282.597 137.177 284.23 132.163 284.23C127.011 284.23 123.009 282.206 123.009 277.238C123.009 272.247 126.896 270.223 132.393 270.223C137.545 270.223 141.662 271.994 141.662 278.158H127.034C127.471 280.32 129.541 281.033 132.163 281.033ZM132.37 273.213C129.679 273.213 127.793 273.742 127.172 275.651H137.453C136.786 273.742 134.854 273.213 132.37 273.213ZM142.551 279.239H146.484C146.484 280.688 147.979 281.24 152.372 281.24C156.627 281.24 157.317 280.964 157.317 279.906C157.317 278.871 156.673 278.802 151.912 278.503C145.955 278.158 143.034 277.698 143.034 274.432C143.034 270.89 147.174 270.223 152.004 270.223C157.11 270.223 160.813 270.89 160.813 274.616H156.857C156.857 273.489 155.431 273.213 151.774 273.213C148.048 273.213 146.99 273.489 146.99 274.271C146.99 275.122 147.703 275.26 152.372 275.605C157.662 275.996 161.273 276.134 161.273 279.745C161.273 283.563 157.823 284.23 152.602 284.23C147.381 284.23 142.551 283.563 142.551 279.239ZM182.73 270.223C188.388 270.223 191.608 272.04 191.654 277.169V284H187.698V282.321C185.306 283.494 182.661 284.23 179.464 284.23C175.669 284.23 173.3 283.011 173.3 279.952C173.3 276.433 177.164 275.329 181.465 275.329C183.788 275.329 185.927 275.697 187.698 276.295C187.698 273.719 184.386 273.512 182.546 273.512C180.775 273.512 178.613 273.673 175.83 274.501L174.427 271.626C177.187 270.729 179.901 270.223 182.73 270.223ZM187.698 279.791V278.733C186.318 278.296 184.455 277.905 181.948 277.905C179.004 277.905 177.233 278.411 177.233 279.791C177.233 281.217 178.544 281.332 180.591 281.332C182.73 281.332 185.674 280.665 187.698 279.791ZM193.043 277.238C193.043 272.247 196.815 270.223 202.427 270.223C207.487 270.223 211.052 271.879 211.696 275.858H207.671C207.142 274.11 205.279 273.512 202.427 273.512C199.046 273.512 196.976 274.409 196.976 277.238C196.976 280.044 199.046 280.941 202.427 280.941C205.279 280.941 207.142 280.343 207.671 278.595H211.696C211.052 282.574 207.487 284.23 202.427 284.23C196.815 284.23 193.043 282.206 193.043 277.238ZM212.831 277.238C212.831 272.247 216.603 270.223 222.215 270.223C227.275 270.223 230.84 271.879 231.484 275.858H227.459C226.93 274.11 225.067 273.512 222.215 273.512C218.834 273.512 216.764 274.409 216.764 277.238C216.764 280.044 218.834 280.941 222.215 280.941C225.067 280.941 226.93 280.343 227.459 278.595H231.484C230.84 282.574 227.275 284.23 222.215 284.23C216.603 284.23 212.831 282.206 212.831 277.238ZM243.863 270.223C245.473 270.223 246.6 270.453 247.52 270.683V273.972C246.232 273.65 245.197 273.512 244.047 273.512C241.839 273.512 239.309 274.018 236.917 275.881V284H232.984V270.453H236.917V272.753C238.941 270.936 241.333 270.223 243.863 270.223ZM257.276 284.23C251.664 284.23 247.892 282.206 247.892 277.238C247.892 272.247 251.664 270.223 257.276 270.223C262.865 270.223 266.66 272.247 266.66 277.238C266.66 282.206 262.865 284.23 257.276 284.23ZM257.276 280.941C260.91 280.941 262.704 280.044 262.704 277.238C262.704 274.409 260.91 273.512 257.276 273.512C253.619 273.512 251.825 274.409 251.825 277.238C251.825 280.044 253.619 280.941 257.276 280.941ZM267.546 279.239H271.479C271.479 280.688 272.974 281.24 277.367 281.24C281.622 281.24 282.312 280.964 282.312 279.906C282.312 278.871 281.668 278.802 276.907 278.503C270.95 278.158 268.029 277.698 268.029 274.432C268.029 270.89 272.169 270.223 276.999 270.223C282.105 270.223 285.808 270.89 285.808 274.616H281.852C281.852 273.489 280.426 273.213 276.769 273.213C273.043 273.213 271.985 273.489 271.985 274.271C271.985 275.122 272.698 275.26 277.367 275.605C282.657 275.996 286.268 276.134 286.268 279.745C286.268 283.563 282.818 284.23 277.597 284.23C272.376 284.23 267.546 283.563 267.546 279.239ZM287.401 279.239H291.334C291.334 280.688 292.829 281.24 297.222 281.24C301.477 281.24 302.167 280.964 302.167 279.906C302.167 278.871 301.523 278.802 296.762 278.503C290.805 278.158 287.884 277.698 287.884 274.432C287.884 270.89 292.024 270.223 296.854 270.223C301.96 270.223 305.663 270.89 305.663 274.616H301.707C301.707 273.489 300.281 273.213 296.624 273.213C292.898 273.213 291.84 273.489 291.84 274.271C291.84 275.122 292.553 275.26 297.222 275.605C302.512 275.996 306.123 276.134 306.123 279.745C306.123 283.563 302.673 284.23 297.452 284.23C292.231 284.23 287.401 283.563 287.401 279.239ZM332.088 273.742H325.671V277.652C325.671 280.274 326.177 280.941 328.569 280.941C329.811 280.941 330.501 280.941 332.088 280.711V283.885C330.777 284.115 329.282 284.23 327.465 284.23C323.969 284.23 321.715 282.919 321.715 279.929V273.742H318.15V270.453H321.715V267.647L325.671 266.52V270.453H332.088V273.742ZM345.52 270.223C349.131 270.223 352.512 271.511 352.558 276.502L352.512 284H348.556V277.997C348.556 275.122 347.59 273.627 344.347 273.627C341.702 273.627 338.85 274.984 337.631 276.41V284H333.698V265.6H337.631V272.822C339.563 271.304 342.231 270.223 345.52 270.223ZM363.084 281.033C365.798 281.033 367.454 280.527 368.443 279.147H372.353C371.456 282.597 368.098 284.23 363.084 284.23C357.932 284.23 353.93 282.206 353.93 277.238C353.93 272.247 357.817 270.223 363.314 270.223C368.466 270.223 372.583 271.994 372.583 278.158H357.955C358.392 280.32 360.462 281.033 363.084 281.033ZM363.291 273.213C360.6 273.213 358.714 273.742 358.093 275.651H368.374C367.707 273.742 365.775 273.213 363.291 273.213ZM116.789 309.033C119.503 309.033 121.159 308.527 122.148 307.147H126.058C125.161 310.597 121.803 312.23 116.789 312.23C111.637 312.23 107.635 310.206 107.635 305.238C107.635 300.247 111.522 298.223 117.019 298.223C122.171 298.223 126.288 299.994 126.288 306.158H111.66C112.097 308.32 114.167 309.033 116.789 309.033ZM116.996 301.213C114.305 301.213 112.419 301.742 111.798 303.651H122.079C121.412 301.742 119.48 301.213 116.996 301.213ZM127.423 305.238C127.423 300.247 131.195 298.223 136.807 298.223C141.867 298.223 145.432 299.879 146.076 303.858H142.051C141.522 302.11 139.659 301.512 136.807 301.512C133.426 301.512 131.356 302.409 131.356 305.238C131.356 308.044 133.426 308.941 136.807 308.941C139.659 308.941 141.522 308.343 142.051 306.595H146.076C145.432 310.574 141.867 312.23 136.807 312.23C131.195 312.23 127.423 310.206 127.423 305.238ZM156.595 312.23C150.983 312.23 147.211 310.206 147.211 305.238C147.211 300.247 150.983 298.223 156.595 298.223C162.184 298.223 165.979 300.247 165.979 305.238C165.979 310.206 162.184 312.23 156.595 312.23ZM156.595 308.941C160.229 308.941 162.023 308.044 162.023 305.238C162.023 302.409 160.229 301.512 156.595 301.512C152.938 301.512 151.144 302.409 151.144 305.238C151.144 308.044 152.938 308.941 156.595 308.941ZM166.864 307.239H170.797C170.797 308.688 172.292 309.24 176.685 309.24C180.94 309.24 181.63 308.964 181.63 307.906C181.63 306.871 180.986 306.802 176.225 306.503C170.268 306.158 167.347 305.698 167.347 302.432C167.347 298.89 171.487 298.223 176.317 298.223C181.423 298.223 185.126 298.89 185.126 302.616H181.17C181.17 301.489 179.744 301.213 176.087 301.213C172.361 301.213 171.303 301.489 171.303 302.271C171.303 303.122 172.016 303.26 176.685 303.605C181.975 303.996 185.586 304.134 185.586 307.745C185.586 311.563 182.136 312.23 176.915 312.23C171.694 312.23 166.864 311.563 166.864 307.239ZM200.559 298.453H204.906L195.752 317.75H191.405L194.142 312H192.118L185.103 298.453H189.473L195.269 309.631L200.559 298.453ZM204.599 307.239H208.532C208.532 308.688 210.027 309.24 214.42 309.24C218.675 309.24 219.365 308.964 219.365 307.906C219.365 306.871 218.721 306.802 213.96 306.503C208.003 306.158 205.082 305.698 205.082 302.432C205.082 298.89 209.222 298.223 214.052 298.223C219.158 298.223 222.861 298.89 222.861 302.616H218.905C218.905 301.489 217.479 301.213 213.822 301.213C210.096 301.213 209.038 301.489 209.038 302.271C209.038 303.122 209.751 303.26 214.42 303.605C219.71 303.996 223.321 304.134 223.321 307.745C223.321 311.563 219.871 312.23 214.65 312.23C209.429 312.23 204.599 311.563 204.599 307.239ZM237.651 301.742H231.234V305.652C231.234 308.274 231.74 308.941 234.132 308.941C235.374 308.941 236.064 308.941 237.651 308.711V311.885C236.34 312.115 234.845 312.23 233.028 312.23C229.532 312.23 227.278 310.919 227.278 307.929V301.742H223.713V298.453H227.278V295.647L231.234 294.52V298.453H237.651V301.742ZM247.781 309.033C250.495 309.033 252.151 308.527 253.14 307.147H257.05C256.153 310.597 252.795 312.23 247.781 312.23C242.629 312.23 238.627 310.206 238.627 305.238C238.627 300.247 242.514 298.223 248.011 298.223C253.163 298.223 257.28 299.994 257.28 306.158H242.652C243.089 308.32 245.159 309.033 247.781 309.033ZM247.988 301.213C245.297 301.213 243.411 301.742 242.79 303.651H253.071C252.404 301.742 250.472 301.213 247.988 301.213ZM282.286 298.223C285.322 298.223 288.082 299.511 288.128 304.41L288.082 312H284.149V305.997C284.149 303.122 283.666 301.627 280.86 301.627C278.79 301.627 276.766 302.616 275.57 303.697C275.593 303.927 275.593 304.157 275.593 304.41L275.547 312H271.614V305.997C271.614 303.122 271.131 301.627 268.325 301.627C266.048 301.627 263.84 302.8 262.713 304.019V312H258.78V298.453H262.713V300.661C264.185 299.488 266.393 298.223 269.751 298.223C271.798 298.223 273.73 298.821 274.765 300.707C276.513 299.396 278.928 298.223 282.286 298.223Z" fill="white"/>
</g>
</svg>
