<svg width="174" height="158" viewBox="0 0 174 158" fill="none" xmlns="http://www.w3.org/2000/svg">
<mask id="mask0_154_781" style="mask-type:alpha" maskUnits="userSpaceOnUse" x="0" y="0" width="174" height="158">
<rect x="0.0546875" y="0.111328" width="173" height="157" rx="30" fill="black"/>
</mask>
<g mask="url(#mask0_154_781)">
<rect x="0.554688" y="0.611328" width="172" height="156" rx="29.5" fill="black" stroke="white"/>
<path d="M40.1883 39.5113V43.4713H34.7883V52.1113H30.1083V43.4713H24.7083V39.5113H40.1883ZM54.0462 43.1113H45.4062V44.2813H54.0462V47.3413H45.4062V48.5113H54.0462V52.1113H40.7262V39.5113H54.0462V43.1113ZM59.2578 48.1513H67.5378V52.1113H54.5778V39.5113H59.2578V48.1513ZM81.3978 43.1113H72.7578V44.2813H81.3978V47.3413H72.7578V48.5113H81.3978V52.1113H68.0778V39.5113H81.3978V43.1113ZM89.3633 47.7733V45.2533H97.5353V52.1113H94.8353L94.4933 50.2933C93.4313 51.5353 91.7753 52.2913 89.1293 52.2913C84.4853 52.2913 81.7493 50.1853 81.7493 45.7933C81.7493 41.4193 84.4853 39.3313 89.6693 39.3313C94.7093 39.3313 97.3373 41.0953 97.5353 44.5333H92.7473C92.5673 43.8853 91.6493 43.2913 89.6693 43.2913C86.8973 43.2913 86.4293 44.4613 86.4293 45.9733C86.4293 47.5033 86.9153 48.8713 89.6693 48.8713C91.4693 48.8713 92.5673 48.6193 92.7473 47.7733H89.3633ZM112.808 44.3353C112.808 46.1713 111.962 47.6833 110.576 48.4933L112.808 52.1113H107.264L105.518 49.1593H102.764V52.1113H98.0836V39.5113H107.984C110.846 39.5113 112.808 41.5273 112.808 44.3353ZM102.764 43.4713V45.1993H107.084C107.552 45.1993 108.128 45.1993 108.128 44.3353C108.128 43.4713 107.552 43.4713 107.084 43.4713H102.764ZM125.401 52.1113L124.537 49.8433H119.173L118.309 52.1113H113.161L118.381 39.5113H125.329L130.549 52.1113H125.401ZM120.397 46.6033H123.313L121.855 42.7513L120.397 46.6033ZM150.216 39.5113V52.1113H145.536V46.1173L142.098 52.1113H139.038L135.6 46.1173V52.1113H130.92V39.5113H136.68L140.568 46.7113L144.456 39.5113H150.216Z" fill="white"/>
<mask id="path-4-outside-1_154_781" maskUnits="userSpaceOnUse" x="23.0547" y="68.1113" width="129" height="16" fill="black">
<rect fill="white" x="23.0547" y="68.1113" width="129" height="16"/>
<path d="M40.1883 69.5113V73.4713H34.7883V82.1113H30.1083V73.4713H24.7083V69.5113H40.1883ZM54.0462 73.1113H45.4062V74.2813H54.0462V77.3413H45.4062V78.5113H54.0462V82.1113H40.7262V69.5113H54.0462V73.1113ZM59.2578 78.1513H67.5378V82.1113H54.5778V69.5113H59.2578V78.1513ZM81.3978 73.1113H72.7578V74.2813H81.3978V77.3413H72.7578V78.5113H81.3978V82.1113H68.0778V69.5113H81.3978V73.1113ZM89.3633 77.7733V75.2533H97.5353V82.1113H94.8353L94.4933 80.2933C93.4313 81.5353 91.7753 82.2913 89.1293 82.2913C84.4853 82.2913 81.7493 80.1853 81.7493 75.7933C81.7493 71.4193 84.4853 69.3313 89.6693 69.3313C94.7093 69.3313 97.3373 71.0953 97.5353 74.5333H92.7473C92.5673 73.8853 91.6493 73.2913 89.6693 73.2913C86.8973 73.2913 86.4293 74.4613 86.4293 75.9733C86.4293 77.5033 86.9153 78.8713 89.6693 78.8713C91.4693 78.8713 92.5673 78.6193 92.7473 77.7733H89.3633ZM112.808 74.3353C112.808 76.1713 111.962 77.6833 110.576 78.4933L112.808 82.1113H107.264L105.518 79.1593H102.764V82.1113H98.0836V69.5113H107.984C110.846 69.5113 112.808 71.5273 112.808 74.3353ZM102.764 73.4713V75.1993H107.084C107.552 75.1993 108.128 75.1993 108.128 74.3353C108.128 73.4713 107.552 73.4713 107.084 73.4713H102.764ZM125.401 82.1113L124.537 79.8433H119.173L118.309 82.1113H113.161L118.381 69.5113H125.329L130.549 82.1113H125.401ZM120.397 76.6033H123.313L121.855 72.7513L120.397 76.6033ZM150.216 69.5113V82.1113H145.536V76.1173L142.098 82.1113H139.038L135.6 76.1173V82.1113H130.92V69.5113H136.68L140.568 76.7113L144.456 69.5113H150.216Z"/>
</mask>
<path d="M40.1883 69.5113H41.1883V68.5113H40.1883V69.5113ZM40.1883 73.4713V74.4713H41.1883V73.4713H40.1883ZM34.7883 73.4713V72.4713H33.7883V73.4713H34.7883ZM34.7883 82.1113V83.1113H35.7883V82.1113H34.7883ZM30.1083 82.1113H29.1083V83.1113H30.1083V82.1113ZM30.1083 73.4713H31.1083V72.4713H30.1083V73.4713ZM24.7083 73.4713H23.7083V74.4713H24.7083V73.4713ZM24.7083 69.5113V68.5113H23.7083V69.5113H24.7083ZM39.1883 69.5113V73.4713H41.1883V69.5113H39.1883ZM40.1883 72.4713H34.7883V74.4713H40.1883V72.4713ZM33.7883 73.4713V82.1113H35.7883V73.4713H33.7883ZM34.7883 81.1113H30.1083V83.1113H34.7883V81.1113ZM31.1083 82.1113V73.4713H29.1083V82.1113H31.1083ZM30.1083 72.4713H24.7083V74.4713H30.1083V72.4713ZM25.7083 73.4713V69.5113H23.7083V73.4713H25.7083ZM24.7083 70.5113H40.1883V68.5113H24.7083V70.5113ZM54.0462 73.1113V74.1113H55.0462V73.1113H54.0462ZM45.4062 73.1113V72.1113H44.4062V73.1113H45.4062ZM45.4062 74.2813H44.4062V75.2813H45.4062V74.2813ZM54.0462 74.2813H55.0462V73.2813H54.0462V74.2813ZM54.0462 77.3413V78.3413H55.0462V77.3413H54.0462ZM45.4062 77.3413V76.3413H44.4062V77.3413H45.4062ZM45.4062 78.5113H44.4062V79.5113H45.4062V78.5113ZM54.0462 78.5113H55.0462V77.5113H54.0462V78.5113ZM54.0462 82.1113V83.1113H55.0462V82.1113H54.0462ZM40.7262 82.1113H39.7262V83.1113H40.7262V82.1113ZM40.7262 69.5113V68.5113H39.7262V69.5113H40.7262ZM54.0462 69.5113H55.0462V68.5113H54.0462V69.5113ZM54.0462 72.1113H45.4062V74.1113H54.0462V72.1113ZM44.4062 73.1113V74.2813H46.4062V73.1113H44.4062ZM45.4062 75.2813H54.0462V73.2813H45.4062V75.2813ZM53.0462 74.2813V77.3413H55.0462V74.2813H53.0462ZM54.0462 76.3413H45.4062V78.3413H54.0462V76.3413ZM44.4062 77.3413V78.5113H46.4062V77.3413H44.4062ZM45.4062 79.5113H54.0462V77.5113H45.4062V79.5113ZM53.0462 78.5113V82.1113H55.0462V78.5113H53.0462ZM54.0462 81.1113H40.7262V83.1113H54.0462V81.1113ZM41.7262 82.1113V69.5113H39.7262V82.1113H41.7262ZM40.7262 70.5113H54.0462V68.5113H40.7262V70.5113ZM53.0462 69.5113V73.1113H55.0462V69.5113H53.0462ZM59.2578 78.1513H58.2578V79.1513H59.2578V78.1513ZM67.5378 78.1513H68.5378V77.1513H67.5378V78.1513ZM67.5378 82.1113V83.1113H68.5378V82.1113H67.5378ZM54.5778 82.1113H53.5778V83.1113H54.5778V82.1113ZM54.5778 69.5113V68.5113H53.5778V69.5113H54.5778ZM59.2578 69.5113H60.2578V68.5113H59.2578V69.5113ZM59.2578 79.1513H67.5378V77.1513H59.2578V79.1513ZM66.5378 78.1513V82.1113H68.5378V78.1513H66.5378ZM67.5378 81.1113H54.5778V83.1113H67.5378V81.1113ZM55.5778 82.1113V69.5113H53.5778V82.1113H55.5778ZM54.5778 70.5113H59.2578V68.5113H54.5778V70.5113ZM58.2578 69.5113V78.1513H60.2578V69.5113H58.2578ZM81.3978 73.1113V74.1113H82.3978V73.1113H81.3978ZM72.7578 73.1113V72.1113H71.7578V73.1113H72.7578ZM72.7578 74.2813H71.7578V75.2813H72.7578V74.2813ZM81.3978 74.2813H82.3978V73.2813H81.3978V74.2813ZM81.3978 77.3413V78.3413H82.3978V77.3413H81.3978ZM72.7578 77.3413V76.3413H71.7578V77.3413H72.7578ZM72.7578 78.5113H71.7578V79.5113H72.7578V78.5113ZM81.3978 78.5113H82.3978V77.5113H81.3978V78.5113ZM81.3978 82.1113V83.1113H82.3978V82.1113H81.3978ZM68.0778 82.1113H67.0778V83.1113H68.0778V82.1113ZM68.0778 69.5113V68.5113H67.0778V69.5113H68.0778ZM81.3978 69.5113H82.3978V68.5113H81.3978V69.5113ZM81.3978 72.1113H72.7578V74.1113H81.3978V72.1113ZM71.7578 73.1113V74.2813H73.7578V73.1113H71.7578ZM72.7578 75.2813H81.3978V73.2813H72.7578V75.2813ZM80.3978 74.2813V77.3413H82.3978V74.2813H80.3978ZM81.3978 76.3413H72.7578V78.3413H81.3978V76.3413ZM71.7578 77.3413V78.5113H73.7578V77.3413H71.7578ZM72.7578 79.5113H81.3978V77.5113H72.7578V79.5113ZM80.3978 78.5113V82.1113H82.3978V78.5113H80.3978ZM81.3978 81.1113H68.0778V83.1113H81.3978V81.1113ZM69.0778 82.1113V69.5113H67.0778V82.1113H69.0778ZM68.0778 70.5113H81.3978V68.5113H68.0778V70.5113ZM80.3978 69.5113V73.1113H82.3978V69.5113H80.3978ZM89.3633 77.7733H88.3633V78.7733H89.3633V77.7733ZM89.3633 75.2533V74.2533H88.3633V75.2533H89.3633ZM97.5353 75.2533H98.5353V74.2533H97.5353V75.2533ZM97.5353 82.1113V83.1113H98.5353V82.1113H97.5353ZM94.8353 82.1113L93.8526 82.2962L94.0059 83.1113H94.8353V82.1113ZM94.4933 80.2933L95.4761 80.1085L95.0901 78.0567L93.7333 79.6434L94.4933 80.2933ZM97.5353 74.5333V75.5333H98.5946L98.5337 74.4758L97.5353 74.5333ZM92.7473 74.5333L91.7838 74.801L91.9873 75.5333H92.7473V74.5333ZM92.7473 77.7733L93.7254 77.9814L93.9825 76.7733H92.7473V77.7733ZM90.3633 77.7733V75.2533H88.3633V77.7733H90.3633ZM89.3633 76.2533H97.5353V74.2533H89.3633V76.2533ZM96.5353 75.2533V82.1113H98.5353V75.2533H96.5353ZM97.5353 81.1113H94.8353V83.1113H97.5353V81.1113ZM95.8181 81.9265L95.4761 80.1085L93.5106 80.4782L93.8526 82.2962L95.8181 81.9265ZM93.7333 79.6434C92.913 80.6028 91.5732 81.2913 89.1293 81.2913V83.2913C91.9775 83.2913 93.9497 82.4678 95.2534 80.9432L93.7333 79.6434ZM89.1293 81.2913C86.9396 81.2913 85.3628 80.7927 84.3457 79.9276C83.3568 79.0865 82.7493 77.7723 82.7493 75.7933H80.7493C80.7493 78.2064 81.5099 80.1412 83.05 81.4511C84.5619 82.737 86.6751 83.2913 89.1293 83.2913V81.2913ZM82.7493 75.7933C82.7493 73.8271 83.3533 72.5348 84.3912 71.702C85.4708 70.8358 87.1855 70.3313 89.6693 70.3313V68.3313C86.9691 68.3313 84.7239 68.8709 83.1395 70.1421C81.5134 71.4469 80.7493 73.3855 80.7493 75.7933H82.7493ZM89.6693 70.3313C92.0983 70.3313 93.7874 70.7609 94.865 71.4762C95.8867 72.1544 96.4541 73.1511 96.537 74.5908L98.5337 74.4758C98.4186 72.4775 97.5729 70.8732 95.9711 69.8099C94.4253 68.7838 92.2804 68.3313 89.6693 68.3313V70.3313ZM97.5353 73.5333H92.7473V75.5333H97.5353V73.5333ZM93.7109 74.2657C93.5185 73.5733 92.976 73.0709 92.3008 72.7607C91.6273 72.4512 90.747 72.2913 89.6693 72.2913V74.2913C90.5717 74.2913 91.1404 74.4285 91.4658 74.578C91.7896 74.7268 91.7961 74.8453 91.7838 74.801L93.7109 74.2657ZM89.6693 72.2913C88.1803 72.2913 87.033 72.5994 86.2894 73.3718C85.5457 74.1444 85.4293 75.1546 85.4293 75.9733H87.4293C87.4293 75.2801 87.547 74.9492 87.7303 74.7588C87.9137 74.5683 88.3863 74.2913 89.6693 74.2913V72.2913ZM85.4293 75.9733C85.4293 76.8074 85.5531 77.8406 86.2634 78.6539C86.9958 79.4925 88.1455 79.8713 89.6693 79.8713V77.8713C88.4391 77.8713 87.9688 77.5662 87.7698 77.3382C87.5486 77.085 87.4293 76.6693 87.4293 75.9733H85.4293ZM89.6693 79.8713C90.5884 79.8713 91.4446 79.8105 92.1234 79.5911C92.831 79.3624 93.5324 78.8887 93.7254 77.9814L91.7692 77.5652C91.7687 77.5677 91.7753 77.5578 91.7698 77.5629C91.751 77.58 91.6818 77.6319 91.5082 77.6881C91.1431 77.8061 90.5503 77.8713 89.6693 77.8713V79.8713ZM92.7473 76.7733H89.3633V78.7733H92.7473V76.7733ZM110.576 78.4933L110.071 77.63L109.187 78.1467L109.725 79.0184L110.576 78.4933ZM112.808 82.1113V83.1113H114.6L113.659 81.5863L112.808 82.1113ZM107.264 82.1113L106.403 82.6204L106.693 83.1113H107.264V82.1113ZM105.518 79.1593L106.378 78.6502L106.088 78.1593H105.518V79.1593ZM102.764 79.1593V78.1593H101.764V79.1593H102.764ZM102.764 82.1113V83.1113H103.764V82.1113H102.764ZM98.0836 82.1113H97.0836V83.1113H98.0836V82.1113ZM98.0836 69.5113V68.5113H97.0836V69.5113H98.0836ZM102.764 73.4713V72.4713H101.764V73.4713H102.764ZM102.764 75.1993H101.764V76.1993H102.764V75.1993ZM111.808 74.3353C111.808 75.853 111.12 77.0172 110.071 77.63L111.08 79.3567C112.804 78.3494 113.808 76.4897 113.808 74.3353H111.808ZM109.725 79.0184L111.957 82.6364L113.659 81.5863L111.427 77.9683L109.725 79.0184ZM112.808 81.1113H107.264V83.1113H112.808V81.1113ZM108.124 81.6022L106.378 78.6502L104.657 79.6684L106.403 82.6204L108.124 81.6022ZM105.518 78.1593H102.764V80.1593H105.518V78.1593ZM101.764 79.1593V82.1113H103.764V79.1593H101.764ZM102.764 81.1113H98.0836V83.1113H102.764V81.1113ZM99.0836 82.1113V69.5113H97.0836V82.1113H99.0836ZM98.0836 70.5113H107.984V68.5113H98.0836V70.5113ZM107.984 70.5113C109.173 70.5113 110.115 70.9256 110.759 71.5746C111.404 72.2248 111.808 73.1695 111.808 74.3353H113.808C113.808 72.6932 113.23 71.2258 112.179 70.166C111.126 69.105 109.657 68.5113 107.984 68.5113V70.5113ZM101.764 73.4713V75.1993H103.764V73.4713H101.764ZM102.764 76.1993H107.084V74.1993H102.764V76.1993ZM107.084 76.1993C107.251 76.1993 107.787 76.2218 108.252 75.9737C108.524 75.8286 108.763 75.6017 108.923 75.2853C109.075 74.9847 109.128 74.6566 109.128 74.3353H107.128C107.128 74.446 107.108 74.442 107.138 74.3843C107.153 74.3539 107.177 74.3179 107.212 74.2831C107.246 74.2486 107.281 74.2245 107.311 74.209C107.338 74.1941 107.357 74.1888 107.36 74.1879C107.363 74.1872 107.355 74.1895 107.332 74.1921C107.309 74.1947 107.278 74.1968 107.235 74.198C107.191 74.1993 107.144 74.1993 107.084 74.1993V76.1993ZM109.128 74.3353C109.128 74.014 109.075 73.686 108.923 73.3853C108.763 73.069 108.524 72.8421 108.252 72.697C107.787 72.4489 107.251 72.4713 107.084 72.4713V74.4713C107.144 74.4713 107.191 74.4714 107.235 74.4726C107.278 74.4738 107.309 74.4759 107.332 74.4785C107.355 74.4811 107.363 74.4834 107.36 74.4827C107.357 74.4819 107.338 74.4766 107.311 74.4617C107.281 74.4461 107.246 74.4221 107.212 74.3876C107.177 74.3528 107.153 74.3167 107.138 74.2863C107.108 74.2287 107.128 74.2246 107.128 74.3353H109.128ZM107.084 72.4713H102.764V74.4713H107.084V72.4713ZM125.401 82.1113L124.467 82.4673L124.712 83.1113H125.401V82.1113ZM124.537 79.8433L125.472 79.4873L125.227 78.8433H124.537V79.8433ZM119.173 79.8433V78.8433H118.484L118.239 79.4873L119.173 79.8433ZM118.309 82.1113V83.1113H118.999L119.244 82.4673L118.309 82.1113ZM113.161 82.1113L112.238 81.7286L111.665 83.1113H113.161V82.1113ZM118.381 69.5113V68.5113H117.713L117.458 69.1286L118.381 69.5113ZM125.329 69.5113L126.253 69.1286L125.998 68.5113H125.329V69.5113ZM130.549 82.1113V83.1113H132.046L131.473 81.7286L130.549 82.1113ZM120.397 76.6033L119.462 76.2493L118.95 77.6033H120.397V76.6033ZM123.313 76.6033V77.6033H124.761L124.249 76.2493L123.313 76.6033ZM121.855 72.7513L122.791 72.3973L121.855 69.9264L120.92 72.3973L121.855 72.7513ZM126.336 81.7553L125.472 79.4873L123.603 80.1993L124.467 82.4673L126.336 81.7553ZM124.537 78.8433H119.173V80.8433H124.537V78.8433ZM118.239 79.4873L117.375 81.7553L119.244 82.4673L120.108 80.1993L118.239 79.4873ZM118.309 81.1113H113.161V83.1113H118.309V81.1113ZM114.085 82.4941L119.305 69.8941L117.458 69.1286L112.238 81.7286L114.085 82.4941ZM118.381 70.5113H125.329V68.5113H118.381V70.5113ZM124.406 69.8941L129.626 82.4941L131.473 81.7286L126.253 69.1286L124.406 69.8941ZM130.549 81.1113H125.401V83.1113H130.549V81.1113ZM120.397 77.6033H123.313V75.6033H120.397V77.6033ZM124.249 76.2493L122.791 72.3973L120.92 73.1053L122.378 76.9573L124.249 76.2493ZM120.92 72.3973L119.462 76.2493L121.333 76.9573L122.791 73.1053L120.92 72.3973ZM150.216 69.5113H151.216V68.5113H150.216V69.5113ZM150.216 82.1113V83.1113H151.216V82.1113H150.216ZM145.536 82.1113H144.536V83.1113H145.536V82.1113ZM145.536 76.1173H146.536V72.364L144.668 75.6198L145.536 76.1173ZM142.098 82.1113V83.1113H142.677L142.965 82.6089L142.098 82.1113ZM139.038 82.1113L138.17 82.6089L138.458 83.1113H139.038V82.1113ZM135.6 76.1173L136.467 75.6198L134.6 72.364V76.1173H135.6ZM135.6 82.1113V83.1113H136.6V82.1113H135.6ZM130.92 82.1113H129.92V83.1113H130.92V82.1113ZM130.92 69.5113V68.5113H129.92V69.5113H130.92ZM136.68 69.5113L137.559 69.0362L137.276 68.5113H136.68V69.5113ZM140.568 76.7113L139.688 77.1865L140.568 78.8159L141.447 77.1865L140.568 76.7113ZM144.456 69.5113V68.5113H143.859L143.576 69.0362L144.456 69.5113ZM149.216 69.5113V82.1113H151.216V69.5113H149.216ZM150.216 81.1113H145.536V83.1113H150.216V81.1113ZM146.536 82.1113V76.1173H144.536V82.1113H146.536ZM144.668 75.6198L141.23 81.6138L142.965 82.6089L146.403 76.6149L144.668 75.6198ZM142.098 81.1113H139.038V83.1113H142.098V81.1113ZM139.905 81.6138L136.467 75.6198L134.732 76.6149L138.17 82.6089L139.905 81.6138ZM134.6 76.1173V82.1113H136.6V76.1173H134.6ZM135.6 81.1113H130.92V83.1113H135.6V81.1113ZM131.92 82.1113V69.5113H129.92V82.1113H131.92ZM130.92 70.5113H136.68V68.5113H130.92V70.5113ZM135.8 69.9865L139.688 77.1865L141.447 76.2362L137.559 69.0362L135.8 69.9865ZM141.447 77.1865L145.335 69.9865L143.576 69.0362L139.688 76.2362L141.447 77.1865ZM144.456 70.5113H150.216V68.5113H144.456V70.5113Z" fill="white" mask="url(#path-4-outside-1_154_781)"/>
<path d="M40.1883 99.5113V103.471H34.7883V112.111H30.1083V103.471H24.7083V99.5113H40.1883ZM54.0462 103.111H45.4062V104.281H54.0462V107.341H45.4062V108.511H54.0462V112.111H40.7262V99.5113H54.0462V103.111ZM59.2578 108.151H67.5378V112.111H54.5778V99.5113H59.2578V108.151ZM81.3978 103.111H72.7578V104.281H81.3978V107.341H72.7578V108.511H81.3978V112.111H68.0778V99.5113H81.3978V103.111ZM89.3633 107.773V105.253H97.5353V112.111H94.8353L94.4933 110.293C93.4313 111.535 91.7753 112.291 89.1293 112.291C84.4853 112.291 81.7493 110.185 81.7493 105.793C81.7493 101.419 84.4853 99.3313 89.6693 99.3313C94.7093 99.3313 97.3373 101.095 97.5353 104.533H92.7473C92.5673 103.885 91.6493 103.291 89.6693 103.291C86.8973 103.291 86.4293 104.461 86.4293 105.973C86.4293 107.503 86.9153 108.871 89.6693 108.871C91.4693 108.871 92.5673 108.619 92.7473 107.773H89.3633ZM112.808 104.335C112.808 106.171 111.962 107.683 110.576 108.493L112.808 112.111H107.264L105.518 109.159H102.764V112.111H98.0836V99.5113H107.984C110.846 99.5113 112.808 101.527 112.808 104.335ZM102.764 103.471V105.199H107.084C107.552 105.199 108.128 105.199 108.128 104.335C108.128 103.471 107.552 103.471 107.084 103.471H102.764ZM125.401 112.111L124.537 109.843H119.173L118.309 112.111H113.161L118.381 99.5113H125.329L130.549 112.111H125.401ZM120.397 106.603H123.313L121.855 102.751L120.397 106.603ZM150.216 99.5113V112.111H145.536V106.117L142.098 112.111H139.038L135.6 106.117V112.111H130.92V99.5113H136.68L140.568 106.711L144.456 99.5113H150.216Z" fill="white"/>
<path d="M40.1883 129.511V133.471H34.7883V142.111H30.1083V133.471H24.7083V129.511H40.1883ZM54.0462 133.111H45.4062V134.281H54.0462V137.341H45.4062V138.511H54.0462V142.111H40.7262V129.511H54.0462V133.111ZM59.2578 138.151H67.5378V142.111H54.5778V129.511H59.2578V138.151ZM81.3978 133.111H72.7578V134.281H81.3978V137.341H72.7578V138.511H81.3978V142.111H68.0778V129.511H81.3978V133.111ZM89.3633 137.773V135.253H97.5353V142.111H94.8353L94.4933 140.293C93.4313 141.535 91.7753 142.291 89.1293 142.291C84.4853 142.291 81.7493 140.185 81.7493 135.793C81.7493 131.419 84.4853 129.331 89.6693 129.331C94.7093 129.331 97.3373 131.095 97.5353 134.533H92.7473C92.5673 133.885 91.6493 133.291 89.6693 133.291C86.8973 133.291 86.4293 134.461 86.4293 135.973C86.4293 137.503 86.9153 138.871 89.6693 138.871C91.4693 138.871 92.5673 138.619 92.7473 137.773H89.3633ZM112.808 134.335C112.808 136.171 111.962 137.683 110.576 138.493L112.808 142.111H107.264L105.518 139.159H102.764V142.111H98.0836V129.511H107.984C110.846 129.511 112.808 131.527 112.808 134.335ZM102.764 133.471V135.199H107.084C107.552 135.199 108.128 135.199 108.128 134.335C108.128 133.471 107.552 133.471 107.084 133.471H102.764ZM125.401 142.111L124.537 139.843H119.173L118.309 142.111H113.161L118.381 129.511H125.329L130.549 142.111H125.401ZM120.397 136.603H123.313L121.855 132.751L120.397 136.603ZM150.216 129.511V142.111H145.536V136.117L142.098 142.111H139.038L135.6 136.117V142.111H130.92V129.511H136.68L140.568 136.711L144.456 129.511H150.216Z" fill="white" fill-opacity="0.27"/>
<path d="M40.1883 9.51133V13.4713H34.7883V22.1113H30.1083V13.4713H24.7083V9.51133H40.1883ZM54.0462 13.1113H45.4062V14.2813H54.0462V17.3413H45.4062V18.5113H54.0462V22.1113H40.7262V9.51133H54.0462V13.1113ZM59.2578 18.1513H67.5378V22.1113H54.5778V9.51133H59.2578V18.1513ZM81.3978 13.1113H72.7578V14.2813H81.3978V17.3413H72.7578V18.5113H81.3978V22.1113H68.0778V9.51133H81.3978V13.1113ZM89.3633 17.7733V15.2533H97.5353V22.1113H94.8353L94.4933 20.2933C93.4313 21.5353 91.7753 22.2913 89.1293 22.2913C84.4853 22.2913 81.7493 20.1853 81.7493 15.7933C81.7493 11.4193 84.4853 9.33133 89.6693 9.33133C94.7093 9.33133 97.3373 11.0953 97.5353 14.5333H92.7473C92.5673 13.8853 91.6493 13.2913 89.6693 13.2913C86.8973 13.2913 86.4293 14.4613 86.4293 15.9733C86.4293 17.5033 86.9153 18.8713 89.6693 18.8713C91.4693 18.8713 92.5673 18.6193 92.7473 17.7733H89.3633ZM112.808 14.3353C112.808 16.1713 111.962 17.6833 110.576 18.4933L112.808 22.1113H107.264L105.518 19.1593H102.764V22.1113H98.0836V9.51133H107.984C110.846 9.51133 112.808 11.5273 112.808 14.3353ZM102.764 13.4713V15.1993H107.084C107.552 15.1993 108.128 15.1993 108.128 14.3353C108.128 13.4713 107.552 13.4713 107.084 13.4713L102.764 13.4713ZM125.401 22.1113L124.537 19.8433L119.173 19.8433L118.309 22.1113H113.161L118.381 9.51133H125.329L130.549 22.1113H125.401ZM120.397 16.6033H123.313L121.855 12.7513L120.397 16.6033ZM150.216 9.51133V22.1113H145.536V16.1173L142.098 22.1113H139.038L135.6 16.1173V22.1113H130.92V9.51133H136.68L140.568 16.7113L144.456 9.51133H150.216Z" fill="white" fill-opacity="0.27"/>
</g>
</svg>
