<svg width="1196" height="387" viewBox="0 0 1196 387" fill="none" xmlns="http://www.w3.org/2000/svg">
<path d="M76.4602 142.184C95.3996 147.672 104.862 141.057 104.862 127.435C104.862 112.756 98.2405 101.442 59.8882 94.006C17.748 85.9572 0 70.5189 0 46.9014C0 18.9606 26.981 -0.540494 73.1381 0.0114232C127.597 0.685989 146.528 40.4854 149.132 78.3454C132.011 77.9391 114.881 77.4332 97.7594 76.8123C95.8654 66.0805 88.9999 56.56 71.2442 54.6436C55.1534 52.8728 44.9734 58.6297 44.9734 69.0701C44.9658 84.5391 60.8352 89.4834 95.3996 95.8458C139.189 103.918 149.843 124.959 149.843 153.958C149.843 191.933 124.038 217.383 78.5909 199.484C23.1931 177.691 2.59653 138.382 0.229106 103.465C16.1596 105.021 32.0977 106.761 48.0434 108.563C49.4715 123.311 55.8636 136.289 76.4602 142.184ZM322.191 146.89C322.184 244.335 280.998 278.868 239.56 262.67C198.131 246.45 156.937 190.04 156.937 114.488C156.945 39.9564 198.131 1.62885 239.56 2.20376C280.99 2.77101 322.191 51.4624 322.191 146.89ZM276.026 137.945C276.026 99.2646 259.218 76.8276 239.56 74.6429C219.918 72.4659 203.11 89.0465 203.11 123.61C203.094 158.412 219.918 181.983 239.56 187.564C259.218 193.144 276.019 176.916 276.026 137.945ZM463.099 344.883C420.103 328.379 377.1 311.845 334.089 295.295C334.089 197.345 334.082 101.48 334.082 7.5313C349.867 7.80726 365.653 8.07555 381.438 8.34384C381.438 77.7168 381.438 148.523 381.438 220.671C408.663 227.923 435.889 235.067 463.106 242.058C463.106 276.292 463.099 310.611 463.099 344.883ZM574.238 172.999C574.238 178.373 574.238 183.8 574.238 189.288C597.675 189.932 622.526 213.534 622.533 288.473C622.533 339.617 611.17 390.616 573.994 386.798C542.11 375.032 510.233 362.92 478.357 350.732C478.357 233.158 478.357 118.551 478.357 9.76196C509.363 10.1069 540.376 10.3675 571.389 10.5209C607.619 10.5668 618.982 50.9105 618.982 91.9593C618.982 153.306 592.467 173.52 574.238 172.999ZM525.706 172.662C535.802 173.773 545.905 174.77 556.009 175.644C568.319 176.472 573.994 165.993 574.001 144.169C573.994 122.667 568.319 112.196 556.009 111.744C545.905 111.284 535.802 110.748 525.706 110.127C525.706 130.716 525.706 151.566 525.706 172.662ZM525.706 256.952C536.672 259.221 547.646 261.283 558.613 263.115C572.107 264.932 577.552 249.371 577.552 225.523C577.552 202.082 572.1 186.445 558.605 185.532C547.639 184.544 536.672 183.386 525.706 182.083C525.706 206.735 525.706 231.709 525.706 256.952ZM677.557 10.2142C677.557 122.246 677.549 242.096 677.549 366.331C662.398 372.088 647.254 377.807 632.102 383.433C632.102 249.762 632.102 124.952 632.102 10.4979C647.254 10.4212 662.405 10.3215 677.557 10.2142ZM756.438 336.114C734.093 344.692 711.762 353.246 689.432 361.786C689.432 239.613 689.44 121.272 689.44 10.0992C711.762 9.83862 734.093 9.56266 756.438 9.26371C803.069 8.52782 840.482 53.7467 840.482 153.391C840.482 255.404 803.069 318.215 756.438 336.114ZM734.421 248.321C742.226 246.266 750.038 244.197 757.858 242.112C779.631 236.255 794.294 208.276 794.301 161.999C794.294 116.305 779.639 94.5426 757.858 96.6506C750.038 97.3865 742.226 98.1071 734.421 98.8047C734.421 147.726 734.421 197.629 734.421 248.321ZM897.659 6.91039C897.659 96.9419 897.659 188.307 897.659 281.781C882.5 287.622 867.356 293.455 852.204 299.289C852.197 200.028 852.197 102.821 852.204 7.71527C867.356 7.43165 882.5 7.16335 897.659 6.91039ZM1034.3 4.42676C1034.3 25.7139 1034.3 46.7788 1034.3 67.6596C1008.5 70.5879 982.687 73.5314 956.882 76.4903C956.89 92.4039 956.89 108.341 956.882 124.308C981.901 119.632 1006.92 114.941 1031.93 110.249C1031.94 112.173 1031.94 114.105 1031.94 116.029C1006.92 120.981 981.901 125.925 956.89 130.847C956.89 149.06 956.89 167.365 956.89 185.793C982.695 178.511 1008.5 171.205 1034.3 163.877C1034.3 185.21 1034.3 206.888 1034.3 228.988C992.715 245.086 951.124 261.168 909.542 277.212C909.534 185.226 909.534 95.3858 909.542 6.69576C951.124 5.92154 992.715 5.17032 1034.3 4.42676ZM1122.6 141.479C1141.55 136.082 1151.01 125.159 1151.02 113.132C1151.02 100.146 1144.39 92.5343 1106.03 99.9698C1063.89 108.18 1046.14 95.7078 1046.13 64.7467C1046.14 27.7376 1073.13 0.63233 1119.3 0.0574163C1173.74 -0.594153 1192.69 29.332 1195.29 57.6331C1178.16 61.9105 1161.04 66.0729 1143.92 70.2353C1142.02 60.9063 1135.16 53.5781 1117.4 55.5175C1101.3 57.2499 1091.12 66.1265 1091.12 77.9314C1091.12 95.4242 1106.98 94.7956 1141.54 88.4409C1185.35 80.4304 1196 93.0555 1196 115.002C1196 143.203 1170.2 178.971 1124.74 196.877C1069.34 218.678 1048.75 184.13 1046.38 138.895C1062.32 132.832 1078.25 126.899 1094.19 121.119C1095.62 136.841 1102.01 147.458 1122.6 141.479Z" fill="#00FFA3"/>
</svg>
