<svg width="174" height="158" viewBox="0 0 174 158" fill="none" xmlns="http://www.w3.org/2000/svg">
<rect x="1.16992" y="1.4043" width="172" height="156" rx="29.5" stroke="white"/>
<mask id="mask0_154_797" style="mask-type:alpha" maskUnits="userSpaceOnUse" x="2" y="2" width="170" height="154">
<rect x="2.66992" y="2.9043" width="169" height="153" rx="30" fill="black"/>
</mask>
<g mask="url(#mask0_154_797)">
<rect x="3.16992" y="3.4043" width="168" height="152" rx="29.5" fill="white" stroke="black"/>
<path d="M49.4784 40.3043V44.2643H44.0784V52.9043H39.3984V44.2643H33.9984V40.3043H49.4784ZM71.1303 40.3043H76.1523L72.0123 52.9043H65.0643L62.9943 45.6503L60.9243 52.9043H53.9763L49.8363 40.3043H54.8583L57.4683 49.1963L60.2043 40.3043H65.7843L68.5203 49.1963L71.1303 40.3043ZM81.3798 40.3043V52.9043H76.6998V40.3043H81.3798ZM97.3963 40.3043V44.2643H91.9963V52.9043H87.3163V44.2643H81.9163V40.3043H97.3963ZM113.234 40.3043V44.2643H107.834V52.9043H103.154V44.2643H97.7542V40.3043H113.234ZM127.092 43.9043H118.452V45.0743H127.092V48.1343H118.452V49.3043H127.092V52.9043H113.772V40.3043H127.092V43.9043ZM142.348 45.1283C142.348 46.9643 141.502 48.4763 140.116 49.2863L142.348 52.9043H136.804L135.058 49.9523H132.304V52.9043H127.624V40.3043H137.524C140.386 40.3043 142.348 42.3203 142.348 45.1283ZM132.304 44.2643V45.9923H136.624C137.092 45.9923 137.668 45.9923 137.668 45.1283C137.668 44.2643 137.092 44.2643 136.624 44.2643H132.304Z" fill="black"/>
<mask id="path-5-outside-1_154_797" maskUnits="userSpaceOnUse" x="32.6699" y="68.9043" width="112" height="15" fill="black">
<rect fill="white" x="32.6699" y="68.9043" width="112" height="15"/>
<path d="M49.4784 70.3043V74.2643H44.0784V82.9043H39.3984V74.2643H33.9984V70.3043H49.4784ZM71.1303 70.3043H76.1523L72.0123 82.9043H65.0643L62.9943 75.6503L60.9243 82.9043H53.9763L49.8363 70.3043H54.8583L57.4683 79.1963L60.2043 70.3043H65.7843L68.5203 79.1963L71.1303 70.3043ZM81.3798 70.3043V82.9043H76.6998V70.3043H81.3798ZM97.3963 70.3043V74.2643H91.9963V82.9043H87.3163V74.2643H81.9163V70.3043H97.3963ZM113.234 70.3043V74.2643H107.834V82.9043H103.154V74.2643H97.7542V70.3043H113.234ZM127.092 73.9043H118.452V75.0743H127.092V78.1343H118.452V79.3043H127.092V82.9043H113.772V70.3043H127.092V73.9043ZM142.348 75.1283C142.348 76.9643 141.502 78.4763 140.116 79.2863L142.348 82.9043H136.804L135.058 79.9523H132.304V82.9043H127.624V70.3043H137.524C140.386 70.3043 142.348 72.3203 142.348 75.1283ZM132.304 74.2643V75.9923H136.624C137.092 75.9923 137.668 75.9923 137.668 75.1283C137.668 74.2643 137.092 74.2643 136.624 74.2643H132.304Z"/>
</mask>
<path d="M49.4784 70.3043H50.4784V69.3043H49.4784V70.3043ZM49.4784 74.2643V75.2643H50.4784V74.2643H49.4784ZM44.0784 74.2643V73.2643H43.0784V74.2643H44.0784ZM44.0784 82.9043V83.9043H45.0784V82.9043H44.0784ZM39.3984 82.9043H38.3984V83.9043H39.3984V82.9043ZM39.3984 74.2643H40.3984V73.2643H39.3984V74.2643ZM33.9984 74.2643H32.9984V75.2643H33.9984V74.2643ZM33.9984 70.3043V69.3043H32.9984V70.3043H33.9984ZM48.4784 70.3043V74.2643H50.4784V70.3043H48.4784ZM49.4784 73.2643H44.0784V75.2643H49.4784V73.2643ZM43.0784 74.2643V82.9043H45.0784V74.2643H43.0784ZM44.0784 81.9043H39.3984V83.9043H44.0784V81.9043ZM40.3984 82.9043V74.2643H38.3984V82.9043H40.3984ZM39.3984 73.2643H33.9984V75.2643H39.3984V73.2643ZM34.9984 74.2643V70.3043H32.9984V74.2643H34.9984ZM33.9984 71.3043H49.4784V69.3043H33.9984V71.3043ZM71.1303 70.3043V69.3043H70.3816L70.1707 70.0227L71.1303 70.3043ZM76.1523 70.3043L77.1023 70.6164L77.5334 69.3043H76.1523V70.3043ZM72.0123 82.9043V83.9043H72.7363L72.9623 83.2165L72.0123 82.9043ZM65.0643 82.9043L64.1026 83.1787L64.3097 83.9043H65.0643V82.9043ZM62.9943 75.6503L63.9559 75.3759L62.9943 72.0061L62.0326 75.3759L62.9943 75.6503ZM60.9243 82.9043V83.9043H61.6788L61.8859 83.1787L60.9243 82.9043ZM53.9763 82.9043L53.0262 83.2165L53.2522 83.9043H53.9763V82.9043ZM49.8363 70.3043V69.3043H48.4551L48.8862 70.6164L49.8363 70.3043ZM54.8583 70.3043L55.8178 70.0227L55.6069 69.3043H54.8583V70.3043ZM57.4683 79.1963L56.5087 79.4779L57.4457 82.67L58.424 79.4904L57.4683 79.1963ZM60.2043 70.3043V69.3043H59.4657L59.2485 70.0102L60.2043 70.3043ZM65.7843 70.3043L66.74 70.0102L66.5228 69.3043H65.7843V70.3043ZM68.5203 79.1963L67.5645 79.4904L68.5428 82.67L69.4798 79.4779L68.5203 79.1963ZM71.1303 71.3043H76.1523V69.3043H71.1303V71.3043ZM75.2022 69.9921L71.0622 82.5921L72.9623 83.2165L77.1023 70.6164L75.2022 69.9921ZM72.0123 81.9043H65.0643V83.9043H72.0123V81.9043ZM66.0259 82.6299L63.9559 75.3759L62.0326 75.9247L64.1026 83.1787L66.0259 82.6299ZM62.0326 75.3759L59.9626 82.6299L61.8859 83.1787L63.9559 75.9247L62.0326 75.3759ZM60.9243 81.9043H53.9763V83.9043H60.9243V81.9043ZM54.9263 82.5921L50.7863 69.9921L48.8862 70.6164L53.0262 83.2165L54.9263 82.5921ZM49.8363 71.3043H54.8583V69.3043H49.8363V71.3043ZM53.8987 70.5859L56.5087 79.4779L58.4278 78.9147L55.8178 70.0227L53.8987 70.5859ZM58.424 79.4904L61.16 70.5984L59.2485 70.0102L56.5125 78.9022L58.424 79.4904ZM60.2043 71.3043H65.7843V69.3043H60.2043V71.3043ZM64.8285 70.5984L67.5645 79.4904L69.476 78.9022L66.74 70.0102L64.8285 70.5984ZM69.4798 79.4779L72.0898 70.5859L70.1707 70.0227L67.5607 78.9147L69.4798 79.4779ZM81.3798 70.3043H82.3798V69.3043H81.3798V70.3043ZM81.3798 82.9043V83.9043H82.3798V82.9043H81.3798ZM76.6998 82.9043H75.6998V83.9043H76.6998V82.9043ZM76.6998 70.3043V69.3043H75.6998V70.3043H76.6998ZM80.3798 70.3043V82.9043H82.3798V70.3043H80.3798ZM81.3798 81.9043H76.6998V83.9043H81.3798V81.9043ZM77.6998 82.9043V70.3043H75.6998V82.9043H77.6998ZM76.6998 71.3043H81.3798V69.3043H76.6998V71.3043ZM97.3963 70.3043H98.3963V69.3043H97.3963V70.3043ZM97.3963 74.2643V75.2643H98.3963V74.2643H97.3963ZM91.9963 74.2643V73.2643H90.9963V74.2643H91.9963ZM91.9963 82.9043V83.9043H92.9963V82.9043H91.9963ZM87.3163 82.9043H86.3163V83.9043H87.3163V82.9043ZM87.3163 74.2643H88.3163V73.2643H87.3163V74.2643ZM81.9163 74.2643H80.9163V75.2643H81.9163V74.2643ZM81.9163 70.3043V69.3043H80.9163V70.3043H81.9163ZM96.3963 70.3043V74.2643H98.3963V70.3043H96.3963ZM97.3963 73.2643H91.9963V75.2643H97.3963V73.2643ZM90.9963 74.2643V82.9043H92.9963V74.2643H90.9963ZM91.9963 81.9043H87.3163V83.9043H91.9963V81.9043ZM88.3163 82.9043V74.2643H86.3163V82.9043H88.3163ZM87.3163 73.2643H81.9163V75.2643H87.3163V73.2643ZM82.9163 74.2643V70.3043H80.9163V74.2643H82.9163ZM81.9163 71.3043H97.3963V69.3043H81.9163V71.3043ZM113.234 70.3043H114.234V69.3043H113.234V70.3043ZM113.234 74.2643V75.2643H114.234V74.2643H113.234ZM107.834 74.2643V73.2643H106.834V74.2643H107.834ZM107.834 82.9043V83.9043H108.834V82.9043H107.834ZM103.154 82.9043H102.154V83.9043H103.154V82.9043ZM103.154 74.2643H104.154V73.2643H103.154V74.2643ZM97.7542 74.2643H96.7542V75.2643H97.7542V74.2643ZM97.7542 70.3043V69.3043H96.7542V70.3043H97.7542ZM112.234 70.3043V74.2643H114.234V70.3043H112.234ZM113.234 73.2643H107.834V75.2643H113.234V73.2643ZM106.834 74.2643V82.9043H108.834V74.2643H106.834ZM107.834 81.9043H103.154V83.9043H107.834V81.9043ZM104.154 82.9043V74.2643H102.154V82.9043H104.154ZM103.154 73.2643H97.7542V75.2643H103.154V73.2643ZM98.7542 74.2643V70.3043H96.7542V74.2643H98.7542ZM97.7542 71.3043H113.234V69.3043H97.7542V71.3043ZM127.092 73.9043V74.9043H128.092V73.9043H127.092ZM118.452 73.9043V72.9043H117.452V73.9043H118.452ZM118.452 75.0743H117.452V76.0743H118.452V75.0743ZM127.092 75.0743H128.092V74.0743H127.092V75.0743ZM127.092 78.1343V79.1343H128.092V78.1343H127.092ZM118.452 78.1343V77.1343H117.452V78.1343H118.452ZM118.452 79.3043H117.452V80.3043H118.452V79.3043ZM127.092 79.3043H128.092V78.3043H127.092V79.3043ZM127.092 82.9043V83.9043H128.092V82.9043H127.092ZM113.772 82.9043H112.772V83.9043H113.772V82.9043ZM113.772 70.3043V69.3043H112.772V70.3043H113.772ZM127.092 70.3043H128.092V69.3043H127.092V70.3043ZM127.092 72.9043H118.452V74.9043H127.092V72.9043ZM117.452 73.9043V75.0743H119.452V73.9043H117.452ZM118.452 76.0743H127.092V74.0743H118.452V76.0743ZM126.092 75.0743V78.1343H128.092V75.0743H126.092ZM127.092 77.1343H118.452V79.1343H127.092V77.1343ZM117.452 78.1343V79.3043H119.452V78.1343H117.452ZM118.452 80.3043H127.092V78.3043H118.452V80.3043ZM126.092 79.3043V82.9043H128.092V79.3043H126.092ZM127.092 81.9043H113.772V83.9043H127.092V81.9043ZM114.772 82.9043V70.3043H112.772V82.9043H114.772ZM113.772 71.3043H127.092V69.3043H113.772V71.3043ZM126.092 70.3043V73.9043H128.092V70.3043H126.092ZM140.116 79.2863L139.611 78.4229L138.727 78.9397L139.265 79.8113L140.116 79.2863ZM142.348 82.9043V83.9043H144.14L143.199 82.3793L142.348 82.9043ZM136.804 82.9043L135.943 83.4134L136.233 83.9043H136.804V82.9043ZM135.058 79.9523L135.918 79.4432L135.628 78.9523H135.058V79.9523ZM132.304 79.9523V78.9523H131.304V79.9523H132.304ZM132.304 82.9043V83.9043H133.304V82.9043H132.304ZM127.624 82.9043H126.624V83.9043H127.624V82.9043ZM127.624 70.3043V69.3043H126.624V70.3043H127.624ZM132.304 74.2643V73.2643H131.304V74.2643H132.304ZM132.304 75.9923H131.304V76.9923H132.304V75.9923ZM141.348 75.1283C141.348 76.646 140.66 77.8102 139.611 78.4229L140.62 80.1497C142.344 79.1424 143.348 77.2826 143.348 75.1283H141.348ZM139.265 79.8113L141.497 83.4293L143.199 82.3793L140.967 78.7613L139.265 79.8113ZM142.348 81.9043H136.804V83.9043H142.348V81.9043ZM137.664 82.3952L135.918 79.4432L134.197 80.4614L135.943 83.4134L137.664 82.3952ZM135.058 78.9523H132.304V80.9523H135.058V78.9523ZM131.304 79.9523V82.9043H133.304V79.9523H131.304ZM132.304 81.9043H127.624V83.9043H132.304V81.9043ZM128.624 82.9043V70.3043H126.624V82.9043H128.624ZM127.624 71.3043H137.524V69.3043H127.624V71.3043ZM137.524 71.3043C138.713 71.3043 139.655 71.7186 140.299 72.3676C140.944 73.0178 141.348 73.9624 141.348 75.1283H143.348C143.348 73.4862 142.77 72.0188 141.719 70.959C140.666 69.898 139.197 69.3043 137.524 69.3043V71.3043ZM131.304 74.2643V75.9923H133.304V74.2643H131.304ZM132.304 76.9923H136.624V74.9923H132.304V76.9923ZM136.624 76.9923C136.791 76.9923 137.327 77.0147 137.792 76.7666C138.064 76.6215 138.303 76.3947 138.463 76.0783C138.615 75.7776 138.668 75.4496 138.668 75.1283H136.668C136.668 75.239 136.648 75.235 136.678 75.1773C136.693 75.1469 136.717 75.1109 136.752 75.076C136.786 75.0416 136.821 75.0175 136.851 75.0019C136.878 74.9871 136.897 74.9817 136.901 74.9809C136.903 74.9802 136.895 74.9825 136.872 74.9851C136.849 74.9877 136.818 74.9898 136.775 74.991C136.731 74.9922 136.684 74.9923 136.624 74.9923V76.9923ZM138.668 75.1283C138.668 74.807 138.615 74.479 138.463 74.1783C138.303 73.8619 138.064 73.6351 137.792 73.4899C137.327 73.2418 136.791 73.2643 136.624 73.2643V75.2643C136.684 75.2643 136.731 75.2644 136.775 75.2656C136.818 75.2668 136.849 75.2689 136.872 75.2715C136.895 75.2741 136.903 75.2764 136.901 75.2757C136.897 75.2749 136.878 75.2695 136.851 75.2546C136.821 75.2391 136.786 75.215 136.752 75.1806C136.717 75.1457 136.693 75.1097 136.678 75.0793C136.648 75.0216 136.668 75.0176 136.668 75.1283H138.668ZM136.624 73.2643H132.304V75.2643H136.624V73.2643Z" fill="black" mask="url(#path-5-outside-1_154_797)"/>
<path d="M49.4784 100.304V104.264H44.0784V112.904H39.3984V104.264H33.9984V100.304H49.4784ZM71.1303 100.304H76.1523L72.0123 112.904H65.0643L62.9943 105.65L60.9243 112.904H53.9763L49.8363 100.304H54.8583L57.4683 109.196L60.2043 100.304H65.7843L68.5203 109.196L71.1303 100.304ZM81.3798 100.304V112.904H76.6998V100.304H81.3798ZM97.3963 100.304V104.264H91.9963V112.904H87.3163V104.264H81.9163V100.304H97.3963ZM113.234 100.304V104.264H107.834V112.904H103.154V104.264H97.7542V100.304H113.234ZM127.092 103.904H118.452V105.074H127.092V108.134H118.452V109.304H127.092V112.904H113.772V100.304H127.092V103.904ZM142.348 105.128C142.348 106.964 141.502 108.476 140.116 109.286L142.348 112.904H136.804L135.058 109.952H132.304V112.904H127.624V100.304H137.524C140.386 100.304 142.348 102.32 142.348 105.128ZM132.304 104.264V105.992H136.624C137.092 105.992 137.668 105.992 137.668 105.128C137.668 104.264 137.092 104.264 136.624 104.264H132.304Z" fill="black"/>
<path d="M49.4784 130.304V134.264H44.0784V142.904H39.3984V134.264H33.9984V130.304H49.4784ZM71.1303 130.304H76.1523L72.0123 142.904H65.0643L62.9943 135.65L60.9243 142.904H53.9763L49.8363 130.304H54.8583L57.4683 139.196L60.2043 130.304H65.7843L68.5203 139.196L71.1303 130.304ZM81.3798 130.304V142.904H76.6998V130.304H81.3798ZM97.3963 130.304V134.264H91.9963V142.904H87.3163V134.264H81.9163V130.304H97.3963ZM113.234 130.304V134.264H107.834V142.904H103.154V134.264H97.7542V130.304H113.234ZM127.092 133.904H118.452V135.074H127.092V138.134H118.452V139.304H127.092V142.904H113.772V130.304H127.092V133.904ZM142.348 135.128C142.348 136.964 141.502 138.476 140.116 139.286L142.348 142.904H136.804L135.058 139.952H132.304V142.904H127.624V130.304H137.524C140.386 130.304 142.348 132.32 142.348 135.128ZM132.304 134.264V135.992H136.624C137.092 135.992 137.668 135.992 137.668 135.128C137.668 134.264 137.092 134.264 136.624 134.264H132.304Z" fill="black" fill-opacity="0.27"/>
<path d="M49.4784 10.3043V14.2643H44.0784V22.9043H39.3984V14.2643H33.9984V10.3043H49.4784ZM71.1303 10.3043L76.1523 10.3043L72.0123 22.9043H65.0643L62.9943 15.6503L60.9243 22.9043H53.9763L49.8363 10.3043H54.8583L57.4683 19.1963L60.2043 10.3043H65.7843L68.5203 19.1963L71.1303 10.3043ZM81.3798 10.3043V22.9043H76.6998V10.3043H81.3798ZM97.3963 10.3043V14.2643H91.9963V22.9043H87.3163V14.2643H81.9163V10.3043H97.3963ZM113.234 10.3043V14.2643H107.834V22.9043H103.154V14.2643H97.7542V10.3043H113.234ZM127.092 13.9043H118.452V15.0743H127.092V18.1343H118.452V19.3043H127.092V22.9043H113.772V10.3043L127.092 10.3043V13.9043ZM142.348 15.1283C142.348 16.9643 141.502 18.4763 140.116 19.2863L142.348 22.9043H136.804L135.058 19.9523H132.304V22.9043L127.624 22.9043V10.3043H137.524C140.386 10.3043 142.348 12.3203 142.348 15.1283ZM132.304 14.2643V15.9923H136.624C137.092 15.9923 137.668 15.9923 137.668 15.1283C137.668 14.2643 137.092 14.2643 136.624 14.2643H132.304Z" fill="black" fill-opacity="0.27"/>
</g>
</svg>
